<?xml version="1.0" encoding="utf-8" standalone="no"?>
<!DOCTYPE svg PUBLIC "-//W3C//DTD SVG 1.1//EN"
  "http://www.w3.org/Graphics/SVG/1.1/DTD/svg11.dtd">
<svg xmlns:xlink="http://www.w3.org/1999/xlink" width="720pt" height="360pt" viewBox="0 0 720 360" xmlns="http://www.w3.org/2000/svg" version="1.1">
 <metadata>
  <rdf:RDF xmlns:dc="http://purl.org/dc/elements/1.1/" xmlns:cc="http://creativecommons.org/ns#" xmlns:rdf="http://www.w3.org/1999/02/22-rdf-syntax-ns#">
   <cc:Work>
    <dc:type rdf:resource="http://purl.org/dc/dcmitype/StillImage"/>
    <dc:date>2023-11-21T22:11:06.149197</dc:date>
    <dc:format>image/svg+xml</dc:format>
    <dc:creator>
     <cc:Agent>
      <dc:title>Matplotlib v3.5.3, https://matplotlib.org/</dc:title>
     </cc:Agent>
    </dc:creator>
   </cc:Work>
  </rdf:RDF>
 </metadata>
 <defs>
  <style type="text/css">*{stroke-linejoin: round; stroke-linecap: butt}</style>
 </defs>
 <g id="figure_1">
  <g id="patch_1">
   <path d="M 0 360 
L 720 360 
L 720 0 
L 0 0 
z
" style="fill: #ffffff"/>
  </g>
  <g id="axes_1">
   <g id="patch_2">
    <path d="M 90 320.4 
L 343.636364 320.4 
L 343.636364 43.2 
L 90 43.2 
z
" style="fill: #ffffff"/>
   </g>
   <g id="matplotlib.axis_1">
    <g id="xtick_1">
     <g id="line2d_1">
      <defs>
       <path id="m518597f308" d="M 0 0 
L 0 3.5 
" style="stroke: #000000; stroke-width: 0.8"/>
      </defs>
      <g>
       <use xlink:href="#m518597f308" x="101.528926" y="320.4" style="stroke: #000000; stroke-width: 0.8"/>
      </g>
     </g>
     <g id="text_1">
      <!-- 0 -->
      <g transform="translate(98.347676 334.998438)scale(0.1 -0.1)">
       <defs>
        <path id="DejaVuSans-30" d="M 2034 4250 
Q 1547 4250 1301 3770 
Q 1056 3291 1056 2328 
Q 1056 1369 1301 889 
Q 1547 409 2034 409 
Q 2525 409 2770 889 
Q 3016 1369 3016 2328 
Q 3016 3291 2770 3770 
Q 2525 4250 2034 4250 
z
M 2034 4750 
Q 2819 4750 3233 4129 
Q 3647 3509 3647 2328 
Q 3647 1150 3233 529 
Q 2819 -91 2034 -91 
Q 1250 -91 836 529 
Q 422 1150 422 2328 
Q 422 3509 836 4129 
Q 1250 4750 2034 4750 
z
" transform="scale(0.015625)"/>
       </defs>
       <use xlink:href="#DejaVuSans-30"/>
      </g>
     </g>
    </g>
    <g id="xtick_2">
     <g id="line2d_2">
      <g>
       <use xlink:href="#m518597f308" x="147.829832" y="320.4" style="stroke: #000000; stroke-width: 0.8"/>
      </g>
     </g>
     <g id="text_2">
      <!-- 50 -->
      <g transform="translate(141.467332 334.998438)scale(0.1 -0.1)">
       <defs>
        <path id="DejaVuSans-35" d="M 691 4666 
L 3169 4666 
L 3169 4134 
L 1269 4134 
L 1269 2991 
Q 1406 3038 1543 3061 
Q 1681 3084 1819 3084 
Q 2600 3084 3056 2656 
Q 3513 2228 3513 1497 
Q 3513 744 3044 326 
Q 2575 -91 1722 -91 
Q 1428 -91 1123 -41 
Q 819 9 494 109 
L 494 744 
Q 775 591 1075 516 
Q 1375 441 1709 441 
Q 2250 441 2565 725 
Q 2881 1009 2881 1497 
Q 2881 1984 2565 2268 
Q 2250 2553 1709 2553 
Q 1456 2553 1204 2497 
Q 953 2441 691 2322 
L 691 4666 
z
" transform="scale(0.015625)"/>
       </defs>
       <use xlink:href="#DejaVuSans-35"/>
       <use xlink:href="#DejaVuSans-30" x="63.623047"/>
      </g>
     </g>
    </g>
    <g id="xtick_3">
     <g id="line2d_3">
      <g>
       <use xlink:href="#m518597f308" x="194.130738" y="320.4" style="stroke: #000000; stroke-width: 0.8"/>
      </g>
     </g>
     <g id="text_3">
      <!-- 100 -->
      <g transform="translate(184.586988 334.998438)scale(0.1 -0.1)">
       <defs>
        <path id="DejaVuSans-31" d="M 794 531 
L 1825 531 
L 1825 4091 
L 703 3866 
L 703 4441 
L 1819 4666 
L 2450 4666 
L 2450 531 
L 3481 531 
L 3481 0 
L 794 0 
L 794 531 
z
" transform="scale(0.015625)"/>
       </defs>
       <use xlink:href="#DejaVuSans-31"/>
       <use xlink:href="#DejaVuSans-30" x="63.623047"/>
       <use xlink:href="#DejaVuSans-30" x="127.246094"/>
      </g>
     </g>
    </g>
    <g id="xtick_4">
     <g id="line2d_4">
      <g>
       <use xlink:href="#m518597f308" x="240.431644" y="320.4" style="stroke: #000000; stroke-width: 0.8"/>
      </g>
     </g>
     <g id="text_4">
      <!-- 150 -->
      <g transform="translate(230.887894 334.998438)scale(0.1 -0.1)">
       <use xlink:href="#DejaVuSans-31"/>
       <use xlink:href="#DejaVuSans-35" x="63.623047"/>
       <use xlink:href="#DejaVuSans-30" x="127.246094"/>
      </g>
     </g>
    </g>
    <g id="xtick_5">
     <g id="line2d_5">
      <g>
       <use xlink:href="#m518597f308" x="286.73255" y="320.4" style="stroke: #000000; stroke-width: 0.8"/>
      </g>
     </g>
     <g id="text_5">
      <!-- 200 -->
      <g transform="translate(277.1888 334.998438)scale(0.1 -0.1)">
       <defs>
        <path id="DejaVuSans-32" d="M 1228 531 
L 3431 531 
L 3431 0 
L 469 0 
L 469 531 
Q 828 903 1448 1529 
Q 2069 2156 2228 2338 
Q 2531 2678 2651 2914 
Q 2772 3150 2772 3378 
Q 2772 3750 2511 3984 
Q 2250 4219 1831 4219 
Q 1534 4219 1204 4116 
Q 875 4013 500 3803 
L 500 4441 
Q 881 4594 1212 4672 
Q 1544 4750 1819 4750 
Q 2544 4750 2975 4387 
Q 3406 4025 3406 3419 
Q 3406 3131 3298 2873 
Q 3191 2616 2906 2266 
Q 2828 2175 2409 1742 
Q 1991 1309 1228 531 
z
" transform="scale(0.015625)"/>
       </defs>
       <use xlink:href="#DejaVuSans-32"/>
       <use xlink:href="#DejaVuSans-30" x="63.623047"/>
       <use xlink:href="#DejaVuSans-30" x="127.246094"/>
      </g>
     </g>
    </g>
    <g id="xtick_6">
     <g id="line2d_6">
      <g>
       <use xlink:href="#m518597f308" x="333.033456" y="320.4" style="stroke: #000000; stroke-width: 0.8"/>
      </g>
     </g>
     <g id="text_6">
      <!-- 250 -->
      <g transform="translate(323.489706 334.998438)scale(0.1 -0.1)">
       <use xlink:href="#DejaVuSans-32"/>
       <use xlink:href="#DejaVuSans-35" x="63.623047"/>
       <use xlink:href="#DejaVuSans-30" x="127.246094"/>
      </g>
     </g>
    </g>
    <g id="text_7">
     <!-- iteration -->
     <g transform="translate(195.695526 348.676562)scale(0.1 -0.1)">
      <defs>
       <path id="DejaVuSans-69" d="M 603 3500 
L 1178 3500 
L 1178 0 
L 603 0 
L 603 3500 
z
M 603 4863 
L 1178 4863 
L 1178 4134 
L 603 4134 
L 603 4863 
z
" transform="scale(0.015625)"/>
       <path id="DejaVuSans-74" d="M 1172 4494 
L 1172 3500 
L 2356 3500 
L 2356 3053 
L 1172 3053 
L 1172 1153 
Q 1172 725 1289 603 
Q 1406 481 1766 481 
L 2356 481 
L 2356 0 
L 1766 0 
Q 1100 0 847 248 
Q 594 497 594 1153 
L 594 3053 
L 172 3053 
L 172 3500 
L 594 3500 
L 594 4494 
L 1172 4494 
z
" transform="scale(0.015625)"/>
       <path id="DejaVuSans-65" d="M 3597 1894 
L 3597 1613 
L 953 1613 
Q 991 1019 1311 708 
Q 1631 397 2203 397 
Q 2534 397 2845 478 
Q 3156 559 3463 722 
L 3463 178 
Q 3153 47 2828 -22 
Q 2503 -91 2169 -91 
Q 1331 -91 842 396 
Q 353 884 353 1716 
Q 353 2575 817 3079 
Q 1281 3584 2069 3584 
Q 2775 3584 3186 3129 
Q 3597 2675 3597 1894 
z
M 3022 2063 
Q 3016 2534 2758 2815 
Q 2500 3097 2075 3097 
Q 1594 3097 1305 2825 
Q 1016 2553 972 2059 
L 3022 2063 
z
" transform="scale(0.015625)"/>
       <path id="DejaVuSans-72" d="M 2631 2963 
Q 2534 3019 2420 3045 
Q 2306 3072 2169 3072 
Q 1681 3072 1420 2755 
Q 1159 2438 1159 1844 
L 1159 0 
L 581 0 
L 581 3500 
L 1159 3500 
L 1159 2956 
Q 1341 3275 1631 3429 
Q 1922 3584 2338 3584 
Q 2397 3584 2469 3576 
Q 2541 3569 2628 3553 
L 2631 2963 
z
" transform="scale(0.015625)"/>
       <path id="DejaVuSans-61" d="M 2194 1759 
Q 1497 1759 1228 1600 
Q 959 1441 959 1056 
Q 959 750 1161 570 
Q 1363 391 1709 391 
Q 2188 391 2477 730 
Q 2766 1069 2766 1631 
L 2766 1759 
L 2194 1759 
z
M 3341 1997 
L 3341 0 
L 2766 0 
L 2766 531 
Q 2569 213 2275 61 
Q 1981 -91 1556 -91 
Q 1019 -91 701 211 
Q 384 513 384 1019 
Q 384 1609 779 1909 
Q 1175 2209 1959 2209 
L 2766 2209 
L 2766 2266 
Q 2766 2663 2505 2880 
Q 2244 3097 1772 3097 
Q 1472 3097 1187 3025 
Q 903 2953 641 2809 
L 641 3341 
Q 956 3463 1253 3523 
Q 1550 3584 1831 3584 
Q 2591 3584 2966 3190 
Q 3341 2797 3341 1997 
z
" transform="scale(0.015625)"/>
       <path id="DejaVuSans-6f" d="M 1959 3097 
Q 1497 3097 1228 2736 
Q 959 2375 959 1747 
Q 959 1119 1226 758 
Q 1494 397 1959 397 
Q 2419 397 2687 759 
Q 2956 1122 2956 1747 
Q 2956 2369 2687 2733 
Q 2419 3097 1959 3097 
z
M 1959 3584 
Q 2709 3584 3137 3096 
Q 3566 2609 3566 1747 
Q 3566 888 3137 398 
Q 2709 -91 1959 -91 
Q 1206 -91 779 398 
Q 353 888 353 1747 
Q 353 2609 779 3096 
Q 1206 3584 1959 3584 
z
" transform="scale(0.015625)"/>
       <path id="DejaVuSans-6e" d="M 3513 2113 
L 3513 0 
L 2938 0 
L 2938 2094 
Q 2938 2591 2744 2837 
Q 2550 3084 2163 3084 
Q 1697 3084 1428 2787 
Q 1159 2491 1159 1978 
L 1159 0 
L 581 0 
L 581 3500 
L 1159 3500 
L 1159 2956 
Q 1366 3272 1645 3428 
Q 1925 3584 2291 3584 
Q 2894 3584 3203 3211 
Q 3513 2838 3513 2113 
z
" transform="scale(0.015625)"/>
      </defs>
      <use xlink:href="#DejaVuSans-69"/>
      <use xlink:href="#DejaVuSans-74" x="27.783203"/>
      <use xlink:href="#DejaVuSans-65" x="66.992188"/>
      <use xlink:href="#DejaVuSans-72" x="128.515625"/>
      <use xlink:href="#DejaVuSans-61" x="169.628906"/>
      <use xlink:href="#DejaVuSans-74" x="230.908203"/>
      <use xlink:href="#DejaVuSans-69" x="270.117188"/>
      <use xlink:href="#DejaVuSans-6f" x="297.900391"/>
      <use xlink:href="#DejaVuSans-6e" x="359.082031"/>
     </g>
    </g>
   </g>
   <g id="matplotlib.axis_2">
    <g id="ytick_1">
     <g id="line2d_7">
      <defs>
       <path id="m80cbbf620d" d="M 0 0 
L -3.5 0 
" style="stroke: #000000; stroke-width: 0.8"/>
      </defs>
      <g>
       <use xlink:href="#m80cbbf620d" x="90" y="292.58567" style="stroke: #000000; stroke-width: 0.8"/>
      </g>
     </g>
     <g id="text_8">
      <!-- $\mathdefault{10^{-4}}$ -->
      <g transform="translate(59.5 296.384889)scale(0.1 -0.1)">
       <defs>
        <path id="DejaVuSans-2212" d="M 678 2272 
L 4684 2272 
L 4684 1741 
L 678 1741 
L 678 2272 
z
" transform="scale(0.015625)"/>
        <path id="DejaVuSans-34" d="M 2419 4116 
L 825 1625 
L 2419 1625 
L 2419 4116 
z
M 2253 4666 
L 3047 4666 
L 3047 1625 
L 3713 1625 
L 3713 1100 
L 3047 1100 
L 3047 0 
L 2419 0 
L 2419 1100 
L 313 1100 
L 313 1709 
L 2253 4666 
z
" transform="scale(0.015625)"/>
       </defs>
       <use xlink:href="#DejaVuSans-31" transform="translate(0 0.684375)"/>
       <use xlink:href="#DejaVuSans-30" transform="translate(63.623047 0.684375)"/>
       <use xlink:href="#DejaVuSans-2212" transform="translate(128.203125 38.965625)scale(0.7)"/>
       <use xlink:href="#DejaVuSans-34" transform="translate(186.855469 38.965625)scale(0.7)"/>
      </g>
     </g>
    </g>
    <g id="ytick_2">
     <g id="line2d_8">
      <g>
       <use xlink:href="#m80cbbf620d" x="90" y="253.50842" style="stroke: #000000; stroke-width: 0.8"/>
      </g>
     </g>
     <g id="text_9">
      <!-- $\mathdefault{10^{-3}}$ -->
      <g transform="translate(59.5 257.307639)scale(0.1 -0.1)">
       <defs>
        <path id="DejaVuSans-33" d="M 2597 2516 
Q 3050 2419 3304 2112 
Q 3559 1806 3559 1356 
Q 3559 666 3084 287 
Q 2609 -91 1734 -91 
Q 1441 -91 1130 -33 
Q 819 25 488 141 
L 488 750 
Q 750 597 1062 519 
Q 1375 441 1716 441 
Q 2309 441 2620 675 
Q 2931 909 2931 1356 
Q 2931 1769 2642 2001 
Q 2353 2234 1838 2234 
L 1294 2234 
L 1294 2753 
L 1863 2753 
Q 2328 2753 2575 2939 
Q 2822 3125 2822 3475 
Q 2822 3834 2567 4026 
Q 2313 4219 1838 4219 
Q 1578 4219 1281 4162 
Q 984 4106 628 3988 
L 628 4550 
Q 988 4650 1302 4700 
Q 1616 4750 1894 4750 
Q 2613 4750 3031 4423 
Q 3450 4097 3450 3541 
Q 3450 3153 3228 2886 
Q 3006 2619 2597 2516 
z
" transform="scale(0.015625)"/>
       </defs>
       <use xlink:href="#DejaVuSans-31" transform="translate(0 0.765625)"/>
       <use xlink:href="#DejaVuSans-30" transform="translate(63.623047 0.765625)"/>
       <use xlink:href="#DejaVuSans-2212" transform="translate(128.203125 39.046875)scale(0.7)"/>
       <use xlink:href="#DejaVuSans-33" transform="translate(186.855469 39.046875)scale(0.7)"/>
      </g>
     </g>
    </g>
    <g id="ytick_3">
     <g id="line2d_9">
      <g>
       <use xlink:href="#m80cbbf620d" x="90" y="214.43117" style="stroke: #000000; stroke-width: 0.8"/>
      </g>
     </g>
     <g id="text_10">
      <!-- $\mathdefault{10^{-2}}$ -->
      <g transform="translate(59.5 218.230389)scale(0.1 -0.1)">
       <use xlink:href="#DejaVuSans-31" transform="translate(0 0.765625)"/>
       <use xlink:href="#DejaVuSans-30" transform="translate(63.623047 0.765625)"/>
       <use xlink:href="#DejaVuSans-2212" transform="translate(128.203125 39.046875)scale(0.7)"/>
       <use xlink:href="#DejaVuSans-32" transform="translate(186.855469 39.046875)scale(0.7)"/>
      </g>
     </g>
    </g>
    <g id="ytick_4">
     <g id="line2d_10">
      <g>
       <use xlink:href="#m80cbbf620d" x="90" y="175.35392" style="stroke: #000000; stroke-width: 0.8"/>
      </g>
     </g>
     <g id="text_11">
      <!-- $\mathdefault{10^{-1}}$ -->
      <g transform="translate(59.5 179.153139)scale(0.1 -0.1)">
       <use xlink:href="#DejaVuSans-31" transform="translate(0 0.684375)"/>
       <use xlink:href="#DejaVuSans-30" transform="translate(63.623047 0.684375)"/>
       <use xlink:href="#DejaVuSans-2212" transform="translate(128.203125 38.965625)scale(0.7)"/>
       <use xlink:href="#DejaVuSans-31" transform="translate(186.855469 38.965625)scale(0.7)"/>
      </g>
     </g>
    </g>
    <g id="ytick_5">
     <g id="line2d_11">
      <g>
       <use xlink:href="#m80cbbf620d" x="90" y="136.276671" style="stroke: #000000; stroke-width: 0.8"/>
      </g>
     </g>
     <g id="text_12">
      <!-- $\mathdefault{10^{0}}$ -->
      <g transform="translate(65.4 140.075889)scale(0.1 -0.1)">
       <use xlink:href="#DejaVuSans-31" transform="translate(0 0.765625)"/>
       <use xlink:href="#DejaVuSans-30" transform="translate(63.623047 0.765625)"/>
       <use xlink:href="#DejaVuSans-30" transform="translate(128.203125 39.046875)scale(0.7)"/>
      </g>
     </g>
    </g>
    <g id="ytick_6">
     <g id="line2d_12">
      <g>
       <use xlink:href="#m80cbbf620d" x="90" y="97.199421" style="stroke: #000000; stroke-width: 0.8"/>
      </g>
     </g>
     <g id="text_13">
      <!-- $\mathdefault{10^{1}}$ -->
      <g transform="translate(65.4 100.998639)scale(0.1 -0.1)">
       <use xlink:href="#DejaVuSans-31" transform="translate(0 0.684375)"/>
       <use xlink:href="#DejaVuSans-30" transform="translate(63.623047 0.684375)"/>
       <use xlink:href="#DejaVuSans-31" transform="translate(128.203125 38.965625)scale(0.7)"/>
      </g>
     </g>
    </g>
    <g id="ytick_7">
     <g id="line2d_13">
      <g>
       <use xlink:href="#m80cbbf620d" x="90" y="58.122171" style="stroke: #000000; stroke-width: 0.8"/>
      </g>
     </g>
     <g id="text_14">
      <!-- $\mathdefault{10^{2}}$ -->
      <g transform="translate(65.4 61.92139)scale(0.1 -0.1)">
       <use xlink:href="#DejaVuSans-31" transform="translate(0 0.765625)"/>
       <use xlink:href="#DejaVuSans-30" transform="translate(63.623047 0.765625)"/>
       <use xlink:href="#DejaVuSans-32" transform="translate(128.203125 39.046875)scale(0.7)"/>
      </g>
     </g>
    </g>
    <g id="ytick_8">
     <g id="line2d_14">
      <defs>
       <path id="md0f9deadfe" d="M 0 0 
L -2 0 
" style="stroke: #000000; stroke-width: 0.6"/>
      </defs>
      <g>
       <use xlink:href="#md0f9deadfe" x="90" y="319.899495" style="stroke: #000000; stroke-width: 0.6"/>
      </g>
     </g>
    </g>
    <g id="ytick_9">
     <g id="line2d_15">
      <g>
       <use xlink:href="#md0f9deadfe" x="90" y="313.018333" style="stroke: #000000; stroke-width: 0.6"/>
      </g>
     </g>
    </g>
    <g id="ytick_10">
     <g id="line2d_16">
      <g>
       <use xlink:href="#md0f9deadfe" x="90" y="308.136071" style="stroke: #000000; stroke-width: 0.6"/>
      </g>
     </g>
    </g>
    <g id="ytick_11">
     <g id="line2d_17">
      <g>
       <use xlink:href="#md0f9deadfe" x="90" y="304.349094" style="stroke: #000000; stroke-width: 0.6"/>
      </g>
     </g>
    </g>
    <g id="ytick_12">
     <g id="line2d_18">
      <g>
       <use xlink:href="#md0f9deadfe" x="90" y="301.254909" style="stroke: #000000; stroke-width: 0.6"/>
      </g>
     </g>
    </g>
    <g id="ytick_13">
     <g id="line2d_19">
      <g>
       <use xlink:href="#md0f9deadfe" x="90" y="298.638812" style="stroke: #000000; stroke-width: 0.6"/>
      </g>
     </g>
    </g>
    <g id="ytick_14">
     <g id="line2d_20">
      <g>
       <use xlink:href="#md0f9deadfe" x="90" y="296.372647" style="stroke: #000000; stroke-width: 0.6"/>
      </g>
     </g>
    </g>
    <g id="ytick_15">
     <g id="line2d_21">
      <g>
       <use xlink:href="#md0f9deadfe" x="90" y="294.373747" style="stroke: #000000; stroke-width: 0.6"/>
      </g>
     </g>
    </g>
    <g id="ytick_16">
     <g id="line2d_22">
      <g>
       <use xlink:href="#md0f9deadfe" x="90" y="280.822246" style="stroke: #000000; stroke-width: 0.6"/>
      </g>
     </g>
    </g>
    <g id="ytick_17">
     <g id="line2d_23">
      <g>
       <use xlink:href="#md0f9deadfe" x="90" y="273.941083" style="stroke: #000000; stroke-width: 0.6"/>
      </g>
     </g>
    </g>
    <g id="ytick_18">
     <g id="line2d_24">
      <g>
       <use xlink:href="#md0f9deadfe" x="90" y="269.058821" style="stroke: #000000; stroke-width: 0.6"/>
      </g>
     </g>
    </g>
    <g id="ytick_19">
     <g id="line2d_25">
      <g>
       <use xlink:href="#md0f9deadfe" x="90" y="265.271844" style="stroke: #000000; stroke-width: 0.6"/>
      </g>
     </g>
    </g>
    <g id="ytick_20">
     <g id="line2d_26">
      <g>
       <use xlink:href="#md0f9deadfe" x="90" y="262.177659" style="stroke: #000000; stroke-width: 0.6"/>
      </g>
     </g>
    </g>
    <g id="ytick_21">
     <g id="line2d_27">
      <g>
       <use xlink:href="#md0f9deadfe" x="90" y="259.561563" style="stroke: #000000; stroke-width: 0.6"/>
      </g>
     </g>
    </g>
    <g id="ytick_22">
     <g id="line2d_28">
      <g>
       <use xlink:href="#md0f9deadfe" x="90" y="257.295397" style="stroke: #000000; stroke-width: 0.6"/>
      </g>
     </g>
    </g>
    <g id="ytick_23">
     <g id="line2d_29">
      <g>
       <use xlink:href="#md0f9deadfe" x="90" y="255.296497" style="stroke: #000000; stroke-width: 0.6"/>
      </g>
     </g>
    </g>
    <g id="ytick_24">
     <g id="line2d_30">
      <g>
       <use xlink:href="#md0f9deadfe" x="90" y="241.744996" style="stroke: #000000; stroke-width: 0.6"/>
      </g>
     </g>
    </g>
    <g id="ytick_25">
     <g id="line2d_31">
      <g>
       <use xlink:href="#md0f9deadfe" x="90" y="234.863834" style="stroke: #000000; stroke-width: 0.6"/>
      </g>
     </g>
    </g>
    <g id="ytick_26">
     <g id="line2d_32">
      <g>
       <use xlink:href="#md0f9deadfe" x="90" y="229.981571" style="stroke: #000000; stroke-width: 0.6"/>
      </g>
     </g>
    </g>
    <g id="ytick_27">
     <g id="line2d_33">
      <g>
       <use xlink:href="#md0f9deadfe" x="90" y="226.194595" style="stroke: #000000; stroke-width: 0.6"/>
      </g>
     </g>
    </g>
    <g id="ytick_28">
     <g id="line2d_34">
      <g>
       <use xlink:href="#md0f9deadfe" x="90" y="223.100409" style="stroke: #000000; stroke-width: 0.6"/>
      </g>
     </g>
    </g>
    <g id="ytick_29">
     <g id="line2d_35">
      <g>
       <use xlink:href="#md0f9deadfe" x="90" y="220.484313" style="stroke: #000000; stroke-width: 0.6"/>
      </g>
     </g>
    </g>
    <g id="ytick_30">
     <g id="line2d_36">
      <g>
       <use xlink:href="#md0f9deadfe" x="90" y="218.218147" style="stroke: #000000; stroke-width: 0.6"/>
      </g>
     </g>
    </g>
    <g id="ytick_31">
     <g id="line2d_37">
      <g>
       <use xlink:href="#md0f9deadfe" x="90" y="216.219247" style="stroke: #000000; stroke-width: 0.6"/>
      </g>
     </g>
    </g>
    <g id="ytick_32">
     <g id="line2d_38">
      <g>
       <use xlink:href="#md0f9deadfe" x="90" y="202.667746" style="stroke: #000000; stroke-width: 0.6"/>
      </g>
     </g>
    </g>
    <g id="ytick_33">
     <g id="line2d_39">
      <g>
       <use xlink:href="#md0f9deadfe" x="90" y="195.786584" style="stroke: #000000; stroke-width: 0.6"/>
      </g>
     </g>
    </g>
    <g id="ytick_34">
     <g id="line2d_40">
      <g>
       <use xlink:href="#md0f9deadfe" x="90" y="190.904321" style="stroke: #000000; stroke-width: 0.6"/>
      </g>
     </g>
    </g>
    <g id="ytick_35">
     <g id="line2d_41">
      <g>
       <use xlink:href="#md0f9deadfe" x="90" y="187.117345" style="stroke: #000000; stroke-width: 0.6"/>
      </g>
     </g>
    </g>
    <g id="ytick_36">
     <g id="line2d_42">
      <g>
       <use xlink:href="#md0f9deadfe" x="90" y="184.023159" style="stroke: #000000; stroke-width: 0.6"/>
      </g>
     </g>
    </g>
    <g id="ytick_37">
     <g id="line2d_43">
      <g>
       <use xlink:href="#md0f9deadfe" x="90" y="181.407063" style="stroke: #000000; stroke-width: 0.6"/>
      </g>
     </g>
    </g>
    <g id="ytick_38">
     <g id="line2d_44">
      <g>
       <use xlink:href="#md0f9deadfe" x="90" y="179.140897" style="stroke: #000000; stroke-width: 0.6"/>
      </g>
     </g>
    </g>
    <g id="ytick_39">
     <g id="line2d_45">
      <g>
       <use xlink:href="#md0f9deadfe" x="90" y="177.141997" style="stroke: #000000; stroke-width: 0.6"/>
      </g>
     </g>
    </g>
    <g id="ytick_40">
     <g id="line2d_46">
      <g>
       <use xlink:href="#md0f9deadfe" x="90" y="163.590496" style="stroke: #000000; stroke-width: 0.6"/>
      </g>
     </g>
    </g>
    <g id="ytick_41">
     <g id="line2d_47">
      <g>
       <use xlink:href="#md0f9deadfe" x="90" y="156.709334" style="stroke: #000000; stroke-width: 0.6"/>
      </g>
     </g>
    </g>
    <g id="ytick_42">
     <g id="line2d_48">
      <g>
       <use xlink:href="#md0f9deadfe" x="90" y="151.827072" style="stroke: #000000; stroke-width: 0.6"/>
      </g>
     </g>
    </g>
    <g id="ytick_43">
     <g id="line2d_49">
      <g>
       <use xlink:href="#md0f9deadfe" x="90" y="148.040095" style="stroke: #000000; stroke-width: 0.6"/>
      </g>
     </g>
    </g>
    <g id="ytick_44">
     <g id="line2d_50">
      <g>
       <use xlink:href="#md0f9deadfe" x="90" y="144.94591" style="stroke: #000000; stroke-width: 0.6"/>
      </g>
     </g>
    </g>
    <g id="ytick_45">
     <g id="line2d_51">
      <g>
       <use xlink:href="#md0f9deadfe" x="90" y="142.329813" style="stroke: #000000; stroke-width: 0.6"/>
      </g>
     </g>
    </g>
    <g id="ytick_46">
     <g id="line2d_52">
      <g>
       <use xlink:href="#md0f9deadfe" x="90" y="140.063647" style="stroke: #000000; stroke-width: 0.6"/>
      </g>
     </g>
    </g>
    <g id="ytick_47">
     <g id="line2d_53">
      <g>
       <use xlink:href="#md0f9deadfe" x="90" y="138.064747" style="stroke: #000000; stroke-width: 0.6"/>
      </g>
     </g>
    </g>
    <g id="ytick_48">
     <g id="line2d_54">
      <g>
       <use xlink:href="#md0f9deadfe" x="90" y="124.513246" style="stroke: #000000; stroke-width: 0.6"/>
      </g>
     </g>
    </g>
    <g id="ytick_49">
     <g id="line2d_55">
      <g>
       <use xlink:href="#md0f9deadfe" x="90" y="117.632084" style="stroke: #000000; stroke-width: 0.6"/>
      </g>
     </g>
    </g>
    <g id="ytick_50">
     <g id="line2d_56">
      <g>
       <use xlink:href="#md0f9deadfe" x="90" y="112.749822" style="stroke: #000000; stroke-width: 0.6"/>
      </g>
     </g>
    </g>
    <g id="ytick_51">
     <g id="line2d_57">
      <g>
       <use xlink:href="#md0f9deadfe" x="90" y="108.962845" style="stroke: #000000; stroke-width: 0.6"/>
      </g>
     </g>
    </g>
    <g id="ytick_52">
     <g id="line2d_58">
      <g>
       <use xlink:href="#md0f9deadfe" x="90" y="105.86866" style="stroke: #000000; stroke-width: 0.6"/>
      </g>
     </g>
    </g>
    <g id="ytick_53">
     <g id="line2d_59">
      <g>
       <use xlink:href="#md0f9deadfe" x="90" y="103.252563" style="stroke: #000000; stroke-width: 0.6"/>
      </g>
     </g>
    </g>
    <g id="ytick_54">
     <g id="line2d_60">
      <g>
       <use xlink:href="#md0f9deadfe" x="90" y="100.986397" style="stroke: #000000; stroke-width: 0.6"/>
      </g>
     </g>
    </g>
    <g id="ytick_55">
     <g id="line2d_61">
      <g>
       <use xlink:href="#md0f9deadfe" x="90" y="98.987498" style="stroke: #000000; stroke-width: 0.6"/>
      </g>
     </g>
    </g>
    <g id="ytick_56">
     <g id="line2d_62">
      <g>
       <use xlink:href="#md0f9deadfe" x="90" y="85.435996" style="stroke: #000000; stroke-width: 0.6"/>
      </g>
     </g>
    </g>
    <g id="ytick_57">
     <g id="line2d_63">
      <g>
       <use xlink:href="#md0f9deadfe" x="90" y="78.554834" style="stroke: #000000; stroke-width: 0.6"/>
      </g>
     </g>
    </g>
    <g id="ytick_58">
     <g id="line2d_64">
      <g>
       <use xlink:href="#md0f9deadfe" x="90" y="73.672572" style="stroke: #000000; stroke-width: 0.6"/>
      </g>
     </g>
    </g>
    <g id="ytick_59">
     <g id="line2d_65">
      <g>
       <use xlink:href="#md0f9deadfe" x="90" y="69.885595" style="stroke: #000000; stroke-width: 0.6"/>
      </g>
     </g>
    </g>
    <g id="ytick_60">
     <g id="line2d_66">
      <g>
       <use xlink:href="#md0f9deadfe" x="90" y="66.79141" style="stroke: #000000; stroke-width: 0.6"/>
      </g>
     </g>
    </g>
    <g id="ytick_61">
     <g id="line2d_67">
      <g>
       <use xlink:href="#md0f9deadfe" x="90" y="64.175313" style="stroke: #000000; stroke-width: 0.6"/>
      </g>
     </g>
    </g>
    <g id="ytick_62">
     <g id="line2d_68">
      <g>
       <use xlink:href="#md0f9deadfe" x="90" y="61.909148" style="stroke: #000000; stroke-width: 0.6"/>
      </g>
     </g>
    </g>
    <g id="ytick_63">
     <g id="line2d_69">
      <g>
       <use xlink:href="#md0f9deadfe" x="90" y="59.910248" style="stroke: #000000; stroke-width: 0.6"/>
      </g>
     </g>
    </g>
    <g id="ytick_64">
     <g id="line2d_70">
      <g>
       <use xlink:href="#md0f9deadfe" x="90" y="46.358746" style="stroke: #000000; stroke-width: 0.6"/>
      </g>
     </g>
    </g>
    <g id="text_15">
     <!-- $f(X)-f^*(X)$ -->
     <g transform="translate(53.420312 209.75)rotate(-90)scale(0.1 -0.1)">
      <defs>
       <path id="DejaVuSans-Oblique-66" d="M 3059 4863 
L 2969 4384 
L 2419 4384 
Q 2106 4384 1964 4261 
Q 1822 4138 1753 3809 
L 1691 3500 
L 2638 3500 
L 2553 3053 
L 1606 3053 
L 1013 0 
L 434 0 
L 1031 3053 
L 481 3053 
L 563 3500 
L 1113 3500 
L 1159 3744 
Q 1278 4363 1576 4613 
Q 1875 4863 2516 4863 
L 3059 4863 
z
" transform="scale(0.015625)"/>
       <path id="DejaVuSans-28" d="M 1984 4856 
Q 1566 4138 1362 3434 
Q 1159 2731 1159 2009 
Q 1159 1288 1364 580 
Q 1569 -128 1984 -844 
L 1484 -844 
Q 1016 -109 783 600 
Q 550 1309 550 2009 
Q 550 2706 781 3412 
Q 1013 4119 1484 4856 
L 1984 4856 
z
" transform="scale(0.015625)"/>
       <path id="DejaVuSans-Oblique-58" d="M 878 4666 
L 1516 4666 
L 2316 2981 
L 3763 4666 
L 4500 4666 
L 2578 2438 
L 3738 0 
L 3103 0 
L 2163 1966 
L 459 0 
L -275 0 
L 1906 2509 
L 878 4666 
z
" transform="scale(0.015625)"/>
       <path id="DejaVuSans-29" d="M 513 4856 
L 1013 4856 
Q 1481 4119 1714 3412 
Q 1947 2706 1947 2009 
Q 1947 1309 1714 600 
Q 1481 -109 1013 -844 
L 513 -844 
Q 928 -128 1133 580 
Q 1338 1288 1338 2009 
Q 1338 2731 1133 3434 
Q 928 4138 513 4856 
z
" transform="scale(0.015625)"/>
       <path id="DejaVuSans-2a" d="M 3009 3897 
L 1888 3291 
L 3009 2681 
L 2828 2375 
L 1778 3009 
L 1778 1831 
L 1422 1831 
L 1422 3009 
L 372 2375 
L 191 2681 
L 1313 3291 
L 191 3897 
L 372 4206 
L 1422 3572 
L 1422 4750 
L 1778 4750 
L 1778 3572 
L 2828 4206 
L 3009 3897 
z
" transform="scale(0.015625)"/>
      </defs>
      <use xlink:href="#DejaVuSans-Oblique-66" transform="translate(0 0.765625)"/>
      <use xlink:href="#DejaVuSans-28" transform="translate(35.205078 0.765625)"/>
      <use xlink:href="#DejaVuSans-Oblique-58" transform="translate(74.21875 0.765625)"/>
      <use xlink:href="#DejaVuSans-29" transform="translate(142.724609 0.765625)"/>
      <use xlink:href="#DejaVuSans-2212" transform="translate(201.220703 0.765625)"/>
      <use xlink:href="#DejaVuSans-Oblique-66" transform="translate(304.492188 0.765625)"/>
      <use xlink:href="#DejaVuSans-2a" transform="translate(360.782669 39.046875)scale(0.7)"/>
      <use xlink:href="#DejaVuSans-28" transform="translate(412.15474 0.765625)"/>
      <use xlink:href="#DejaVuSans-Oblique-58" transform="translate(451.168411 0.765625)"/>
      <use xlink:href="#DejaVuSans-29" transform="translate(519.674271 0.765625)"/>
     </g>
    </g>
   </g>
   <g id="line2d_71">
    <path d="M 101.528926 56.963915 
L 102.454944 65.472283 
L 103.380962 72.433586 
L 104.30698 73.986213 
L 105.232998 77.662617 
L 106.159016 83.535591 
L 107.085034 85.31581 
L 108.011052 87.387572 
L 108.937071 88.300534 
L 110.789107 89.149725 
L 112.641143 91.223839 
L 113.567161 91.940011 
L 114.493179 92.106917 
L 115.419197 92.452485 
L 118.197252 94.20732 
L 119.12327 94.324752 
L 120.975306 95.026013 
L 122.827342 95.881668 
L 123.753361 95.977328 
L 124.679379 96.254338 
L 125.605397 96.296787 
L 128.383451 97.230865 
L 129.309469 97.268901 
L 130.235487 97.522419 
L 131.161506 97.563999 
L 135.791596 98.578401 
L 136.717614 98.620635 
L 144.125759 99.838227 
L 145.977795 99.996598 
L 158.016031 101.577219 
L 159.868067 101.70602 
L 175.610375 103.371151 
L 176.536394 103.389082 
L 178.38843 103.551954 
L 188.574629 104.435864 
L 191.352683 104.676742 
L 193.20472 104.790677 
L 196.908792 105.117468 
L 199.686847 105.315314 
L 202.464901 105.536647 
L 205.242955 105.728337 
L 208.02101 105.940899 
L 210.799064 106.128034 
L 213.577118 106.331026 
L 216.355173 106.510289 
L 219.133227 106.704957 
L 221.911281 106.880572 
L 224.689336 107.066934 
L 227.46739 107.235916 
L 230.245445 107.413262 
L 233.023499 107.579541 
L 235.801553 107.752528 
L 240.431644 107.994621 
L 245.061735 108.306799 
L 247.839789 108.421378 
L 258.025988 108.99813 
L 262.656079 109.215923 
L 269.138206 109.570354 
L 274.694314 109.83611 
L 281.176441 110.133569 
L 288.584586 110.502648 
L 291.362641 110.613775 
L 298.770786 110.939125 
L 305.252912 111.231584 
L 308.030967 111.332343 
L 315.439112 111.63614 
L 321.921239 111.909538 
L 325.625311 112.026343 
L 332.107438 112.286199 
L 332.107438 112.286199 
" clip-path="url(#pd548dbdd61)" style="fill: none; stroke: #1f77b4; stroke-width: 1.5; stroke-linecap: square"/>
   </g>
   <g id="line2d_72">
    <path d="M 101.528926 55.8 
L 102.454944 72.55741 
L 103.380962 80.075343 
L 104.30698 85.932825 
L 105.232998 94.143001 
L 106.159016 98.690147 
L 107.085034 100.077759 
L 108.937071 102.238135 
L 109.863089 103.587749 
L 110.789107 105.769939 
L 111.715125 106.662085 
L 112.641143 107.396446 
L 116.345216 111.545689 
L 117.271234 112.164809 
L 118.197252 112.964778 
L 119.12327 114.059107 
L 120.049288 114.861082 
L 121.901324 115.841789 
L 122.827342 116.735721 
L 124.679379 118.094853 
L 125.605397 118.927702 
L 128.383451 120.614546 
L 129.309469 121.432629 
L 130.235487 121.899166 
L 131.161506 122.589216 
L 132.087524 123.092291 
L 133.013542 123.869253 
L 135.791596 125.365445 
L 136.717614 125.938959 
L 137.643632 126.750399 
L 138.569651 127.249748 
L 140.421687 127.979387 
L 141.347705 128.516273 
L 142.273723 129.349586 
L 143.199741 129.848352 
L 144.125759 130.191839 
L 145.051777 130.973677 
L 146.903814 131.740816 
L 147.829832 132.07984 
L 148.75585 132.586588 
L 149.681868 133.376455 
L 150.607886 133.866409 
L 151.533904 134.195797 
L 152.459922 134.953329 
L 154.311959 135.678342 
L 155.237977 136.048724 
L 156.163995 136.796459 
L 158.942049 138.006892 
L 159.868067 138.731544 
L 160.794085 139.180219 
L 162.646122 139.83807 
L 163.57214 140.572134 
L 165.424176 141.321015 
L 166.350194 141.698231 
L 167.276212 142.401368 
L 168.20223 142.844091 
L 170.054267 143.47418 
L 170.980285 144.185318 
L 171.906303 144.609148 
L 173.758339 145.240826 
L 174.684357 145.917773 
L 175.610375 146.35248 
L 177.462412 146.959426 
L 178.38843 147.644311 
L 179.314448 148.057441 
L 181.166484 148.640273 
L 182.092502 149.288634 
L 184.870557 150.476112 
L 186.722593 151.081554 
L 187.648611 151.71431 
L 188.574629 152.106647 
L 190.426665 152.657893 
L 191.352683 153.259816 
L 192.278702 153.671123 
L 194.130738 154.25586 
L 195.056756 154.867722 
L 195.982774 155.248543 
L 197.83481 155.766725 
L 198.760828 156.338785 
L 199.686847 156.741916 
L 201.538883 157.316016 
L 202.464901 157.897685 
L 203.390919 158.266734 
L 205.242955 158.86393 
L 206.168973 159.261852 
L 207.094992 159.503972 
L 208.02101 160.03006 
L 210.799064 160.936775 
L 211.725082 161.460791 
L 215.429155 162.775857 
L 217.281191 163.363405 
L 218.207209 163.889194 
L 221.911281 165.166223 
L 223.763318 165.742381 
L 224.689336 166.254662 
L 229.319426 167.763606 
L 230.245445 168.078818 
L 231.171463 168.576064 
L 233.023499 169.148257 
L 234.875535 169.685317 
L 236.727571 170.575895 
L 238.579608 171.125911 
L 240.431644 171.754893 
L 241.357662 172.056205 
L 242.28368 172.535063 
L 245.061735 173.342565 
L 245.987753 173.640071 
L 247.839789 174.511312 
L 249.691825 175.063433 
L 251.543861 175.698115 
L 252.46988 175.992756 
L 253.395898 176.452881 
L 258.025988 178.015515 
L 258.952006 178.42113 
L 261.730061 179.228822 
L 263.582097 180.095209 
L 266.360151 180.905914 
L 268.212188 181.781049 
L 272.842278 183.324667 
L 273.768296 183.759508 
L 277.472369 184.901343 
L 280.250423 186.052645 
L 282.102459 186.608881 
L 283.954496 187.475278 
L 287.658568 188.797003 
L 289.510604 189.550353 
L 291.362641 190.114813 
L 294.140695 191.335514 
L 295.992731 191.920188 
L 296.918749 192.360025 
L 297.844767 192.661266 
L 298.770786 193.09202 
L 300.622822 193.716129 
L 303.400876 194.754527 
L 305.252912 195.569672 
L 307.104949 196.178466 
L 309.883003 197.464019 
L 311.735039 198.084005 
L 314.513094 199.401543 
L 316.36513 200.034445 
L 319.143184 201.391835 
L 320.995221 202.041175 
L 323.773275 203.447204 
L 325.625311 204.121508 
L 328.403366 205.575766 
L 330.255402 206.275147 
L 332.107438 207.322097 
L 332.107438 207.322097 
" clip-path="url(#pd548dbdd61)" style="fill: none; stroke: #ff7f0e; stroke-width: 1.5; stroke-linecap: square"/>
   </g>
   <g id="line2d_73">
    <path d="M 101.528926 57.427614 
L 102.454944 77.617223 
L 104.30698 91.951816 
L 105.232998 96.183362 
L 106.159016 101.72443 
L 107.085034 103.596673 
L 108.011052 105.210011 
L 108.937071 107.620096 
L 109.863089 109.166763 
L 112.641143 112.686759 
L 114.493179 114.383236 
L 115.419197 115.282177 
L 116.345216 116.467688 
L 118.197252 118.096603 
L 119.12327 118.831302 
L 120.049288 119.842932 
L 120.975306 120.450068 
L 125.605397 124.569717 
L 126.531415 125.148923 
L 127.457433 125.90864 
L 128.383451 126.891185 
L 129.309469 127.474972 
L 130.235487 128.343213 
L 133.013542 130.183364 
L 133.93956 131.071648 
L 136.717614 132.816439 
L 138.569651 134.132696 
L 139.495669 134.46656 
L 142.273723 136.152846 
L 147.829832 139.243339 
L 148.75585 139.959703 
L 149.681868 140.859023 
L 152.459922 142.337136 
L 154.311959 143.250341 
L 158.016031 145.139392 
L 159.868067 146.726342 
L 162.646122 148.060778 
L 165.424176 149.338169 
L 166.350194 149.843453 
L 167.276212 150.589323 
L 171.906303 153.200629 
L 175.610375 154.932662 
L 178.38843 156.659467 
L 183.944538 159.042871 
L 186.722593 160.697652 
L 190.426665 162.223378 
L 193.20472 163.787918 
L 198.760828 165.912058 
L 201.538883 167.390715 
L 206.168973 169.272177 
L 208.02101 170.186877 
L 212.6511 172.002713 
L 214.503137 172.876988 
L 219.133227 174.736986 
L 220.985263 175.554425 
L 227.46739 178.13795 
L 228.393408 178.627148 
L 230.245445 179.298117 
L 233.949517 180.841727 
L 236.727571 181.875892 
L 251.543861 187.825346 
L 255.247934 189.360484 
L 257.09997 190.062529 
L 259.878024 191.242983 
L 262.656079 192.416563 
L 264.508115 193.257651 
L 266.360151 194.08975 
L 268.212188 194.694322 
L 270.064224 195.421255 
L 271.91626 196.375335 
L 273.768296 197.028588 
L 275.620333 197.94628 
L 277.472369 198.779989 
L 279.324405 199.556598 
L 281.176441 200.564175 
L 283.954496 201.742463 
L 285.806532 202.799527 
L 288.584586 204.009099 
L 290.436623 205.112119 
L 293.214677 206.359317 
L 295.066713 207.514293 
L 297.844767 208.807784 
L 299.696804 210.047122 
L 302.474858 211.416368 
L 304.326894 212.71597 
L 307.104949 214.154101 
L 308.956985 215.549824 
L 311.735039 217.087763 
L 313.587076 218.610434 
L 316.36513 220.281154 
L 318.217166 221.969363 
L 320.995221 223.814723 
L 322.847257 225.753694 
L 324.699293 227.05188 
L 325.625311 227.865786 
L 327.477347 230.100786 
L 329.329384 231.6232 
L 330.255402 232.584662 
L 332.107438 235.298726 
L 332.107438 235.298726 
" clip-path="url(#pd548dbdd61)" style="fill: none; stroke: #2ca02c; stroke-width: 1.5; stroke-linecap: square"/>
   </g>
   <g id="line2d_74">
    <path d="M 101.528926 57.351292 
L 102.454944 77.125532 
L 104.30698 92.453444 
L 105.232998 96.713109 
L 106.159016 102.416929 
L 108.937071 107.817143 
L 109.863089 110.444519 
L 113.567161 115.105168 
L 116.345216 118.531296 
L 117.271234 119.840466 
L 118.197252 120.656254 
L 120.049288 122.997253 
L 120.975306 124.019368 
L 121.901324 125.259826 
L 123.753361 126.675002 
L 124.679379 127.974403 
L 126.531415 130.109078 
L 128.383451 131.643389 
L 130.235487 133.776502 
L 131.161506 134.445414 
L 132.087524 135.608994 
L 133.013542 136.423479 
L 133.93956 137.413387 
L 138.569651 141.468309 
L 139.495669 142.658675 
L 143.199741 145.68021 
L 144.125759 146.813468 
L 145.051777 147.525127 
L 145.977795 148.421794 
L 148.75585 150.24071 
L 149.681868 151.32851 
L 151.533904 152.896938 
L 153.38594 154.083969 
L 154.311959 155.097212 
L 155.237977 155.936125 
L 157.090013 157.24242 
L 158.016031 157.721726 
L 159.868067 159.482223 
L 161.720104 160.726507 
L 162.646122 161.173575 
L 164.498158 162.852622 
L 166.350194 164.062088 
L 167.276212 164.479791 
L 169.128249 166.074733 
L 172.832321 168.457107 
L 173.758339 169.152897 
L 177.462412 171.432618 
L 179.314448 172.608571 
L 180.240466 173.18808 
L 181.166484 173.560836 
L 183.01852 174.897533 
L 198.760828 183.735325 
L 199.686847 184.07639 
L 201.538883 185.160646 
L 212.6511 190.851243 
L 213.577118 191.187629 
L 217.281191 193.142726 
L 218.207209 193.480526 
L 221.911281 195.419262 
L 222.8373 195.75996 
L 226.541372 197.691281 
L 227.46739 198.039243 
L 231.171463 199.974606 
L 232.097481 200.329078 
L 235.801553 202.281419 
L 236.727571 202.641969 
L 237.65359 203.134444 
L 238.579608 203.793471 
L 244.135716 205.915533 
L 245.061735 206.504755 
L 245.987753 206.868734 
L 246.913771 207.374197 
L 247.839789 208.070315 
L 250.617843 209.193506 
L 251.543861 209.804411 
L 252.46988 210.206468 
L 253.395898 210.750015 
L 254.321916 211.488989 
L 259.878024 213.926396 
L 260.804043 214.621117 
L 262.656079 215.505831 
L 263.582097 216.114726 
L 264.508115 216.477464 
L 267.286169 217.850493 
L 268.212188 218.601536 
L 269.138206 219.098029 
L 270.064224 219.765629 
L 270.990242 220.695087 
L 275.620333 223.341117 
L 276.546351 224.110225 
L 278.398387 226.140036 
L 280.250423 227.361717 
L 281.176441 228.138766 
L 283.028478 229.286608 
L 283.954496 230.404715 
L 284.880514 231.139425 
L 285.806532 232.141396 
L 286.73255 233.603882 
L 291.362641 238.07655 
L 292.288659 239.438889 
L 294.140695 243.409072 
L 295.992731 246.030318 
L 296.918749 247.788443 
L 297.844767 249.09242 
L 298.770786 250.621982 
L 299.696804 253.708152 
L 300.622822 255.963772 
L 301.54884 259.443179 
L 302.474858 265.687595 
L 303.400876 270.598868 
L 304.326894 277.267659 
L 305.252912 287.429845 
L 306.178931 307.8 
L 306.180197 361 
L 306.180197 361 
" clip-path="url(#pd548dbdd61)" style="fill: none; stroke: #d62728; stroke-width: 1.5; stroke-linecap: square"/>
   </g>
   <g id="line2d_75">
    <path d="M 101.528926 56.455077 
L 102.454944 74.364277 
L 103.380962 81.552349 
L 104.30698 92.031745 
L 105.232998 95.687798 
L 106.159016 101.336636 
L 109.863089 109.305 
L 111.715125 111.547896 
L 112.641143 112.987709 
L 113.567161 114.832954 
L 117.271234 119.389957 
L 118.197252 120.937758 
L 120.975306 124.07243 
L 121.901324 125.053486 
L 122.827342 126.379069 
L 127.457433 131.337569 
L 128.383451 132.142229 
L 132.087524 135.92746 
L 133.93956 137.608874 
L 134.865578 138.678674 
L 136.717614 140.031704 
L 140.421687 143.47138 
L 141.347705 144.091116 
L 143.199741 145.608154 
L 144.125759 146.606739 
L 145.051777 147.328006 
L 145.977795 147.879806 
L 147.829832 149.271662 
L 148.75585 150.219471 
L 149.681868 150.927609 
L 150.607886 151.417796 
L 152.459922 152.68654 
L 153.38594 153.583861 
L 154.311959 154.279669 
L 155.237977 154.714804 
L 157.090013 155.866941 
L 158.016031 156.71029 
L 158.942049 157.391963 
L 159.868067 157.785243 
L 162.646122 159.505433 
L 165.424176 161.165069 
L 166.350194 161.548258 
L 170.054267 163.842201 
L 170.980285 164.189051 
L 174.684357 166.367069 
L 175.610375 166.687641 
L 179.314448 168.755036 
L 180.240466 169.055607 
L 181.166484 169.563917 
L 182.092502 169.937229 
L 183.944538 171.02116 
L 184.870557 171.302074 
L 185.796575 171.81083 
L 191.352683 173.910401 
L 193.20472 174.729051 
L 195.056756 175.497148 
L 195.982774 176.079041 
L 197.83481 176.829476 
L 198.760828 177.146995 
L 200.612865 177.948802 
L 203.390919 179.129128 
L 204.316937 179.71919 
L 205.242955 180.026544 
L 207.094992 180.842806 
L 209.873046 181.994392 
L 210.799064 182.589333 
L 211.725082 182.894654 
L 213.577118 183.735658 
L 215.429155 184.434794 
L 216.355173 184.886367 
L 217.281191 185.492398 
L 218.207209 185.795875 
L 220.059245 186.673567 
L 221.911281 187.35982 
L 222.8373 187.807237 
L 223.763318 188.413924 
L 224.689336 188.717969 
L 226.541372 189.622351 
L 228.393408 190.293828 
L 229.319426 190.758826 
L 230.245445 191.377693 
L 231.171463 191.686934 
L 233.023499 192.633197 
L 235.801553 193.816421 
L 236.727571 194.176067 
L 237.65359 194.661254 
L 238.579608 195.306978 
L 239.505626 195.637163 
L 241.357662 196.62377 
L 245.987753 198.762655 
L 247.839789 199.667443 
L 248.765807 200.345351 
L 249.691825 200.717339 
L 251.543861 201.748249 
L 253.395898 202.528225 
L 254.321916 203.067242 
L 255.247934 203.774983 
L 256.173952 204.163993 
L 258.025988 205.268067 
L 262.656079 207.72263 
L 263.582097 208.177164 
L 264.508115 208.762883 
L 265.434133 209.555698 
L 266.360151 210.013077 
L 268.212188 211.234057 
L 270.064224 212.182345 
L 270.990242 212.8328 
L 271.91626 213.694555 
L 272.842278 214.190538 
L 274.694314 215.556351 
L 279.324405 218.712997 
L 280.250423 219.722923 
L 281.176441 220.32553 
L 282.102459 221.237317 
L 286.73255 224.926871 
L 287.658568 225.874837 
L 288.584586 227.163274 
L 289.510604 227.961942 
L 290.436623 229.161635 
L 292.288659 231.013165 
L 293.214677 231.8514 
L 294.140695 233.103442 
L 295.066713 234.812997 
L 295.992731 235.886262 
L 296.918749 237.592025 
L 298.770786 240.54608 
L 301.54884 245.218794 
L 302.474858 247.617273 
L 303.400876 251.146849 
L 304.326894 253.636183 
L 306.178931 262.24284 
L 307.104949 267.85121 
L 308.030967 275.81107 
L 308.956985 288.224706 
L 308.958716 361 
L 308.958716 361 
" clip-path="url(#pd548dbdd61)" style="fill: none; stroke: #9467bd; stroke-width: 1.5; stroke-linecap: square"/>
   </g>
   <g id="patch_3">
    <path d="M 90 320.4 
L 90 43.2 
" style="fill: none; stroke: #000000; stroke-width: 0.8; stroke-linejoin: miter; stroke-linecap: square"/>
   </g>
   <g id="patch_4">
    <path d="M 343.636364 320.4 
L 343.636364 43.2 
" style="fill: none; stroke: #000000; stroke-width: 0.8; stroke-linejoin: miter; stroke-linecap: square"/>
   </g>
   <g id="patch_5">
    <path d="M 90 320.4 
L 343.636364 320.4 
" style="fill: none; stroke: #000000; stroke-width: 0.8; stroke-linejoin: miter; stroke-linecap: square"/>
   </g>
   <g id="patch_6">
    <path d="M 90 43.2 
L 343.636364 43.2 
" style="fill: none; stroke: #000000; stroke-width: 0.8; stroke-linejoin: miter; stroke-linecap: square"/>
   </g>
   <g id="legend_1">
    <g id="patch_7">
     <path d="M 97 315.4 
L 166.084375 315.4 
Q 168.084375 315.4 168.084375 313.4 
L 168.084375 241.009375 
Q 168.084375 239.009375 166.084375 239.009375 
L 97 239.009375 
Q 95 239.009375 95 241.009375 
L 95 313.4 
Q 95 315.4 97 315.4 
z
" style="fill: #ffffff; opacity: 0.8; stroke: #cccccc; stroke-linejoin: miter"/>
    </g>
    <g id="line2d_76">
     <path d="M 99 247.107813 
L 109 247.107813 
L 119 247.107813 
" style="fill: none; stroke: #1f77b4; stroke-width: 1.5; stroke-linecap: square"/>
    </g>
    <g id="text_16">
     <!-- RBCD -->
     <g transform="translate(127 250.607813)scale(0.1 -0.1)">
      <defs>
       <path id="DejaVuSans-52" d="M 2841 2188 
Q 3044 2119 3236 1894 
Q 3428 1669 3622 1275 
L 4263 0 
L 3584 0 
L 2988 1197 
Q 2756 1666 2539 1819 
Q 2322 1972 1947 1972 
L 1259 1972 
L 1259 0 
L 628 0 
L 628 4666 
L 2053 4666 
Q 2853 4666 3247 4331 
Q 3641 3997 3641 3322 
Q 3641 2881 3436 2590 
Q 3231 2300 2841 2188 
z
M 1259 4147 
L 1259 2491 
L 2053 2491 
Q 2509 2491 2742 2702 
Q 2975 2913 2975 3322 
Q 2975 3731 2742 3939 
Q 2509 4147 2053 4147 
L 1259 4147 
z
" transform="scale(0.015625)"/>
       <path id="DejaVuSans-42" d="M 1259 2228 
L 1259 519 
L 2272 519 
Q 2781 519 3026 730 
Q 3272 941 3272 1375 
Q 3272 1813 3026 2020 
Q 2781 2228 2272 2228 
L 1259 2228 
z
M 1259 4147 
L 1259 2741 
L 2194 2741 
Q 2656 2741 2882 2914 
Q 3109 3088 3109 3444 
Q 3109 3797 2882 3972 
Q 2656 4147 2194 4147 
L 1259 4147 
z
M 628 4666 
L 2241 4666 
Q 2963 4666 3353 4366 
Q 3744 4066 3744 3513 
Q 3744 3084 3544 2831 
Q 3344 2578 2956 2516 
Q 3422 2416 3680 2098 
Q 3938 1781 3938 1306 
Q 3938 681 3513 340 
Q 3088 0 2303 0 
L 628 0 
L 628 4666 
z
" transform="scale(0.015625)"/>
       <path id="DejaVuSans-43" d="M 4122 4306 
L 4122 3641 
Q 3803 3938 3442 4084 
Q 3081 4231 2675 4231 
Q 1875 4231 1450 3742 
Q 1025 3253 1025 2328 
Q 1025 1406 1450 917 
Q 1875 428 2675 428 
Q 3081 428 3442 575 
Q 3803 722 4122 1019 
L 4122 359 
Q 3791 134 3420 21 
Q 3050 -91 2638 -91 
Q 1578 -91 968 557 
Q 359 1206 359 2328 
Q 359 3453 968 4101 
Q 1578 4750 2638 4750 
Q 3056 4750 3426 4639 
Q 3797 4528 4122 4306 
z
" transform="scale(0.015625)"/>
       <path id="DejaVuSans-44" d="M 1259 4147 
L 1259 519 
L 2022 519 
Q 2988 519 3436 956 
Q 3884 1394 3884 2338 
Q 3884 3275 3436 3711 
Q 2988 4147 2022 4147 
L 1259 4147 
z
M 628 4666 
L 1925 4666 
Q 3281 4666 3915 4102 
Q 4550 3538 4550 2338 
Q 4550 1131 3912 565 
Q 3275 0 1925 0 
L 628 0 
L 628 4666 
z
" transform="scale(0.015625)"/>
      </defs>
      <use xlink:href="#DejaVuSans-52"/>
      <use xlink:href="#DejaVuSans-42" x="69.482422"/>
      <use xlink:href="#DejaVuSans-43" x="136.335938"/>
      <use xlink:href="#DejaVuSans-44" x="206.160156"/>
     </g>
    </g>
    <g id="line2d_77">
     <path d="M 99 261.785938 
L 109 261.785938 
L 119 261.785938 
" style="fill: none; stroke: #ff7f0e; stroke-width: 1.5; stroke-linecap: square"/>
    </g>
    <g id="text_17">
     <!-- strong -->
     <g transform="translate(127 265.285938)scale(0.1 -0.1)">
      <defs>
       <path id="DejaVuSans-73" d="M 2834 3397 
L 2834 2853 
Q 2591 2978 2328 3040 
Q 2066 3103 1784 3103 
Q 1356 3103 1142 2972 
Q 928 2841 928 2578 
Q 928 2378 1081 2264 
Q 1234 2150 1697 2047 
L 1894 2003 
Q 2506 1872 2764 1633 
Q 3022 1394 3022 966 
Q 3022 478 2636 193 
Q 2250 -91 1575 -91 
Q 1294 -91 989 -36 
Q 684 19 347 128 
L 347 722 
Q 666 556 975 473 
Q 1284 391 1588 391 
Q 1994 391 2212 530 
Q 2431 669 2431 922 
Q 2431 1156 2273 1281 
Q 2116 1406 1581 1522 
L 1381 1569 
Q 847 1681 609 1914 
Q 372 2147 372 2553 
Q 372 3047 722 3315 
Q 1072 3584 1716 3584 
Q 2034 3584 2315 3537 
Q 2597 3491 2834 3397 
z
" transform="scale(0.015625)"/>
       <path id="DejaVuSans-67" d="M 2906 1791 
Q 2906 2416 2648 2759 
Q 2391 3103 1925 3103 
Q 1463 3103 1205 2759 
Q 947 2416 947 1791 
Q 947 1169 1205 825 
Q 1463 481 1925 481 
Q 2391 481 2648 825 
Q 2906 1169 2906 1791 
z
M 3481 434 
Q 3481 -459 3084 -895 
Q 2688 -1331 1869 -1331 
Q 1566 -1331 1297 -1286 
Q 1028 -1241 775 -1147 
L 775 -588 
Q 1028 -725 1275 -790 
Q 1522 -856 1778 -856 
Q 2344 -856 2625 -561 
Q 2906 -266 2906 331 
L 2906 616 
Q 2728 306 2450 153 
Q 2172 0 1784 0 
Q 1141 0 747 490 
Q 353 981 353 1791 
Q 353 2603 747 3093 
Q 1141 3584 1784 3584 
Q 2172 3584 2450 3431 
Q 2728 3278 2906 2969 
L 2906 3500 
L 3481 3500 
L 3481 434 
z
" transform="scale(0.015625)"/>
      </defs>
      <use xlink:href="#DejaVuSans-73"/>
      <use xlink:href="#DejaVuSans-74" x="52.099609"/>
      <use xlink:href="#DejaVuSans-72" x="91.308594"/>
      <use xlink:href="#DejaVuSans-6f" x="130.171875"/>
      <use xlink:href="#DejaVuSans-6e" x="191.353516"/>
      <use xlink:href="#DejaVuSans-67" x="254.732422"/>
     </g>
    </g>
    <g id="line2d_78">
     <path d="M 99 276.464063 
L 109 276.464063 
L 119 276.464063 
" style="fill: none; stroke: #2ca02c; stroke-width: 1.5; stroke-linecap: square"/>
    </g>
    <g id="text_18">
     <!-- fast -->
     <g transform="translate(127 279.964063)scale(0.1 -0.1)">
      <defs>
       <path id="DejaVuSans-66" d="M 2375 4863 
L 2375 4384 
L 1825 4384 
Q 1516 4384 1395 4259 
Q 1275 4134 1275 3809 
L 1275 3500 
L 2222 3500 
L 2222 3053 
L 1275 3053 
L 1275 0 
L 697 0 
L 697 3053 
L 147 3053 
L 147 3500 
L 697 3500 
L 697 3744 
Q 697 4328 969 4595 
Q 1241 4863 1831 4863 
L 2375 4863 
z
" transform="scale(0.015625)"/>
      </defs>
      <use xlink:href="#DejaVuSans-66"/>
      <use xlink:href="#DejaVuSans-61" x="35.205078"/>
      <use xlink:href="#DejaVuSans-73" x="96.484375"/>
      <use xlink:href="#DejaVuSans-74" x="148.583984"/>
     </g>
    </g>
    <g id="line2d_79">
     <path d="M 99 291.142187 
L 109 291.142187 
L 119 291.142187 
" style="fill: none; stroke: #d62728; stroke-width: 1.5; stroke-linecap: square"/>
    </g>
    <g id="text_19">
     <!-- eco -->
     <g transform="translate(127 294.642187)scale(0.1 -0.1)">
      <defs>
       <path id="DejaVuSans-63" d="M 3122 3366 
L 3122 2828 
Q 2878 2963 2633 3030 
Q 2388 3097 2138 3097 
Q 1578 3097 1268 2742 
Q 959 2388 959 1747 
Q 959 1106 1268 751 
Q 1578 397 2138 397 
Q 2388 397 2633 464 
Q 2878 531 3122 666 
L 3122 134 
Q 2881 22 2623 -34 
Q 2366 -91 2075 -91 
Q 1284 -91 818 406 
Q 353 903 353 1747 
Q 353 2603 823 3093 
Q 1294 3584 2113 3584 
Q 2378 3584 2631 3529 
Q 2884 3475 3122 3366 
z
" transform="scale(0.015625)"/>
      </defs>
      <use xlink:href="#DejaVuSans-65"/>
      <use xlink:href="#DejaVuSans-63" x="61.523438"/>
      <use xlink:href="#DejaVuSans-6f" x="116.503906"/>
     </g>
    </g>
    <g id="line2d_80">
     <path d="M 99 305.820312 
L 109 305.820312 
L 119 305.820312 
" style="fill: none; stroke: #9467bd; stroke-width: 1.5; stroke-linecap: square"/>
    </g>
    <g id="text_20">
     <!-- highest -->
     <g transform="translate(127 309.320312)scale(0.1 -0.1)">
      <defs>
       <path id="DejaVuSans-68" d="M 3513 2113 
L 3513 0 
L 2938 0 
L 2938 2094 
Q 2938 2591 2744 2837 
Q 2550 3084 2163 3084 
Q 1697 3084 1428 2787 
Q 1159 2491 1159 1978 
L 1159 0 
L 581 0 
L 581 4863 
L 1159 4863 
L 1159 2956 
Q 1366 3272 1645 3428 
Q 1925 3584 2291 3584 
Q 2894 3584 3203 3211 
Q 3513 2838 3513 2113 
z
" transform="scale(0.015625)"/>
      </defs>
      <use xlink:href="#DejaVuSans-68"/>
      <use xlink:href="#DejaVuSans-69" x="63.378906"/>
      <use xlink:href="#DejaVuSans-67" x="91.162109"/>
      <use xlink:href="#DejaVuSans-68" x="154.638672"/>
      <use xlink:href="#DejaVuSans-65" x="218.017578"/>
      <use xlink:href="#DejaVuSans-73" x="279.541016"/>
      <use xlink:href="#DejaVuSans-74" x="331.640625"/>
     </g>
    </g>
   </g>
  </g>
  <g id="axes_2">
   <g id="patch_8">
    <path d="M 394.363636 320.4 
L 648 320.4 
L 648 43.2 
L 394.363636 43.2 
z
" style="fill: #ffffff"/>
   </g>
   <g id="matplotlib.axis_3">
    <g id="xtick_7">
     <g id="line2d_81">
      <g>
       <use xlink:href="#m518597f308" x="405.892562" y="320.4" style="stroke: #000000; stroke-width: 0.8"/>
      </g>
     </g>
     <g id="text_21">
      <!-- 0 -->
      <g transform="translate(402.711312 334.998438)scale(0.1 -0.1)">
       <use xlink:href="#DejaVuSans-30"/>
      </g>
     </g>
    </g>
    <g id="xtick_8">
     <g id="line2d_82">
      <g>
       <use xlink:href="#m518597f308" x="452.193468" y="320.4" style="stroke: #000000; stroke-width: 0.8"/>
      </g>
     </g>
     <g id="text_22">
      <!-- 50 -->
      <g transform="translate(445.830968 334.998438)scale(0.1 -0.1)">
       <use xlink:href="#DejaVuSans-35"/>
       <use xlink:href="#DejaVuSans-30" x="63.623047"/>
      </g>
     </g>
    </g>
    <g id="xtick_9">
     <g id="line2d_83">
      <g>
       <use xlink:href="#m518597f308" x="498.494374" y="320.4" style="stroke: #000000; stroke-width: 0.8"/>
      </g>
     </g>
     <g id="text_23">
      <!-- 100 -->
      <g transform="translate(488.950624 334.998438)scale(0.1 -0.1)">
       <use xlink:href="#DejaVuSans-31"/>
       <use xlink:href="#DejaVuSans-30" x="63.623047"/>
       <use xlink:href="#DejaVuSans-30" x="127.246094"/>
      </g>
     </g>
    </g>
    <g id="xtick_10">
     <g id="line2d_84">
      <g>
       <use xlink:href="#m518597f308" x="544.79528" y="320.4" style="stroke: #000000; stroke-width: 0.8"/>
      </g>
     </g>
     <g id="text_24">
      <!-- 150 -->
      <g transform="translate(535.25153 334.998438)scale(0.1 -0.1)">
       <use xlink:href="#DejaVuSans-31"/>
       <use xlink:href="#DejaVuSans-35" x="63.623047"/>
       <use xlink:href="#DejaVuSans-30" x="127.246094"/>
      </g>
     </g>
    </g>
    <g id="xtick_11">
     <g id="line2d_85">
      <g>
       <use xlink:href="#m518597f308" x="591.096186" y="320.4" style="stroke: #000000; stroke-width: 0.8"/>
      </g>
     </g>
     <g id="text_25">
      <!-- 200 -->
      <g transform="translate(581.552436 334.998438)scale(0.1 -0.1)">
       <use xlink:href="#DejaVuSans-32"/>
       <use xlink:href="#DejaVuSans-30" x="63.623047"/>
       <use xlink:href="#DejaVuSans-30" x="127.246094"/>
      </g>
     </g>
    </g>
    <g id="xtick_12">
     <g id="line2d_86">
      <g>
       <use xlink:href="#m518597f308" x="637.397093" y="320.4" style="stroke: #000000; stroke-width: 0.8"/>
      </g>
     </g>
     <g id="text_26">
      <!-- 250 -->
      <g transform="translate(627.853343 334.998438)scale(0.1 -0.1)">
       <use xlink:href="#DejaVuSans-32"/>
       <use xlink:href="#DejaVuSans-35" x="63.623047"/>
       <use xlink:href="#DejaVuSans-30" x="127.246094"/>
      </g>
     </g>
    </g>
    <g id="text_27">
     <!-- iteration -->
     <g transform="translate(500.059162 348.676562)scale(0.1 -0.1)">
      <use xlink:href="#DejaVuSans-69"/>
      <use xlink:href="#DejaVuSans-74" x="27.783203"/>
      <use xlink:href="#DejaVuSans-65" x="66.992188"/>
      <use xlink:href="#DejaVuSans-72" x="128.515625"/>
      <use xlink:href="#DejaVuSans-61" x="169.628906"/>
      <use xlink:href="#DejaVuSans-74" x="230.908203"/>
      <use xlink:href="#DejaVuSans-69" x="270.117188"/>
      <use xlink:href="#DejaVuSans-6f" x="297.900391"/>
      <use xlink:href="#DejaVuSans-6e" x="359.082031"/>
     </g>
    </g>
   </g>
   <g id="matplotlib.axis_4">
    <g id="ytick_65">
     <g id="line2d_87">
      <g>
       <use xlink:href="#m80cbbf620d" x="394.363636" y="246.676841" style="stroke: #000000; stroke-width: 0.8"/>
      </g>
     </g>
     <g id="text_28">
      <!-- $\mathdefault{10^{0}}$ -->
      <g transform="translate(369.763636 250.47606)scale(0.1 -0.1)">
       <use xlink:href="#DejaVuSans-31" transform="translate(0 0.765625)"/>
       <use xlink:href="#DejaVuSans-30" transform="translate(63.623047 0.765625)"/>
       <use xlink:href="#DejaVuSans-30" transform="translate(128.203125 39.046875)scale(0.7)"/>
      </g>
     </g>
    </g>
    <g id="ytick_66">
     <g id="line2d_88">
      <g>
       <use xlink:href="#m80cbbf620d" x="394.363636" y="160.73305" style="stroke: #000000; stroke-width: 0.8"/>
      </g>
     </g>
     <g id="text_29">
      <!-- $\mathdefault{10^{1}}$ -->
      <g transform="translate(369.763636 164.532268)scale(0.1 -0.1)">
       <use xlink:href="#DejaVuSans-31" transform="translate(0 0.684375)"/>
       <use xlink:href="#DejaVuSans-30" transform="translate(63.623047 0.684375)"/>
       <use xlink:href="#DejaVuSans-31" transform="translate(128.203125 38.965625)scale(0.7)"/>
      </g>
     </g>
    </g>
    <g id="ytick_67">
     <g id="line2d_89">
      <g>
       <use xlink:href="#m80cbbf620d" x="394.363636" y="74.789258" style="stroke: #000000; stroke-width: 0.8"/>
      </g>
     </g>
     <g id="text_30">
      <!-- $\mathdefault{10^{2}}$ -->
      <g transform="translate(369.763636 78.588477)scale(0.1 -0.1)">
       <use xlink:href="#DejaVuSans-31" transform="translate(0 0.765625)"/>
       <use xlink:href="#DejaVuSans-30" transform="translate(63.623047 0.765625)"/>
       <use xlink:href="#DejaVuSans-32" transform="translate(128.203125 39.046875)scale(0.7)"/>
      </g>
     </g>
    </g>
    <g id="ytick_68">
     <g id="line2d_90">
      <g>
       <use xlink:href="#md0f9deadfe" x="394.363636" y="306.748973" style="stroke: #000000; stroke-width: 0.6"/>
      </g>
     </g>
    </g>
    <g id="ytick_69">
     <g id="line2d_91">
      <g>
       <use xlink:href="#md0f9deadfe" x="394.363636" y="291.615023" style="stroke: #000000; stroke-width: 0.6"/>
      </g>
     </g>
    </g>
    <g id="ytick_70">
     <g id="line2d_92">
      <g>
       <use xlink:href="#md0f9deadfe" x="394.363636" y="280.877314" style="stroke: #000000; stroke-width: 0.6"/>
      </g>
     </g>
    </g>
    <g id="ytick_71">
     <g id="line2d_93">
      <g>
       <use xlink:href="#md0f9deadfe" x="394.363636" y="272.5485" style="stroke: #000000; stroke-width: 0.6"/>
      </g>
     </g>
    </g>
    <g id="ytick_72">
     <g id="line2d_94">
      <g>
       <use xlink:href="#md0f9deadfe" x="394.363636" y="265.743364" style="stroke: #000000; stroke-width: 0.6"/>
      </g>
     </g>
    </g>
    <g id="ytick_73">
     <g id="line2d_95">
      <g>
       <use xlink:href="#md0f9deadfe" x="394.363636" y="259.989703" style="stroke: #000000; stroke-width: 0.6"/>
      </g>
     </g>
    </g>
    <g id="ytick_74">
     <g id="line2d_96">
      <g>
       <use xlink:href="#md0f9deadfe" x="394.363636" y="255.005655" style="stroke: #000000; stroke-width: 0.6"/>
      </g>
     </g>
    </g>
    <g id="ytick_75">
     <g id="line2d_97">
      <g>
       <use xlink:href="#md0f9deadfe" x="394.363636" y="250.609413" style="stroke: #000000; stroke-width: 0.6"/>
      </g>
     </g>
    </g>
    <g id="ytick_76">
     <g id="line2d_98">
      <g>
       <use xlink:href="#md0f9deadfe" x="394.363636" y="220.805182" style="stroke: #000000; stroke-width: 0.6"/>
      </g>
     </g>
    </g>
    <g id="ytick_77">
     <g id="line2d_99">
      <g>
       <use xlink:href="#md0f9deadfe" x="394.363636" y="205.671231" style="stroke: #000000; stroke-width: 0.6"/>
      </g>
     </g>
    </g>
    <g id="ytick_78">
     <g id="line2d_100">
      <g>
       <use xlink:href="#md0f9deadfe" x="394.363636" y="194.933523" style="stroke: #000000; stroke-width: 0.6"/>
      </g>
     </g>
    </g>
    <g id="ytick_79">
     <g id="line2d_101">
      <g>
       <use xlink:href="#md0f9deadfe" x="394.363636" y="186.604709" style="stroke: #000000; stroke-width: 0.6"/>
      </g>
     </g>
    </g>
    <g id="ytick_80">
     <g id="line2d_102">
      <g>
       <use xlink:href="#md0f9deadfe" x="394.363636" y="179.799572" style="stroke: #000000; stroke-width: 0.6"/>
      </g>
     </g>
    </g>
    <g id="ytick_81">
     <g id="line2d_103">
      <g>
       <use xlink:href="#md0f9deadfe" x="394.363636" y="174.045911" style="stroke: #000000; stroke-width: 0.6"/>
      </g>
     </g>
    </g>
    <g id="ytick_82">
     <g id="line2d_104">
      <g>
       <use xlink:href="#md0f9deadfe" x="394.363636" y="169.061864" style="stroke: #000000; stroke-width: 0.6"/>
      </g>
     </g>
    </g>
    <g id="ytick_83">
     <g id="line2d_105">
      <g>
       <use xlink:href="#md0f9deadfe" x="394.363636" y="164.665622" style="stroke: #000000; stroke-width: 0.6"/>
      </g>
     </g>
    </g>
    <g id="ytick_84">
     <g id="line2d_106">
      <g>
       <use xlink:href="#md0f9deadfe" x="394.363636" y="134.86139" style="stroke: #000000; stroke-width: 0.6"/>
      </g>
     </g>
    </g>
    <g id="ytick_85">
     <g id="line2d_107">
      <g>
       <use xlink:href="#md0f9deadfe" x="394.363636" y="119.72744" style="stroke: #000000; stroke-width: 0.6"/>
      </g>
     </g>
    </g>
    <g id="ytick_86">
     <g id="line2d_108">
      <g>
       <use xlink:href="#md0f9deadfe" x="394.363636" y="108.989731" style="stroke: #000000; stroke-width: 0.6"/>
      </g>
     </g>
    </g>
    <g id="ytick_87">
     <g id="line2d_109">
      <g>
       <use xlink:href="#md0f9deadfe" x="394.363636" y="100.660917" style="stroke: #000000; stroke-width: 0.6"/>
      </g>
     </g>
    </g>
    <g id="ytick_88">
     <g id="line2d_110">
      <g>
       <use xlink:href="#md0f9deadfe" x="394.363636" y="93.855781" style="stroke: #000000; stroke-width: 0.6"/>
      </g>
     </g>
    </g>
    <g id="ytick_89">
     <g id="line2d_111">
      <g>
       <use xlink:href="#md0f9deadfe" x="394.363636" y="88.10212" style="stroke: #000000; stroke-width: 0.6"/>
      </g>
     </g>
    </g>
    <g id="ytick_90">
     <g id="line2d_112">
      <g>
       <use xlink:href="#md0f9deadfe" x="394.363636" y="83.118072" style="stroke: #000000; stroke-width: 0.6"/>
      </g>
     </g>
    </g>
    <g id="ytick_91">
     <g id="line2d_113">
      <g>
       <use xlink:href="#md0f9deadfe" x="394.363636" y="78.72183" style="stroke: #000000; stroke-width: 0.6"/>
      </g>
     </g>
    </g>
    <g id="ytick_92">
     <g id="line2d_114">
      <g>
       <use xlink:href="#md0f9deadfe" x="394.363636" y="48.917599" style="stroke: #000000; stroke-width: 0.6"/>
      </g>
     </g>
    </g>
    <g id="text_31">
     <!-- GradNorm -->
     <g transform="translate(363.683949 207.60625)rotate(-90)scale(0.1 -0.1)">
      <defs>
       <path id="DejaVuSans-47" d="M 3809 666 
L 3809 1919 
L 2778 1919 
L 2778 2438 
L 4434 2438 
L 4434 434 
Q 4069 175 3628 42 
Q 3188 -91 2688 -91 
Q 1594 -91 976 548 
Q 359 1188 359 2328 
Q 359 3472 976 4111 
Q 1594 4750 2688 4750 
Q 3144 4750 3555 4637 
Q 3966 4525 4313 4306 
L 4313 3634 
Q 3963 3931 3569 4081 
Q 3175 4231 2741 4231 
Q 1884 4231 1454 3753 
Q 1025 3275 1025 2328 
Q 1025 1384 1454 906 
Q 1884 428 2741 428 
Q 3075 428 3337 486 
Q 3600 544 3809 666 
z
" transform="scale(0.015625)"/>
       <path id="DejaVuSans-64" d="M 2906 2969 
L 2906 4863 
L 3481 4863 
L 3481 0 
L 2906 0 
L 2906 525 
Q 2725 213 2448 61 
Q 2172 -91 1784 -91 
Q 1150 -91 751 415 
Q 353 922 353 1747 
Q 353 2572 751 3078 
Q 1150 3584 1784 3584 
Q 2172 3584 2448 3432 
Q 2725 3281 2906 2969 
z
M 947 1747 
Q 947 1113 1208 752 
Q 1469 391 1925 391 
Q 2381 391 2643 752 
Q 2906 1113 2906 1747 
Q 2906 2381 2643 2742 
Q 2381 3103 1925 3103 
Q 1469 3103 1208 2742 
Q 947 2381 947 1747 
z
" transform="scale(0.015625)"/>
       <path id="DejaVuSans-4e" d="M 628 4666 
L 1478 4666 
L 3547 763 
L 3547 4666 
L 4159 4666 
L 4159 0 
L 3309 0 
L 1241 3903 
L 1241 0 
L 628 0 
L 628 4666 
z
" transform="scale(0.015625)"/>
       <path id="DejaVuSans-6d" d="M 3328 2828 
Q 3544 3216 3844 3400 
Q 4144 3584 4550 3584 
Q 5097 3584 5394 3201 
Q 5691 2819 5691 2113 
L 5691 0 
L 5113 0 
L 5113 2094 
Q 5113 2597 4934 2840 
Q 4756 3084 4391 3084 
Q 3944 3084 3684 2787 
Q 3425 2491 3425 1978 
L 3425 0 
L 2847 0 
L 2847 2094 
Q 2847 2600 2669 2842 
Q 2491 3084 2119 3084 
Q 1678 3084 1418 2786 
Q 1159 2488 1159 1978 
L 1159 0 
L 581 0 
L 581 3500 
L 1159 3500 
L 1159 2956 
Q 1356 3278 1631 3431 
Q 1906 3584 2284 3584 
Q 2666 3584 2933 3390 
Q 3200 3197 3328 2828 
z
" transform="scale(0.015625)"/>
      </defs>
      <use xlink:href="#DejaVuSans-47"/>
      <use xlink:href="#DejaVuSans-72" x="77.490234"/>
      <use xlink:href="#DejaVuSans-61" x="118.603516"/>
      <use xlink:href="#DejaVuSans-64" x="179.882812"/>
      <use xlink:href="#DejaVuSans-4e" x="243.359375"/>
      <use xlink:href="#DejaVuSans-6f" x="318.164062"/>
      <use xlink:href="#DejaVuSans-72" x="379.345703"/>
      <use xlink:href="#DejaVuSans-6d" x="418.708984"/>
     </g>
    </g>
   </g>
   <g id="line2d_115">
    <path d="M 405.892562 57.876947 
L 406.81858 77.983091 
L 407.744598 81.391871 
L 408.670616 89.713926 
L 409.596634 100.001465 
L 410.522653 122.355542 
L 411.448671 108.622769 
L 412.374689 122.365177 
L 413.300707 130.65997 
L 414.226725 140.479434 
L 415.152743 144.614791 
L 416.078761 124.061768 
L 417.004779 139.152314 
L 417.930798 143.320211 
L 418.856816 152.986911 
L 419.782834 155.647461 
L 420.708852 134.688497 
L 421.63487 147.7381 
L 422.560888 149.167965 
L 423.486906 160.207627 
L 424.412924 162.29681 
L 425.338943 143.826195 
L 426.264961 152.938773 
L 427.190979 153.299149 
L 428.116997 166.282463 
L 429.043015 167.408614 
L 429.969033 174.217161 
L 430.895051 154.319762 
L 431.821069 161.744258 
L 432.747088 160.718549 
L 433.673106 170.349575 
L 434.599124 169.190183 
L 435.525142 178.853495 
L 436.45116 161.656805 
L 437.377178 165.720238 
L 438.303196 164.401476 
L 439.229214 174.26161 
L 440.155233 171.277765 
L 441.081251 183.547588 
L 442.007269 175.510041 
L 442.933287 172.993852 
L 443.859305 184.245055 
L 444.785323 166.308388 
L 445.711341 165.647896 
L 446.637359 166.187148 
L 447.563377 178.632028 
L 448.489396 175.39478 
L 449.415414 188.1206 
L 450.341432 180.432279 
L 451.26745 176.92864 
L 452.193468 188.573174 
L 453.119486 170.094137 
L 454.045504 167.002462 
L 454.971522 168.063824 
L 455.897541 182.126707 
L 456.823559 177.73692 
L 457.749577 191.695843 
L 458.675595 174.614015 
L 459.601613 171.894238 
L 460.527631 171.498034 
L 461.453649 184.430686 
L 462.379667 177.36405 
L 463.305686 194.566509 
L 464.231704 185.789591 
L 465.157722 181.201401 
L 466.08374 194.542543 
L 467.009758 175.313982 
L 467.935776 170.049828 
L 468.861794 180.325864 
L 469.787812 184.052478 
L 470.713831 177.025643 
L 471.639849 197.235621 
L 472.565867 178.41247 
L 473.491885 174.367906 
L 474.417903 174.981481 
L 475.343921 188.946758 
L 476.269939 179.942493 
L 477.195957 199.2357 
L 478.121976 180.135048 
L 479.047994 176.600897 
L 479.974012 176.368656 
L 480.90003 190.732179 
L 481.826048 181.094017 
L 482.752066 201.150086 
L 483.678084 191.44692 
L 484.604102 184.989216 
L 485.53012 201.106916 
L 486.456139 179.434646 
L 487.382157 173.955965 
L 488.308175 185.328907 
L 489.234193 189.284365 
L 490.160211 180.594787 
L 491.086229 202.838596 
L 492.012247 182.087245 
L 492.938265 178.094455 
L 493.864284 179.279722 
L 494.790302 194.53773 
L 495.71632 182.584297 
L 496.642338 204.495418 
L 497.568356 183.155424 
L 498.494374 180.041235 
L 499.420392 180.071095 
L 500.34641 195.820837 
L 501.272429 184.006242 
L 502.198447 206.08884 
L 503.124465 184.458156 
L 504.050483 181.914973 
L 504.976501 181.769536 
L 505.902519 197.077685 
L 506.828537 184.688207 
L 507.754555 207.087079 
L 508.680574 185.42848 
L 509.606592 183.219163 
L 510.53261 183.009957 
L 511.458628 198.344503 
L 512.384646 185.037156 
L 513.310664 208.474664 
L 514.236682 186.274693 
L 515.1627 184.104623 
L 516.088719 183.98329 
L 517.014737 199.74682 
L 517.940755 186.260418 
L 518.866773 209.813166 
L 519.792791 187.021924 
L 520.718809 185.507712 
L 521.644827 185.160458 
L 522.570845 200.834573 
L 523.496863 186.643854 
L 524.422882 210.512793 
L 525.3489 187.427389 
L 526.274918 185.826425 
L 527.200936 185.561084 
L 528.126954 202.186243 
L 529.052972 188.029476 
L 529.97899 211.797365 
L 530.905008 188.161753 
L 531.831027 187.097908 
L 532.757045 186.741741 
L 533.683063 203.278626 
L 534.609081 188.818548 
L 535.535099 212.411741 
L 536.461117 188.958236 
L 537.387135 187.909462 
L 538.313153 187.589849 
L 539.239172 204.540021 
L 540.16519 189.647285 
L 541.091208 213.692259 
L 542.017226 189.680219 
L 542.943244 189.100651 
L 543.869262 198.64821 
L 544.79528 200.565995 
L 545.721298 186.401323 
L 546.647317 214.816531 
L 547.573335 190.755984 
L 548.499353 190.306998 
L 549.425371 190.600744 
L 550.351389 206.654303 
L 551.277407 190.524692 
L 552.203425 215.461883 
L 553.129443 191.230522 
L 554.055462 190.833129 
L 554.98148 200.460837 
L 555.907498 202.812658 
L 556.833516 188.104038 
L 557.759534 216.79891 
L 558.685552 192.187616 
L 559.61157 192.345023 
L 560.537588 192.80534 
L 561.463606 208.916142 
L 562.389625 191.639189 
L 563.315643 217.283225 
L 564.241661 192.651374 
L 565.167679 192.895825 
L 566.093697 202.644236 
L 567.019715 204.780394 
L 567.945733 189.553656 
L 568.871751 218.159628 
L 569.79777 193.720873 
L 570.723788 193.922631 
L 571.649806 194.469118 
L 572.575824 211.159237 
L 573.501842 193.045338 
L 574.42786 219.480899 
L 575.353878 194.007651 
L 576.279896 194.708896 
L 577.205915 204.532536 
L 578.131933 206.867507 
L 579.057951 190.984743 
L 579.983969 219.993699 
L 580.909987 195.07037 
L 581.836005 195.833572 
L 582.762023 196.329824 
L 583.688041 213.143134 
L 584.61406 194.796277 
L 585.540078 220.938509 
L 586.466096 195.370296 
L 587.392114 196.530066 
L 588.318132 206.310751 
L 589.24415 208.807729 
L 590.170168 192.058322 
L 591.096186 221.645901 
L 592.022205 196.447075 
L 592.948223 197.664296 
L 593.874241 207.169637 
L 594.800259 209.735065 
L 595.726277 192.829684 
L 596.652295 222.520457 
L 597.578313 197.044878 
L 598.504331 198.573096 
L 599.430349 208.058123 
L 600.356368 210.913869 
L 601.282386 193.325383 
L 602.208404 222.858773 
L 603.134422 197.302072 
L 604.06044 198.590134 
L 604.986458 208.800118 
L 605.912476 211.782483 
L 606.838494 194.449881 
L 607.764513 224.223523 
L 608.690531 198.242544 
L 609.616549 199.959702 
L 610.542567 209.536938 
L 611.468585 212.703747 
L 612.394603 194.939638 
L 613.320621 224.923523 
L 614.246639 198.881202 
L 615.172658 201.095809 
L 616.098676 210.562256 
L 617.024694 213.666905 
L 617.950712 195.357624 
L 618.87673 225.32985 
L 619.802748 199.492748 
L 620.728766 201.745803 
L 621.654784 211.34751 
L 622.580803 214.258378 
L 623.506821 196.134971 
L 624.432839 226.061188 
L 625.358857 200.15226 
L 626.284875 202.392289 
L 627.210893 211.910969 
L 628.136911 215.379406 
L 629.062929 196.547882 
L 629.988948 227.168623 
L 630.914966 200.568812 
L 631.840984 203.337131 
L 632.767002 212.930883 
L 633.69302 215.964453 
L 634.619038 197.295429 
L 635.545056 227.420909 
L 636.471074 201.288442 
L 636.471074 201.288442 
" clip-path="url(#p5e6d783e1c)" style="fill: none; stroke: #1f77b4; stroke-width: 1.5; stroke-linecap: square"/>
   </g>
   <g id="line2d_116">
    <path d="M 405.892562 55.8 
L 406.81858 77.676433 
L 407.744598 90.269398 
L 408.670616 97.707895 
L 409.596634 107.641812 
L 410.522653 125.352667 
L 411.448671 127.303381 
L 412.374689 132.08253 
L 413.300707 138.728693 
L 414.226725 142.028565 
L 415.152743 146.08552 
L 416.078761 144.862062 
L 417.004779 149.750345 
L 417.930798 151.513398 
L 418.856816 150.824264 
L 419.782834 156.493765 
L 420.708852 155.03887 
L 421.63487 161.244439 
L 422.560888 162.453752 
L 423.486906 163.038505 
L 424.412924 161.691511 
L 425.338943 166.282206 
L 426.264961 166.496007 
L 427.190979 172.012905 
L 428.116997 167.177809 
L 429.043015 170.48414 
L 429.969033 169.019639 
L 430.895051 174.794247 
L 431.821069 177.814432 
L 432.747088 173.074829 
L 433.673106 172.220335 
L 434.599124 177.453179 
L 435.525142 179.959016 
L 436.45116 177.581593 
L 437.377178 176.574546 
L 438.303196 181.809566 
L 440.155233 185.376477 
L 441.081251 182.194439 
L 442.007269 181.486084 
L 442.933287 187.65541 
L 443.859305 187.468392 
L 444.785323 189.769262 
L 445.711341 186.048937 
L 446.637359 185.572682 
L 447.563377 192.087593 
L 448.489396 188.174911 
L 449.415414 187.594112 
L 450.341432 193.386083 
L 451.26745 193.805576 
L 452.193468 195.416561 
L 453.119486 191.610247 
L 454.045504 191.080485 
L 454.971522 197.494098 
L 455.897541 193.48106 
L 456.823559 192.930891 
L 457.749577 198.727161 
L 458.675595 198.962305 
L 459.601613 194.50178 
L 460.527631 194.006905 
L 461.453649 199.431409 
L 462.379667 202.196313 
L 463.305686 198.51118 
L 464.231704 197.798119 
L 465.157722 203.755215 
L 466.08374 204.09972 
L 467.009758 199.641589 
L 467.935776 199.127506 
L 468.861794 204.7272 
L 469.787812 207.168887 
L 470.713831 203.497823 
L 471.639849 202.700534 
L 472.565867 208.745758 
L 473.491885 209.162646 
L 474.417903 204.702274 
L 475.343921 204.186599 
L 476.269939 209.96522 
L 477.195957 212.031871 
L 478.121976 208.299799 
L 479.047994 207.433034 
L 479.974012 213.508839 
L 480.90003 214.014394 
L 481.826048 209.585103 
L 482.752066 208.996461 
L 483.678084 214.890767 
L 484.604102 216.591567 
L 485.53012 212.855971 
L 486.456139 211.886661 
L 487.382157 217.952765 
L 488.308175 212.80589 
L 489.234193 218.68996 
L 490.160211 219.409407 
L 491.086229 214.893926 
L 492.012247 214.332596 
L 492.938265 220.046226 
L 493.864284 221.771024 
L 494.790302 218.092892 
L 495.71632 217.203173 
L 496.642338 223.099568 
L 497.568356 223.627467 
L 498.494374 219.348374 
L 499.420392 218.700077 
L 500.34641 224.491152 
L 501.272429 225.841012 
L 502.198447 222.37822 
L 503.124465 221.261206 
L 504.050483 227.042457 
L 504.976501 227.554262 
L 505.902519 223.504369 
L 506.828537 222.728834 
L 507.754555 228.446904 
L 508.680574 229.715319 
L 509.606592 224.613261 
L 510.53261 230.512286 
L 511.458628 227.105032 
L 512.384646 226.046847 
L 513.310664 231.319803 
L 514.236682 232.177935 
L 515.1627 228.168754 
L 516.088719 227.358056 
L 517.014737 232.720997 
L 517.940755 234.088829 
L 518.866773 229.263306 
L 519.792791 234.820065 
L 520.718809 236.215589 
L 521.644827 231.227103 
L 522.570845 230.962616 
L 523.496863 236.411604 
L 524.422882 237.479953 
L 525.3489 232.589901 
L 526.274918 238.105396 
L 527.200936 239.377795 
L 528.126954 233.974575 
L 529.052972 233.85411 
L 529.97899 239.147091 
L 530.905008 240.353567 
L 531.831027 235.565577 
L 532.757045 240.935625 
L 533.683063 242.328941 
L 534.609081 236.94112 
L 535.535099 236.849092 
L 536.461117 242.07358 
L 537.387135 243.073524 
L 538.313153 243.872792 
L 539.239172 238.748899 
L 540.16519 238.531338 
L 541.091208 243.75563 
L 542.017226 244.832038 
L 542.943244 240.348016 
L 543.869262 245.543276 
L 544.79528 246.888793 
L 545.721298 241.539991 
L 546.647317 241.411679 
L 547.573335 246.439296 
L 548.499353 247.709647 
L 549.425371 248.563713 
L 550.351389 243.434998 
L 551.277407 243.148789 
L 552.203425 248.239813 
L 553.129443 249.232152 
L 554.055462 244.907644 
L 554.98148 249.875415 
L 555.907498 251.315352 
L 556.833516 246.164255 
L 557.759534 245.947754 
L 558.685552 250.83748 
L 559.61157 252.031003 
L 560.537588 252.787259 
L 561.463606 247.845874 
L 562.389625 247.491004 
L 563.315643 252.361909 
L 564.241661 253.476262 
L 565.167679 254.349293 
L 566.093697 249.586801 
L 567.019715 249.320971 
L 567.945733 254.292512 
L 568.871751 255.296556 
L 569.79777 256.052381 
L 570.723788 251.241492 
L 571.649806 250.956372 
L 572.575824 255.900962 
L 573.501842 257.184401 
L 574.42786 258.038152 
L 575.353878 253.623276 
L 576.279896 259.117952 
L 577.205915 254.139857 
L 578.131933 253.583649 
L 579.057951 257.710347 
L 580.909987 260.421592 
L 581.836005 255.95454 
L 582.762023 255.286408 
L 583.688041 259.895232 
L 585.540078 261.795256 
L 586.466096 257.268706 
L 587.392114 256.838796 
L 588.318132 261.510499 
L 589.24415 262.806247 
L 590.170168 263.711552 
L 591.096186 259.102952 
L 592.022205 258.61876 
L 592.948223 263.286054 
L 594.800259 265.386922 
L 595.726277 260.857042 
L 596.652295 260.466472 
L 597.578313 265.124925 
L 598.504331 266.21052 
L 599.430349 267.06489 
L 600.356368 263.027772 
L 601.282386 268.171905 
L 602.208404 263.343088 
L 603.134422 262.877573 
L 604.06044 266.721751 
L 605.912476 269.69886 
L 606.838494 265.126451 
L 607.764513 264.485394 
L 608.690531 268.84383 
L 609.616549 269.947914 
L 610.542567 270.863092 
L 611.468585 266.548631 
L 612.394603 266.067587 
L 613.320621 270.492037 
L 614.246639 271.584396 
L 615.172658 272.425983 
L 616.098676 268.060506 
L 617.024694 267.594876 
L 617.950712 271.910277 
L 618.87673 273.303494 
L 619.802748 274.295701 
L 620.728766 270.032991 
L 621.654784 269.561619 
L 622.580803 273.941247 
L 624.432839 275.927634 
L 625.358857 271.541943 
L 626.284875 271.09119 
L 627.210893 275.345154 
L 628.136911 276.649525 
L 629.062929 277.433853 
L 629.988948 272.954775 
L 630.914966 272.441715 
L 631.840984 276.61529 
L 632.767002 278.300366 
L 633.69302 279.135031 
L 634.619038 274.736522 
L 635.545056 274.159252 
L 636.471074 278.319343 
L 636.471074 278.319343 
" clip-path="url(#p5e6d783e1c)" style="fill: none; stroke: #ff7f0e; stroke-width: 1.5; stroke-linecap: square"/>
   </g>
   <g id="line2d_117">
    <path d="M 405.892562 58.279718 
L 406.81858 87.055793 
L 408.670616 103.249687 
L 409.596634 115.652641 
L 410.522653 124.497771 
L 411.448671 128.546525 
L 412.374689 135.216955 
L 413.300707 138.160483 
L 414.226725 144.71817 
L 415.152743 148.040146 
L 416.078761 149.457983 
L 417.930798 153.809472 
L 418.856816 157.295883 
L 419.782834 157.888892 
L 420.708852 162.460367 
L 421.63487 161.437452 
L 422.560888 163.355556 
L 423.486906 163.962297 
L 424.412924 167.805439 
L 425.338943 169.890021 
L 426.264961 169.942218 
L 427.190979 169.440143 
L 428.116997 169.856587 
L 429.043015 174.291605 
L 429.969033 174.702026 
L 430.895051 178.028621 
L 431.821069 176.226442 
L 432.747088 180.919603 
L 433.673106 181.524532 
L 434.599124 180.005291 
L 435.525142 180.61487 
L 436.45116 181.43583 
L 437.377178 179.606163 
L 439.229214 186.263617 
L 440.155233 186.845325 
L 441.081251 188.03931 
L 442.007269 188.648953 
L 442.933287 186.174688 
L 443.859305 190.362557 
L 444.785323 191.32467 
L 445.711341 191.412684 
L 446.637359 192.204336 
L 447.563377 192.06503 
L 448.489396 192.749053 
L 449.415414 195.759465 
L 450.341432 195.900424 
L 451.26745 196.763161 
L 452.193468 196.298479 
L 453.119486 192.999369 
L 454.045504 198.14638 
L 454.971522 199.035368 
L 455.897541 199.078474 
L 456.823559 199.81772 
L 457.749577 202.433723 
L 458.675595 202.39522 
L 459.601613 203.23599 
L 460.527631 203.020264 
L 461.453649 203.831964 
L 462.379667 203.853661 
L 463.305686 200.468974 
L 464.231704 205.749875 
L 465.157722 206.630009 
L 466.08374 206.582879 
L 467.009758 207.364014 
L 467.935776 209.991725 
L 468.861794 209.749131 
L 469.787812 210.580043 
L 470.713831 206.30577 
L 471.639849 211.662177 
L 472.565867 211.332278 
L 473.491885 212.147087 
L 474.417903 209.359568 
L 475.343921 213.593842 
L 476.269939 215.984867 
L 477.195957 216.723193 
L 478.121976 216.939197 
L 479.047994 217.794195 
L 479.974012 217.885328 
L 480.90003 214.654927 
L 481.826048 218.812293 
L 482.752066 219.610645 
L 483.678084 219.582209 
L 484.604102 221.889649 
L 485.53012 222.645163 
L 486.456139 222.557784 
L 487.382157 223.385399 
L 488.308175 223.654981 
L 489.234193 219.883531 
L 490.160211 224.645036 
L 491.086229 225.360501 
L 492.012247 227.110118 
L 492.938265 227.391256 
L 493.864284 228.158943 
L 494.790302 228.703072 
L 495.71632 224.641642 
L 496.642338 229.162408 
L 497.568356 229.833983 
L 498.494374 229.792798 
L 499.420392 231.59442 
L 500.34641 232.269427 
L 501.272429 232.160139 
L 503.124465 233.607857 
L 504.050483 229.649707 
L 504.976501 234.036259 
L 505.902519 234.64934 
L 506.828537 236.053655 
L 507.754555 236.285191 
L 508.680574 236.938159 
L 509.606592 237.851998 
L 510.53261 233.938762 
L 511.458628 238.076604 
L 512.384646 238.581055 
L 513.310664 239.863296 
L 514.236682 240.182592 
L 515.1627 240.828393 
L 516.088719 241.754573 
L 517.014737 237.854156 
L 517.940755 241.772637 
L 518.866773 242.188641 
L 519.792791 243.363027 
L 520.718809 243.699429 
L 521.644827 244.449396 
L 522.570845 244.763151 
L 523.496863 241.123631 
L 524.422882 244.953987 
L 525.3489 246.148468 
L 526.274918 246.87941 
L 527.200936 247.035539 
L 528.126954 247.455814 
L 529.052972 244.161578 
L 529.97899 245.004707 
L 530.905008 245.680213 
L 531.831027 245.767625 
L 532.757045 249.994854 
L 533.683063 250.583325 
L 534.609081 247.198077 
L 535.535099 250.166826 
L 537.387135 252.330992 
L 538.313153 252.408254 
L 539.239172 252.990727 
L 540.16519 249.910423 
L 542.017226 251.408742 
L 542.943244 251.383783 
L 543.869262 255.115175 
L 544.79528 255.649869 
L 545.721298 252.619693 
L 546.647317 255.149717 
L 548.499353 257.311795 
L 549.425371 257.245967 
L 550.351389 257.780556 
L 551.277407 255.137305 
L 553.129443 256.725093 
L 554.055462 256.560689 
L 554.98148 259.927724 
L 555.907498 260.41829 
L 556.833516 257.698534 
L 557.759534 259.897328 
L 559.61157 262.121732 
L 560.537588 261.963916 
L 561.463606 262.542574 
L 562.389625 260.065261 
L 564.241661 261.683555 
L 565.167679 261.442485 
L 566.093697 264.490089 
L 567.019715 262.106658 
L 568.871751 263.703478 
L 569.79777 263.454086 
L 570.723788 266.444076 
L 571.649806 266.849697 
L 572.575824 264.491619 
L 573.501842 266.295153 
L 575.353878 268.566869 
L 576.279896 268.309786 
L 577.205915 268.925548 
L 578.131933 266.773865 
L 579.983969 268.506532 
L 580.909987 268.133174 
L 581.836005 270.807675 
L 582.762023 268.657748 
L 584.61406 270.390184 
L 585.540078 270.049222 
L 586.466096 272.725643 
L 587.392114 270.643119 
L 589.24415 272.275535 
L 590.170168 271.924593 
L 591.096186 274.450693 
L 592.022205 272.457312 
L 593.874241 274.182064 
L 594.800259 273.813807 
L 595.726277 276.338951 
L 596.652295 274.373058 
L 598.504331 276.139157 
L 599.430349 275.757015 
L 600.356368 278.200388 
L 601.282386 276.258263 
L 602.208404 277.108261 
L 603.134422 277.735623 
L 604.06044 277.307625 
L 604.986458 279.67372 
L 605.912476 277.83133 
L 606.838494 278.672893 
L 607.764513 279.89616 
L 608.690531 279.498066 
L 609.616549 281.818094 
L 610.542567 279.955196 
L 611.468585 280.758164 
L 612.394603 281.74007 
L 613.320621 281.280301 
L 614.246639 283.688122 
L 615.172658 281.831921 
L 617.024694 283.539823 
L 617.950712 283.076967 
L 618.87673 285.447532 
L 619.802748 283.673178 
L 621.654784 285.413521 
L 622.580803 284.951814 
L 623.506821 287.258697 
L 624.432839 285.511227 
L 625.358857 286.407832 
L 626.284875 286.98271 
L 627.210893 286.530727 
L 628.136911 288.608982 
L 629.062929 286.87982 
L 629.988948 287.733732 
L 630.914966 289.173896 
L 631.840984 288.631684 
L 632.767002 290.896028 
L 633.69302 289.109739 
L 634.619038 289.927841 
L 635.545056 290.961513 
L 636.471074 290.404717 
L 636.471074 290.404717 
" clip-path="url(#p5e6d783e1c)" style="fill: none; stroke: #2ca02c; stroke-width: 1.5; stroke-linecap: square"/>
   </g>
   <g id="line2d_118">
    <path d="M 405.892562 58.218462 
L 406.81858 87.022645 
L 408.670616 103.352066 
L 409.596634 115.646403 
L 410.522653 123.694643 
L 411.448671 127.853727 
L 413.300707 141.117824 
L 414.226725 145.404155 
L 415.152743 148.222423 
L 416.078761 148.200963 
L 417.004779 151.292661 
L 417.930798 151.509649 
L 421.63487 162.692304 
L 422.560888 162.950797 
L 423.486906 163.041424 
L 427.190979 173.359003 
L 428.116997 172.875953 
L 429.043015 172.595646 
L 430.895051 177.140922 
L 431.821069 179.674957 
L 432.747088 175.956562 
L 433.673106 179.81772 
L 434.599124 182.423212 
L 435.525142 179.385252 
L 438.303196 185.459231 
L 439.229214 183.895529 
L 440.155233 187.316481 
L 442.007269 191.32176 
L 442.933287 189.352974 
L 443.859305 189.855898 
L 444.785323 191.89857 
L 445.711341 193.507909 
L 446.637359 196.70457 
L 447.563377 195.814963 
L 448.489396 195.147244 
L 450.341432 199.131721 
L 451.26745 202.355018 
L 452.193468 204.750502 
L 453.119486 203.482016 
L 454.045504 202.66933 
L 454.971522 204.674458 
L 455.897541 207.507856 
L 456.823559 209.938065 
L 457.749577 209.027034 
L 458.675595 207.344511 
L 459.601613 209.409772 
L 460.527631 212.857766 
L 461.453649 215.447828 
L 462.379667 214.139685 
L 463.305686 212.434342 
L 464.231704 214.370923 
L 465.157722 217.632046 
L 466.08374 220.231202 
L 467.009758 218.912775 
L 467.935776 217.071452 
L 468.861794 219.130048 
L 469.787812 222.321624 
L 470.713831 224.920321 
L 471.639849 223.392572 
L 472.565867 221.603633 
L 473.491885 223.430901 
L 474.417903 226.667792 
L 475.343921 229.220636 
L 477.195957 226.100753 
L 478.121976 228.031825 
L 479.974012 233.624683 
L 480.90003 231.98567 
L 481.826048 230.664721 
L 482.752066 232.440695 
L 484.604102 237.558629 
L 486.456139 234.372172 
L 487.382157 235.999312 
L 488.308175 238.921108 
L 489.234193 241.370828 
L 491.086229 238.089593 
L 492.012247 239.639735 
L 492.938265 242.774728 
L 493.864284 245.16873 
L 494.790302 243.526433 
L 495.71632 241.616533 
L 496.642338 244.550646 
L 497.568356 246.464413 
L 498.494374 248.776433 
L 500.34641 245.527665 
L 501.272429 248.235574 
L 502.198447 249.862285 
L 503.124465 252.111841 
L 504.976501 248.868806 
L 505.902519 251.66493 
L 506.828537 253.150159 
L 507.754555 255.361067 
L 509.606592 251.877613 
L 510.53261 254.927146 
L 511.458628 256.307563 
L 512.384646 258.310854 
L 514.236682 255.100388 
L 515.1627 258.02244 
L 516.088719 259.210186 
L 517.014737 261.173195 
L 517.940755 259.394599 
L 518.866773 258.310767 
L 519.792791 260.899609 
L 520.718809 262.000529 
L 521.644827 263.794788 
L 522.570845 262.043381 
L 523.496863 261.051503 
L 524.422882 263.728043 
L 525.3489 264.757942 
L 526.274918 266.548184 
L 527.200936 264.721357 
L 528.126954 263.598682 
L 529.052972 266.466733 
L 529.97899 267.235288 
L 530.905008 268.832237 
L 531.831027 266.979708 
L 532.757045 266.24739 
L 533.683063 268.995554 
L 534.609081 269.646461 
L 535.535099 271.185813 
L 536.461117 269.290024 
L 537.387135 268.563069 
L 538.313153 271.380728 
L 539.239172 272.046068 
L 540.16519 273.455689 
L 541.091208 271.578342 
L 542.017226 270.625737 
L 542.943244 273.959545 
L 544.79528 274.644693 
L 545.721298 272.731898 
L 546.647317 272.330311 
L 547.573335 275.312475 
L 548.499353 275.512772 
L 549.425371 276.915084 
L 550.351389 275.153263 
L 551.277407 274.073487 
L 552.203425 277.272555 
L 553.129443 277.503938 
L 554.98148 278.186049 
L 555.907498 279.666016 
L 556.833516 277.719025 
L 557.759534 276.959688 
L 558.685552 280.042943 
L 559.61157 280.316036 
L 560.537588 280.727634 
L 561.463606 278.803356 
L 562.389625 278.373302 
L 563.315643 281.295573 
L 564.241661 281.448869 
L 565.167679 282.849967 
L 566.093697 283.211269 
L 567.019715 281.421038 
L 567.945733 280.313999 
L 568.871751 283.130498 
L 569.79777 283.306561 
L 570.723788 283.752085 
L 571.649806 284.009645 
L 572.575824 285.481567 
L 573.501842 283.545994 
L 574.42786 282.839205 
L 575.353878 285.898504 
L 576.279896 286.075761 
L 577.205915 286.474976 
L 578.131933 286.376349 
L 579.057951 286.493027 
L 579.983969 284.85313 
L 580.909987 283.898936 
L 581.836005 287.349103 
L 582.762023 288.544091 
L 583.688041 288.771628 
L 584.61406 286.8054 
L 585.540078 286.403317 
L 586.466096 289.253328 
L 587.392114 289.592653 
L 588.318132 290.937213 
L 589.24415 289.125444 
L 590.170168 288.208096 
L 591.096186 291.254821 
L 592.948223 291.984546 
L 593.874241 291.866361 
L 594.800259 292.162649 
L 595.726277 290.468257 
L 596.652295 289.560819 
L 597.578313 292.871934 
L 598.504331 294.112188 
L 599.430349 294.302355 
L 600.356368 292.340772 
L 601.282386 291.946409 
L 602.208404 294.800921 
L 603.134422 295.20046 
L 604.06044 296.497558 
L 604.986458 294.67474 
L 605.912476 293.643547 
L 606.838494 296.853696 
L 607.764513 297.002049 
L 608.690531 297.459809 
L 609.616549 297.435601 
L 610.542567 297.678221 
L 611.468585 295.988292 
L 612.394603 295.133026 
L 613.320621 298.355943 
L 614.246639 299.682 
L 615.172658 299.862669 
L 616.098676 300.189243 
L 617.024694 298.136953 
L 617.950712 297.72967 
L 618.87673 300.990705 
L 619.802748 300.997158 
L 620.728766 302.338162 
L 621.654784 300.514279 
L 622.580803 299.353136 
L 623.506821 302.646359 
L 624.432839 302.853354 
L 625.358857 303.196796 
L 626.284875 303.378981 
L 627.210893 304.764152 
L 628.136911 302.773471 
L 629.062929 301.833966 
L 629.988948 305.116191 
L 630.914966 305.367753 
L 631.840984 305.768693 
L 632.767002 303.706 
L 633.69302 303.207373 
L 634.619038 306.220508 
L 635.545056 306.445497 
L 636.471074 307.615919 
L 636.471074 307.615919 
" clip-path="url(#p5e6d783e1c)" style="fill: none; stroke: #d62728; stroke-width: 1.5; stroke-linecap: square"/>
   </g>
   <g id="line2d_119">
    <path d="M 405.892562 56.381551 
L 406.81858 79.762415 
L 409.596634 116.047704 
L 410.522653 124.713699 
L 411.448671 128.646935 
L 412.374689 134.924897 
L 413.300707 137.828786 
L 414.226725 145.832815 
L 415.152743 146.759972 
L 416.078761 150.120722 
L 417.004779 151.686733 
L 417.930798 155.809514 
L 418.856816 156.727179 
L 419.782834 158.422429 
L 420.708852 162.142198 
L 421.63487 162.284323 
L 422.560888 164.713775 
L 423.486906 164.787282 
L 424.412924 166.979852 
L 425.338943 169.858526 
L 426.264961 169.871326 
L 427.190979 172.721875 
L 428.116997 172.309853 
L 429.043015 174.550577 
L 429.969033 177.501155 
L 430.895051 177.748113 
L 431.821069 179.87762 
L 432.747088 182.53452 
L 433.673106 181.187954 
L 434.599124 184.126631 
L 435.525142 184.12072 
L 436.45116 186.273416 
L 437.377178 189.064817 
L 438.303196 187.128485 
L 439.229214 190.194146 
L 440.155233 192.734686 
L 441.081251 192.616128 
L 442.007269 195.193227 
L 442.933287 192.812269 
L 444.785323 198.522592 
L 445.711341 198.262219 
L 446.637359 200.592043 
L 447.563377 197.862084 
L 449.415414 204.176187 
L 450.341432 203.759067 
L 451.26745 206.117082 
L 452.193468 203.218699 
L 454.045504 209.590179 
L 454.971522 209.172812 
L 455.897541 211.27128 
L 456.823559 208.179365 
L 457.749577 211.264486 
L 458.675595 214.768692 
L 459.601613 214.227098 
L 460.527631 216.22106 
L 461.453649 212.846429 
L 463.305686 219.65476 
L 464.231704 219.026085 
L 465.157722 220.81041 
L 466.08374 219.989152 
L 467.009758 223.401915 
L 467.935776 219.856294 
L 468.861794 223.333353 
L 469.787812 225.794834 
L 470.713831 225.150466 
L 471.639849 227.011356 
L 472.565867 223.686579 
L 474.417903 229.718881 
L 475.343921 229.037008 
L 476.269939 230.186767 
L 477.195957 226.950845 
L 479.047994 233.846694 
L 479.974012 233.157919 
L 480.90003 234.059024 
L 481.826048 230.918051 
L 482.752066 233.999777 
L 483.678084 237.625629 
L 484.604102 236.936178 
L 485.53012 237.447709 
L 486.456139 234.617663 
L 487.382157 237.760855 
L 488.308175 241.341258 
L 489.234193 240.794832 
L 490.160211 240.77512 
L 491.086229 243.973024 
L 492.012247 240.729334 
L 492.938265 242.56762 
L 493.864284 245.079009 
L 494.790302 241.774347 
L 495.71632 243.813672 
L 496.642338 246.243058 
L 497.568356 245.389674 
L 498.494374 242.585424 
L 499.420392 244.269412 
L 500.34641 248.337596 
L 501.272429 246.400814 
L 502.198447 248.755592 
L 503.124465 250.447146 
L 504.050483 248.800501 
L 504.976501 250.540147 
L 505.902519 247.586165 
L 506.828537 249.763746 
L 507.754555 248.202735 
L 508.680574 252.159445 
L 509.606592 253.769898 
L 510.53261 251.697934 
L 511.458628 254.380128 
L 512.384646 251.39527 
L 513.310664 253.253895 
L 514.236682 251.5534 
L 515.1627 255.454323 
L 516.088719 256.84791 
L 517.014737 254.824409 
L 517.940755 257.62371 
L 518.866773 254.868922 
L 519.792791 256.615254 
L 520.718809 254.346867 
L 521.644827 258.163588 
L 522.570845 259.557606 
L 523.496863 258.070166 
L 524.422882 260.811303 
L 525.3489 257.844222 
L 526.274918 259.567298 
L 527.200936 257.999574 
L 528.126954 261.924131 
L 529.052972 263.180571 
L 529.97899 261.234134 
L 530.905008 263.94492 
L 531.831027 261.284517 
L 532.757045 262.943689 
L 533.683063 261.131848 
L 534.609081 265.123764 
L 535.535099 266.369012 
L 536.461117 264.334448 
L 537.387135 267.134063 
L 538.313153 265.31439 
L 539.239172 267.572065 
L 540.16519 264.737501 
L 541.091208 266.695049 
L 542.017226 264.593118 
L 542.943244 268.460817 
L 543.869262 269.487879 
L 544.79528 267.886069 
L 545.721298 270.726932 
L 546.647317 268.741094 
L 547.573335 270.904516 
L 548.499353 269.316288 
L 549.425371 271.543621 
L 550.351389 268.578629 
L 551.277407 270.378665 
L 552.203425 268.777321 
L 553.129443 272.591132 
L 554.055462 273.85209 
L 554.98148 271.95022 
L 555.907498 274.729366 
L 556.833516 271.866344 
L 557.759534 273.629733 
L 558.685552 271.89052 
L 559.61157 275.589594 
L 560.537588 277.01432 
L 561.463606 274.824257 
L 562.389625 277.807671 
L 563.315643 275.548383 
L 564.241661 277.628466 
L 565.167679 276.116975 
L 566.093697 278.62901 
L 567.019715 275.667626 
L 567.945733 277.392323 
L 568.871751 275.562076 
L 569.79777 279.119623 
L 570.723788 280.472512 
L 571.649806 278.810057 
L 572.575824 281.623911 
L 573.501842 278.84155 
L 574.42786 280.512431 
L 575.353878 278.891242 
L 576.279896 282.434516 
L 577.205915 283.805271 
L 578.131933 281.78395 
L 579.057951 284.731402 
L 579.983969 282.647262 
L 580.909987 284.643047 
L 581.836005 281.988482 
L 582.762023 283.961153 
L 583.688041 282.25031 
L 584.61406 285.9195 
L 585.540078 287.272561 
L 586.466096 285.452905 
L 587.392114 288.144621 
L 588.318132 286.192365 
L 589.24415 288.191355 
L 590.170168 285.583018 
L 591.096186 287.489242 
L 592.022205 285.575393 
L 592.948223 289.253106 
L 593.874241 290.844296 
L 594.800259 288.926002 
L 595.726277 291.594492 
L 596.652295 288.861673 
L 597.578313 290.470282 
L 598.504331 288.707879 
L 599.430349 292.422279 
L 600.356368 293.857915 
L 601.282386 291.896445 
L 602.208404 294.56313 
L 603.134422 292.796405 
L 604.06044 294.933618 
L 604.986458 292.13966 
L 605.912476 293.950986 
L 606.838494 291.808688 
L 607.764513 295.456065 
L 608.690531 296.598872 
L 609.616549 295.305182 
L 610.542567 297.941829 
L 611.468585 296.032966 
L 612.394603 298.0619 
L 613.320621 295.337361 
L 614.246639 297.223592 
L 615.172658 295.615691 
L 616.098676 299.118774 
L 617.024694 300.521003 
L 617.950712 298.684805 
L 618.87673 301.350055 
L 619.802748 299.317299 
L 620.728766 301.349617 
L 621.654784 298.891521 
L 622.580803 300.666692 
L 623.506821 298.909903 
L 624.432839 302.333514 
L 625.358857 303.834331 
L 626.284875 301.921563 
L 627.210893 304.805765 
L 628.136911 302.117327 
L 629.062929 303.609217 
L 629.988948 301.942683 
L 630.914966 305.482428 
L 631.840984 307.0006 
L 632.767002 305.049493 
L 633.69302 307.705232 
L 634.619038 305.65437 
L 635.545056 307.8 
L 636.471074 305.11546 
L 636.471074 305.11546 
" clip-path="url(#p5e6d783e1c)" style="fill: none; stroke: #9467bd; stroke-width: 1.5; stroke-linecap: square"/>
   </g>
   <g id="patch_9">
    <path d="M 394.363636 320.4 
L 394.363636 43.2 
" style="fill: none; stroke: #000000; stroke-width: 0.8; stroke-linejoin: miter; stroke-linecap: square"/>
   </g>
   <g id="patch_10">
    <path d="M 648 320.4 
L 648 43.2 
" style="fill: none; stroke: #000000; stroke-width: 0.8; stroke-linejoin: miter; stroke-linecap: square"/>
   </g>
   <g id="patch_11">
    <path d="M 394.363636 320.4 
L 648 320.4 
" style="fill: none; stroke: #000000; stroke-width: 0.8; stroke-linejoin: miter; stroke-linecap: square"/>
   </g>
   <g id="patch_12">
    <path d="M 394.363636 43.2 
L 648 43.2 
" style="fill: none; stroke: #000000; stroke-width: 0.8; stroke-linejoin: miter; stroke-linecap: square"/>
   </g>
   <g id="legend_2">
    <g id="patch_13">
     <path d="M 571.915625 124.590625 
L 641 124.590625 
Q 643 124.590625 643 122.590625 
L 643 50.2 
Q 643 48.2 641 48.2 
L 571.915625 48.2 
Q 569.915625 48.2 569.915625 50.2 
L 569.915625 122.590625 
Q 569.915625 124.590625 571.915625 124.590625 
z
" style="fill: #ffffff; opacity: 0.8; stroke: #cccccc; stroke-linejoin: miter"/>
    </g>
    <g id="line2d_120">
     <path d="M 573.915625 56.298437 
L 583.915625 56.298437 
L 593.915625 56.298437 
" style="fill: none; stroke: #1f77b4; stroke-width: 1.5; stroke-linecap: square"/>
    </g>
    <g id="text_32">
     <!-- RBCD -->
     <g transform="translate(601.915625 59.798437)scale(0.1 -0.1)">
      <use xlink:href="#DejaVuSans-52"/>
      <use xlink:href="#DejaVuSans-42" x="69.482422"/>
      <use xlink:href="#DejaVuSans-43" x="136.335938"/>
      <use xlink:href="#DejaVuSans-44" x="206.160156"/>
     </g>
    </g>
    <g id="line2d_121">
     <path d="M 573.915625 70.976562 
L 583.915625 70.976562 
L 593.915625 70.976562 
" style="fill: none; stroke: #ff7f0e; stroke-width: 1.5; stroke-linecap: square"/>
    </g>
    <g id="text_33">
     <!-- strong -->
     <g transform="translate(601.915625 74.476562)scale(0.1 -0.1)">
      <use xlink:href="#DejaVuSans-73"/>
      <use xlink:href="#DejaVuSans-74" x="52.099609"/>
      <use xlink:href="#DejaVuSans-72" x="91.308594"/>
      <use xlink:href="#DejaVuSans-6f" x="130.171875"/>
      <use xlink:href="#DejaVuSans-6e" x="191.353516"/>
      <use xlink:href="#DejaVuSans-67" x="254.732422"/>
     </g>
    </g>
    <g id="line2d_122">
     <path d="M 573.915625 85.654687 
L 583.915625 85.654687 
L 593.915625 85.654687 
" style="fill: none; stroke: #2ca02c; stroke-width: 1.5; stroke-linecap: square"/>
    </g>
    <g id="text_34">
     <!-- fast -->
     <g transform="translate(601.915625 89.154687)scale(0.1 -0.1)">
      <use xlink:href="#DejaVuSans-66"/>
      <use xlink:href="#DejaVuSans-61" x="35.205078"/>
      <use xlink:href="#DejaVuSans-73" x="96.484375"/>
      <use xlink:href="#DejaVuSans-74" x="148.583984"/>
     </g>
    </g>
    <g id="line2d_123">
     <path d="M 573.915625 100.332812 
L 583.915625 100.332812 
L 593.915625 100.332812 
" style="fill: none; stroke: #d62728; stroke-width: 1.5; stroke-linecap: square"/>
    </g>
    <g id="text_35">
     <!-- eco -->
     <g transform="translate(601.915625 103.832812)scale(0.1 -0.1)">
      <use xlink:href="#DejaVuSans-65"/>
      <use xlink:href="#DejaVuSans-63" x="61.523438"/>
      <use xlink:href="#DejaVuSans-6f" x="116.503906"/>
     </g>
    </g>
    <g id="line2d_124">
     <path d="M 573.915625 115.010937 
L 583.915625 115.010937 
L 593.915625 115.010937 
" style="fill: none; stroke: #9467bd; stroke-width: 1.5; stroke-linecap: square"/>
    </g>
    <g id="text_36">
     <!-- highest -->
     <g transform="translate(601.915625 118.510937)scale(0.1 -0.1)">
      <use xlink:href="#DejaVuSans-68"/>
      <use xlink:href="#DejaVuSans-69" x="63.378906"/>
      <use xlink:href="#DejaVuSans-67" x="91.162109"/>
      <use xlink:href="#DejaVuSans-68" x="154.638672"/>
      <use xlink:href="#DejaVuSans-65" x="218.017578"/>
      <use xlink:href="#DejaVuSans-73" x="279.541016"/>
      <use xlink:href="#DejaVuSans-74" x="331.640625"/>
     </g>
    </g>
   </g>
  </g>
 </g>
 <defs>
  <clipPath id="pd548dbdd61">
   <rect x="90" y="43.2" width="253.636364" height="277.2"/>
  </clipPath>
  <clipPath id="p5e6d783e1c">
   <rect x="394.363636" y="43.2" width="253.636364" height="277.2"/>
  </clipPath>
 </defs>
</svg>
