<?xml version="1.0" encoding="utf-8" standalone="no"?>
<!DOCTYPE svg PUBLIC "-//W3C//DTD SVG 1.1//EN"
  "http://www.w3.org/Graphics/SVG/1.1/DTD/svg11.dtd">
<svg xmlns:xlink="http://www.w3.org/1999/xlink" width="720pt" height="360pt" viewBox="0 0 720 360" xmlns="http://www.w3.org/2000/svg" version="1.1">
 <metadata>
  <rdf:RDF xmlns:dc="http://purl.org/dc/elements/1.1/" xmlns:cc="http://creativecommons.org/ns#" xmlns:rdf="http://www.w3.org/1999/02/22-rdf-syntax-ns#">
   <cc:Work>
    <dc:type rdf:resource="http://purl.org/dc/dcmitype/StillImage"/>
    <dc:date>2023-11-21T22:11:06.495693</dc:date>
    <dc:format>image/svg+xml</dc:format>
    <dc:creator>
     <cc:Agent>
      <dc:title>Matplotlib v3.5.3, https://matplotlib.org/</dc:title>
     </cc:Agent>
    </dc:creator>
   </cc:Work>
  </rdf:RDF>
 </metadata>
 <defs>
  <style type="text/css">*{stroke-linejoin: round; stroke-linecap: butt}</style>
 </defs>
 <g id="figure_1">
  <g id="patch_1">
   <path d="M 0 360 
L 720 360 
L 720 0 
L 0 0 
z
" style="fill: #ffffff"/>
  </g>
  <g id="axes_1">
   <g id="patch_2">
    <path d="M 90 320.4 
L 343.636364 320.4 
L 343.636364 43.2 
L 90 43.2 
z
" style="fill: #ffffff"/>
   </g>
   <g id="matplotlib.axis_1">
    <g id="xtick_1">
     <g id="line2d_1">
      <defs>
       <path id="m2a1b30755c" d="M 0 0 
L 0 3.5 
" style="stroke: #000000; stroke-width: 0.8"/>
      </defs>
      <g>
       <use xlink:href="#m2a1b30755c" x="101.528926" y="320.4" style="stroke: #000000; stroke-width: 0.8"/>
      </g>
     </g>
     <g id="text_1">
      <!-- 0 -->
      <g transform="translate(98.347676 334.998438)scale(0.1 -0.1)">
       <defs>
        <path id="DejaVuSans-30" d="M 2034 4250 
Q 1547 4250 1301 3770 
Q 1056 3291 1056 2328 
Q 1056 1369 1301 889 
Q 1547 409 2034 409 
Q 2525 409 2770 889 
Q 3016 1369 3016 2328 
Q 3016 3291 2770 3770 
Q 2525 4250 2034 4250 
z
M 2034 4750 
Q 2819 4750 3233 4129 
Q 3647 3509 3647 2328 
Q 3647 1150 3233 529 
Q 2819 -91 2034 -91 
Q 1250 -91 836 529 
Q 422 1150 422 2328 
Q 422 3509 836 4129 
Q 1250 4750 2034 4750 
z
" transform="scale(0.015625)"/>
       </defs>
       <use xlink:href="#DejaVuSans-30"/>
      </g>
     </g>
    </g>
    <g id="xtick_2">
     <g id="line2d_2">
      <g>
       <use xlink:href="#m2a1b30755c" x="159.463225" y="320.4" style="stroke: #000000; stroke-width: 0.8"/>
      </g>
     </g>
     <g id="text_2">
      <!-- 50 -->
      <g transform="translate(153.100725 334.998438)scale(0.1 -0.1)">
       <defs>
        <path id="DejaVuSans-35" d="M 691 4666 
L 3169 4666 
L 3169 4134 
L 1269 4134 
L 1269 2991 
Q 1406 3038 1543 3061 
Q 1681 3084 1819 3084 
Q 2600 3084 3056 2656 
Q 3513 2228 3513 1497 
Q 3513 744 3044 326 
Q 2575 -91 1722 -91 
Q 1428 -91 1123 -41 
Q 819 9 494 109 
L 494 744 
Q 775 591 1075 516 
Q 1375 441 1709 441 
Q 2250 441 2565 725 
Q 2881 1009 2881 1497 
Q 2881 1984 2565 2268 
Q 2250 2553 1709 2553 
Q 1456 2553 1204 2497 
Q 953 2441 691 2322 
L 691 4666 
z
" transform="scale(0.015625)"/>
       </defs>
       <use xlink:href="#DejaVuSans-35"/>
       <use xlink:href="#DejaVuSans-30" x="63.623047"/>
      </g>
     </g>
    </g>
    <g id="xtick_3">
     <g id="line2d_3">
      <g>
       <use xlink:href="#m2a1b30755c" x="217.397525" y="320.4" style="stroke: #000000; stroke-width: 0.8"/>
      </g>
     </g>
     <g id="text_3">
      <!-- 100 -->
      <g transform="translate(207.853775 334.998438)scale(0.1 -0.1)">
       <defs>
        <path id="DejaVuSans-31" d="M 794 531 
L 1825 531 
L 1825 4091 
L 703 3866 
L 703 4441 
L 1819 4666 
L 2450 4666 
L 2450 531 
L 3481 531 
L 3481 0 
L 794 0 
L 794 531 
z
" transform="scale(0.015625)"/>
       </defs>
       <use xlink:href="#DejaVuSans-31"/>
       <use xlink:href="#DejaVuSans-30" x="63.623047"/>
       <use xlink:href="#DejaVuSans-30" x="127.246094"/>
      </g>
     </g>
    </g>
    <g id="xtick_4">
     <g id="line2d_4">
      <g>
       <use xlink:href="#m2a1b30755c" x="275.331824" y="320.4" style="stroke: #000000; stroke-width: 0.8"/>
      </g>
     </g>
     <g id="text_4">
      <!-- 150 -->
      <g transform="translate(265.788074 334.998438)scale(0.1 -0.1)">
       <use xlink:href="#DejaVuSans-31"/>
       <use xlink:href="#DejaVuSans-35" x="63.623047"/>
       <use xlink:href="#DejaVuSans-30" x="127.246094"/>
      </g>
     </g>
    </g>
    <g id="xtick_5">
     <g id="line2d_5">
      <g>
       <use xlink:href="#m2a1b30755c" x="333.266124" y="320.4" style="stroke: #000000; stroke-width: 0.8"/>
      </g>
     </g>
     <g id="text_5">
      <!-- 200 -->
      <g transform="translate(323.722374 334.998438)scale(0.1 -0.1)">
       <defs>
        <path id="DejaVuSans-32" d="M 1228 531 
L 3431 531 
L 3431 0 
L 469 0 
L 469 531 
Q 828 903 1448 1529 
Q 2069 2156 2228 2338 
Q 2531 2678 2651 2914 
Q 2772 3150 2772 3378 
Q 2772 3750 2511 3984 
Q 2250 4219 1831 4219 
Q 1534 4219 1204 4116 
Q 875 4013 500 3803 
L 500 4441 
Q 881 4594 1212 4672 
Q 1544 4750 1819 4750 
Q 2544 4750 2975 4387 
Q 3406 4025 3406 3419 
Q 3406 3131 3298 2873 
Q 3191 2616 2906 2266 
Q 2828 2175 2409 1742 
Q 1991 1309 1228 531 
z
" transform="scale(0.015625)"/>
       </defs>
       <use xlink:href="#DejaVuSans-32"/>
       <use xlink:href="#DejaVuSans-30" x="63.623047"/>
       <use xlink:href="#DejaVuSans-30" x="127.246094"/>
      </g>
     </g>
    </g>
    <g id="text_6">
     <!-- iteration -->
     <g transform="translate(195.695526 348.676562)scale(0.1 -0.1)">
      <defs>
       <path id="DejaVuSans-69" d="M 603 3500 
L 1178 3500 
L 1178 0 
L 603 0 
L 603 3500 
z
M 603 4863 
L 1178 4863 
L 1178 4134 
L 603 4134 
L 603 4863 
z
" transform="scale(0.015625)"/>
       <path id="DejaVuSans-74" d="M 1172 4494 
L 1172 3500 
L 2356 3500 
L 2356 3053 
L 1172 3053 
L 1172 1153 
Q 1172 725 1289 603 
Q 1406 481 1766 481 
L 2356 481 
L 2356 0 
L 1766 0 
Q 1100 0 847 248 
Q 594 497 594 1153 
L 594 3053 
L 172 3053 
L 172 3500 
L 594 3500 
L 594 4494 
L 1172 4494 
z
" transform="scale(0.015625)"/>
       <path id="DejaVuSans-65" d="M 3597 1894 
L 3597 1613 
L 953 1613 
Q 991 1019 1311 708 
Q 1631 397 2203 397 
Q 2534 397 2845 478 
Q 3156 559 3463 722 
L 3463 178 
Q 3153 47 2828 -22 
Q 2503 -91 2169 -91 
Q 1331 -91 842 396 
Q 353 884 353 1716 
Q 353 2575 817 3079 
Q 1281 3584 2069 3584 
Q 2775 3584 3186 3129 
Q 3597 2675 3597 1894 
z
M 3022 2063 
Q 3016 2534 2758 2815 
Q 2500 3097 2075 3097 
Q 1594 3097 1305 2825 
Q 1016 2553 972 2059 
L 3022 2063 
z
" transform="scale(0.015625)"/>
       <path id="DejaVuSans-72" d="M 2631 2963 
Q 2534 3019 2420 3045 
Q 2306 3072 2169 3072 
Q 1681 3072 1420 2755 
Q 1159 2438 1159 1844 
L 1159 0 
L 581 0 
L 581 3500 
L 1159 3500 
L 1159 2956 
Q 1341 3275 1631 3429 
Q 1922 3584 2338 3584 
Q 2397 3584 2469 3576 
Q 2541 3569 2628 3553 
L 2631 2963 
z
" transform="scale(0.015625)"/>
       <path id="DejaVuSans-61" d="M 2194 1759 
Q 1497 1759 1228 1600 
Q 959 1441 959 1056 
Q 959 750 1161 570 
Q 1363 391 1709 391 
Q 2188 391 2477 730 
Q 2766 1069 2766 1631 
L 2766 1759 
L 2194 1759 
z
M 3341 1997 
L 3341 0 
L 2766 0 
L 2766 531 
Q 2569 213 2275 61 
Q 1981 -91 1556 -91 
Q 1019 -91 701 211 
Q 384 513 384 1019 
Q 384 1609 779 1909 
Q 1175 2209 1959 2209 
L 2766 2209 
L 2766 2266 
Q 2766 2663 2505 2880 
Q 2244 3097 1772 3097 
Q 1472 3097 1187 3025 
Q 903 2953 641 2809 
L 641 3341 
Q 956 3463 1253 3523 
Q 1550 3584 1831 3584 
Q 2591 3584 2966 3190 
Q 3341 2797 3341 1997 
z
" transform="scale(0.015625)"/>
       <path id="DejaVuSans-6f" d="M 1959 3097 
Q 1497 3097 1228 2736 
Q 959 2375 959 1747 
Q 959 1119 1226 758 
Q 1494 397 1959 397 
Q 2419 397 2687 759 
Q 2956 1122 2956 1747 
Q 2956 2369 2687 2733 
Q 2419 3097 1959 3097 
z
M 1959 3584 
Q 2709 3584 3137 3096 
Q 3566 2609 3566 1747 
Q 3566 888 3137 398 
Q 2709 -91 1959 -91 
Q 1206 -91 779 398 
Q 353 888 353 1747 
Q 353 2609 779 3096 
Q 1206 3584 1959 3584 
z
" transform="scale(0.015625)"/>
       <path id="DejaVuSans-6e" d="M 3513 2113 
L 3513 0 
L 2938 0 
L 2938 2094 
Q 2938 2591 2744 2837 
Q 2550 3084 2163 3084 
Q 1697 3084 1428 2787 
Q 1159 2491 1159 1978 
L 1159 0 
L 581 0 
L 581 3500 
L 1159 3500 
L 1159 2956 
Q 1366 3272 1645 3428 
Q 1925 3584 2291 3584 
Q 2894 3584 3203 3211 
Q 3513 2838 3513 2113 
z
" transform="scale(0.015625)"/>
      </defs>
      <use xlink:href="#DejaVuSans-69"/>
      <use xlink:href="#DejaVuSans-74" x="27.783203"/>
      <use xlink:href="#DejaVuSans-65" x="66.992188"/>
      <use xlink:href="#DejaVuSans-72" x="128.515625"/>
      <use xlink:href="#DejaVuSans-61" x="169.628906"/>
      <use xlink:href="#DejaVuSans-74" x="230.908203"/>
      <use xlink:href="#DejaVuSans-69" x="270.117188"/>
      <use xlink:href="#DejaVuSans-6f" x="297.900391"/>
      <use xlink:href="#DejaVuSans-6e" x="359.082031"/>
     </g>
    </g>
   </g>
   <g id="matplotlib.axis_2">
    <g id="ytick_1">
     <g id="line2d_6">
      <defs>
       <path id="md8c18a0b53" d="M 0 0 
L -3.5 0 
" style="stroke: #000000; stroke-width: 0.8"/>
      </defs>
      <g>
       <use xlink:href="#md8c18a0b53" x="90" y="302.121046" style="stroke: #000000; stroke-width: 0.8"/>
      </g>
     </g>
     <g id="text_7">
      <!-- $\mathdefault{10^{-5}}$ -->
      <g transform="translate(59.5 305.920265)scale(0.1 -0.1)">
       <defs>
        <path id="DejaVuSans-2212" d="M 678 2272 
L 4684 2272 
L 4684 1741 
L 678 1741 
L 678 2272 
z
" transform="scale(0.015625)"/>
       </defs>
       <use xlink:href="#DejaVuSans-31" transform="translate(0 0.684375)"/>
       <use xlink:href="#DejaVuSans-30" transform="translate(63.623047 0.684375)"/>
       <use xlink:href="#DejaVuSans-2212" transform="translate(128.203125 38.965625)scale(0.7)"/>
       <use xlink:href="#DejaVuSans-35" transform="translate(186.855469 38.965625)scale(0.7)"/>
      </g>
     </g>
    </g>
    <g id="ytick_2">
     <g id="line2d_7">
      <g>
       <use xlink:href="#md8c18a0b53" x="90" y="252.090296" style="stroke: #000000; stroke-width: 0.8"/>
      </g>
     </g>
     <g id="text_8">
      <!-- $\mathdefault{10^{-4}}$ -->
      <g transform="translate(59.5 255.889515)scale(0.1 -0.1)">
       <defs>
        <path id="DejaVuSans-34" d="M 2419 4116 
L 825 1625 
L 2419 1625 
L 2419 4116 
z
M 2253 4666 
L 3047 4666 
L 3047 1625 
L 3713 1625 
L 3713 1100 
L 3047 1100 
L 3047 0 
L 2419 0 
L 2419 1100 
L 313 1100 
L 313 1709 
L 2253 4666 
z
" transform="scale(0.015625)"/>
       </defs>
       <use xlink:href="#DejaVuSans-31" transform="translate(0 0.684375)"/>
       <use xlink:href="#DejaVuSans-30" transform="translate(63.623047 0.684375)"/>
       <use xlink:href="#DejaVuSans-2212" transform="translate(128.203125 38.965625)scale(0.7)"/>
       <use xlink:href="#DejaVuSans-34" transform="translate(186.855469 38.965625)scale(0.7)"/>
      </g>
     </g>
    </g>
    <g id="ytick_3">
     <g id="line2d_8">
      <g>
       <use xlink:href="#md8c18a0b53" x="90" y="202.059547" style="stroke: #000000; stroke-width: 0.8"/>
      </g>
     </g>
     <g id="text_9">
      <!-- $\mathdefault{10^{-3}}$ -->
      <g transform="translate(59.5 205.858766)scale(0.1 -0.1)">
       <defs>
        <path id="DejaVuSans-33" d="M 2597 2516 
Q 3050 2419 3304 2112 
Q 3559 1806 3559 1356 
Q 3559 666 3084 287 
Q 2609 -91 1734 -91 
Q 1441 -91 1130 -33 
Q 819 25 488 141 
L 488 750 
Q 750 597 1062 519 
Q 1375 441 1716 441 
Q 2309 441 2620 675 
Q 2931 909 2931 1356 
Q 2931 1769 2642 2001 
Q 2353 2234 1838 2234 
L 1294 2234 
L 1294 2753 
L 1863 2753 
Q 2328 2753 2575 2939 
Q 2822 3125 2822 3475 
Q 2822 3834 2567 4026 
Q 2313 4219 1838 4219 
Q 1578 4219 1281 4162 
Q 984 4106 628 3988 
L 628 4550 
Q 988 4650 1302 4700 
Q 1616 4750 1894 4750 
Q 2613 4750 3031 4423 
Q 3450 4097 3450 3541 
Q 3450 3153 3228 2886 
Q 3006 2619 2597 2516 
z
" transform="scale(0.015625)"/>
       </defs>
       <use xlink:href="#DejaVuSans-31" transform="translate(0 0.765625)"/>
       <use xlink:href="#DejaVuSans-30" transform="translate(63.623047 0.765625)"/>
       <use xlink:href="#DejaVuSans-2212" transform="translate(128.203125 39.046875)scale(0.7)"/>
       <use xlink:href="#DejaVuSans-33" transform="translate(186.855469 39.046875)scale(0.7)"/>
      </g>
     </g>
    </g>
    <g id="ytick_4">
     <g id="line2d_9">
      <g>
       <use xlink:href="#md8c18a0b53" x="90" y="152.028798" style="stroke: #000000; stroke-width: 0.8"/>
      </g>
     </g>
     <g id="text_10">
      <!-- $\mathdefault{10^{-2}}$ -->
      <g transform="translate(59.5 155.828017)scale(0.1 -0.1)">
       <use xlink:href="#DejaVuSans-31" transform="translate(0 0.765625)"/>
       <use xlink:href="#DejaVuSans-30" transform="translate(63.623047 0.765625)"/>
       <use xlink:href="#DejaVuSans-2212" transform="translate(128.203125 39.046875)scale(0.7)"/>
       <use xlink:href="#DejaVuSans-32" transform="translate(186.855469 39.046875)scale(0.7)"/>
      </g>
     </g>
    </g>
    <g id="ytick_5">
     <g id="line2d_10">
      <g>
       <use xlink:href="#md8c18a0b53" x="90" y="101.998048" style="stroke: #000000; stroke-width: 0.8"/>
      </g>
     </g>
     <g id="text_11">
      <!-- $\mathdefault{10^{-1}}$ -->
      <g transform="translate(59.5 105.797267)scale(0.1 -0.1)">
       <use xlink:href="#DejaVuSans-31" transform="translate(0 0.684375)"/>
       <use xlink:href="#DejaVuSans-30" transform="translate(63.623047 0.684375)"/>
       <use xlink:href="#DejaVuSans-2212" transform="translate(128.203125 38.965625)scale(0.7)"/>
       <use xlink:href="#DejaVuSans-31" transform="translate(186.855469 38.965625)scale(0.7)"/>
      </g>
     </g>
    </g>
    <g id="ytick_6">
     <g id="line2d_11">
      <g>
       <use xlink:href="#md8c18a0b53" x="90" y="51.967299" style="stroke: #000000; stroke-width: 0.8"/>
      </g>
     </g>
     <g id="text_12">
      <!-- $\mathdefault{10^{0}}$ -->
      <g transform="translate(65.4 55.766518)scale(0.1 -0.1)">
       <use xlink:href="#DejaVuSans-31" transform="translate(0 0.765625)"/>
       <use xlink:href="#DejaVuSans-30" transform="translate(63.623047 0.765625)"/>
       <use xlink:href="#DejaVuSans-30" transform="translate(128.203125 39.046875)scale(0.7)"/>
      </g>
     </g>
    </g>
    <g id="ytick_7">
     <g id="line2d_12">
      <defs>
       <path id="m34ffb3f7f5" d="M 0 0 
L -2 0 
" style="stroke: #000000; stroke-width: 0.6"/>
      </defs>
      <g>
       <use xlink:href="#m34ffb3f7f5" x="90" y="317.181802" style="stroke: #000000; stroke-width: 0.6"/>
      </g>
     </g>
    </g>
    <g id="ytick_8">
     <g id="line2d_13">
      <g>
       <use xlink:href="#m34ffb3f7f5" x="90" y="313.220305" style="stroke: #000000; stroke-width: 0.6"/>
      </g>
     </g>
    </g>
    <g id="ytick_9">
     <g id="line2d_14">
      <g>
       <use xlink:href="#m34ffb3f7f5" x="90" y="309.870907" style="stroke: #000000; stroke-width: 0.6"/>
      </g>
     </g>
    </g>
    <g id="ytick_10">
     <g id="line2d_15">
      <g>
       <use xlink:href="#m34ffb3f7f5" x="90" y="306.969526" style="stroke: #000000; stroke-width: 0.6"/>
      </g>
     </g>
    </g>
    <g id="ytick_11">
     <g id="line2d_16">
      <g>
       <use xlink:href="#m34ffb3f7f5" x="90" y="304.410327" style="stroke: #000000; stroke-width: 0.6"/>
      </g>
     </g>
    </g>
    <g id="ytick_12">
     <g id="line2d_17">
      <g>
       <use xlink:href="#m34ffb3f7f5" x="90" y="287.06029" style="stroke: #000000; stroke-width: 0.6"/>
      </g>
     </g>
    </g>
    <g id="ytick_13">
     <g id="line2d_18">
      <g>
       <use xlink:href="#m34ffb3f7f5" x="90" y="278.250312" style="stroke: #000000; stroke-width: 0.6"/>
      </g>
     </g>
    </g>
    <g id="ytick_14">
     <g id="line2d_19">
      <g>
       <use xlink:href="#m34ffb3f7f5" x="90" y="271.999533" style="stroke: #000000; stroke-width: 0.6"/>
      </g>
     </g>
    </g>
    <g id="ytick_15">
     <g id="line2d_20">
      <g>
       <use xlink:href="#m34ffb3f7f5" x="90" y="267.151053" style="stroke: #000000; stroke-width: 0.6"/>
      </g>
     </g>
    </g>
    <g id="ytick_16">
     <g id="line2d_21">
      <g>
       <use xlink:href="#m34ffb3f7f5" x="90" y="263.189556" style="stroke: #000000; stroke-width: 0.6"/>
      </g>
     </g>
    </g>
    <g id="ytick_17">
     <g id="line2d_22">
      <g>
       <use xlink:href="#m34ffb3f7f5" x="90" y="259.840158" style="stroke: #000000; stroke-width: 0.6"/>
      </g>
     </g>
    </g>
    <g id="ytick_18">
     <g id="line2d_23">
      <g>
       <use xlink:href="#m34ffb3f7f5" x="90" y="256.938777" style="stroke: #000000; stroke-width: 0.6"/>
      </g>
     </g>
    </g>
    <g id="ytick_19">
     <g id="line2d_24">
      <g>
       <use xlink:href="#m34ffb3f7f5" x="90" y="254.379578" style="stroke: #000000; stroke-width: 0.6"/>
      </g>
     </g>
    </g>
    <g id="ytick_20">
     <g id="line2d_25">
      <g>
       <use xlink:href="#m34ffb3f7f5" x="90" y="237.02954" style="stroke: #000000; stroke-width: 0.6"/>
      </g>
     </g>
    </g>
    <g id="ytick_21">
     <g id="line2d_26">
      <g>
       <use xlink:href="#m34ffb3f7f5" x="90" y="228.219563" style="stroke: #000000; stroke-width: 0.6"/>
      </g>
     </g>
    </g>
    <g id="ytick_22">
     <g id="line2d_27">
      <g>
       <use xlink:href="#m34ffb3f7f5" x="90" y="221.968784" style="stroke: #000000; stroke-width: 0.6"/>
      </g>
     </g>
    </g>
    <g id="ytick_23">
     <g id="line2d_28">
      <g>
       <use xlink:href="#m34ffb3f7f5" x="90" y="217.120303" style="stroke: #000000; stroke-width: 0.6"/>
      </g>
     </g>
    </g>
    <g id="ytick_24">
     <g id="line2d_29">
      <g>
       <use xlink:href="#m34ffb3f7f5" x="90" y="213.158806" style="stroke: #000000; stroke-width: 0.6"/>
      </g>
     </g>
    </g>
    <g id="ytick_25">
     <g id="line2d_30">
      <g>
       <use xlink:href="#m34ffb3f7f5" x="90" y="209.809408" style="stroke: #000000; stroke-width: 0.6"/>
      </g>
     </g>
    </g>
    <g id="ytick_26">
     <g id="line2d_31">
      <g>
       <use xlink:href="#m34ffb3f7f5" x="90" y="206.908028" style="stroke: #000000; stroke-width: 0.6"/>
      </g>
     </g>
    </g>
    <g id="ytick_27">
     <g id="line2d_32">
      <g>
       <use xlink:href="#m34ffb3f7f5" x="90" y="204.348829" style="stroke: #000000; stroke-width: 0.6"/>
      </g>
     </g>
    </g>
    <g id="ytick_28">
     <g id="line2d_33">
      <g>
       <use xlink:href="#m34ffb3f7f5" x="90" y="186.998791" style="stroke: #000000; stroke-width: 0.6"/>
      </g>
     </g>
    </g>
    <g id="ytick_29">
     <g id="line2d_34">
      <g>
       <use xlink:href="#m34ffb3f7f5" x="90" y="178.188813" style="stroke: #000000; stroke-width: 0.6"/>
      </g>
     </g>
    </g>
    <g id="ytick_30">
     <g id="line2d_35">
      <g>
       <use xlink:href="#m34ffb3f7f5" x="90" y="171.938035" style="stroke: #000000; stroke-width: 0.6"/>
      </g>
     </g>
    </g>
    <g id="ytick_31">
     <g id="line2d_36">
      <g>
       <use xlink:href="#m34ffb3f7f5" x="90" y="167.089554" style="stroke: #000000; stroke-width: 0.6"/>
      </g>
     </g>
    </g>
    <g id="ytick_32">
     <g id="line2d_37">
      <g>
       <use xlink:href="#m34ffb3f7f5" x="90" y="163.128057" style="stroke: #000000; stroke-width: 0.6"/>
      </g>
     </g>
    </g>
    <g id="ytick_33">
     <g id="line2d_38">
      <g>
       <use xlink:href="#m34ffb3f7f5" x="90" y="159.778659" style="stroke: #000000; stroke-width: 0.6"/>
      </g>
     </g>
    </g>
    <g id="ytick_34">
     <g id="line2d_39">
      <g>
       <use xlink:href="#m34ffb3f7f5" x="90" y="156.877278" style="stroke: #000000; stroke-width: 0.6"/>
      </g>
     </g>
    </g>
    <g id="ytick_35">
     <g id="line2d_40">
      <g>
       <use xlink:href="#m34ffb3f7f5" x="90" y="154.318079" style="stroke: #000000; stroke-width: 0.6"/>
      </g>
     </g>
    </g>
    <g id="ytick_36">
     <g id="line2d_41">
      <g>
       <use xlink:href="#m34ffb3f7f5" x="90" y="136.968042" style="stroke: #000000; stroke-width: 0.6"/>
      </g>
     </g>
    </g>
    <g id="ytick_37">
     <g id="line2d_42">
      <g>
       <use xlink:href="#m34ffb3f7f5" x="90" y="128.158064" style="stroke: #000000; stroke-width: 0.6"/>
      </g>
     </g>
    </g>
    <g id="ytick_38">
     <g id="line2d_43">
      <g>
       <use xlink:href="#m34ffb3f7f5" x="90" y="121.907285" style="stroke: #000000; stroke-width: 0.6"/>
      </g>
     </g>
    </g>
    <g id="ytick_39">
     <g id="line2d_44">
      <g>
       <use xlink:href="#m34ffb3f7f5" x="90" y="117.058805" style="stroke: #000000; stroke-width: 0.6"/>
      </g>
     </g>
    </g>
    <g id="ytick_40">
     <g id="line2d_45">
      <g>
       <use xlink:href="#m34ffb3f7f5" x="90" y="113.097308" style="stroke: #000000; stroke-width: 0.6"/>
      </g>
     </g>
    </g>
    <g id="ytick_41">
     <g id="line2d_46">
      <g>
       <use xlink:href="#m34ffb3f7f5" x="90" y="109.74791" style="stroke: #000000; stroke-width: 0.6"/>
      </g>
     </g>
    </g>
    <g id="ytick_42">
     <g id="line2d_47">
      <g>
       <use xlink:href="#m34ffb3f7f5" x="90" y="106.846529" style="stroke: #000000; stroke-width: 0.6"/>
      </g>
     </g>
    </g>
    <g id="ytick_43">
     <g id="line2d_48">
      <g>
       <use xlink:href="#m34ffb3f7f5" x="90" y="104.28733" style="stroke: #000000; stroke-width: 0.6"/>
      </g>
     </g>
    </g>
    <g id="ytick_44">
     <g id="line2d_49">
      <g>
       <use xlink:href="#m34ffb3f7f5" x="90" y="86.937292" style="stroke: #000000; stroke-width: 0.6"/>
      </g>
     </g>
    </g>
    <g id="ytick_45">
     <g id="line2d_50">
      <g>
       <use xlink:href="#m34ffb3f7f5" x="90" y="78.127315" style="stroke: #000000; stroke-width: 0.6"/>
      </g>
     </g>
    </g>
    <g id="ytick_46">
     <g id="line2d_51">
      <g>
       <use xlink:href="#m34ffb3f7f5" x="90" y="71.876536" style="stroke: #000000; stroke-width: 0.6"/>
      </g>
     </g>
    </g>
    <g id="ytick_47">
     <g id="line2d_52">
      <g>
       <use xlink:href="#m34ffb3f7f5" x="90" y="67.028055" style="stroke: #000000; stroke-width: 0.6"/>
      </g>
     </g>
    </g>
    <g id="ytick_48">
     <g id="line2d_53">
      <g>
       <use xlink:href="#m34ffb3f7f5" x="90" y="63.066558" style="stroke: #000000; stroke-width: 0.6"/>
      </g>
     </g>
    </g>
    <g id="ytick_49">
     <g id="line2d_54">
      <g>
       <use xlink:href="#m34ffb3f7f5" x="90" y="59.71716" style="stroke: #000000; stroke-width: 0.6"/>
      </g>
     </g>
    </g>
    <g id="ytick_50">
     <g id="line2d_55">
      <g>
       <use xlink:href="#m34ffb3f7f5" x="90" y="56.81578" style="stroke: #000000; stroke-width: 0.6"/>
      </g>
     </g>
    </g>
    <g id="ytick_51">
     <g id="line2d_56">
      <g>
       <use xlink:href="#m34ffb3f7f5" x="90" y="54.256581" style="stroke: #000000; stroke-width: 0.6"/>
      </g>
     </g>
    </g>
    <g id="text_13">
     <!-- $f(X)-f^*(X)$ -->
     <g transform="translate(53.420312 209.75)rotate(-90)scale(0.1 -0.1)">
      <defs>
       <path id="DejaVuSans-Oblique-66" d="M 3059 4863 
L 2969 4384 
L 2419 4384 
Q 2106 4384 1964 4261 
Q 1822 4138 1753 3809 
L 1691 3500 
L 2638 3500 
L 2553 3053 
L 1606 3053 
L 1013 0 
L 434 0 
L 1031 3053 
L 481 3053 
L 563 3500 
L 1113 3500 
L 1159 3744 
Q 1278 4363 1576 4613 
Q 1875 4863 2516 4863 
L 3059 4863 
z
" transform="scale(0.015625)"/>
       <path id="DejaVuSans-28" d="M 1984 4856 
Q 1566 4138 1362 3434 
Q 1159 2731 1159 2009 
Q 1159 1288 1364 580 
Q 1569 -128 1984 -844 
L 1484 -844 
Q 1016 -109 783 600 
Q 550 1309 550 2009 
Q 550 2706 781 3412 
Q 1013 4119 1484 4856 
L 1984 4856 
z
" transform="scale(0.015625)"/>
       <path id="DejaVuSans-Oblique-58" d="M 878 4666 
L 1516 4666 
L 2316 2981 
L 3763 4666 
L 4500 4666 
L 2578 2438 
L 3738 0 
L 3103 0 
L 2163 1966 
L 459 0 
L -275 0 
L 1906 2509 
L 878 4666 
z
" transform="scale(0.015625)"/>
       <path id="DejaVuSans-29" d="M 513 4856 
L 1013 4856 
Q 1481 4119 1714 3412 
Q 1947 2706 1947 2009 
Q 1947 1309 1714 600 
Q 1481 -109 1013 -844 
L 513 -844 
Q 928 -128 1133 580 
Q 1338 1288 1338 2009 
Q 1338 2731 1133 3434 
Q 928 4138 513 4856 
z
" transform="scale(0.015625)"/>
       <path id="DejaVuSans-2a" d="M 3009 3897 
L 1888 3291 
L 3009 2681 
L 2828 2375 
L 1778 3009 
L 1778 1831 
L 1422 1831 
L 1422 3009 
L 372 2375 
L 191 2681 
L 1313 3291 
L 191 3897 
L 372 4206 
L 1422 3572 
L 1422 4750 
L 1778 4750 
L 1778 3572 
L 2828 4206 
L 3009 3897 
z
" transform="scale(0.015625)"/>
      </defs>
      <use xlink:href="#DejaVuSans-Oblique-66" transform="translate(0 0.765625)"/>
      <use xlink:href="#DejaVuSans-28" transform="translate(35.205078 0.765625)"/>
      <use xlink:href="#DejaVuSans-Oblique-58" transform="translate(74.21875 0.765625)"/>
      <use xlink:href="#DejaVuSans-29" transform="translate(142.724609 0.765625)"/>
      <use xlink:href="#DejaVuSans-2212" transform="translate(201.220703 0.765625)"/>
      <use xlink:href="#DejaVuSans-Oblique-66" transform="translate(304.492188 0.765625)"/>
      <use xlink:href="#DejaVuSans-2a" transform="translate(360.782669 39.046875)scale(0.7)"/>
      <use xlink:href="#DejaVuSans-28" transform="translate(412.15474 0.765625)"/>
      <use xlink:href="#DejaVuSans-Oblique-58" transform="translate(451.168411 0.765625)"/>
      <use xlink:href="#DejaVuSans-29" transform="translate(519.674271 0.765625)"/>
     </g>
    </g>
   </g>
   <g id="line2d_57">
    <path d="M 101.528926 55.8 
L 102.687612 56.684721 
L 103.846298 56.936433 
L 105.004984 57.707822 
L 107.322356 58.206351 
L 108.481042 62.278085 
L 109.639728 62.812538 
L 111.9571 63.469112 
L 114.274472 64.048322 
L 115.433158 64.504469 
L 117.75053 64.86109 
L 118.909215 65.415481 
L 121.226587 65.961533 
L 123.543959 66.561148 
L 124.702645 66.771383 
L 125.861331 68.461971 
L 128.178703 68.99975 
L 129.337389 69.181162 
L 131.654761 69.793859 
L 132.813447 70.400149 
L 133.972133 70.590959 
L 135.130819 70.972349 
L 140.924249 72.122835 
L 142.082935 72.27698 
L 143.241621 72.795309 
L 144.400307 72.867065 
L 151.352423 74.042091 
L 152.511109 74.76981 
L 153.669795 74.983095 
L 155.987167 75.626586 
L 158.304539 76.028238 
L 164.097969 76.802527 
L 165.256655 77.366406 
L 167.574027 77.641316 
L 168.732713 77.776608 
L 169.891399 78.365934 
L 172.208771 78.981934 
L 174.526143 79.488073 
L 182.636945 80.607375 
L 184.954317 80.83789 
L 186.113003 81.353027 
L 188.430375 81.719548 
L 189.589061 81.822586 
L 190.747747 82.510606 
L 191.906433 82.731233 
L 194.223805 83.346294 
L 196.541177 83.683107 
L 198.858549 84.009181 
L 202.334607 84.369481 
L 203.493293 84.866247 
L 206.969351 85.25698 
L 208.128037 85.811635 
L 210.445409 86.389134 
L 212.762781 86.834869 
L 219.714897 87.663204 
L 220.873583 88.138631 
L 224.349641 88.526266 
L 226.667013 88.926264 
L 227.825699 89.490659 
L 228.984385 89.600539 
L 230.143071 89.918057 
L 235.936501 90.731658 
L 237.095187 90.827044 
L 238.253873 91.297449 
L 241.729931 91.69875 
L 244.047303 92.108966 
L 246.364675 92.300003 
L 247.523361 92.900949 
L 248.682047 93.064371 
L 250.999419 93.595369 
L 256.792849 94.265768 
L 257.951535 94.799404 
L 261.427593 95.256705 
L 263.744964 95.613036 
L 266.062336 95.818475 
L 267.221022 96.392319 
L 268.379708 96.537998 
L 270.69708 97.046491 
L 274.173138 97.405408 
L 275.331824 97.903765 
L 278.807882 98.318704 
L 281.125254 98.753003 
L 283.442626 98.947388 
L 284.601312 99.472926 
L 285.759998 99.634605 
L 288.07737 100.138514 
L 293.8708 100.7756 
L 295.029486 101.329819 
L 298.505544 101.790023 
L 300.822916 102.140617 
L 303.140288 102.335926 
L 304.298974 102.893498 
L 305.45766 103.034313 
L 307.775032 103.527377 
L 311.25109 103.863212 
L 312.409776 104.376259 
L 315.885834 104.789157 
L 318.203206 105.220585 
L 320.520578 105.404427 
L 321.679264 105.921103 
L 322.83795 106.079144 
L 325.155322 106.5724 
L 330.948752 107.194367 
L 332.107438 107.760746 
L 332.107438 107.760746 
" clip-path="url(#pecca97bedf)" style="fill: none; stroke: #1f77b4; stroke-width: 1.5; stroke-linecap: square"/>
   </g>
   <g id="line2d_58">
    <path d="M 101.528926 57.646216 
L 102.687612 59.767457 
L 103.846298 61.26757 
L 105.004984 63.411683 
L 106.16367 64.365076 
L 107.322356 64.889695 
L 108.481042 71.686736 
L 109.639728 73.469771 
L 110.798414 74.832541 
L 111.9571 75.954505 
L 113.115786 76.722654 
L 115.433158 77.697226 
L 116.591844 78.484555 
L 117.75053 79.589925 
L 118.909215 80.472509 
L 120.067901 80.859085 
L 122.385273 83.027733 
L 123.543959 84.102521 
L 124.702645 84.93782 
L 127.020017 86.120365 
L 129.337389 88.150116 
L 130.496075 88.984297 
L 132.813447 90.091413 
L 135.130819 91.986377 
L 136.289505 92.808172 
L 138.606877 93.913705 
L 140.924249 95.711649 
L 142.082935 96.516933 
L 144.400307 97.634486 
L 146.717679 99.360134 
L 147.876365 100.148649 
L 150.193737 101.280171 
L 152.511109 102.952017 
L 153.669795 103.724702 
L 155.987167 104.867742 
L 158.304539 106.499466 
L 159.463225 107.257632 
L 161.780597 108.409191 
L 164.097969 110.011386 
L 165.256655 110.756353 
L 167.574027 111.91359 
L 169.891399 113.494373 
L 171.050085 114.227485 
L 172.208771 114.746599 
L 173.367457 115.388038 
L 175.684829 116.953765 
L 176.843515 117.676228 
L 178.002201 118.188593 
L 179.160887 118.838289 
L 181.478259 120.393983 
L 182.636945 121.107022 
L 183.795631 121.612221 
L 184.954317 122.269176 
L 187.271689 123.818843 
L 188.430375 124.523487 
L 189.589061 125.02146 
L 190.747747 125.684788 
L 191.906433 126.52834 
L 194.223805 127.92903 
L 195.382491 128.419645 
L 196.541177 129.088698 
L 197.699863 129.933838 
L 200.017235 131.326534 
L 201.175921 131.810022 
L 202.334607 132.484423 
L 203.493293 133.331718 
L 205.810665 134.719005 
L 206.969351 135.195565 
L 208.128037 135.874841 
L 209.286723 136.724965 
L 211.604095 138.109323 
L 212.762781 138.579235 
L 213.921467 139.263239 
L 215.080153 140.116536 
L 216.238839 140.582118 
L 218.556211 141.996796 
L 219.714897 142.525433 
L 220.873583 143.335742 
L 233.619129 150.836028 
L 235.936501 152.250465 
L 237.095187 152.706752 
L 238.253873 153.579235 
L 241.729931 155.686669 
L 242.888617 156.552975 
L 244.047303 157.018698 
L 247.523361 159.142431 
L 248.682047 160.020875 
L 249.840733 160.479875 
L 252.158105 161.940362 
L 253.316791 162.802772 
L 254.475477 163.514245 
L 255.634163 163.968691 
L 257.951535 165.449149 
L 259.110221 166.323611 
L 260.268907 167.040504 
L 261.427593 167.492189 
L 263.744964 168.995478 
L 264.90365 169.883924 
L 266.062336 170.60749 
L 267.221022 171.058179 
L 269.538394 172.588098 
L 270.69708 173.492089 
L 271.855766 174.225506 
L 273.014452 174.677371 
L 275.331824 176.238071 
L 276.49051 177.16045 
L 277.649196 177.906024 
L 278.807882 178.360417 
L 281.125254 179.958851 
L 282.28394 180.902285 
L 283.442626 181.663873 
L 284.601312 182.123384 
L 286.918684 183.765482 
L 288.07737 184.735164 
L 289.236056 185.516518 
L 290.394742 185.983211 
L 292.712114 187.679659 
L 293.8708 188.681004 
L 295.029486 189.488165 
L 296.188172 189.964831 
L 298.505544 191.728094 
L 299.66423 192.768232 
L 300.822916 193.607392 
L 301.981602 194.098863 
L 303.140288 194.951355 
L 306.616346 197.914142 
L 307.775032 198.42644 
L 308.933718 199.323383 
L 312.409776 202.465281 
L 313.568462 203.005457 
L 314.727148 203.95883 
L 318.203206 207.335911 
L 319.361892 207.911318 
L 320.520578 208.945282 
L 323.996636 212.639956 
L 326.314008 214.201005 
L 327.472694 215.569136 
L 328.63138 216.711343 
L 330.948752 219.51122 
L 332.107438 220.301599 
L 332.107438 220.301599 
" clip-path="url(#pecca97bedf)" style="fill: none; stroke: #ff7f0e; stroke-width: 1.5; stroke-linecap: square"/>
   </g>
   <g id="line2d_59">
    <path d="M 101.528926 57.765957 
L 102.687612 58.837084 
L 105.004984 63.051991 
L 106.16367 63.757854 
L 108.481042 64.742312 
L 110.798414 66.649928 
L 111.9571 69.314401 
L 113.115786 70.693893 
L 115.433158 71.905987 
L 116.591844 72.730195 
L 117.75053 73.737385 
L 118.909215 74.971135 
L 120.067901 75.87628 
L 121.226587 76.490181 
L 122.385273 77.259112 
L 123.543959 78.222823 
L 124.702645 79.350525 
L 125.861331 80.204355 
L 127.020017 80.804685 
L 128.178703 81.540353 
L 131.654761 84.371402 
L 133.972133 85.677781 
L 137.448191 88.431308 
L 139.765563 89.717347 
L 143.241621 92.411992 
L 145.558993 93.683025 
L 149.035051 96.329944 
L 151.352423 97.589048 
L 154.828481 100.195714 
L 157.145853 101.444679 
L 160.621911 104.016697 
L 162.939283 105.256553 
L 166.415341 107.798483 
L 168.732713 109.029843 
L 169.891399 109.886541 
L 171.050085 110.352397 
L 172.208771 111.251227 
L 173.367457 111.623019 
L 175.684829 112.854196 
L 176.843515 113.715342 
L 178.002201 114.20922 
L 179.160887 115.064753 
L 180.319573 115.414733 
L 183.795631 117.372156 
L 184.954317 117.882236 
L 186.113003 118.697816 
L 187.271689 119.029914 
L 188.430375 119.87221 
L 191.906433 121.670978 
L 193.065119 122.458674 
L 194.223805 122.780127 
L 195.382491 123.625565 
L 198.858549 125.437295 
L 201.175921 126.952615 
L 204.651979 128.817121 
L 209.286723 131.534844 
L 215.080153 134.917094 
L 216.238839 135.471059 
L 223.190955 139.501929 
L 225.508327 140.825061 
L 227.825699 142.226131 
L 228.984385 142.770377 
L 240.571245 149.516002 
L 241.729931 150.052515 
L 242.888617 150.734457 
L 245.205989 151.797757 
L 246.364675 152.557744 
L 247.523361 152.920308 
L 252.158105 155.371678 
L 253.316791 156.09126 
L 254.475477 156.426778 
L 255.634163 157.24182 
L 256.792849 157.795405 
L 262.586278 161.196193 
L 263.744964 161.746139 
L 268.379708 164.621708 
L 269.538394 165.16213 
L 275.331824 168.671049 
L 276.49051 169.214327 
L 277.649196 169.934391 
L 278.807882 170.443588 
L 281.125254 171.851296 
L 282.28394 172.228406 
L 283.442626 172.766251 
L 288.07737 175.754223 
L 289.236056 176.110665 
L 292.712114 178.07612 
L 299.66423 182.309069 
L 300.822916 182.834542 
L 303.140288 184.332664 
L 304.298974 184.737122 
L 305.45766 185.317524 
L 310.092404 188.539429 
L 311.25109 188.924174 
L 312.409776 189.512544 
L 315.885834 192.090351 
L 317.04452 192.66364 
L 319.361892 194.281892 
L 321.679264 196.189059 
L 322.83795 196.772274 
L 325.155322 198.439312 
L 328.63138 201.211535 
L 329.790066 201.828292 
L 330.948752 202.71017 
L 332.107438 203.367028 
L 332.107438 203.367028 
" clip-path="url(#pecca97bedf)" style="fill: none; stroke: #2ca02c; stroke-width: 1.5; stroke-linecap: square"/>
   </g>
   <g id="line2d_60">
    <path d="M 101.528926 57.823445 
L 102.687612 58.920184 
L 103.846298 61.374233 
L 105.004984 63.064179 
L 106.16367 63.706866 
L 107.322356 64.194226 
L 108.481042 66.400731 
L 109.639728 67.049912 
L 110.798414 67.970321 
L 113.115786 68.983287 
L 114.274472 70.30208 
L 115.433158 71.452143 
L 116.591844 72.323036 
L 117.75053 72.913427 
L 120.067901 73.813864 
L 122.385273 76.193144 
L 123.543959 76.685765 
L 124.702645 77.485642 
L 125.861331 77.951308 
L 128.178703 80.272495 
L 129.337389 80.747225 
L 130.496075 81.535998 
L 131.654761 81.980822 
L 133.972133 84.271222 
L 135.130819 84.737594 
L 136.289505 85.514281 
L 137.448191 85.944866 
L 139.765563 88.216916 
L 140.924249 88.677971 
L 143.241621 90.146854 
L 144.400307 91.134711 
L 145.558993 91.701888 
L 146.717679 92.778385 
L 147.876365 93.252438 
L 149.035051 94.029292 
L 150.193737 95.038954 
L 151.352423 95.559624 
L 152.511109 96.67192 
L 153.669795 97.141417 
L 154.828481 97.906662 
L 155.987167 98.939025 
L 157.145853 99.427206 
L 158.304539 100.534191 
L 159.463225 100.999873 
L 160.621911 101.753468 
L 161.780597 102.802464 
L 162.939283 103.266889 
L 164.097969 104.371217 
L 165.256655 104.833921 
L 166.415341 105.576025 
L 167.574027 106.637509 
L 168.732713 107.083842 
L 169.891399 108.187207 
L 171.050085 108.647714 
L 172.208771 109.378676 
L 173.367457 110.449542 
L 174.526143 110.881831 
L 175.684829 111.985347 
L 176.843515 112.444507 
L 178.002201 113.164769 
L 179.160887 114.242635 
L 180.319573 114.663891 
L 181.478259 115.768354 
L 182.636945 116.227056 
L 183.795631 116.937078 
L 184.954317 118.020062 
L 186.113003 118.432753 
L 187.271689 119.538727 
L 188.430375 119.997714 
L 189.589061 120.69812 
L 190.747747 121.784813 
L 191.906433 122.190722 
L 193.065119 123.298693 
L 194.223805 123.75878 
L 195.382491 124.450208 
L 196.541177 125.539524 
L 197.699863 125.940298 
L 198.858549 127.050542 
L 200.017235 127.512644 
L 201.175921 128.195613 
L 202.334607 129.28683 
L 203.493293 129.683702 
L 204.651979 130.796743 
L 205.810665 131.261521 
L 206.969351 131.936859 
L 208.128037 133.029462 
L 209.286723 133.77315 
L 210.445409 134.276464 
L 211.604095 134.622145 
L 212.762781 135.092377 
L 213.921467 135.762832 
L 215.080153 136.872648 
L 216.238839 137.64028 
L 217.397525 138.120203 
L 218.556211 138.445213 
L 219.714897 138.920269 
L 220.873583 139.585713 
L 222.032269 140.710411 
L 223.190955 141.498909 
L 224.349641 141.96218 
L 225.508327 142.271152 
L 226.667013 142.751513 
L 227.825699 143.412189 
L 228.984385 144.549081 
L 230.143071 145.356215 
L 231.301757 145.807263 
L 232.460443 146.103487 
L 233.619129 146.589933 
L 234.777815 147.246471 
L 235.936501 148.394037 
L 237.095187 149.21824 
L 238.253873 149.660483 
L 239.412559 149.946437 
L 240.571245 150.440033 
L 241.729931 151.09299 
L 242.888617 152.250465 
L 244.047303 153.090989 
L 245.205989 153.52726 
L 246.364675 153.805123 
L 247.523361 154.306735 
L 248.682047 154.957262 
L 249.840733 156.124291 
L 250.999419 156.981006 
L 252.158105 157.41374 
L 253.316791 157.685189 
L 254.475477 158.196012 
L 255.634163 158.845438 
L 256.792849 160.022759 
L 257.951535 160.895451 
L 259.110221 161.327129 
L 260.268907 161.593418 
L 261.427593 162.115242 
L 262.586278 162.764633 
L 263.744964 163.953264 
L 264.90365 164.843554 
L 266.062336 165.276163 
L 267.221022 165.538791 
L 269.538394 166.723709 
L 270.69708 167.925898 
L 271.855766 168.834777 
L 273.014452 169.270466 
L 274.173138 169.530981 
L 276.49051 170.733545 
L 277.649196 171.952162 
L 278.807882 172.881675 
L 279.966568 173.322957 
L 281.125254 173.58213 
L 283.442626 174.807777 
L 284.601312 176.0456 
L 285.759998 176.999403 
L 286.918684 177.449035 
L 288.07737 177.708892 
L 290.394742 178.962173 
L 291.553428 180.226068 
L 292.712114 181.208051 
L 293.8708 181.668122 
L 296.188172 182.938836 
L 298.505544 185.435488 
L 299.66423 185.90559 
L 301.981602 187.216068 
L 304.298974 189.803541 
L 305.45766 190.283463 
L 307.775032 191.647211 
L 310.092404 194.350356 
L 311.25109 194.849767 
L 313.568462 196.280462 
L 315.885834 199.132651 
L 317.04452 199.659302 
L 319.361892 201.1823 
L 321.679264 204.228451 
L 322.83795 204.792722 
L 325.155322 206.43785 
L 326.314008 207.999673 
L 327.472694 209.753608 
L 328.63138 210.372254 
L 330.948752 212.188547 
L 332.107438 213.921661 
L 332.107438 213.921661 
" clip-path="url(#pecca97bedf)" style="fill: none; stroke: #d62728; stroke-width: 1.5; stroke-linecap: square"/>
   </g>
   <g id="line2d_61">
    <path d="M 101.528926 57.844385 
L 102.687612 58.996535 
L 103.846298 61.385563 
L 105.004984 62.994634 
L 106.16367 63.53262 
L 107.322356 66.104005 
L 108.481042 67.249898 
L 110.798414 68.706935 
L 111.9571 69.527529 
L 113.115786 70.112322 
L 115.433158 72.365484 
L 117.75053 73.578355 
L 118.909215 74.861264 
L 121.226587 76.951239 
L 123.543959 78.106748 
L 125.861331 80.467169 
L 127.020017 81.398646 
L 129.337389 82.514718 
L 131.654761 84.875424 
L 132.813447 85.777507 
L 135.130819 86.865534 
L 137.448191 89.232852 
L 138.606877 90.116399 
L 140.924249 91.183754 
L 143.241621 93.558104 
L 144.400307 94.42987 
L 146.717679 95.481022 
L 149.035051 97.861586 
L 150.193737 98.725866 
L 152.511109 99.763613 
L 154.828481 102.149455 
L 155.987167 103.008986 
L 158.304539 104.035255 
L 160.621911 106.425631 
L 161.780597 107.28228 
L 164.097969 108.298424 
L 166.415341 110.692944 
L 167.574027 111.547927 
L 169.891399 112.555132 
L 172.208771 114.953673 
L 173.367457 115.807907 
L 175.684829 116.807093 
L 178.002201 119.209853 
L 179.160887 120.064082 
L 181.478259 121.056191 
L 183.795631 123.463615 
L 184.954317 124.318465 
L 187.271689 125.304402 
L 189.589061 127.717213 
L 190.747747 128.573319 
L 193.065119 129.554028 
L 195.382491 131.973346 
L 196.541177 132.831256 
L 198.858549 133.807597 
L 201.175921 136.234845 
L 202.334607 137.095305 
L 204.651979 138.06837 
L 206.969351 140.505274 
L 208.128037 141.369214 
L 210.445409 142.340182 
L 212.762781 144.789101 
L 213.921467 145.65733 
L 216.238839 146.62752 
L 218.556211 149.09127 
L 219.714897 149.965003 
L 222.032269 150.935804 
L 224.349641 153.418121 
L 225.508327 154.299015 
L 227.825699 155.272313 
L 230.143071 157.77728 
L 231.301757 158.66687 
L 233.619129 159.644978 
L 235.936501 162.178587 
L 237.095187 163.079224 
L 239.412559 164.064513 
L 241.729931 166.633734 
L 242.888617 167.54804 
L 245.205989 168.544294 
L 247.523361 171.158042 
L 248.682047 172.090119 
L 250.999419 173.100623 
L 253.316791 175.771065 
L 254.475477 176.724814 
L 256.792849 177.7557 
L 259.110221 180.497417 
L 260.268907 181.480226 
L 262.586278 182.537899 
L 264.90365 185.371889 
L 266.062336 186.39137 
L 268.379708 187.485478 
L 270.69708 190.439457 
L 271.855766 191.506384 
L 274.173138 192.649545 
L 276.49051 195.763729 
L 277.649196 196.895274 
L 279.966568 198.105294 
L 283.442626 202.658737 
L 285.759998 203.963573 
L 286.918684 205.675291 
L 288.07737 207.606278 
L 289.236056 208.951249 
L 291.553428 210.397752 
L 292.712114 212.310098 
L 293.8708 214.499388 
L 295.029486 216.039503 
L 297.346858 217.701632 
L 298.505544 219.932472 
L 299.66423 222.535612 
L 300.822916 224.397329 
L 303.140288 226.440312 
L 304.298974 229.227594 
L 305.45766 232.611159 
L 306.616346 235.097345 
L 308.933718 237.90521 
L 310.092404 241.932409 
L 311.25109 247.189731 
L 312.409776 251.384847 
L 313.568462 253.760774 
L 314.727148 256.561824 
L 315.885834 265.318482 
L 317.04452 281.359618 
L 318.203206 307.8 
L 318.204445 361 
L 318.204445 361 
" clip-path="url(#pecca97bedf)" style="fill: none; stroke: #9467bd; stroke-width: 1.5; stroke-linecap: square"/>
   </g>
   <g id="patch_3">
    <path d="M 90 320.4 
L 90 43.2 
" style="fill: none; stroke: #000000; stroke-width: 0.8; stroke-linejoin: miter; stroke-linecap: square"/>
   </g>
   <g id="patch_4">
    <path d="M 343.636364 320.4 
L 343.636364 43.2 
" style="fill: none; stroke: #000000; stroke-width: 0.8; stroke-linejoin: miter; stroke-linecap: square"/>
   </g>
   <g id="patch_5">
    <path d="M 90 320.4 
L 343.636364 320.4 
" style="fill: none; stroke: #000000; stroke-width: 0.8; stroke-linejoin: miter; stroke-linecap: square"/>
   </g>
   <g id="patch_6">
    <path d="M 90 43.2 
L 343.636364 43.2 
" style="fill: none; stroke: #000000; stroke-width: 0.8; stroke-linejoin: miter; stroke-linecap: square"/>
   </g>
   <g id="legend_1">
    <g id="patch_7">
     <path d="M 97 315.4 
L 166.084375 315.4 
Q 168.084375 315.4 168.084375 313.4 
L 168.084375 241.009375 
Q 168.084375 239.009375 166.084375 239.009375 
L 97 239.009375 
Q 95 239.009375 95 241.009375 
L 95 313.4 
Q 95 315.4 97 315.4 
z
" style="fill: #ffffff; opacity: 0.8; stroke: #cccccc; stroke-linejoin: miter"/>
    </g>
    <g id="line2d_62">
     <path d="M 99 247.107813 
L 109 247.107813 
L 119 247.107813 
" style="fill: none; stroke: #1f77b4; stroke-width: 1.5; stroke-linecap: square"/>
    </g>
    <g id="text_14">
     <!-- RBCD -->
     <g transform="translate(127 250.607813)scale(0.1 -0.1)">
      <defs>
       <path id="DejaVuSans-52" d="M 2841 2188 
Q 3044 2119 3236 1894 
Q 3428 1669 3622 1275 
L 4263 0 
L 3584 0 
L 2988 1197 
Q 2756 1666 2539 1819 
Q 2322 1972 1947 1972 
L 1259 1972 
L 1259 0 
L 628 0 
L 628 4666 
L 2053 4666 
Q 2853 4666 3247 4331 
Q 3641 3997 3641 3322 
Q 3641 2881 3436 2590 
Q 3231 2300 2841 2188 
z
M 1259 4147 
L 1259 2491 
L 2053 2491 
Q 2509 2491 2742 2702 
Q 2975 2913 2975 3322 
Q 2975 3731 2742 3939 
Q 2509 4147 2053 4147 
L 1259 4147 
z
" transform="scale(0.015625)"/>
       <path id="DejaVuSans-42" d="M 1259 2228 
L 1259 519 
L 2272 519 
Q 2781 519 3026 730 
Q 3272 941 3272 1375 
Q 3272 1813 3026 2020 
Q 2781 2228 2272 2228 
L 1259 2228 
z
M 1259 4147 
L 1259 2741 
L 2194 2741 
Q 2656 2741 2882 2914 
Q 3109 3088 3109 3444 
Q 3109 3797 2882 3972 
Q 2656 4147 2194 4147 
L 1259 4147 
z
M 628 4666 
L 2241 4666 
Q 2963 4666 3353 4366 
Q 3744 4066 3744 3513 
Q 3744 3084 3544 2831 
Q 3344 2578 2956 2516 
Q 3422 2416 3680 2098 
Q 3938 1781 3938 1306 
Q 3938 681 3513 340 
Q 3088 0 2303 0 
L 628 0 
L 628 4666 
z
" transform="scale(0.015625)"/>
       <path id="DejaVuSans-43" d="M 4122 4306 
L 4122 3641 
Q 3803 3938 3442 4084 
Q 3081 4231 2675 4231 
Q 1875 4231 1450 3742 
Q 1025 3253 1025 2328 
Q 1025 1406 1450 917 
Q 1875 428 2675 428 
Q 3081 428 3442 575 
Q 3803 722 4122 1019 
L 4122 359 
Q 3791 134 3420 21 
Q 3050 -91 2638 -91 
Q 1578 -91 968 557 
Q 359 1206 359 2328 
Q 359 3453 968 4101 
Q 1578 4750 2638 4750 
Q 3056 4750 3426 4639 
Q 3797 4528 4122 4306 
z
" transform="scale(0.015625)"/>
       <path id="DejaVuSans-44" d="M 1259 4147 
L 1259 519 
L 2022 519 
Q 2988 519 3436 956 
Q 3884 1394 3884 2338 
Q 3884 3275 3436 3711 
Q 2988 4147 2022 4147 
L 1259 4147 
z
M 628 4666 
L 1925 4666 
Q 3281 4666 3915 4102 
Q 4550 3538 4550 2338 
Q 4550 1131 3912 565 
Q 3275 0 1925 0 
L 628 0 
L 628 4666 
z
" transform="scale(0.015625)"/>
      </defs>
      <use xlink:href="#DejaVuSans-52"/>
      <use xlink:href="#DejaVuSans-42" x="69.482422"/>
      <use xlink:href="#DejaVuSans-43" x="136.335938"/>
      <use xlink:href="#DejaVuSans-44" x="206.160156"/>
     </g>
    </g>
    <g id="line2d_63">
     <path d="M 99 261.785938 
L 109 261.785938 
L 119 261.785938 
" style="fill: none; stroke: #ff7f0e; stroke-width: 1.5; stroke-linecap: square"/>
    </g>
    <g id="text_15">
     <!-- strong -->
     <g transform="translate(127 265.285938)scale(0.1 -0.1)">
      <defs>
       <path id="DejaVuSans-73" d="M 2834 3397 
L 2834 2853 
Q 2591 2978 2328 3040 
Q 2066 3103 1784 3103 
Q 1356 3103 1142 2972 
Q 928 2841 928 2578 
Q 928 2378 1081 2264 
Q 1234 2150 1697 2047 
L 1894 2003 
Q 2506 1872 2764 1633 
Q 3022 1394 3022 966 
Q 3022 478 2636 193 
Q 2250 -91 1575 -91 
Q 1294 -91 989 -36 
Q 684 19 347 128 
L 347 722 
Q 666 556 975 473 
Q 1284 391 1588 391 
Q 1994 391 2212 530 
Q 2431 669 2431 922 
Q 2431 1156 2273 1281 
Q 2116 1406 1581 1522 
L 1381 1569 
Q 847 1681 609 1914 
Q 372 2147 372 2553 
Q 372 3047 722 3315 
Q 1072 3584 1716 3584 
Q 2034 3584 2315 3537 
Q 2597 3491 2834 3397 
z
" transform="scale(0.015625)"/>
       <path id="DejaVuSans-67" d="M 2906 1791 
Q 2906 2416 2648 2759 
Q 2391 3103 1925 3103 
Q 1463 3103 1205 2759 
Q 947 2416 947 1791 
Q 947 1169 1205 825 
Q 1463 481 1925 481 
Q 2391 481 2648 825 
Q 2906 1169 2906 1791 
z
M 3481 434 
Q 3481 -459 3084 -895 
Q 2688 -1331 1869 -1331 
Q 1566 -1331 1297 -1286 
Q 1028 -1241 775 -1147 
L 775 -588 
Q 1028 -725 1275 -790 
Q 1522 -856 1778 -856 
Q 2344 -856 2625 -561 
Q 2906 -266 2906 331 
L 2906 616 
Q 2728 306 2450 153 
Q 2172 0 1784 0 
Q 1141 0 747 490 
Q 353 981 353 1791 
Q 353 2603 747 3093 
Q 1141 3584 1784 3584 
Q 2172 3584 2450 3431 
Q 2728 3278 2906 2969 
L 2906 3500 
L 3481 3500 
L 3481 434 
z
" transform="scale(0.015625)"/>
      </defs>
      <use xlink:href="#DejaVuSans-73"/>
      <use xlink:href="#DejaVuSans-74" x="52.099609"/>
      <use xlink:href="#DejaVuSans-72" x="91.308594"/>
      <use xlink:href="#DejaVuSans-6f" x="130.171875"/>
      <use xlink:href="#DejaVuSans-6e" x="191.353516"/>
      <use xlink:href="#DejaVuSans-67" x="254.732422"/>
     </g>
    </g>
    <g id="line2d_64">
     <path d="M 99 276.464063 
L 109 276.464063 
L 119 276.464063 
" style="fill: none; stroke: #2ca02c; stroke-width: 1.5; stroke-linecap: square"/>
    </g>
    <g id="text_16">
     <!-- fast -->
     <g transform="translate(127 279.964063)scale(0.1 -0.1)">
      <defs>
       <path id="DejaVuSans-66" d="M 2375 4863 
L 2375 4384 
L 1825 4384 
Q 1516 4384 1395 4259 
Q 1275 4134 1275 3809 
L 1275 3500 
L 2222 3500 
L 2222 3053 
L 1275 3053 
L 1275 0 
L 697 0 
L 697 3053 
L 147 3053 
L 147 3500 
L 697 3500 
L 697 3744 
Q 697 4328 969 4595 
Q 1241 4863 1831 4863 
L 2375 4863 
z
" transform="scale(0.015625)"/>
      </defs>
      <use xlink:href="#DejaVuSans-66"/>
      <use xlink:href="#DejaVuSans-61" x="35.205078"/>
      <use xlink:href="#DejaVuSans-73" x="96.484375"/>
      <use xlink:href="#DejaVuSans-74" x="148.583984"/>
     </g>
    </g>
    <g id="line2d_65">
     <path d="M 99 291.142187 
L 109 291.142187 
L 119 291.142187 
" style="fill: none; stroke: #d62728; stroke-width: 1.5; stroke-linecap: square"/>
    </g>
    <g id="text_17">
     <!-- eco -->
     <g transform="translate(127 294.642187)scale(0.1 -0.1)">
      <defs>
       <path id="DejaVuSans-63" d="M 3122 3366 
L 3122 2828 
Q 2878 2963 2633 3030 
Q 2388 3097 2138 3097 
Q 1578 3097 1268 2742 
Q 959 2388 959 1747 
Q 959 1106 1268 751 
Q 1578 397 2138 397 
Q 2388 397 2633 464 
Q 2878 531 3122 666 
L 3122 134 
Q 2881 22 2623 -34 
Q 2366 -91 2075 -91 
Q 1284 -91 818 406 
Q 353 903 353 1747 
Q 353 2603 823 3093 
Q 1294 3584 2113 3584 
Q 2378 3584 2631 3529 
Q 2884 3475 3122 3366 
z
" transform="scale(0.015625)"/>
      </defs>
      <use xlink:href="#DejaVuSans-65"/>
      <use xlink:href="#DejaVuSans-63" x="61.523438"/>
      <use xlink:href="#DejaVuSans-6f" x="116.503906"/>
     </g>
    </g>
    <g id="line2d_66">
     <path d="M 99 305.820312 
L 109 305.820312 
L 119 305.820312 
" style="fill: none; stroke: #9467bd; stroke-width: 1.5; stroke-linecap: square"/>
    </g>
    <g id="text_18">
     <!-- highest -->
     <g transform="translate(127 309.320312)scale(0.1 -0.1)">
      <defs>
       <path id="DejaVuSans-68" d="M 3513 2113 
L 3513 0 
L 2938 0 
L 2938 2094 
Q 2938 2591 2744 2837 
Q 2550 3084 2163 3084 
Q 1697 3084 1428 2787 
Q 1159 2491 1159 1978 
L 1159 0 
L 581 0 
L 581 4863 
L 1159 4863 
L 1159 2956 
Q 1366 3272 1645 3428 
Q 1925 3584 2291 3584 
Q 2894 3584 3203 3211 
Q 3513 2838 3513 2113 
z
" transform="scale(0.015625)"/>
      </defs>
      <use xlink:href="#DejaVuSans-68"/>
      <use xlink:href="#DejaVuSans-69" x="63.378906"/>
      <use xlink:href="#DejaVuSans-67" x="91.162109"/>
      <use xlink:href="#DejaVuSans-68" x="154.638672"/>
      <use xlink:href="#DejaVuSans-65" x="218.017578"/>
      <use xlink:href="#DejaVuSans-73" x="279.541016"/>
      <use xlink:href="#DejaVuSans-74" x="331.640625"/>
     </g>
    </g>
   </g>
  </g>
  <g id="axes_2">
   <g id="patch_8">
    <path d="M 394.363636 320.4 
L 648 320.4 
L 648 43.2 
L 394.363636 43.2 
z
" style="fill: #ffffff"/>
   </g>
   <g id="matplotlib.axis_3">
    <g id="xtick_6">
     <g id="line2d_67">
      <g>
       <use xlink:href="#m2a1b30755c" x="405.892562" y="320.4" style="stroke: #000000; stroke-width: 0.8"/>
      </g>
     </g>
     <g id="text_19">
      <!-- 0 -->
      <g transform="translate(402.711312 334.998438)scale(0.1 -0.1)">
       <use xlink:href="#DejaVuSans-30"/>
      </g>
     </g>
    </g>
    <g id="xtick_7">
     <g id="line2d_68">
      <g>
       <use xlink:href="#m2a1b30755c" x="463.826862" y="320.4" style="stroke: #000000; stroke-width: 0.8"/>
      </g>
     </g>
     <g id="text_20">
      <!-- 50 -->
      <g transform="translate(457.464362 334.998438)scale(0.1 -0.1)">
       <use xlink:href="#DejaVuSans-35"/>
       <use xlink:href="#DejaVuSans-30" x="63.623047"/>
      </g>
     </g>
    </g>
    <g id="xtick_8">
     <g id="line2d_69">
      <g>
       <use xlink:href="#m2a1b30755c" x="521.761161" y="320.4" style="stroke: #000000; stroke-width: 0.8"/>
      </g>
     </g>
     <g id="text_21">
      <!-- 100 -->
      <g transform="translate(512.217411 334.998438)scale(0.1 -0.1)">
       <use xlink:href="#DejaVuSans-31"/>
       <use xlink:href="#DejaVuSans-30" x="63.623047"/>
       <use xlink:href="#DejaVuSans-30" x="127.246094"/>
      </g>
     </g>
    </g>
    <g id="xtick_9">
     <g id="line2d_70">
      <g>
       <use xlink:href="#m2a1b30755c" x="579.695461" y="320.4" style="stroke: #000000; stroke-width: 0.8"/>
      </g>
     </g>
     <g id="text_22">
      <!-- 150 -->
      <g transform="translate(570.151711 334.998438)scale(0.1 -0.1)">
       <use xlink:href="#DejaVuSans-31"/>
       <use xlink:href="#DejaVuSans-35" x="63.623047"/>
       <use xlink:href="#DejaVuSans-30" x="127.246094"/>
      </g>
     </g>
    </g>
    <g id="xtick_10">
     <g id="line2d_71">
      <g>
       <use xlink:href="#m2a1b30755c" x="637.62976" y="320.4" style="stroke: #000000; stroke-width: 0.8"/>
      </g>
     </g>
     <g id="text_23">
      <!-- 200 -->
      <g transform="translate(628.08601 334.998438)scale(0.1 -0.1)">
       <use xlink:href="#DejaVuSans-32"/>
       <use xlink:href="#DejaVuSans-30" x="63.623047"/>
       <use xlink:href="#DejaVuSans-30" x="127.246094"/>
      </g>
     </g>
    </g>
    <g id="text_24">
     <!-- iteration -->
     <g transform="translate(500.059162 348.676562)scale(0.1 -0.1)">
      <use xlink:href="#DejaVuSans-69"/>
      <use xlink:href="#DejaVuSans-74" x="27.783203"/>
      <use xlink:href="#DejaVuSans-65" x="66.992188"/>
      <use xlink:href="#DejaVuSans-72" x="128.515625"/>
      <use xlink:href="#DejaVuSans-61" x="169.628906"/>
      <use xlink:href="#DejaVuSans-74" x="230.908203"/>
      <use xlink:href="#DejaVuSans-69" x="270.117188"/>
      <use xlink:href="#DejaVuSans-6f" x="297.900391"/>
      <use xlink:href="#DejaVuSans-6e" x="359.082031"/>
     </g>
    </g>
   </g>
   <g id="matplotlib.axis_4">
    <g id="ytick_52">
     <g id="line2d_72">
      <g>
       <use xlink:href="#md8c18a0b53" x="394.363636" y="231.043793" style="stroke: #000000; stroke-width: 0.8"/>
      </g>
     </g>
     <g id="text_25">
      <!-- $\mathdefault{10^{0}}$ -->
      <g transform="translate(369.763636 234.843012)scale(0.1 -0.1)">
       <use xlink:href="#DejaVuSans-31" transform="translate(0 0.765625)"/>
       <use xlink:href="#DejaVuSans-30" transform="translate(63.623047 0.765625)"/>
       <use xlink:href="#DejaVuSans-30" transform="translate(128.203125 39.046875)scale(0.7)"/>
      </g>
     </g>
    </g>
    <g id="ytick_53">
     <g id="line2d_73">
      <g>
       <use xlink:href="#md8c18a0b53" x="394.363636" y="100.585652" style="stroke: #000000; stroke-width: 0.8"/>
      </g>
     </g>
     <g id="text_26">
      <!-- $\mathdefault{10^{1}}$ -->
      <g transform="translate(369.763636 104.384871)scale(0.1 -0.1)">
       <use xlink:href="#DejaVuSans-31" transform="translate(0 0.684375)"/>
       <use xlink:href="#DejaVuSans-30" transform="translate(63.623047 0.684375)"/>
       <use xlink:href="#DejaVuSans-31" transform="translate(128.203125 38.965625)scale(0.7)"/>
      </g>
     </g>
    </g>
    <g id="ytick_54">
     <g id="line2d_74">
      <g>
       <use xlink:href="#m34ffb3f7f5" x="394.363636" y="299.257583" style="stroke: #000000; stroke-width: 0.6"/>
      </g>
     </g>
    </g>
    <g id="ytick_55">
     <g id="line2d_75">
      <g>
       <use xlink:href="#m34ffb3f7f5" x="394.363636" y="282.958307" style="stroke: #000000; stroke-width: 0.6"/>
      </g>
     </g>
    </g>
    <g id="ytick_56">
     <g id="line2d_76">
      <g>
       <use xlink:href="#m34ffb3f7f5" x="394.363636" y="270.315607" style="stroke: #000000; stroke-width: 0.6"/>
      </g>
     </g>
    </g>
    <g id="ytick_57">
     <g id="line2d_77">
      <g>
       <use xlink:href="#m34ffb3f7f5" x="394.363636" y="259.985769" style="stroke: #000000; stroke-width: 0.6"/>
      </g>
     </g>
    </g>
    <g id="ytick_58">
     <g id="line2d_78">
      <g>
       <use xlink:href="#m34ffb3f7f5" x="394.363636" y="251.252015" style="stroke: #000000; stroke-width: 0.6"/>
      </g>
     </g>
    </g>
    <g id="ytick_59">
     <g id="line2d_79">
      <g>
       <use xlink:href="#m34ffb3f7f5" x="394.363636" y="243.686494" style="stroke: #000000; stroke-width: 0.6"/>
      </g>
     </g>
    </g>
    <g id="ytick_60">
     <g id="line2d_80">
      <g>
       <use xlink:href="#m34ffb3f7f5" x="394.363636" y="237.013231" style="stroke: #000000; stroke-width: 0.6"/>
      </g>
     </g>
    </g>
    <g id="ytick_61">
     <g id="line2d_81">
      <g>
       <use xlink:href="#m34ffb3f7f5" x="394.363636" y="191.77198" style="stroke: #000000; stroke-width: 0.6"/>
      </g>
     </g>
    </g>
    <g id="ytick_62">
     <g id="line2d_82">
      <g>
       <use xlink:href="#m34ffb3f7f5" x="394.363636" y="168.799441" style="stroke: #000000; stroke-width: 0.6"/>
      </g>
     </g>
    </g>
    <g id="ytick_63">
     <g id="line2d_83">
      <g>
       <use xlink:href="#m34ffb3f7f5" x="394.363636" y="152.500166" style="stroke: #000000; stroke-width: 0.6"/>
      </g>
     </g>
    </g>
    <g id="ytick_64">
     <g id="line2d_84">
      <g>
       <use xlink:href="#m34ffb3f7f5" x="394.363636" y="139.857466" style="stroke: #000000; stroke-width: 0.6"/>
      </g>
     </g>
    </g>
    <g id="ytick_65">
     <g id="line2d_85">
      <g>
       <use xlink:href="#m34ffb3f7f5" x="394.363636" y="129.527627" style="stroke: #000000; stroke-width: 0.6"/>
      </g>
     </g>
    </g>
    <g id="ytick_66">
     <g id="line2d_86">
      <g>
       <use xlink:href="#m34ffb3f7f5" x="394.363636" y="120.793874" style="stroke: #000000; stroke-width: 0.6"/>
      </g>
     </g>
    </g>
    <g id="ytick_67">
     <g id="line2d_87">
      <g>
       <use xlink:href="#m34ffb3f7f5" x="394.363636" y="113.228352" style="stroke: #000000; stroke-width: 0.6"/>
      </g>
     </g>
    </g>
    <g id="ytick_68">
     <g id="line2d_88">
      <g>
       <use xlink:href="#m34ffb3f7f5" x="394.363636" y="106.555089" style="stroke: #000000; stroke-width: 0.6"/>
      </g>
     </g>
    </g>
    <g id="ytick_69">
     <g id="line2d_89">
      <g>
       <use xlink:href="#m34ffb3f7f5" x="394.363636" y="61.313838" style="stroke: #000000; stroke-width: 0.6"/>
      </g>
     </g>
    </g>
    <g id="text_27">
     <!-- GradNorm -->
     <g transform="translate(363.683949 207.60625)rotate(-90)scale(0.1 -0.1)">
      <defs>
       <path id="DejaVuSans-47" d="M 3809 666 
L 3809 1919 
L 2778 1919 
L 2778 2438 
L 4434 2438 
L 4434 434 
Q 4069 175 3628 42 
Q 3188 -91 2688 -91 
Q 1594 -91 976 548 
Q 359 1188 359 2328 
Q 359 3472 976 4111 
Q 1594 4750 2688 4750 
Q 3144 4750 3555 4637 
Q 3966 4525 4313 4306 
L 4313 3634 
Q 3963 3931 3569 4081 
Q 3175 4231 2741 4231 
Q 1884 4231 1454 3753 
Q 1025 3275 1025 2328 
Q 1025 1384 1454 906 
Q 1884 428 2741 428 
Q 3075 428 3337 486 
Q 3600 544 3809 666 
z
" transform="scale(0.015625)"/>
       <path id="DejaVuSans-64" d="M 2906 2969 
L 2906 4863 
L 3481 4863 
L 3481 0 
L 2906 0 
L 2906 525 
Q 2725 213 2448 61 
Q 2172 -91 1784 -91 
Q 1150 -91 751 415 
Q 353 922 353 1747 
Q 353 2572 751 3078 
Q 1150 3584 1784 3584 
Q 2172 3584 2448 3432 
Q 2725 3281 2906 2969 
z
M 947 1747 
Q 947 1113 1208 752 
Q 1469 391 1925 391 
Q 2381 391 2643 752 
Q 2906 1113 2906 1747 
Q 2906 2381 2643 2742 
Q 2381 3103 1925 3103 
Q 1469 3103 1208 2742 
Q 947 2381 947 1747 
z
" transform="scale(0.015625)"/>
       <path id="DejaVuSans-4e" d="M 628 4666 
L 1478 4666 
L 3547 763 
L 3547 4666 
L 4159 4666 
L 4159 0 
L 3309 0 
L 1241 3903 
L 1241 0 
L 628 0 
L 628 4666 
z
" transform="scale(0.015625)"/>
       <path id="DejaVuSans-6d" d="M 3328 2828 
Q 3544 3216 3844 3400 
Q 4144 3584 4550 3584 
Q 5097 3584 5394 3201 
Q 5691 2819 5691 2113 
L 5691 0 
L 5113 0 
L 5113 2094 
Q 5113 2597 4934 2840 
Q 4756 3084 4391 3084 
Q 3944 3084 3684 2787 
Q 3425 2491 3425 1978 
L 3425 0 
L 2847 0 
L 2847 2094 
Q 2847 2600 2669 2842 
Q 2491 3084 2119 3084 
Q 1678 3084 1418 2786 
Q 1159 2488 1159 1978 
L 1159 0 
L 581 0 
L 581 3500 
L 1159 3500 
L 1159 2956 
Q 1356 3278 1631 3431 
Q 1906 3584 2284 3584 
Q 2666 3584 2933 3390 
Q 3200 3197 3328 2828 
z
" transform="scale(0.015625)"/>
      </defs>
      <use xlink:href="#DejaVuSans-47"/>
      <use xlink:href="#DejaVuSans-72" x="77.490234"/>
      <use xlink:href="#DejaVuSans-61" x="118.603516"/>
      <use xlink:href="#DejaVuSans-64" x="179.882812"/>
      <use xlink:href="#DejaVuSans-4e" x="243.359375"/>
      <use xlink:href="#DejaVuSans-6f" x="318.164062"/>
      <use xlink:href="#DejaVuSans-72" x="379.345703"/>
      <use xlink:href="#DejaVuSans-6d" x="418.708984"/>
     </g>
    </g>
   </g>
   <g id="line2d_90">
    <path d="M 405.892562 78.543617 
L 408.209934 83.08014 
L 409.36862 84.394937 
L 410.527306 87.450246 
L 411.685992 90.138487 
L 412.844678 90.416182 
L 415.16205 98.34984 
L 416.320736 99.091573 
L 417.479422 101.100512 
L 418.638108 94.722912 
L 419.796794 102.142598 
L 420.95548 104.011141 
L 422.114166 104.207084 
L 423.272852 107.575837 
L 424.431538 102.460837 
L 425.590224 101.313661 
L 426.74891 104.253917 
L 427.907596 106.809597 
L 429.066282 108.318055 
L 430.224968 99.665422 
L 431.383654 105.378016 
L 432.54234 104.92638 
L 433.701026 107.185992 
L 434.859712 102.58453 
L 437.177084 113.84071 
L 438.33577 108.132047 
L 439.494456 112.75357 
L 440.653142 114.433685 
L 441.811828 115.31274 
L 442.970514 110.892445 
L 444.1292 115.582139 
L 446.446572 118.38914 
L 447.605258 114.189236 
L 448.763944 114.668157 
L 449.92263 113.305219 
L 451.081316 117.020962 
L 452.240002 113.162968 
L 453.398688 117.733086 
L 454.557374 117.746409 
L 455.71606 119.64225 
L 456.874746 125.564512 
L 458.033432 119.931222 
L 459.192118 119.896494 
L 460.350804 121.747075 
L 461.50949 125.357743 
L 462.668176 126.360016 
L 463.826862 126.71172 
L 464.985548 122.908166 
L 466.144234 126.725165 
L 467.30292 127.687794 
L 468.461606 128.39364 
L 469.620292 122.399484 
L 470.778978 124.242444 
L 471.937664 122.485205 
L 473.09635 126.460851 
L 474.255036 130.962199 
L 475.413722 124.226046 
L 476.572407 126.102134 
L 477.731093 126.980563 
L 478.889779 131.560426 
L 480.048465 132.113775 
L 481.207151 133.056113 
L 482.365837 129.031759 
L 483.524523 133.418501 
L 485.841895 135.116071 
L 487.000581 132.632277 
L 488.159267 134.933941 
L 489.317953 135.59359 
L 490.476639 122.926298 
L 491.635325 132.541943 
L 492.794011 130.753314 
L 493.952697 134.184724 
L 495.111383 139.035606 
L 496.270069 132.56659 
L 497.428755 134.634381 
L 498.587441 135.306574 
L 499.746127 139.445842 
L 500.904813 139.839762 
L 502.063499 140.511005 
L 503.222185 136.788774 
L 504.380871 140.825451 
L 506.698243 142.094953 
L 507.856929 135.23164 
L 509.015615 137.635664 
L 510.174301 135.516491 
L 511.332987 140.226077 
L 512.491673 144.374196 
L 513.650359 137.833047 
L 514.809045 139.862521 
L 515.967731 140.250355 
L 517.126417 145.006751 
L 518.285103 145.246497 
L 519.443789 146.246801 
L 520.602475 142.481741 
L 521.761161 146.64267 
L 522.919847 147.208283 
L 524.078533 148.006014 
L 525.237219 141.017398 
L 526.395905 143.18729 
L 527.554591 141.03569 
L 528.713277 145.942017 
L 529.871963 142.618693 
L 532.189335 150.413445 
L 533.348021 143.2341 
L 534.506707 149.088621 
L 535.665393 149.814167 
L 536.824079 151.200226 
L 537.982765 147.579122 
L 539.141451 151.496646 
L 540.300137 152.061242 
L 541.458823 153.293595 
L 542.617509 146.336411 
L 543.776195 148.278245 
L 544.934881 146.117451 
L 546.093567 151.239511 
L 547.252253 147.819199 
L 548.410939 151.883031 
L 549.569625 151.324773 
L 550.728311 153.628526 
L 551.886997 158.219896 
L 553.045683 153.00926 
L 554.204369 153.49891 
L 555.363055 154.421197 
L 556.521741 157.739597 
L 557.680427 158.157505 
L 558.839113 158.361813 
L 559.997799 155.193528 
L 561.156485 158.633932 
L 562.315171 151.347482 
L 563.473857 153.015098 
L 564.632543 150.982981 
L 565.791229 157.51153 
L 566.949915 154.820586 
L 568.108601 157.658162 
L 569.267287 157.00101 
L 570.425973 159.913821 
L 571.584659 164.097104 
L 572.743345 159.171564 
L 573.902031 159.162511 
L 575.060717 159.825411 
L 576.219403 163.382305 
L 578.536775 163.973534 
L 579.695461 156.391819 
L 580.854147 158.785465 
L 582.012833 156.498888 
L 583.171519 162.004038 
L 584.330205 157.951902 
L 585.488891 162.861591 
L 586.647577 162.245898 
L 587.806263 164.977319 
L 588.964949 168.965396 
L 590.123635 163.693101 
L 591.282321 164.125381 
L 592.441007 164.812268 
L 593.599693 168.229239 
L 595.917065 168.738334 
L 597.075751 165.704399 
L 598.234437 169.063803 
L 599.393123 161.163118 
L 600.551809 163.284074 
L 601.710495 161.078721 
L 602.869181 168.000179 
L 604.027867 165.36977 
L 605.186553 168.151224 
L 606.345239 167.388896 
L 607.503925 170.50433 
L 608.662611 174.380836 
L 609.821297 169.471405 
L 610.979983 169.534307 
L 612.138669 169.969978 
L 613.297355 173.530286 
L 615.614727 173.975823 
L 616.773413 165.949566 
L 617.932099 168.683454 
L 619.090785 166.274149 
L 620.24947 172.035916 
L 621.408156 168.083523 
L 622.566842 172.95923 
L 623.725528 172.259765 
L 624.884214 175.099514 
L 626.0429 178.898718 
L 627.201586 173.68079 
L 629.518958 174.709829 
L 630.677644 178.088719 
L 631.83633 175.786139 
L 632.995016 177.766602 
L 634.153702 177.995043 
L 635.312388 179.864349 
L 636.471074 171.353669 
L 636.471074 171.353669 
" clip-path="url(#pb5e23d604a)" style="fill: none; stroke: #1f77b4; stroke-width: 1.5; stroke-linecap: square"/>
   </g>
   <g id="line2d_91">
    <path d="M 405.892562 70.906179 
L 407.051248 65.646482 
L 408.209934 77.219456 
L 409.36862 79.367697 
L 410.527306 77.153466 
L 412.844678 92.304879 
L 414.003364 96.480055 
L 415.16205 98.613002 
L 416.320736 95.339162 
L 417.479422 104.543648 
L 418.638108 102.214084 
L 419.796794 107.143319 
L 420.95548 108.736513 
L 422.114166 110.953205 
L 423.272852 108.48915 
L 425.590224 116.781738 
L 426.74891 116.902219 
L 427.907596 118.911995 
L 429.066282 116.297943 
L 430.224968 121.350378 
L 431.383654 123.338273 
L 432.54234 123.774226 
L 433.701026 125.625468 
L 434.859712 122.853996 
L 436.018398 127.798371 
L 437.177084 129.344766 
L 438.33577 129.607193 
L 439.494456 131.250705 
L 440.653142 128.470919 
L 441.811828 133.449263 
L 442.970514 134.834597 
L 444.1292 134.978296 
L 445.287886 136.436457 
L 446.446572 133.683882 
L 447.605258 138.682888 
L 448.763944 139.998816 
L 449.92263 140.094788 
L 451.081316 141.395414 
L 452.240002 138.690822 
L 453.398688 143.685225 
L 454.557374 144.969034 
L 455.71606 145.045732 
L 456.874746 146.213329 
L 458.033432 143.566718 
L 459.192118 148.53735 
L 460.350804 149.80406 
L 461.50949 149.883054 
L 462.668176 150.939089 
L 463.826862 148.354637 
L 464.985548 153.286687 
L 466.144234 154.542355 
L 467.30292 154.635135 
L 468.461606 155.597716 
L 469.620292 153.076778 
L 470.778978 157.959868 
L 471.937664 159.206581 
L 473.09635 159.320887 
L 474.255036 160.205189 
L 475.413722 157.747662 
L 476.572407 162.574499 
L 477.731093 163.812727 
L 478.889779 163.952908 
L 480.048465 164.77153 
L 481.207151 162.376584 
L 482.365837 167.14228 
L 483.524523 168.371914 
L 484.683209 168.540413 
L 485.841895 169.303789 
L 487.000581 166.970214 
L 488.159267 171.671608 
L 489.317953 172.892393 
L 490.476639 173.090227 
L 491.635325 173.806973 
L 492.794011 171.533375 
L 493.952697 176.16862 
L 495.111383 177.380331 
L 496.270069 177.607617 
L 497.428755 178.284842 
L 498.587441 176.069745 
L 499.746127 180.637972 
L 500.904813 181.840465 
L 502.063499 182.096709 
L 503.222185 182.74027 
L 504.380871 180.582172 
L 505.539557 185.083268 
L 506.698243 186.276486 
L 507.856929 186.560811 
L 509.015615 187.175531 
L 510.174301 185.07293 
L 511.332987 189.507362 
L 512.491673 190.691324 
L 513.650359 191.002616 
L 514.809045 191.592461 
L 515.967731 189.543875 
L 517.126417 193.912563 
L 518.285103 195.08734 
L 519.443789 195.424358 
L 521.761161 196.542712 
L 522.919847 194.508918 
L 524.078533 199.990705 
L 525.237219 200.264801 
L 527.554591 201.5491 
L 528.713277 199.53086 
L 529.871963 204.208758 
L 531.030649 204.605709 
L 532.189335 205.444508 
L 533.348021 206.007303 
L 534.506707 204.066532 
L 535.665393 208.500378 
L 536.824079 208.942997 
L 537.982765 209.890084 
L 539.141451 210.428642 
L 540.300137 208.55235 
L 541.458823 212.85074 
L 542.617509 213.311002 
L 543.776195 214.313227 
L 544.934881 214.831801 
L 546.093567 213.012123 
L 547.252253 213.420706 
L 548.410939 217.684521 
L 549.569625 218.715318 
L 550.728311 219.216921 
L 551.886997 217.448661 
L 553.045683 217.871658 
L 554.204369 222.05308 
L 555.363055 223.098498 
L 557.680427 224.050676 
L 558.839113 222.30238 
L 559.997799 226.412453 
L 561.156485 227.464599 
L 563.473857 228.418301 
L 564.632543 226.714481 
L 565.791229 230.761095 
L 566.949915 231.815342 
L 569.267287 232.771143 
L 570.425973 231.109425 
L 571.584659 235.098646 
L 572.743345 236.152221 
L 575.060717 237.110214 
L 576.219403 235.488612 
L 577.378089 239.42534 
L 578.536775 240.476552 
L 580.854147 241.43654 
L 582.012833 239.853332 
L 583.171519 243.741684 
L 584.330205 244.789491 
L 586.647577 245.751108 
L 587.806263 244.204764 
L 588.964949 248.048303 
L 590.123635 249.092049 
L 591.282321 249.509544 
L 592.441007 250.05484 
L 593.599693 248.543966 
L 594.758379 252.345849 
L 595.917065 253.385119 
L 597.075751 253.792526 
L 598.234437 254.348579 
L 599.393123 252.871887 
L 600.551809 256.63496 
L 601.710495 257.669487 
L 602.869181 258.066963 
L 604.027867 258.633092 
L 605.186553 257.189376 
L 606.345239 260.916241 
L 607.503925 261.945851 
L 608.662611 262.333503 
L 609.821297 262.909073 
L 610.979983 261.497193 
L 612.138669 265.190252 
L 613.297355 266.21483 
L 614.456041 266.592731 
L 615.614727 267.177152 
L 616.773413 265.79602 
L 617.932099 269.457508 
L 619.090785 270.476979 
L 620.24947 270.845172 
L 621.408156 271.437895 
L 622.566842 270.086472 
L 623.725528 273.718478 
L 624.884214 274.732791 
L 626.0429 275.091302 
L 627.201586 275.691817 
L 628.360272 274.369104 
L 629.518958 274.653797 
L 630.677644 279.466676 
L 631.83633 279.821562 
L 632.995016 278.533259 
L 634.153702 278.966865 
L 635.312388 279.607017 
L 636.471074 283.563033 
L 636.471074 283.563033 
" clip-path="url(#pb5e23d604a)" style="fill: none; stroke: #ff7f0e; stroke-width: 1.5; stroke-linecap: square"/>
   </g>
   <g id="line2d_92">
    <path d="M 405.892562 55.8 
L 407.051248 72.182762 
L 408.209934 72.002968 
L 409.36862 68.960975 
L 410.527306 74.927327 
L 411.685992 74.188356 
L 412.844678 77.69834 
L 414.003364 74.259486 
L 415.16205 88.743816 
L 416.320736 91.513257 
L 417.479422 86.824347 
L 418.638108 92.965238 
L 419.796794 91.250123 
L 420.95548 91.762931 
L 422.114166 95.253233 
L 423.272852 91.389639 
L 424.431538 101.989914 
L 425.590224 100.008177 
L 426.74891 100.761725 
L 427.907596 104.05194 
L 429.066282 99.960368 
L 430.224968 109.363616 
L 431.383654 107.257856 
L 432.54234 108.16342 
L 433.701026 111.326942 
L 434.859712 107.320074 
L 436.018398 115.955848 
L 437.177084 113.802645 
L 438.33577 114.760822 
L 439.494456 117.823266 
L 440.653142 113.90825 
L 441.811828 122.042333 
L 442.970514 119.889617 
L 444.1292 120.846267 
L 445.287886 123.809096 
L 446.446572 120.008113 
L 447.605258 127.79752 
L 448.763944 125.673153 
L 449.92263 126.598939 
L 451.081316 129.46791 
L 452.240002 125.771828 
L 453.398688 133.319506 
L 454.557374 131.239483 
L 455.71606 132.115904 
L 456.874746 134.895373 
L 458.033432 131.298152 
L 459.192118 138.672449 
L 460.350804 136.645938 
L 461.50949 137.459267 
L 462.668176 140.155151 
L 463.826862 136.648927 
L 464.985548 143.897484 
L 466.144234 141.929758 
L 467.30292 142.668689 
L 468.461606 145.287111 
L 469.620292 141.866102 
L 470.778978 149.022701 
L 471.937664 147.116676 
L 473.09635 147.771578 
L 474.255036 150.3189 
L 475.413722 153.563351 
L 476.572407 149.13834 
L 477.731093 154.293363 
L 478.889779 152.436189 
L 480.048465 152.860816 
L 481.207151 155.304933 
L 482.365837 158.858939 
L 483.524523 154.619616 
L 484.683209 159.362433 
L 485.841895 161.815608 
L 487.000581 160.116052 
L 488.159267 160.339943 
L 489.317953 164.027939 
L 490.476639 159.940565 
L 491.635325 164.425714 
L 492.794011 166.8092 
L 493.952697 165.155646 
L 495.111383 165.201524 
L 496.270069 169.052699 
L 497.428755 165.09561 
L 498.587441 169.338901 
L 499.746127 171.745639 
L 500.904813 170.138395 
L 502.063499 170.032799 
L 503.222185 174.012307 
L 504.380871 170.16251 
L 505.539557 171.811856 
L 506.698243 176.042903 
L 507.856929 174.480752 
L 509.015615 174.25531 
L 510.174301 171.122557 
L 511.332987 178.519093 
L 512.491673 181.272918 
L 513.650359 179.755029 
L 514.809045 179.556939 
L 515.967731 183.60961 
L 517.126417 180.030215 
L 518.285103 181.780118 
L 519.443789 185.680735 
L 520.602475 184.207882 
L 521.761161 183.808921 
L 522.919847 180.860759 
L 524.078533 188.003381 
L 525.237219 190.771912 
L 526.395905 189.351872 
L 527.554591 188.971483 
L 528.713277 193.13276 
L 529.871963 189.742043 
L 531.030649 191.499411 
L 532.189335 195.202513 
L 533.348021 193.824714 
L 534.506707 193.230538 
L 535.665393 190.42371 
L 536.824079 197.43189 
L 537.982765 200.174137 
L 539.141451 198.852434 
L 540.300137 198.275627 
L 541.458823 202.543243 
L 542.617509 199.304713 
L 543.776195 201.056642 
L 544.934881 204.618332 
L 546.093567 203.334834 
L 547.252253 202.537494 
L 548.410939 203.761628 
L 549.569625 207.845816 
L 550.728311 203.905335 
L 551.886997 208.567995 
L 553.045683 210.550704 
L 555.363055 208.373886 
L 556.521741 212.61519 
L 557.680427 208.971053 
L 558.839113 213.161777 
L 559.997799 215.293335 
L 562.315171 213.004968 
L 563.473857 217.459761 
L 564.632543 213.99494 
L 565.791229 215.51515 
L 566.949915 219.480878 
L 568.108601 218.380202 
L 569.267287 217.121346 
L 570.425973 214.381586 
L 571.584659 221.851079 
L 572.743345 224.386868 
L 575.060717 222.125141 
L 576.219403 226.692789 
L 577.378089 223.575705 
L 578.536775 225.259823 
L 579.695461 228.768388 
L 580.854147 227.719922 
L 582.012833 226.331611 
L 583.171519 227.55476 
L 584.330205 231.99292 
L 585.488891 228.237245 
L 586.647577 232.737727 
L 587.806263 231.708585 
L 588.964949 230.25645 
L 590.123635 232.161107 
L 591.282321 236.853691 
L 592.441007 233.370264 
L 593.599693 237.340936 
L 594.758379 239.174086 
L 595.917065 238.265582 
L 597.075751 236.55677 
L 598.234437 241.246896 
L 599.393123 238.020323 
L 600.551809 239.617067 
L 601.710495 243.35744 
L 602.869181 242.464141 
L 604.027867 240.681372 
L 605.186553 241.833125 
L 606.345239 246.519659 
L 607.503925 242.797655 
L 608.662611 247.351329 
L 609.821297 246.457319 
L 610.979983 244.642051 
L 612.138669 246.479995 
L 613.297355 251.407668 
L 614.456041 247.989545 
L 615.614727 251.932254 
L 616.773413 251.05351 
L 617.932099 253.091039 
L 619.090785 251.072369 
L 620.24947 256.150378 
L 621.408156 255.30883 
L 622.566842 253.720097 
L 623.725528 250.765669 
L 624.884214 258.490372 
L 626.0429 260.795726 
L 627.201586 259.989606 
L 628.360272 258.357235 
L 629.518958 262.683196 
L 630.677644 259.644187 
L 631.83633 261.327187 
L 632.995016 265.045149 
L 634.153702 264.251635 
L 635.312388 262.338727 
L 636.471074 263.614399 
L 636.471074 263.614399 
" clip-path="url(#pb5e23d604a)" style="fill: none; stroke: #2ca02c; stroke-width: 1.5; stroke-linecap: square"/>
   </g>
   <g id="line2d_93">
    <path d="M 405.892562 65.064614 
L 407.051248 70.027979 
L 408.209934 70.043447 
L 409.36862 71.849215 
L 410.527306 76.121631 
L 411.685992 81.613668 
L 412.844678 81.034007 
L 414.003364 81.461463 
L 415.16205 85.768815 
L 417.479422 86.096507 
L 418.638108 92.627737 
L 419.796794 92.384116 
L 420.95548 96.65091 
L 422.114166 96.4248 
L 423.272852 98.780809 
L 424.431538 97.678219 
L 425.590224 102.992282 
L 426.74891 102.228546 
L 427.907596 101.997555 
L 429.066282 106.124704 
L 430.224968 104.40777 
L 431.383654 109.452826 
L 432.54234 108.779736 
L 433.701026 108.690973 
L 434.859712 112.641341 
L 436.018398 110.626658 
L 437.177084 115.552979 
L 438.33577 114.91741 
L 439.494456 114.910569 
L 440.653142 118.742737 
L 441.811828 116.595331 
L 442.970514 121.422736 
L 444.1292 120.817002 
L 445.287886 120.843458 
L 446.446572 124.568353 
L 448.763944 123.467458 
L 449.92263 120.593047 
L 451.081316 126.544091 
L 452.240002 126.635544 
L 453.398688 130.281049 
L 454.557374 129.666527 
L 455.71606 127.043637 
L 456.874746 132.407436 
L 458.033432 132.518241 
L 459.192118 136.100727 
L 460.350804 135.535671 
L 461.50949 133.050206 
L 462.668176 138.0986 
L 463.826862 138.210304 
L 464.985548 141.713446 
L 466.144234 141.202465 
L 467.30292 138.837052 
L 468.461606 143.670273 
L 469.620292 143.774205 
L 470.778978 147.189742 
L 471.937664 146.735618 
L 473.09635 144.478985 
L 474.255036 149.15079 
L 475.413722 149.241631 
L 476.572407 152.565245 
L 477.731093 152.169398 
L 478.889779 150.012507 
L 480.048465 154.557393 
L 481.207151 154.631917 
L 482.365837 157.861695 
L 483.524523 157.524426 
L 484.683209 155.459544 
L 485.841895 159.901678 
L 487.000581 159.958023 
L 488.159267 163.093642 
L 489.317953 162.814436 
L 490.476639 160.835014 
L 491.635325 165.192109 
L 492.794011 165.229322 
L 493.952697 168.271567 
L 495.111383 168.049331 
L 496.270069 166.149897 
L 497.428755 170.43521 
L 498.587441 170.452942 
L 499.746127 173.40339 
L 500.904813 173.236624 
L 502.063499 171.412646 
L 503.222185 175.636185 
L 504.380871 175.634486 
L 505.539557 178.495286 
L 506.698243 178.382209 
L 507.856929 176.629945 
L 509.015615 180.799285 
L 510.174301 180.778461 
L 511.332987 183.552168 
L 512.491673 183.490813 
L 513.650359 182.845664 
L 514.809045 180.468885 
L 515.967731 186.504144 
L 517.126417 186.50774 
L 518.285103 189.25363 
L 519.443789 189.063617 
L 520.602475 188.515833 
L 521.761161 186.210268 
L 522.919847 191.868772 
L 524.078533 191.876883 
L 525.237219 194.560551 
L 526.395905 194.423459 
L 527.554591 193.943252 
L 528.713277 191.759068 
L 529.871963 197.157431 
L 531.030649 197.162009 
L 532.189335 199.777479 
L 533.348021 199.691901 
L 534.506707 199.261642 
L 535.665393 197.191084 
L 536.824079 202.393588 
L 537.982765 202.389806 
L 539.141451 204.935581 
L 540.300137 204.898769 
L 541.458823 204.506376 
L 542.617509 202.541282 
L 543.776195 207.588619 
L 544.934881 207.573072 
L 546.093567 210.049507 
L 547.252253 210.058454 
L 548.410939 209.695026 
L 549.569625 207.828173 
L 550.728311 212.748901 
L 551.886997 212.719189 
L 553.045683 215.127591 
L 554.204369 215.179268 
L 555.363055 214.837877 
L 556.521741 213.063087 
L 557.680427 217.878515 
L 558.839113 217.832954 
L 559.997799 220.175199 
L 561.156485 220.26666 
L 562.315171 219.941759 
L 563.473857 218.253828 
L 564.632543 222.9804 
L 565.791229 222.917826 
L 566.949915 225.196137 
L 568.108601 225.324566 
L 569.267287 225.011657 
L 570.425973 223.406213 
L 571.584659 228.056836 
L 572.743345 227.976467 
L 573.902031 230.193278 
L 575.060717 230.356005 
L 576.219403 230.051423 
L 577.378089 228.524787 
L 578.536775 233.109675 
L 579.695461 233.011019 
L 580.854147 235.168881 
L 582.012833 235.363388 
L 583.171519 235.064145 
L 584.330205 233.613204 
L 585.488891 238.140475 
L 586.647577 238.023254 
L 587.806263 240.124772 
L 588.964949 240.348694 
L 590.123635 240.052352 
L 591.282321 238.674459 
L 592.441007 243.150576 
L 593.599693 243.014675 
L 594.758379 245.062463 
L 595.917065 245.313579 
L 597.075751 245.018157 
L 598.234437 243.711034 
L 599.393123 243.58226 
L 600.551809 245.281074 
L 601.710495 245.675832 
L 602.869181 249.894812 
L 604.027867 248.890593 
L 605.186553 248.742108 
L 606.345239 250.420687 
L 607.503925 250.822489 
L 608.662611 254.815514 
L 609.821297 253.91428 
L 610.979983 253.744901 
L 612.138669 255.392758 
L 613.297355 255.828857 
L 614.456041 259.689933 
L 615.614727 258.879065 
L 616.773413 258.68887 
L 617.932099 260.303848 
L 619.090785 260.769379 
L 620.24947 264.530359 
L 621.408156 263.803584 
L 622.566842 263.59297 
L 623.725528 265.174766 
L 624.884214 265.667666 
L 626.0429 269.343782 
L 627.201586 268.69658 
L 628.360272 268.466029 
L 629.518958 270.015322 
L 630.677644 270.533526 
L 631.83633 274.134431 
L 632.995016 273.563205 
L 634.153702 273.313233 
L 635.312388 274.831153 
L 636.471074 275.37267 
L 636.471074 275.37267 
" clip-path="url(#pb5e23d604a)" style="fill: none; stroke: #d62728; stroke-width: 1.5; stroke-linecap: square"/>
   </g>
   <g id="line2d_94">
    <path d="M 405.892562 65.644669 
L 407.051248 69.616591 
L 408.209934 60.824496 
L 409.36862 76.474532 
L 410.527306 81.237896 
L 411.685992 81.273501 
L 412.844678 72.789185 
L 414.003364 84.170814 
L 415.16205 86.291487 
L 416.320736 83.870146 
L 417.479422 89.961661 
L 418.638108 92.848266 
L 419.796794 84.160074 
L 420.95548 95.388428 
L 422.114166 93.226954 
L 423.272852 98.608218 
L 424.431538 101.540673 
L 425.590224 93.104329 
L 426.74891 103.203685 
L 427.907596 100.733995 
L 429.066282 105.903481 
L 430.224968 108.862948 
L 431.383654 100.721134 
L 432.54234 110.072122 
L 433.701026 107.408789 
L 434.859712 112.563368 
L 436.018398 115.565855 
L 437.177084 107.662426 
L 438.33577 116.546584 
L 439.494456 113.77506 
L 440.653142 118.868531 
L 441.811828 121.919983 
L 442.970514 114.190467 
L 444.1292 122.782935 
L 445.287886 119.951974 
L 446.446572 124.95525 
L 447.605258 128.055166 
L 448.763944 120.448619 
L 449.92263 128.857462 
L 451.081316 125.991816 
L 452.240002 130.900216 
L 453.398688 134.045111 
L 454.557374 126.523401 
L 455.71606 134.816411 
L 456.874746 131.928868 
L 458.033432 136.748875 
L 459.192118 139.934591 
L 460.350804 132.470271 
L 461.50949 140.690821 
L 462.668176 137.788003 
L 463.826862 142.529485 
L 464.985548 145.751942 
L 466.144234 138.32568 
L 467.30292 146.501943 
L 468.461606 143.587338 
L 469.620292 148.26018 
L 470.778978 151.515751 
L 471.937664 144.114172 
L 473.09635 152.264642 
L 474.255036 149.34007 
L 475.413722 153.952965 
L 476.572407 157.238564 
L 477.731093 149.852564 
L 478.889779 157.989463 
L 480.048465 155.055831 
L 481.207151 159.616015 
L 482.365837 162.929081 
L 483.524523 155.552569 
L 484.683209 163.684009 
L 485.841895 160.741711 
L 487.000581 165.255041 
L 488.159267 168.593476 
L 489.317953 161.222458 
L 490.476639 169.353845 
L 491.635325 166.402978 
L 492.794011 170.874127 
L 493.952697 174.236219 
L 495.111383 166.86815 
L 496.270069 175.00311 
L 497.428755 172.043598 
L 498.587441 176.476265 
L 499.746127 179.860615 
L 500.904813 172.493936 
L 502.063499 180.634927 
L 503.222185 177.666593 
L 504.380871 182.063691 
L 505.539557 185.469146 
L 506.698243 178.10297 
L 507.856929 186.251691 
L 509.015615 183.274296 
L 510.174301 187.638113 
L 511.332987 191.063711 
L 512.491673 183.697601 
L 513.650359 191.855263 
L 514.809045 188.868532 
L 515.967731 193.200861 
L 517.126417 196.645788 
L 518.285103 189.279605 
L 519.443789 197.447115 
L 520.602475 194.45075 
L 521.761161 198.752997 
L 522.919847 202.216546 
L 524.078533 194.85035 
L 525.237219 203.028423 
L 526.395905 200.022112 
L 527.554591 204.295379 
L 528.713277 207.77693 
L 529.871963 200.410904 
L 531.030649 208.600145 
L 532.189335 205.583566 
L 533.348021 209.828721 
L 534.506707 213.32771 
L 535.665393 205.962123 
L 536.824079 214.163072 
L 537.982765 211.135896 
L 539.141451 215.353624 
L 540.300137 218.869534 
L 541.458823 211.504701 
L 542.617509 219.717866 
L 543.776195 216.679758 
L 544.934881 220.870605 
L 546.093567 224.402948 
L 547.252253 217.039217 
L 548.410939 225.26509 
L 549.569625 222.215709 
L 550.728311 226.380115 
L 551.886997 229.928427 
L 553.045683 222.566159 
L 554.204369 230.805229 
L 555.363055 227.744231 
L 556.521741 231.882556 
L 557.680427 235.446384 
L 558.839113 228.085952 
L 559.997799 236.338708 
L 561.156485 233.265741 
L 562.315171 237.378287 
L 563.473857 240.957188 
L 564.632543 233.598967 
L 565.791229 241.865901 
L 566.949915 238.780612 
L 568.108601 242.867637 
L 569.267287 246.461173 
L 570.425973 239.105536 
L 571.584659 247.387145 
L 572.743345 244.289174 
L 573.902031 248.350905 
L 575.060717 251.958642 
L 576.219403 244.605961 
L 577.378089 252.902741 
L 578.536775 249.791727 
L 579.695461 253.828371 
L 580.854147 257.449872 
L 582.012833 250.100515 
L 583.171519 258.412967 
L 584.330205 255.288545 
L 586.647577 262.935123 
L 587.806263 255.589454 
L 588.964949 263.918077 
L 590.123635 260.779877 
L 592.441007 268.414636 
L 593.599693 261.073015 
L 594.758379 269.418306 
L 595.917065 266.265959 
L 598.234437 273.888637 
L 599.393123 266.551418 
L 600.551809 274.913872 
L 601.710495 271.747005 
L 604.027867 279.357342 
L 605.186553 272.024874 
L 606.345239 280.404981 
L 607.503925 277.223222 
L 609.821297 284.820952 
L 610.979983 277.49358 
L 612.138669 285.891823 
L 613.297355 282.694799 
L 615.614727 290.27966 
L 616.773413 282.957723 
L 617.932099 291.374581 
L 619.090785 288.161918 
L 621.408156 295.733649 
L 622.566842 288.417481 
L 623.725528 296.853423 
L 624.884214 293.62475 
L 627.201586 301.183095 
L 628.360272 293.873023 
L 629.518958 302.328512 
L 630.677644 299.08346 
L 632.995016 306.628163 
L 634.153702 299.324509 
L 635.312388 307.8 
L 636.471074 304.5382 
L 636.471074 304.5382 
" clip-path="url(#pb5e23d604a)" style="fill: none; stroke: #9467bd; stroke-width: 1.5; stroke-linecap: square"/>
   </g>
   <g id="patch_9">
    <path d="M 394.363636 320.4 
L 394.363636 43.2 
" style="fill: none; stroke: #000000; stroke-width: 0.8; stroke-linejoin: miter; stroke-linecap: square"/>
   </g>
   <g id="patch_10">
    <path d="M 648 320.4 
L 648 43.2 
" style="fill: none; stroke: #000000; stroke-width: 0.8; stroke-linejoin: miter; stroke-linecap: square"/>
   </g>
   <g id="patch_11">
    <path d="M 394.363636 320.4 
L 648 320.4 
" style="fill: none; stroke: #000000; stroke-width: 0.8; stroke-linejoin: miter; stroke-linecap: square"/>
   </g>
   <g id="patch_12">
    <path d="M 394.363636 43.2 
L 648 43.2 
" style="fill: none; stroke: #000000; stroke-width: 0.8; stroke-linejoin: miter; stroke-linecap: square"/>
   </g>
   <g id="legend_2">
    <g id="patch_13">
     <path d="M 571.915625 124.590625 
L 641 124.590625 
Q 643 124.590625 643 122.590625 
L 643 50.2 
Q 643 48.2 641 48.2 
L 571.915625 48.2 
Q 569.915625 48.2 569.915625 50.2 
L 569.915625 122.590625 
Q 569.915625 124.590625 571.915625 124.590625 
z
" style="fill: #ffffff; opacity: 0.8; stroke: #cccccc; stroke-linejoin: miter"/>
    </g>
    <g id="line2d_95">
     <path d="M 573.915625 56.298437 
L 583.915625 56.298437 
L 593.915625 56.298437 
" style="fill: none; stroke: #1f77b4; stroke-width: 1.5; stroke-linecap: square"/>
    </g>
    <g id="text_28">
     <!-- RBCD -->
     <g transform="translate(601.915625 59.798437)scale(0.1 -0.1)">
      <use xlink:href="#DejaVuSans-52"/>
      <use xlink:href="#DejaVuSans-42" x="69.482422"/>
      <use xlink:href="#DejaVuSans-43" x="136.335938"/>
      <use xlink:href="#DejaVuSans-44" x="206.160156"/>
     </g>
    </g>
    <g id="line2d_96">
     <path d="M 573.915625 70.976562 
L 583.915625 70.976562 
L 593.915625 70.976562 
" style="fill: none; stroke: #ff7f0e; stroke-width: 1.5; stroke-linecap: square"/>
    </g>
    <g id="text_29">
     <!-- strong -->
     <g transform="translate(601.915625 74.476562)scale(0.1 -0.1)">
      <use xlink:href="#DejaVuSans-73"/>
      <use xlink:href="#DejaVuSans-74" x="52.099609"/>
      <use xlink:href="#DejaVuSans-72" x="91.308594"/>
      <use xlink:href="#DejaVuSans-6f" x="130.171875"/>
      <use xlink:href="#DejaVuSans-6e" x="191.353516"/>
      <use xlink:href="#DejaVuSans-67" x="254.732422"/>
     </g>
    </g>
    <g id="line2d_97">
     <path d="M 573.915625 85.654687 
L 583.915625 85.654687 
L 593.915625 85.654687 
" style="fill: none; stroke: #2ca02c; stroke-width: 1.5; stroke-linecap: square"/>
    </g>
    <g id="text_30">
     <!-- fast -->
     <g transform="translate(601.915625 89.154687)scale(0.1 -0.1)">
      <use xlink:href="#DejaVuSans-66"/>
      <use xlink:href="#DejaVuSans-61" x="35.205078"/>
      <use xlink:href="#DejaVuSans-73" x="96.484375"/>
      <use xlink:href="#DejaVuSans-74" x="148.583984"/>
     </g>
    </g>
    <g id="line2d_98">
     <path d="M 573.915625 100.332812 
L 583.915625 100.332812 
L 593.915625 100.332812 
" style="fill: none; stroke: #d62728; stroke-width: 1.5; stroke-linecap: square"/>
    </g>
    <g id="text_31">
     <!-- eco -->
     <g transform="translate(601.915625 103.832812)scale(0.1 -0.1)">
      <use xlink:href="#DejaVuSans-65"/>
      <use xlink:href="#DejaVuSans-63" x="61.523438"/>
      <use xlink:href="#DejaVuSans-6f" x="116.503906"/>
     </g>
    </g>
    <g id="line2d_99">
     <path d="M 573.915625 115.010937 
L 583.915625 115.010937 
L 593.915625 115.010937 
" style="fill: none; stroke: #9467bd; stroke-width: 1.5; stroke-linecap: square"/>
    </g>
    <g id="text_32">
     <!-- highest -->
     <g transform="translate(601.915625 118.510937)scale(0.1 -0.1)">
      <use xlink:href="#DejaVuSans-68"/>
      <use xlink:href="#DejaVuSans-69" x="63.378906"/>
      <use xlink:href="#DejaVuSans-67" x="91.162109"/>
      <use xlink:href="#DejaVuSans-68" x="154.638672"/>
      <use xlink:href="#DejaVuSans-65" x="218.017578"/>
      <use xlink:href="#DejaVuSans-73" x="279.541016"/>
      <use xlink:href="#DejaVuSans-74" x="331.640625"/>
     </g>
    </g>
   </g>
  </g>
 </g>
 <defs>
  <clipPath id="pecca97bedf">
   <rect x="90" y="43.2" width="253.636364" height="277.2"/>
  </clipPath>
  <clipPath id="pb5e23d604a">
   <rect x="394.363636" y="43.2" width="253.636364" height="277.2"/>
  </clipPath>
 </defs>
</svg>
