<?xml version="1.0" encoding="utf-8" standalone="no"?>
<!DOCTYPE svg PUBLIC "-//W3C//DTD SVG 1.1//EN"
  "http://www.w3.org/Graphics/SVG/1.1/DTD/svg11.dtd">
<svg xmlns:xlink="http://www.w3.org/1999/xlink" width="720pt" height="360pt" viewBox="0 0 720 360" xmlns="http://www.w3.org/2000/svg" version="1.1">
 <metadata>
  <rdf:RDF xmlns:dc="http://purl.org/dc/elements/1.1/" xmlns:cc="http://creativecommons.org/ns#" xmlns:rdf="http://www.w3.org/1999/02/22-rdf-syntax-ns#">
   <cc:Work>
    <dc:type rdf:resource="http://purl.org/dc/dcmitype/StillImage"/>
    <dc:date>2023-11-21T22:11:07.867011</dc:date>
    <dc:format>image/svg+xml</dc:format>
    <dc:creator>
     <cc:Agent>
      <dc:title>Matplotlib v3.5.3, https://matplotlib.org/</dc:title>
     </cc:Agent>
    </dc:creator>
   </cc:Work>
  </rdf:RDF>
 </metadata>
 <defs>
  <style type="text/css">*{stroke-linejoin: round; stroke-linecap: butt}</style>
 </defs>
 <g id="figure_1">
  <g id="patch_1">
   <path d="M 0 360 
L 720 360 
L 720 0 
L 0 0 
z
" style="fill: #ffffff"/>
  </g>
  <g id="axes_1">
   <g id="patch_2">
    <path d="M 90 320.4 
L 343.636364 320.4 
L 343.636364 43.2 
L 90 43.2 
z
" style="fill: #ffffff"/>
   </g>
   <g id="matplotlib.axis_1">
    <g id="xtick_1">
     <g id="line2d_1">
      <defs>
       <path id="m9e6c9aa885" d="M 0 0 
L 0 3.5 
" style="stroke: #000000; stroke-width: 0.8"/>
      </defs>
      <g>
       <use xlink:href="#m9e6c9aa885" x="101.528926" y="320.4" style="stroke: #000000; stroke-width: 0.8"/>
      </g>
     </g>
     <g id="text_1">
      <!-- 0 -->
      <g transform="translate(98.347676 334.998438)scale(0.1 -0.1)">
       <defs>
        <path id="DejaVuSans-30" d="M 2034 4250 
Q 1547 4250 1301 3770 
Q 1056 3291 1056 2328 
Q 1056 1369 1301 889 
Q 1547 409 2034 409 
Q 2525 409 2770 889 
Q 3016 1369 3016 2328 
Q 3016 3291 2770 3770 
Q 2525 4250 2034 4250 
z
M 2034 4750 
Q 2819 4750 3233 4129 
Q 3647 3509 3647 2328 
Q 3647 1150 3233 529 
Q 2819 -91 2034 -91 
Q 1250 -91 836 529 
Q 422 1150 422 2328 
Q 422 3509 836 4129 
Q 1250 4750 2034 4750 
z
" transform="scale(0.015625)"/>
       </defs>
       <use xlink:href="#DejaVuSans-30"/>
      </g>
     </g>
    </g>
    <g id="xtick_2">
     <g id="line2d_2">
      <g>
       <use xlink:href="#m9e6c9aa885" x="133.732628" y="320.4" style="stroke: #000000; stroke-width: 0.8"/>
      </g>
     </g>
     <g id="text_2">
      <!-- 25 -->
      <g transform="translate(127.370128 334.998438)scale(0.1 -0.1)">
       <defs>
        <path id="DejaVuSans-32" d="M 1228 531 
L 3431 531 
L 3431 0 
L 469 0 
L 469 531 
Q 828 903 1448 1529 
Q 2069 2156 2228 2338 
Q 2531 2678 2651 2914 
Q 2772 3150 2772 3378 
Q 2772 3750 2511 3984 
Q 2250 4219 1831 4219 
Q 1534 4219 1204 4116 
Q 875 4013 500 3803 
L 500 4441 
Q 881 4594 1212 4672 
Q 1544 4750 1819 4750 
Q 2544 4750 2975 4387 
Q 3406 4025 3406 3419 
Q 3406 3131 3298 2873 
Q 3191 2616 2906 2266 
Q 2828 2175 2409 1742 
Q 1991 1309 1228 531 
z
" transform="scale(0.015625)"/>
        <path id="DejaVuSans-35" d="M 691 4666 
L 3169 4666 
L 3169 4134 
L 1269 4134 
L 1269 2991 
Q 1406 3038 1543 3061 
Q 1681 3084 1819 3084 
Q 2600 3084 3056 2656 
Q 3513 2228 3513 1497 
Q 3513 744 3044 326 
Q 2575 -91 1722 -91 
Q 1428 -91 1123 -41 
Q 819 9 494 109 
L 494 744 
Q 775 591 1075 516 
Q 1375 441 1709 441 
Q 2250 441 2565 725 
Q 2881 1009 2881 1497 
Q 2881 1984 2565 2268 
Q 2250 2553 1709 2553 
Q 1456 2553 1204 2497 
Q 953 2441 691 2322 
L 691 4666 
z
" transform="scale(0.015625)"/>
       </defs>
       <use xlink:href="#DejaVuSans-32"/>
       <use xlink:href="#DejaVuSans-35" x="63.623047"/>
      </g>
     </g>
    </g>
    <g id="xtick_3">
     <g id="line2d_3">
      <g>
       <use xlink:href="#m9e6c9aa885" x="165.936331" y="320.4" style="stroke: #000000; stroke-width: 0.8"/>
      </g>
     </g>
     <g id="text_3">
      <!-- 50 -->
      <g transform="translate(159.573831 334.998438)scale(0.1 -0.1)">
       <use xlink:href="#DejaVuSans-35"/>
       <use xlink:href="#DejaVuSans-30" x="63.623047"/>
      </g>
     </g>
    </g>
    <g id="xtick_4">
     <g id="line2d_4">
      <g>
       <use xlink:href="#m9e6c9aa885" x="198.140034" y="320.4" style="stroke: #000000; stroke-width: 0.8"/>
      </g>
     </g>
     <g id="text_4">
      <!-- 75 -->
      <g transform="translate(191.777534 334.998438)scale(0.1 -0.1)">
       <defs>
        <path id="DejaVuSans-37" d="M 525 4666 
L 3525 4666 
L 3525 4397 
L 1831 0 
L 1172 0 
L 2766 4134 
L 525 4134 
L 525 4666 
z
" transform="scale(0.015625)"/>
       </defs>
       <use xlink:href="#DejaVuSans-37"/>
       <use xlink:href="#DejaVuSans-35" x="63.623047"/>
      </g>
     </g>
    </g>
    <g id="xtick_5">
     <g id="line2d_5">
      <g>
       <use xlink:href="#m9e6c9aa885" x="230.343737" y="320.4" style="stroke: #000000; stroke-width: 0.8"/>
      </g>
     </g>
     <g id="text_5">
      <!-- 100 -->
      <g transform="translate(220.799987 334.998438)scale(0.1 -0.1)">
       <defs>
        <path id="DejaVuSans-31" d="M 794 531 
L 1825 531 
L 1825 4091 
L 703 3866 
L 703 4441 
L 1819 4666 
L 2450 4666 
L 2450 531 
L 3481 531 
L 3481 0 
L 794 0 
L 794 531 
z
" transform="scale(0.015625)"/>
       </defs>
       <use xlink:href="#DejaVuSans-31"/>
       <use xlink:href="#DejaVuSans-30" x="63.623047"/>
       <use xlink:href="#DejaVuSans-30" x="127.246094"/>
      </g>
     </g>
    </g>
    <g id="xtick_6">
     <g id="line2d_6">
      <g>
       <use xlink:href="#m9e6c9aa885" x="262.54744" y="320.4" style="stroke: #000000; stroke-width: 0.8"/>
      </g>
     </g>
     <g id="text_6">
      <!-- 125 -->
      <g transform="translate(253.00369 334.998438)scale(0.1 -0.1)">
       <use xlink:href="#DejaVuSans-31"/>
       <use xlink:href="#DejaVuSans-32" x="63.623047"/>
       <use xlink:href="#DejaVuSans-35" x="127.246094"/>
      </g>
     </g>
    </g>
    <g id="xtick_7">
     <g id="line2d_7">
      <g>
       <use xlink:href="#m9e6c9aa885" x="294.751143" y="320.4" style="stroke: #000000; stroke-width: 0.8"/>
      </g>
     </g>
     <g id="text_7">
      <!-- 150 -->
      <g transform="translate(285.207393 334.998438)scale(0.1 -0.1)">
       <use xlink:href="#DejaVuSans-31"/>
       <use xlink:href="#DejaVuSans-35" x="63.623047"/>
       <use xlink:href="#DejaVuSans-30" x="127.246094"/>
      </g>
     </g>
    </g>
    <g id="xtick_8">
     <g id="line2d_8">
      <g>
       <use xlink:href="#m9e6c9aa885" x="326.954846" y="320.4" style="stroke: #000000; stroke-width: 0.8"/>
      </g>
     </g>
     <g id="text_8">
      <!-- 175 -->
      <g transform="translate(317.411096 334.998438)scale(0.1 -0.1)">
       <use xlink:href="#DejaVuSans-31"/>
       <use xlink:href="#DejaVuSans-37" x="63.623047"/>
       <use xlink:href="#DejaVuSans-35" x="127.246094"/>
      </g>
     </g>
    </g>
    <g id="text_9">
     <!-- iteration -->
     <g transform="translate(195.695526 348.676562)scale(0.1 -0.1)">
      <defs>
       <path id="DejaVuSans-69" d="M 603 3500 
L 1178 3500 
L 1178 0 
L 603 0 
L 603 3500 
z
M 603 4863 
L 1178 4863 
L 1178 4134 
L 603 4134 
L 603 4863 
z
" transform="scale(0.015625)"/>
       <path id="DejaVuSans-74" d="M 1172 4494 
L 1172 3500 
L 2356 3500 
L 2356 3053 
L 1172 3053 
L 1172 1153 
Q 1172 725 1289 603 
Q 1406 481 1766 481 
L 2356 481 
L 2356 0 
L 1766 0 
Q 1100 0 847 248 
Q 594 497 594 1153 
L 594 3053 
L 172 3053 
L 172 3500 
L 594 3500 
L 594 4494 
L 1172 4494 
z
" transform="scale(0.015625)"/>
       <path id="DejaVuSans-65" d="M 3597 1894 
L 3597 1613 
L 953 1613 
Q 991 1019 1311 708 
Q 1631 397 2203 397 
Q 2534 397 2845 478 
Q 3156 559 3463 722 
L 3463 178 
Q 3153 47 2828 -22 
Q 2503 -91 2169 -91 
Q 1331 -91 842 396 
Q 353 884 353 1716 
Q 353 2575 817 3079 
Q 1281 3584 2069 3584 
Q 2775 3584 3186 3129 
Q 3597 2675 3597 1894 
z
M 3022 2063 
Q 3016 2534 2758 2815 
Q 2500 3097 2075 3097 
Q 1594 3097 1305 2825 
Q 1016 2553 972 2059 
L 3022 2063 
z
" transform="scale(0.015625)"/>
       <path id="DejaVuSans-72" d="M 2631 2963 
Q 2534 3019 2420 3045 
Q 2306 3072 2169 3072 
Q 1681 3072 1420 2755 
Q 1159 2438 1159 1844 
L 1159 0 
L 581 0 
L 581 3500 
L 1159 3500 
L 1159 2956 
Q 1341 3275 1631 3429 
Q 1922 3584 2338 3584 
Q 2397 3584 2469 3576 
Q 2541 3569 2628 3553 
L 2631 2963 
z
" transform="scale(0.015625)"/>
       <path id="DejaVuSans-61" d="M 2194 1759 
Q 1497 1759 1228 1600 
Q 959 1441 959 1056 
Q 959 750 1161 570 
Q 1363 391 1709 391 
Q 2188 391 2477 730 
Q 2766 1069 2766 1631 
L 2766 1759 
L 2194 1759 
z
M 3341 1997 
L 3341 0 
L 2766 0 
L 2766 531 
Q 2569 213 2275 61 
Q 1981 -91 1556 -91 
Q 1019 -91 701 211 
Q 384 513 384 1019 
Q 384 1609 779 1909 
Q 1175 2209 1959 2209 
L 2766 2209 
L 2766 2266 
Q 2766 2663 2505 2880 
Q 2244 3097 1772 3097 
Q 1472 3097 1187 3025 
Q 903 2953 641 2809 
L 641 3341 
Q 956 3463 1253 3523 
Q 1550 3584 1831 3584 
Q 2591 3584 2966 3190 
Q 3341 2797 3341 1997 
z
" transform="scale(0.015625)"/>
       <path id="DejaVuSans-6f" d="M 1959 3097 
Q 1497 3097 1228 2736 
Q 959 2375 959 1747 
Q 959 1119 1226 758 
Q 1494 397 1959 397 
Q 2419 397 2687 759 
Q 2956 1122 2956 1747 
Q 2956 2369 2687 2733 
Q 2419 3097 1959 3097 
z
M 1959 3584 
Q 2709 3584 3137 3096 
Q 3566 2609 3566 1747 
Q 3566 888 3137 398 
Q 2709 -91 1959 -91 
Q 1206 -91 779 398 
Q 353 888 353 1747 
Q 353 2609 779 3096 
Q 1206 3584 1959 3584 
z
" transform="scale(0.015625)"/>
       <path id="DejaVuSans-6e" d="M 3513 2113 
L 3513 0 
L 2938 0 
L 2938 2094 
Q 2938 2591 2744 2837 
Q 2550 3084 2163 3084 
Q 1697 3084 1428 2787 
Q 1159 2491 1159 1978 
L 1159 0 
L 581 0 
L 581 3500 
L 1159 3500 
L 1159 2956 
Q 1366 3272 1645 3428 
Q 1925 3584 2291 3584 
Q 2894 3584 3203 3211 
Q 3513 2838 3513 2113 
z
" transform="scale(0.015625)"/>
      </defs>
      <use xlink:href="#DejaVuSans-69"/>
      <use xlink:href="#DejaVuSans-74" x="27.783203"/>
      <use xlink:href="#DejaVuSans-65" x="66.992188"/>
      <use xlink:href="#DejaVuSans-72" x="128.515625"/>
      <use xlink:href="#DejaVuSans-61" x="169.628906"/>
      <use xlink:href="#DejaVuSans-74" x="230.908203"/>
      <use xlink:href="#DejaVuSans-69" x="270.117188"/>
      <use xlink:href="#DejaVuSans-6f" x="297.900391"/>
      <use xlink:href="#DejaVuSans-6e" x="359.082031"/>
     </g>
    </g>
   </g>
   <g id="matplotlib.axis_2">
    <g id="ytick_1">
     <g id="line2d_9">
      <defs>
       <path id="m9512e4ee36" d="M 0 0 
L -3.5 0 
" style="stroke: #000000; stroke-width: 0.8"/>
      </defs>
      <g>
       <use xlink:href="#m9512e4ee36" x="90" y="234.709659" style="stroke: #000000; stroke-width: 0.8"/>
      </g>
     </g>
     <g id="text_10">
      <!-- $\mathdefault{10^{-2}}$ -->
      <g transform="translate(59.5 238.508878)scale(0.1 -0.1)">
       <defs>
        <path id="DejaVuSans-2212" d="M 678 2272 
L 4684 2272 
L 4684 1741 
L 678 1741 
L 678 2272 
z
" transform="scale(0.015625)"/>
       </defs>
       <use xlink:href="#DejaVuSans-31" transform="translate(0 0.765625)"/>
       <use xlink:href="#DejaVuSans-30" transform="translate(63.623047 0.765625)"/>
       <use xlink:href="#DejaVuSans-2212" transform="translate(128.203125 39.046875)scale(0.7)"/>
       <use xlink:href="#DejaVuSans-32" transform="translate(186.855469 39.046875)scale(0.7)"/>
      </g>
     </g>
    </g>
    <g id="ytick_2">
     <g id="line2d_10">
      <g>
       <use xlink:href="#m9512e4ee36" x="90" y="76.882551" style="stroke: #000000; stroke-width: 0.8"/>
      </g>
     </g>
     <g id="text_11">
      <!-- $\mathdefault{10^{-1}}$ -->
      <g transform="translate(59.5 80.68177)scale(0.1 -0.1)">
       <use xlink:href="#DejaVuSans-31" transform="translate(0 0.684375)"/>
       <use xlink:href="#DejaVuSans-30" transform="translate(63.623047 0.684375)"/>
       <use xlink:href="#DejaVuSans-2212" transform="translate(128.203125 38.965625)scale(0.7)"/>
       <use xlink:href="#DejaVuSans-31" transform="translate(186.855469 38.965625)scale(0.7)"/>
      </g>
     </g>
    </g>
    <g id="ytick_3">
     <g id="line2d_11">
      <defs>
       <path id="m2bd19d3e37" d="M 0 0 
L -2 0 
" style="stroke: #000000; stroke-width: 0.6"/>
      </defs>
      <g>
       <use xlink:href="#m2bd19d3e37" x="90" y="317.234099" style="stroke: #000000; stroke-width: 0.6"/>
      </g>
     </g>
    </g>
    <g id="ytick_4">
     <g id="line2d_12">
      <g>
       <use xlink:href="#m2bd19d3e37" x="90" y="297.51538" style="stroke: #000000; stroke-width: 0.6"/>
      </g>
     </g>
    </g>
    <g id="ytick_5">
     <g id="line2d_13">
      <g>
       <use xlink:href="#m2bd19d3e37" x="90" y="282.220353" style="stroke: #000000; stroke-width: 0.6"/>
      </g>
     </g>
    </g>
    <g id="ytick_6">
     <g id="line2d_14">
      <g>
       <use xlink:href="#m2bd19d3e37" x="90" y="269.723406" style="stroke: #000000; stroke-width: 0.6"/>
      </g>
     </g>
    </g>
    <g id="ytick_7">
     <g id="line2d_15">
      <g>
       <use xlink:href="#m2bd19d3e37" x="90" y="259.157387" style="stroke: #000000; stroke-width: 0.6"/>
      </g>
     </g>
    </g>
    <g id="ytick_8">
     <g id="line2d_16">
      <g>
       <use xlink:href="#m2bd19d3e37" x="90" y="250.004686" style="stroke: #000000; stroke-width: 0.6"/>
      </g>
     </g>
    </g>
    <g id="ytick_9">
     <g id="line2d_17">
      <g>
       <use xlink:href="#m2bd19d3e37" x="90" y="241.931431" style="stroke: #000000; stroke-width: 0.6"/>
      </g>
     </g>
    </g>
    <g id="ytick_10">
     <g id="line2d_18">
      <g>
       <use xlink:href="#m2bd19d3e37" x="90" y="187.198965" style="stroke: #000000; stroke-width: 0.6"/>
      </g>
     </g>
    </g>
    <g id="ytick_11">
     <g id="line2d_19">
      <g>
       <use xlink:href="#m2bd19d3e37" x="90" y="159.406991" style="stroke: #000000; stroke-width: 0.6"/>
      </g>
     </g>
    </g>
    <g id="ytick_12">
     <g id="line2d_20">
      <g>
       <use xlink:href="#m2bd19d3e37" x="90" y="139.688272" style="stroke: #000000; stroke-width: 0.6"/>
      </g>
     </g>
    </g>
    <g id="ytick_13">
     <g id="line2d_21">
      <g>
       <use xlink:href="#m2bd19d3e37" x="90" y="124.393245" style="stroke: #000000; stroke-width: 0.6"/>
      </g>
     </g>
    </g>
    <g id="ytick_14">
     <g id="line2d_22">
      <g>
       <use xlink:href="#m2bd19d3e37" x="90" y="111.896297" style="stroke: #000000; stroke-width: 0.6"/>
      </g>
     </g>
    </g>
    <g id="ytick_15">
     <g id="line2d_23">
      <g>
       <use xlink:href="#m2bd19d3e37" x="90" y="101.330279" style="stroke: #000000; stroke-width: 0.6"/>
      </g>
     </g>
    </g>
    <g id="ytick_16">
     <g id="line2d_24">
      <g>
       <use xlink:href="#m2bd19d3e37" x="90" y="92.177578" style="stroke: #000000; stroke-width: 0.6"/>
      </g>
     </g>
    </g>
    <g id="ytick_17">
     <g id="line2d_25">
      <g>
       <use xlink:href="#m2bd19d3e37" x="90" y="84.104323" style="stroke: #000000; stroke-width: 0.6"/>
      </g>
     </g>
    </g>
    <g id="text_12">
     <!-- $f(X)-f^*(X)$ -->
     <g transform="translate(53.420312 209.75)rotate(-90)scale(0.1 -0.1)">
      <defs>
       <path id="DejaVuSans-Oblique-66" d="M 3059 4863 
L 2969 4384 
L 2419 4384 
Q 2106 4384 1964 4261 
Q 1822 4138 1753 3809 
L 1691 3500 
L 2638 3500 
L 2553 3053 
L 1606 3053 
L 1013 0 
L 434 0 
L 1031 3053 
L 481 3053 
L 563 3500 
L 1113 3500 
L 1159 3744 
Q 1278 4363 1576 4613 
Q 1875 4863 2516 4863 
L 3059 4863 
z
" transform="scale(0.015625)"/>
       <path id="DejaVuSans-28" d="M 1984 4856 
Q 1566 4138 1362 3434 
Q 1159 2731 1159 2009 
Q 1159 1288 1364 580 
Q 1569 -128 1984 -844 
L 1484 -844 
Q 1016 -109 783 600 
Q 550 1309 550 2009 
Q 550 2706 781 3412 
Q 1013 4119 1484 4856 
L 1984 4856 
z
" transform="scale(0.015625)"/>
       <path id="DejaVuSans-Oblique-58" d="M 878 4666 
L 1516 4666 
L 2316 2981 
L 3763 4666 
L 4500 4666 
L 2578 2438 
L 3738 0 
L 3103 0 
L 2163 1966 
L 459 0 
L -275 0 
L 1906 2509 
L 878 4666 
z
" transform="scale(0.015625)"/>
       <path id="DejaVuSans-29" d="M 513 4856 
L 1013 4856 
Q 1481 4119 1714 3412 
Q 1947 2706 1947 2009 
Q 1947 1309 1714 600 
Q 1481 -109 1013 -844 
L 513 -844 
Q 928 -128 1133 580 
Q 1338 1288 1338 2009 
Q 1338 2731 1133 3434 
Q 928 4138 513 4856 
z
" transform="scale(0.015625)"/>
       <path id="DejaVuSans-2a" d="M 3009 3897 
L 1888 3291 
L 3009 2681 
L 2828 2375 
L 1778 3009 
L 1778 1831 
L 1422 1831 
L 1422 3009 
L 372 2375 
L 191 2681 
L 1313 3291 
L 191 3897 
L 372 4206 
L 1422 3572 
L 1422 4750 
L 1778 4750 
L 1778 3572 
L 2828 4206 
L 3009 3897 
z
" transform="scale(0.015625)"/>
      </defs>
      <use xlink:href="#DejaVuSans-Oblique-66" transform="translate(0 0.765625)"/>
      <use xlink:href="#DejaVuSans-28" transform="translate(35.205078 0.765625)"/>
      <use xlink:href="#DejaVuSans-Oblique-58" transform="translate(74.21875 0.765625)"/>
      <use xlink:href="#DejaVuSans-29" transform="translate(142.724609 0.765625)"/>
      <use xlink:href="#DejaVuSans-2212" transform="translate(201.220703 0.765625)"/>
      <use xlink:href="#DejaVuSans-Oblique-66" transform="translate(304.492188 0.765625)"/>
      <use xlink:href="#DejaVuSans-2a" transform="translate(360.782669 39.046875)scale(0.7)"/>
      <use xlink:href="#DejaVuSans-28" transform="translate(412.15474 0.765625)"/>
      <use xlink:href="#DejaVuSans-Oblique-58" transform="translate(451.168411 0.765625)"/>
      <use xlink:href="#DejaVuSans-29" transform="translate(519.674271 0.765625)"/>
     </g>
    </g>
   </g>
   <g id="line2d_26">
    <path d="M 101.528926 59.820629 
L 102.817074 77.051154 
L 104.105222 98.660383 
L 105.39337 111.058719 
L 106.681518 133.012744 
L 107.969666 136.711434 
L 109.257814 140.772586 
L 110.545962 144.006123 
L 111.834111 144.901734 
L 113.122259 145.582341 
L 114.410407 147.007561 
L 115.698555 147.482619 
L 116.986703 148.82257 
L 118.274851 149.427433 
L 119.562999 149.908239 
L 120.851147 152.200929 
L 123.427444 154.160968 
L 124.715592 154.567244 
L 126.00374 155.468539 
L 127.291888 155.794424 
L 128.580036 156.547024 
L 131.156332 157.330771 
L 132.44448 158.700713 
L 135.020777 160.274152 
L 136.308925 160.589507 
L 137.597073 161.317512 
L 138.885221 161.588086 
L 140.173369 162.185139 
L 145.325961 163.531858 
L 146.61411 164.140877 
L 147.902258 164.49122 
L 149.190406 164.709921 
L 150.478554 165.906009 
L 153.05485 167.106205 
L 154.342998 167.360018 
L 155.631146 167.900032 
L 156.919295 168.117529 
L 158.207443 168.557771 
L 160.783739 169.059664 
L 162.071887 170.026944 
L 163.360035 170.694198 
L 164.648183 171.183079 
L 165.936331 171.409883 
L 167.224479 171.901375 
L 168.512628 172.102241 
L 169.800776 172.484737 
L 174.953368 173.460572 
L 176.241516 173.87424 
L 178.817812 174.278662 
L 180.105961 175.169749 
L 181.394109 175.696611 
L 182.682257 176.077756 
L 183.970405 176.257598 
L 185.258553 176.669334 
L 186.546701 176.842432 
L 189.122997 177.364606 
L 190.411145 177.53186 
L 191.699294 177.822671 
L 192.987442 177.979352 
L 194.27559 178.322738 
L 195.563738 178.529673 
L 196.851886 179.290025 
L 198.140034 179.912001 
L 199.428182 180.262733 
L 200.71633 180.41612 
L 202.004479 180.764714 
L 204.580775 181.071302 
L 205.868923 181.380754 
L 209.733367 181.950823 
L 212.309663 182.383826 
L 214.88596 183.611096 
L 216.174108 183.911458 
L 217.462256 184.04509 
L 218.750404 184.351776 
L 221.3267 184.62613 
L 222.614848 184.894375 
L 223.902996 185.047862 
L 226.479293 186.096232 
L 230.343737 186.884658 
L 231.631885 187.011652 
L 234.208181 187.405183 
L 236.784478 187.749331 
L 239.360774 188.099918 
L 241.93707 189.078347 
L 243.225218 189.323644 
L 244.513366 189.43726 
L 245.801514 189.700562 
L 249.665959 190.151653 
L 256.106699 190.904229 
L 258.682996 191.790848 
L 262.54744 192.424669 
L 265.123736 192.728236 
L 271.564477 193.415244 
L 274.140773 194.223077 
L 278.005217 194.803232 
L 281.869662 195.187133 
L 285.734106 195.601891 
L 287.022254 195.710659 
L 289.59855 196.45004 
L 294.751143 197.074897 
L 298.615587 197.502941 
L 302.480031 197.828984 
L 305.056328 198.509139 
L 311.497068 199.243078 
L 317.937809 199.785258 
L 320.514105 200.414156 
L 326.954846 201.093473 
L 332.107438 201.51431 
L 332.107438 201.51431 
" clip-path="url(#pd18b66220b)" style="fill: none; stroke: #1f77b4; stroke-width: 1.5; stroke-linecap: square"/>
   </g>
   <g id="line2d_27">
    <path d="M 101.528926 59.670526 
L 102.817074 85.410113 
L 105.39337 117.154311 
L 106.681518 147.876865 
L 107.969666 156.447821 
L 109.257814 162.412273 
L 110.545962 167.717214 
L 113.122259 175.490689 
L 114.410407 182.753885 
L 116.986703 187.931292 
L 118.274851 189.840834 
L 119.562999 192.26798 
L 120.851147 194.198215 
L 122.139295 197.779632 
L 123.427444 199.061264 
L 124.715592 200.78992 
L 126.00374 203.474951 
L 127.291888 205.190083 
L 128.580036 206.286935 
L 129.868184 207.566826 
L 131.156332 209.957936 
L 132.44448 211.790639 
L 133.732628 213.181072 
L 135.020777 214.021076 
L 136.308925 216.039195 
L 137.597073 217.79687 
L 138.885221 218.875625 
L 141.461517 220.352908 
L 142.749665 221.53989 
L 144.037813 222.47525 
L 145.325961 224.200034 
L 147.902258 227.097577 
L 149.190406 227.741398 
L 150.478554 228.821831 
L 151.766702 230.435505 
L 153.05485 231.305832 
L 154.342998 232.034288 
L 155.631146 233.499442 
L 156.919295 234.273169 
L 158.207443 235.607775 
L 159.495591 236.257995 
L 162.071887 238.592814 
L 164.648183 240.997581 
L 167.224479 242.219339 
L 168.512628 243.258415 
L 169.800776 243.976331 
L 171.088924 244.989358 
L 172.377072 246.20064 
L 173.66522 247.073818 
L 174.953368 247.81147 
L 176.241516 248.289002 
L 177.529664 249.298916 
L 180.105961 250.380803 
L 181.394109 251.340105 
L 185.258553 253.059302 
L 187.834849 253.903495 
L 190.411145 255.68832 
L 191.699294 256.502441 
L 192.987442 257.137305 
L 195.563738 258.072332 
L 196.851886 259.0767 
L 199.428182 259.94957 
L 203.292627 262.459273 
L 204.580775 262.858483 
L 205.868923 263.605995 
L 207.157071 264.017488 
L 208.445219 264.712356 
L 209.733367 265.271209 
L 212.309663 265.975141 
L 213.597812 266.648312 
L 214.88596 267.46489 
L 216.174108 268.012814 
L 217.462256 268.43471 
L 218.750404 269.117007 
L 221.3267 269.788267 
L 222.614848 270.458994 
L 225.191145 271.248757 
L 226.479293 271.620729 
L 227.767441 272.193987 
L 229.055589 272.92454 
L 230.343737 273.272073 
L 232.920033 274.138824 
L 234.208181 274.410665 
L 235.496329 274.978911 
L 238.072626 276.263349 
L 243.225218 277.688447 
L 244.513366 278.261975 
L 245.801514 278.574384 
L 248.377811 279.715061 
L 250.954107 280.724963 
L 253.530403 281.430326 
L 254.818551 281.692644 
L 257.394847 282.653363 
L 265.123736 284.533607 
L 266.411884 285.062943 
L 267.700032 285.334202 
L 268.98818 285.813041 
L 274.140773 286.946918 
L 285.734106 289.959489 
L 287.022254 290.410275 
L 292.174846 291.375686 
L 294.751143 292.226276 
L 298.615587 293.116844 
L 299.903735 293.329678 
L 301.191883 293.757987 
L 303.76818 294.440893 
L 305.056328 294.798476 
L 308.920772 295.459993 
L 310.20892 295.83241 
L 319.225957 297.609829 
L 320.514105 297.952518 
L 324.378549 298.637541 
L 332.107438 300.176385 
L 332.107438 300.176385 
" clip-path="url(#pd18b66220b)" style="fill: none; stroke: #ff7f0e; stroke-width: 1.5; stroke-linecap: square"/>
   </g>
   <g id="line2d_28">
    <path d="M 101.528926 55.8 
L 102.817074 79.492257 
L 104.105222 98.631179 
L 105.39337 122.819653 
L 106.681518 151.383829 
L 107.969666 159.908954 
L 110.545962 170.903427 
L 111.834111 175.697596 
L 113.122259 179.520201 
L 114.410407 186.313443 
L 116.986703 191.440403 
L 118.274851 193.239353 
L 119.562999 195.866973 
L 120.851147 199.349634 
L 122.139295 201.047352 
L 124.715592 205.856482 
L 126.00374 207.615104 
L 127.291888 208.918556 
L 128.580036 211.178256 
L 131.156332 213.395502 
L 133.732628 217.030869 
L 135.020777 218.200016 
L 136.308925 219.995666 
L 137.597073 220.83634 
L 138.885221 222.324655 
L 140.173369 223.63312 
L 141.461517 224.353456 
L 142.749665 226.107594 
L 144.037813 227.123976 
L 145.325961 227.76511 
L 146.61411 229.305927 
L 147.902258 230.560271 
L 150.478554 232.084465 
L 151.766702 233.473546 
L 155.631146 236.770683 
L 156.919295 237.489071 
L 158.207443 238.758461 
L 159.495591 239.777445 
L 160.783739 240.504709 
L 163.360035 241.485411 
L 164.648183 241.890637 
L 165.936331 242.97696 
L 167.224479 243.783334 
L 169.800776 244.876164 
L 171.088924 245.37183 
L 172.377072 246.421819 
L 173.66522 247.30502 
L 176.241516 249.475548 
L 177.529664 250.185639 
L 181.394109 251.531378 
L 183.970405 253.97125 
L 185.258553 254.318833 
L 186.546701 254.873452 
L 187.834849 255.285093 
L 189.122997 256.208136 
L 191.699294 257.677115 
L 192.987442 258.105708 
L 194.27559 258.770145 
L 195.563738 259.201328 
L 198.140034 260.649766 
L 199.428182 261.681312 
L 202.004479 262.542789 
L 203.292627 263.461946 
L 204.580775 264.226501 
L 207.157071 265.003561 
L 208.445219 265.902821 
L 209.733367 266.55358 
L 216.174108 269.168412 
L 217.462256 269.875615 
L 220.038552 270.639112 
L 221.3267 271.324959 
L 222.614848 271.79046 
L 225.191145 273.146501 
L 231.631885 275.336252 
L 232.920033 276.052977 
L 238.072626 277.629909 
L 239.360774 278.201394 
L 247.089662 280.292998 
L 252.242255 281.831582 
L 253.530403 282.313512 
L 256.106699 282.915247 
L 259.971144 283.569888 
L 266.411884 284.875212 
L 274.140773 287.114103 
L 275.428921 287.401202 
L 278.005217 288.249442 
L 280.581513 288.932462 
L 283.15781 289.778691 
L 284.445958 289.966534 
L 287.022254 290.855881 
L 292.174846 292.090905 
L 296.039291 293.074928 
L 308.920772 295.683894 
L 310.20892 296.071407 
L 312.785216 296.677184 
L 314.073364 297.06196 
L 316.649661 297.591591 
L 324.378549 298.97735 
L 328.242994 299.430269 
L 330.81929 299.856052 
L 332.107438 300.066631 
L 332.107438 300.066631 
" clip-path="url(#pd18b66220b)" style="fill: none; stroke: #2ca02c; stroke-width: 1.5; stroke-linecap: square"/>
   </g>
   <g id="line2d_29">
    <path d="M 101.528926 59.669747 
L 102.817074 84.088084 
L 104.105222 98.552084 
L 105.39337 118.52122 
L 106.681518 151.1792 
L 107.969666 159.868944 
L 110.545962 172.145166 
L 111.834111 176.732987 
L 113.122259 180.564086 
L 114.410407 187.078257 
L 115.698555 189.485986 
L 116.986703 192.284009 
L 118.274851 194.007606 
L 119.562999 196.550264 
L 120.851147 199.902696 
L 122.139295 201.352353 
L 123.427444 203.740549 
L 124.715592 205.458832 
L 126.00374 207.790878 
L 127.291888 209.097737 
L 128.580036 211.488023 
L 129.868184 212.980862 
L 131.156332 213.978883 
L 132.44448 215.624155 
L 133.732628 216.530686 
L 135.020777 218.637191 
L 136.308925 220.326586 
L 137.597073 221.331026 
L 138.885221 222.035602 
L 141.461517 225.3043 
L 142.749665 226.413267 
L 144.037813 228.163132 
L 145.325961 228.985438 
L 147.902258 231.636906 
L 149.190406 232.353687 
L 150.478554 233.567574 
L 151.766702 234.471323 
L 153.05485 235.744271 
L 154.342998 236.304297 
L 156.919295 237.950723 
L 159.495591 240.636481 
L 162.071887 242.154469 
L 163.360035 242.668829 
L 164.648183 243.833641 
L 165.936331 244.81364 
L 167.224479 245.38824 
L 168.512628 246.251836 
L 169.800776 246.747505 
L 171.088924 247.726965 
L 172.377072 248.368524 
L 174.953368 250.603969 
L 176.241516 251.232914 
L 177.529664 252.12185 
L 181.394109 253.609326 
L 185.258553 256.413433 
L 186.546701 256.958284 
L 190.411145 258.252822 
L 191.699294 259.047532 
L 192.987442 259.502224 
L 196.851886 261.847963 
L 200.71633 263.328689 
L 202.004479 264.18062 
L 203.292627 264.613558 
L 205.868923 266.116153 
L 207.157071 266.549413 
L 208.445219 267.202031 
L 209.733367 267.589356 
L 211.021515 268.200596 
L 212.309663 268.651652 
L 213.597812 268.984302 
L 214.88596 269.432019 
L 217.462256 270.711035 
L 218.750404 271.114254 
L 220.038552 271.773013 
L 221.3267 272.134654 
L 225.191145 273.634668 
L 227.767441 274.263275 
L 229.055589 274.56585 
L 231.631885 275.576701 
L 232.920033 275.905968 
L 236.784478 277.498763 
L 238.072626 277.797474 
L 239.360774 278.315462 
L 241.93707 278.910988 
L 245.801514 280.46244 
L 249.665959 281.489911 
L 252.242255 282.320444 
L 253.530403 282.623654 
L 257.394847 283.970543 
L 261.259292 284.751306 
L 262.54744 285.001584 
L 270.276329 287.343004 
L 274.140773 288.146576 
L 278.005217 289.106006 
L 279.293365 289.322872 
L 281.869662 290.120348 
L 283.15781 290.359808 
L 288.310402 291.767382 
L 292.174846 292.405448 
L 294.751143 293.140151 
L 297.327439 293.744784 
L 298.615587 294.103016 
L 299.903735 294.312675 
L 301.191883 294.682757 
L 306.344476 295.579731 
L 308.920772 296.197766 
L 310.20892 296.382298 
L 314.073364 297.250629 
L 316.649661 297.752848 
L 319.225957 298.361679 
L 323.090401 298.99498 
L 324.378549 299.289865 
L 326.954846 299.645199 
L 330.81929 300.505651 
L 332.107438 300.667478 
L 332.107438 300.667478 
" clip-path="url(#pd18b66220b)" style="fill: none; stroke: #d62728; stroke-width: 1.5; stroke-linecap: square"/>
   </g>
   <g id="line2d_30">
    <path d="M 101.528926 58.964939 
L 102.817074 85.62495 
L 104.105222 99.230065 
L 105.39337 115.834205 
L 106.681518 152.638033 
L 107.969666 159.13808 
L 109.257814 164.775219 
L 110.545962 169.218871 
L 111.834111 174.445959 
L 113.122259 183.891247 
L 114.410407 187.323148 
L 115.698555 189.782288 
L 116.986703 191.699513 
L 118.274851 196.325198 
L 119.562999 198.062014 
L 120.851147 200.259767 
L 122.139295 202.173569 
L 123.427444 206.027436 
L 124.715592 207.72138 
L 126.00374 210.662301 
L 127.291888 212.343422 
L 129.868184 214.59754 
L 131.156332 217.435723 
L 132.44448 219.738807 
L 133.732628 221.431654 
L 135.020777 222.531545 
L 136.308925 224.727684 
L 137.597073 225.838728 
L 138.885221 227.186447 
L 140.173369 228.194582 
L 141.461517 230.141469 
L 142.749665 231.847457 
L 144.037813 233.103394 
L 147.902258 235.704208 
L 149.190406 237.445464 
L 150.478554 238.187912 
L 151.766702 239.826327 
L 153.05485 240.510169 
L 154.342998 241.025677 
L 155.631146 242.048718 
L 156.919295 242.772002 
L 158.207443 244.304096 
L 159.495591 245.641411 
L 160.783739 246.236483 
L 162.071887 247.280947 
L 163.360035 247.92436 
L 164.648183 249.258528 
L 165.936331 250.428633 
L 169.800776 251.898072 
L 171.088924 252.690636 
L 172.377072 253.188433 
L 173.66522 254.112346 
L 174.953368 254.663978 
L 176.241516 255.429015 
L 178.817812 257.696092 
L 181.394109 258.533135 
L 183.970405 260.495335 
L 186.546701 261.437236 
L 187.834849 261.772226 
L 189.122997 262.703506 
L 190.411145 263.025247 
L 191.699294 263.879822 
L 192.987442 264.144005 
L 195.563738 265.663087 
L 196.851886 266.305347 
L 198.140034 267.098405 
L 202.004479 268.458381 
L 204.580775 269.981649 
L 207.157071 270.694128 
L 209.733367 272.111217 
L 211.021515 272.490684 
L 213.597812 273.80481 
L 214.88596 274.145246 
L 221.3267 277.180915 
L 225.191145 278.315436 
L 227.767441 279.35606 
L 229.055589 279.698238 
L 231.631885 280.959538 
L 235.496329 282.133645 
L 238.072626 283.333439 
L 240.648922 284.241726 
L 244.513366 285.878283 
L 250.954107 288.008116 
L 253.530403 288.583196 
L 261.259292 291.086024 
L 263.835588 291.555724 
L 266.411884 292.418682 
L 270.276329 293.480088 
L 272.852625 294.17368 
L 276.717069 295.018488 
L 287.022254 297.935861 
L 296.039291 299.981845 
L 301.191883 301.337206 
L 303.76818 301.872572 
L 306.344476 302.578051 
L 316.649661 304.662157 
L 319.225957 305.295901 
L 321.802253 305.805304 
L 325.666697 306.564443 
L 328.242994 307.060211 
L 332.107438 307.8 
L 332.107438 307.8 
" clip-path="url(#pd18b66220b)" style="fill: none; stroke: #9467bd; stroke-width: 1.5; stroke-linecap: square"/>
   </g>
   <g id="patch_3">
    <path d="M 90 320.4 
L 90 43.2 
" style="fill: none; stroke: #000000; stroke-width: 0.8; stroke-linejoin: miter; stroke-linecap: square"/>
   </g>
   <g id="patch_4">
    <path d="M 343.636364 320.4 
L 343.636364 43.2 
" style="fill: none; stroke: #000000; stroke-width: 0.8; stroke-linejoin: miter; stroke-linecap: square"/>
   </g>
   <g id="patch_5">
    <path d="M 90 320.4 
L 343.636364 320.4 
" style="fill: none; stroke: #000000; stroke-width: 0.8; stroke-linejoin: miter; stroke-linecap: square"/>
   </g>
   <g id="patch_6">
    <path d="M 90 43.2 
L 343.636364 43.2 
" style="fill: none; stroke: #000000; stroke-width: 0.8; stroke-linejoin: miter; stroke-linecap: square"/>
   </g>
   <g id="legend_1">
    <g id="patch_7">
     <path d="M 267.551989 124.590625 
L 336.636364 124.590625 
Q 338.636364 124.590625 338.636364 122.590625 
L 338.636364 50.2 
Q 338.636364 48.2 336.636364 48.2 
L 267.551989 48.2 
Q 265.551989 48.2 265.551989 50.2 
L 265.551989 122.590625 
Q 265.551989 124.590625 267.551989 124.590625 
z
" style="fill: #ffffff; opacity: 0.8; stroke: #cccccc; stroke-linejoin: miter"/>
    </g>
    <g id="line2d_31">
     <path d="M 269.551989 56.298437 
L 279.551989 56.298437 
L 289.551989 56.298437 
" style="fill: none; stroke: #1f77b4; stroke-width: 1.5; stroke-linecap: square"/>
    </g>
    <g id="text_13">
     <!-- RBCD -->
     <g transform="translate(297.551989 59.798437)scale(0.1 -0.1)">
      <defs>
       <path id="DejaVuSans-52" d="M 2841 2188 
Q 3044 2119 3236 1894 
Q 3428 1669 3622 1275 
L 4263 0 
L 3584 0 
L 2988 1197 
Q 2756 1666 2539 1819 
Q 2322 1972 1947 1972 
L 1259 1972 
L 1259 0 
L 628 0 
L 628 4666 
L 2053 4666 
Q 2853 4666 3247 4331 
Q 3641 3997 3641 3322 
Q 3641 2881 3436 2590 
Q 3231 2300 2841 2188 
z
M 1259 4147 
L 1259 2491 
L 2053 2491 
Q 2509 2491 2742 2702 
Q 2975 2913 2975 3322 
Q 2975 3731 2742 3939 
Q 2509 4147 2053 4147 
L 1259 4147 
z
" transform="scale(0.015625)"/>
       <path id="DejaVuSans-42" d="M 1259 2228 
L 1259 519 
L 2272 519 
Q 2781 519 3026 730 
Q 3272 941 3272 1375 
Q 3272 1813 3026 2020 
Q 2781 2228 2272 2228 
L 1259 2228 
z
M 1259 4147 
L 1259 2741 
L 2194 2741 
Q 2656 2741 2882 2914 
Q 3109 3088 3109 3444 
Q 3109 3797 2882 3972 
Q 2656 4147 2194 4147 
L 1259 4147 
z
M 628 4666 
L 2241 4666 
Q 2963 4666 3353 4366 
Q 3744 4066 3744 3513 
Q 3744 3084 3544 2831 
Q 3344 2578 2956 2516 
Q 3422 2416 3680 2098 
Q 3938 1781 3938 1306 
Q 3938 681 3513 340 
Q 3088 0 2303 0 
L 628 0 
L 628 4666 
z
" transform="scale(0.015625)"/>
       <path id="DejaVuSans-43" d="M 4122 4306 
L 4122 3641 
Q 3803 3938 3442 4084 
Q 3081 4231 2675 4231 
Q 1875 4231 1450 3742 
Q 1025 3253 1025 2328 
Q 1025 1406 1450 917 
Q 1875 428 2675 428 
Q 3081 428 3442 575 
Q 3803 722 4122 1019 
L 4122 359 
Q 3791 134 3420 21 
Q 3050 -91 2638 -91 
Q 1578 -91 968 557 
Q 359 1206 359 2328 
Q 359 3453 968 4101 
Q 1578 4750 2638 4750 
Q 3056 4750 3426 4639 
Q 3797 4528 4122 4306 
z
" transform="scale(0.015625)"/>
       <path id="DejaVuSans-44" d="M 1259 4147 
L 1259 519 
L 2022 519 
Q 2988 519 3436 956 
Q 3884 1394 3884 2338 
Q 3884 3275 3436 3711 
Q 2988 4147 2022 4147 
L 1259 4147 
z
M 628 4666 
L 1925 4666 
Q 3281 4666 3915 4102 
Q 4550 3538 4550 2338 
Q 4550 1131 3912 565 
Q 3275 0 1925 0 
L 628 0 
L 628 4666 
z
" transform="scale(0.015625)"/>
      </defs>
      <use xlink:href="#DejaVuSans-52"/>
      <use xlink:href="#DejaVuSans-42" x="69.482422"/>
      <use xlink:href="#DejaVuSans-43" x="136.335938"/>
      <use xlink:href="#DejaVuSans-44" x="206.160156"/>
     </g>
    </g>
    <g id="line2d_32">
     <path d="M 269.551989 70.976562 
L 279.551989 70.976562 
L 289.551989 70.976562 
" style="fill: none; stroke: #ff7f0e; stroke-width: 1.5; stroke-linecap: square"/>
    </g>
    <g id="text_14">
     <!-- strong -->
     <g transform="translate(297.551989 74.476562)scale(0.1 -0.1)">
      <defs>
       <path id="DejaVuSans-73" d="M 2834 3397 
L 2834 2853 
Q 2591 2978 2328 3040 
Q 2066 3103 1784 3103 
Q 1356 3103 1142 2972 
Q 928 2841 928 2578 
Q 928 2378 1081 2264 
Q 1234 2150 1697 2047 
L 1894 2003 
Q 2506 1872 2764 1633 
Q 3022 1394 3022 966 
Q 3022 478 2636 193 
Q 2250 -91 1575 -91 
Q 1294 -91 989 -36 
Q 684 19 347 128 
L 347 722 
Q 666 556 975 473 
Q 1284 391 1588 391 
Q 1994 391 2212 530 
Q 2431 669 2431 922 
Q 2431 1156 2273 1281 
Q 2116 1406 1581 1522 
L 1381 1569 
Q 847 1681 609 1914 
Q 372 2147 372 2553 
Q 372 3047 722 3315 
Q 1072 3584 1716 3584 
Q 2034 3584 2315 3537 
Q 2597 3491 2834 3397 
z
" transform="scale(0.015625)"/>
       <path id="DejaVuSans-67" d="M 2906 1791 
Q 2906 2416 2648 2759 
Q 2391 3103 1925 3103 
Q 1463 3103 1205 2759 
Q 947 2416 947 1791 
Q 947 1169 1205 825 
Q 1463 481 1925 481 
Q 2391 481 2648 825 
Q 2906 1169 2906 1791 
z
M 3481 434 
Q 3481 -459 3084 -895 
Q 2688 -1331 1869 -1331 
Q 1566 -1331 1297 -1286 
Q 1028 -1241 775 -1147 
L 775 -588 
Q 1028 -725 1275 -790 
Q 1522 -856 1778 -856 
Q 2344 -856 2625 -561 
Q 2906 -266 2906 331 
L 2906 616 
Q 2728 306 2450 153 
Q 2172 0 1784 0 
Q 1141 0 747 490 
Q 353 981 353 1791 
Q 353 2603 747 3093 
Q 1141 3584 1784 3584 
Q 2172 3584 2450 3431 
Q 2728 3278 2906 2969 
L 2906 3500 
L 3481 3500 
L 3481 434 
z
" transform="scale(0.015625)"/>
      </defs>
      <use xlink:href="#DejaVuSans-73"/>
      <use xlink:href="#DejaVuSans-74" x="52.099609"/>
      <use xlink:href="#DejaVuSans-72" x="91.308594"/>
      <use xlink:href="#DejaVuSans-6f" x="130.171875"/>
      <use xlink:href="#DejaVuSans-6e" x="191.353516"/>
      <use xlink:href="#DejaVuSans-67" x="254.732422"/>
     </g>
    </g>
    <g id="line2d_33">
     <path d="M 269.551989 85.654687 
L 279.551989 85.654687 
L 289.551989 85.654687 
" style="fill: none; stroke: #2ca02c; stroke-width: 1.5; stroke-linecap: square"/>
    </g>
    <g id="text_15">
     <!-- fast -->
     <g transform="translate(297.551989 89.154687)scale(0.1 -0.1)">
      <defs>
       <path id="DejaVuSans-66" d="M 2375 4863 
L 2375 4384 
L 1825 4384 
Q 1516 4384 1395 4259 
Q 1275 4134 1275 3809 
L 1275 3500 
L 2222 3500 
L 2222 3053 
L 1275 3053 
L 1275 0 
L 697 0 
L 697 3053 
L 147 3053 
L 147 3500 
L 697 3500 
L 697 3744 
Q 697 4328 969 4595 
Q 1241 4863 1831 4863 
L 2375 4863 
z
" transform="scale(0.015625)"/>
      </defs>
      <use xlink:href="#DejaVuSans-66"/>
      <use xlink:href="#DejaVuSans-61" x="35.205078"/>
      <use xlink:href="#DejaVuSans-73" x="96.484375"/>
      <use xlink:href="#DejaVuSans-74" x="148.583984"/>
     </g>
    </g>
    <g id="line2d_34">
     <path d="M 269.551989 100.332812 
L 279.551989 100.332812 
L 289.551989 100.332812 
" style="fill: none; stroke: #d62728; stroke-width: 1.5; stroke-linecap: square"/>
    </g>
    <g id="text_16">
     <!-- eco -->
     <g transform="translate(297.551989 103.832812)scale(0.1 -0.1)">
      <defs>
       <path id="DejaVuSans-63" d="M 3122 3366 
L 3122 2828 
Q 2878 2963 2633 3030 
Q 2388 3097 2138 3097 
Q 1578 3097 1268 2742 
Q 959 2388 959 1747 
Q 959 1106 1268 751 
Q 1578 397 2138 397 
Q 2388 397 2633 464 
Q 2878 531 3122 666 
L 3122 134 
Q 2881 22 2623 -34 
Q 2366 -91 2075 -91 
Q 1284 -91 818 406 
Q 353 903 353 1747 
Q 353 2603 823 3093 
Q 1294 3584 2113 3584 
Q 2378 3584 2631 3529 
Q 2884 3475 3122 3366 
z
" transform="scale(0.015625)"/>
      </defs>
      <use xlink:href="#DejaVuSans-65"/>
      <use xlink:href="#DejaVuSans-63" x="61.523438"/>
      <use xlink:href="#DejaVuSans-6f" x="116.503906"/>
     </g>
    </g>
    <g id="line2d_35">
     <path d="M 269.551989 115.010937 
L 279.551989 115.010937 
L 289.551989 115.010937 
" style="fill: none; stroke: #9467bd; stroke-width: 1.5; stroke-linecap: square"/>
    </g>
    <g id="text_17">
     <!-- highest -->
     <g transform="translate(297.551989 118.510937)scale(0.1 -0.1)">
      <defs>
       <path id="DejaVuSans-68" d="M 3513 2113 
L 3513 0 
L 2938 0 
L 2938 2094 
Q 2938 2591 2744 2837 
Q 2550 3084 2163 3084 
Q 1697 3084 1428 2787 
Q 1159 2491 1159 1978 
L 1159 0 
L 581 0 
L 581 4863 
L 1159 4863 
L 1159 2956 
Q 1366 3272 1645 3428 
Q 1925 3584 2291 3584 
Q 2894 3584 3203 3211 
Q 3513 2838 3513 2113 
z
" transform="scale(0.015625)"/>
      </defs>
      <use xlink:href="#DejaVuSans-68"/>
      <use xlink:href="#DejaVuSans-69" x="63.378906"/>
      <use xlink:href="#DejaVuSans-67" x="91.162109"/>
      <use xlink:href="#DejaVuSans-68" x="154.638672"/>
      <use xlink:href="#DejaVuSans-65" x="218.017578"/>
      <use xlink:href="#DejaVuSans-73" x="279.541016"/>
      <use xlink:href="#DejaVuSans-74" x="331.640625"/>
     </g>
    </g>
   </g>
  </g>
  <g id="axes_2">
   <g id="patch_8">
    <path d="M 394.363636 320.4 
L 648 320.4 
L 648 43.2 
L 394.363636 43.2 
z
" style="fill: #ffffff"/>
   </g>
   <g id="matplotlib.axis_3">
    <g id="xtick_9">
     <g id="line2d_36">
      <g>
       <use xlink:href="#m9e6c9aa885" x="405.892562" y="320.4" style="stroke: #000000; stroke-width: 0.8"/>
      </g>
     </g>
     <g id="text_18">
      <!-- 0 -->
      <g transform="translate(402.711312 334.998438)scale(0.1 -0.1)">
       <use xlink:href="#DejaVuSans-30"/>
      </g>
     </g>
    </g>
    <g id="xtick_10">
     <g id="line2d_37">
      <g>
       <use xlink:href="#m9e6c9aa885" x="438.096265" y="320.4" style="stroke: #000000; stroke-width: 0.8"/>
      </g>
     </g>
     <g id="text_19">
      <!-- 25 -->
      <g transform="translate(431.733765 334.998438)scale(0.1 -0.1)">
       <use xlink:href="#DejaVuSans-32"/>
       <use xlink:href="#DejaVuSans-35" x="63.623047"/>
      </g>
     </g>
    </g>
    <g id="xtick_11">
     <g id="line2d_38">
      <g>
       <use xlink:href="#m9e6c9aa885" x="470.299968" y="320.4" style="stroke: #000000; stroke-width: 0.8"/>
      </g>
     </g>
     <g id="text_20">
      <!-- 50 -->
      <g transform="translate(463.937468 334.998438)scale(0.1 -0.1)">
       <use xlink:href="#DejaVuSans-35"/>
       <use xlink:href="#DejaVuSans-30" x="63.623047"/>
      </g>
     </g>
    </g>
    <g id="xtick_12">
     <g id="line2d_39">
      <g>
       <use xlink:href="#m9e6c9aa885" x="502.503671" y="320.4" style="stroke: #000000; stroke-width: 0.8"/>
      </g>
     </g>
     <g id="text_21">
      <!-- 75 -->
      <g transform="translate(496.141171 334.998438)scale(0.1 -0.1)">
       <use xlink:href="#DejaVuSans-37"/>
       <use xlink:href="#DejaVuSans-35" x="63.623047"/>
      </g>
     </g>
    </g>
    <g id="xtick_13">
     <g id="line2d_40">
      <g>
       <use xlink:href="#m9e6c9aa885" x="534.707373" y="320.4" style="stroke: #000000; stroke-width: 0.8"/>
      </g>
     </g>
     <g id="text_22">
      <!-- 100 -->
      <g transform="translate(525.163623 334.998438)scale(0.1 -0.1)">
       <use xlink:href="#DejaVuSans-31"/>
       <use xlink:href="#DejaVuSans-30" x="63.623047"/>
       <use xlink:href="#DejaVuSans-30" x="127.246094"/>
      </g>
     </g>
    </g>
    <g id="xtick_14">
     <g id="line2d_41">
      <g>
       <use xlink:href="#m9e6c9aa885" x="566.911076" y="320.4" style="stroke: #000000; stroke-width: 0.8"/>
      </g>
     </g>
     <g id="text_23">
      <!-- 125 -->
      <g transform="translate(557.367326 334.998438)scale(0.1 -0.1)">
       <use xlink:href="#DejaVuSans-31"/>
       <use xlink:href="#DejaVuSans-32" x="63.623047"/>
       <use xlink:href="#DejaVuSans-35" x="127.246094"/>
      </g>
     </g>
    </g>
    <g id="xtick_15">
     <g id="line2d_42">
      <g>
       <use xlink:href="#m9e6c9aa885" x="599.114779" y="320.4" style="stroke: #000000; stroke-width: 0.8"/>
      </g>
     </g>
     <g id="text_24">
      <!-- 150 -->
      <g transform="translate(589.571029 334.998438)scale(0.1 -0.1)">
       <use xlink:href="#DejaVuSans-31"/>
       <use xlink:href="#DejaVuSans-35" x="63.623047"/>
       <use xlink:href="#DejaVuSans-30" x="127.246094"/>
      </g>
     </g>
    </g>
    <g id="xtick_16">
     <g id="line2d_43">
      <g>
       <use xlink:href="#m9e6c9aa885" x="631.318482" y="320.4" style="stroke: #000000; stroke-width: 0.8"/>
      </g>
     </g>
     <g id="text_25">
      <!-- 175 -->
      <g transform="translate(621.774732 334.998438)scale(0.1 -0.1)">
       <use xlink:href="#DejaVuSans-31"/>
       <use xlink:href="#DejaVuSans-37" x="63.623047"/>
       <use xlink:href="#DejaVuSans-35" x="127.246094"/>
      </g>
     </g>
    </g>
    <g id="text_26">
     <!-- iteration -->
     <g transform="translate(500.059162 348.676562)scale(0.1 -0.1)">
      <use xlink:href="#DejaVuSans-69"/>
      <use xlink:href="#DejaVuSans-74" x="27.783203"/>
      <use xlink:href="#DejaVuSans-65" x="66.992188"/>
      <use xlink:href="#DejaVuSans-72" x="128.515625"/>
      <use xlink:href="#DejaVuSans-61" x="169.628906"/>
      <use xlink:href="#DejaVuSans-74" x="230.908203"/>
      <use xlink:href="#DejaVuSans-69" x="270.117188"/>
      <use xlink:href="#DejaVuSans-6f" x="297.900391"/>
      <use xlink:href="#DejaVuSans-6e" x="359.082031"/>
     </g>
    </g>
   </g>
   <g id="matplotlib.axis_4">
    <g id="ytick_18">
     <g id="line2d_44">
      <g>
       <use xlink:href="#m9512e4ee36" x="394.363636" y="222.504604" style="stroke: #000000; stroke-width: 0.8"/>
      </g>
     </g>
     <g id="text_27">
      <!-- $\mathdefault{10^{-1}}$ -->
      <g transform="translate(363.863636 226.303823)scale(0.1 -0.1)">
       <use xlink:href="#DejaVuSans-31" transform="translate(0 0.684375)"/>
       <use xlink:href="#DejaVuSans-30" transform="translate(63.623047 0.684375)"/>
       <use xlink:href="#DejaVuSans-2212" transform="translate(128.203125 38.965625)scale(0.7)"/>
       <use xlink:href="#DejaVuSans-31" transform="translate(186.855469 38.965625)scale(0.7)"/>
      </g>
     </g>
    </g>
    <g id="ytick_19">
     <g id="line2d_45">
      <g>
       <use xlink:href="#m9512e4ee36" x="394.363636" y="99.598726" style="stroke: #000000; stroke-width: 0.8"/>
      </g>
     </g>
     <g id="text_28">
      <!-- $\mathdefault{10^{0}}$ -->
      <g transform="translate(369.763636 103.397945)scale(0.1 -0.1)">
       <use xlink:href="#DejaVuSans-31" transform="translate(0 0.765625)"/>
       <use xlink:href="#DejaVuSans-30" transform="translate(63.623047 0.765625)"/>
       <use xlink:href="#DejaVuSans-30" transform="translate(128.203125 39.046875)scale(0.7)"/>
      </g>
     </g>
    </g>
    <g id="ytick_20">
     <g id="line2d_46">
      <g>
       <use xlink:href="#m2bd19d3e37" x="394.363636" y="308.412127" style="stroke: #000000; stroke-width: 0.6"/>
      </g>
     </g>
    </g>
    <g id="ytick_21">
     <g id="line2d_47">
      <g>
       <use xlink:href="#m2bd19d3e37" x="394.363636" y="286.769476" style="stroke: #000000; stroke-width: 0.6"/>
      </g>
     </g>
    </g>
    <g id="ytick_22">
     <g id="line2d_48">
      <g>
       <use xlink:href="#m2bd19d3e37" x="394.363636" y="271.413771" style="stroke: #000000; stroke-width: 0.6"/>
      </g>
     </g>
    </g>
    <g id="ytick_23">
     <g id="line2d_49">
      <g>
       <use xlink:href="#m2bd19d3e37" x="394.363636" y="259.50296" style="stroke: #000000; stroke-width: 0.6"/>
      </g>
     </g>
    </g>
    <g id="ytick_24">
     <g id="line2d_50">
      <g>
       <use xlink:href="#m2bd19d3e37" x="394.363636" y="249.77112" style="stroke: #000000; stroke-width: 0.6"/>
      </g>
     </g>
    </g>
    <g id="ytick_25">
     <g id="line2d_51">
      <g>
       <use xlink:href="#m2bd19d3e37" x="394.363636" y="241.542966" style="stroke: #000000; stroke-width: 0.6"/>
      </g>
     </g>
    </g>
    <g id="ytick_26">
     <g id="line2d_52">
      <g>
       <use xlink:href="#m2bd19d3e37" x="394.363636" y="234.415415" style="stroke: #000000; stroke-width: 0.6"/>
      </g>
     </g>
    </g>
    <g id="ytick_27">
     <g id="line2d_53">
      <g>
       <use xlink:href="#m2bd19d3e37" x="394.363636" y="228.128469" style="stroke: #000000; stroke-width: 0.6"/>
      </g>
     </g>
    </g>
    <g id="ytick_28">
     <g id="line2d_54">
      <g>
       <use xlink:href="#m2bd19d3e37" x="394.363636" y="185.506248" style="stroke: #000000; stroke-width: 0.6"/>
      </g>
     </g>
    </g>
    <g id="ytick_29">
     <g id="line2d_55">
      <g>
       <use xlink:href="#m2bd19d3e37" x="394.363636" y="163.863597" style="stroke: #000000; stroke-width: 0.6"/>
      </g>
     </g>
    </g>
    <g id="ytick_30">
     <g id="line2d_56">
      <g>
       <use xlink:href="#m2bd19d3e37" x="394.363636" y="148.507892" style="stroke: #000000; stroke-width: 0.6"/>
      </g>
     </g>
    </g>
    <g id="ytick_31">
     <g id="line2d_57">
      <g>
       <use xlink:href="#m2bd19d3e37" x="394.363636" y="136.597082" style="stroke: #000000; stroke-width: 0.6"/>
      </g>
     </g>
    </g>
    <g id="ytick_32">
     <g id="line2d_58">
      <g>
       <use xlink:href="#m2bd19d3e37" x="394.363636" y="126.865241" style="stroke: #000000; stroke-width: 0.6"/>
      </g>
     </g>
    </g>
    <g id="ytick_33">
     <g id="line2d_59">
      <g>
       <use xlink:href="#m2bd19d3e37" x="394.363636" y="118.637087" style="stroke: #000000; stroke-width: 0.6"/>
      </g>
     </g>
    </g>
    <g id="ytick_34">
     <g id="line2d_60">
      <g>
       <use xlink:href="#m2bd19d3e37" x="394.363636" y="111.509536" style="stroke: #000000; stroke-width: 0.6"/>
      </g>
     </g>
    </g>
    <g id="ytick_35">
     <g id="line2d_61">
      <g>
       <use xlink:href="#m2bd19d3e37" x="394.363636" y="105.222591" style="stroke: #000000; stroke-width: 0.6"/>
      </g>
     </g>
    </g>
    <g id="ytick_36">
     <g id="line2d_62">
      <g>
       <use xlink:href="#m2bd19d3e37" x="394.363636" y="62.60037" style="stroke: #000000; stroke-width: 0.6"/>
      </g>
     </g>
    </g>
    <g id="text_29">
     <!-- GradNorm -->
     <g transform="translate(357.783949 207.60625)rotate(-90)scale(0.1 -0.1)">
      <defs>
       <path id="DejaVuSans-47" d="M 3809 666 
L 3809 1919 
L 2778 1919 
L 2778 2438 
L 4434 2438 
L 4434 434 
Q 4069 175 3628 42 
Q 3188 -91 2688 -91 
Q 1594 -91 976 548 
Q 359 1188 359 2328 
Q 359 3472 976 4111 
Q 1594 4750 2688 4750 
Q 3144 4750 3555 4637 
Q 3966 4525 4313 4306 
L 4313 3634 
Q 3963 3931 3569 4081 
Q 3175 4231 2741 4231 
Q 1884 4231 1454 3753 
Q 1025 3275 1025 2328 
Q 1025 1384 1454 906 
Q 1884 428 2741 428 
Q 3075 428 3337 486 
Q 3600 544 3809 666 
z
" transform="scale(0.015625)"/>
       <path id="DejaVuSans-64" d="M 2906 2969 
L 2906 4863 
L 3481 4863 
L 3481 0 
L 2906 0 
L 2906 525 
Q 2725 213 2448 61 
Q 2172 -91 1784 -91 
Q 1150 -91 751 415 
Q 353 922 353 1747 
Q 353 2572 751 3078 
Q 1150 3584 1784 3584 
Q 2172 3584 2448 3432 
Q 2725 3281 2906 2969 
z
M 947 1747 
Q 947 1113 1208 752 
Q 1469 391 1925 391 
Q 2381 391 2643 752 
Q 2906 1113 2906 1747 
Q 2906 2381 2643 2742 
Q 2381 3103 1925 3103 
Q 1469 3103 1208 2742 
Q 947 2381 947 1747 
z
" transform="scale(0.015625)"/>
       <path id="DejaVuSans-4e" d="M 628 4666 
L 1478 4666 
L 3547 763 
L 3547 4666 
L 4159 4666 
L 4159 0 
L 3309 0 
L 1241 3903 
L 1241 0 
L 628 0 
L 628 4666 
z
" transform="scale(0.015625)"/>
       <path id="DejaVuSans-6d" d="M 3328 2828 
Q 3544 3216 3844 3400 
Q 4144 3584 4550 3584 
Q 5097 3584 5394 3201 
Q 5691 2819 5691 2113 
L 5691 0 
L 5113 0 
L 5113 2094 
Q 5113 2597 4934 2840 
Q 4756 3084 4391 3084 
Q 3944 3084 3684 2787 
Q 3425 2491 3425 1978 
L 3425 0 
L 2847 0 
L 2847 2094 
Q 2847 2600 2669 2842 
Q 2491 3084 2119 3084 
Q 1678 3084 1418 2786 
Q 1159 2488 1159 1978 
L 1159 0 
L 581 0 
L 581 3500 
L 1159 3500 
L 1159 2956 
Q 1356 3278 1631 3431 
Q 1906 3584 2284 3584 
Q 2666 3584 2933 3390 
Q 3200 3197 3328 2828 
z
" transform="scale(0.015625)"/>
      </defs>
      <use xlink:href="#DejaVuSans-47"/>
      <use xlink:href="#DejaVuSans-72" x="77.490234"/>
      <use xlink:href="#DejaVuSans-61" x="118.603516"/>
      <use xlink:href="#DejaVuSans-64" x="179.882812"/>
      <use xlink:href="#DejaVuSans-4e" x="243.359375"/>
      <use xlink:href="#DejaVuSans-6f" x="318.164062"/>
      <use xlink:href="#DejaVuSans-72" x="379.345703"/>
      <use xlink:href="#DejaVuSans-6d" x="418.708984"/>
     </g>
    </g>
   </g>
   <g id="line2d_63">
    <path d="M 405.892562 59.220922 
L 407.18071 79.167982 
L 408.468858 104.213447 
L 409.757006 116.09173 
L 412.333303 149.633781 
L 413.621451 169.386442 
L 414.909599 179.997785 
L 417.485895 204.890125 
L 418.774043 202.007524 
L 420.062191 209.917021 
L 421.350339 205.544123 
L 422.638487 213.420545 
L 423.926636 222.768575 
L 425.214784 203.080679 
L 426.502932 218.575821 
L 427.79108 218.148601 
L 429.079228 223.808882 
L 430.367376 216.805277 
L 431.655524 222.316336 
L 432.943672 220.864929 
L 434.23182 226.644217 
L 435.519969 235.361205 
L 436.808117 216.317138 
L 438.096265 230.94192 
L 439.384413 230.756597 
L 440.672561 235.59182 
L 441.960709 228.587684 
L 443.248857 234.03926 
L 444.537005 232.366718 
L 445.825154 238.252934 
L 447.113302 247.478507 
L 448.40145 239.603779 
L 449.689598 246.084073 
L 450.977746 237.597513 
L 452.265894 245.484179 
L 453.554042 250.759322 
L 454.84219 228.73591 
L 456.130338 242.417953 
L 457.418487 240.587168 
L 458.706635 244.989595 
L 459.994783 239.94944 
L 461.282931 244.743064 
L 462.571079 242.187157 
L 463.859227 247.941309 
L 465.147375 255.597086 
L 466.435523 232.59719 
L 467.723671 247.387642 
L 469.01182 245.846458 
L 470.299968 250.010707 
L 471.588116 245.032971 
L 472.876264 249.646147 
L 474.164412 247.353492 
L 475.45256 252.815215 
L 476.740708 261.552688 
L 478.028856 254.469481 
L 479.317004 260.235454 
L 480.605153 251.770052 
L 481.893301 258.772282 
L 483.181449 263.272119 
L 484.469597 242.106751 
L 485.757745 255.624896 
L 487.045893 253.019613 
L 488.334041 256.742821 
L 489.622189 252.775682 
L 490.910338 256.741656 
L 492.198486 254.236658 
L 493.486634 259.368998 
L 494.774782 267.016577 
L 496.06293 260.817646 
L 497.351078 265.67606 
L 498.639226 257.677715 
L 499.927374 263.929969 
L 501.215522 243.554955 
L 502.503671 259.621694 
L 503.791819 257.922384 
L 505.079967 261.294089 
L 506.368115 257.949537 
L 507.656263 265.215517 
L 508.944411 270.114149 
L 510.232559 263.905935 
L 511.520707 269.593634 
L 512.808855 264.067713 
L 514.097004 268.237039 
L 515.385152 263.390215 
L 516.6733 269.611878 
L 517.961448 248.426458 
L 519.249596 263.877886 
L 520.537744 262.078287 
L 521.825892 265.223397 
L 523.11404 262.287954 
L 524.402188 269.764945 
L 525.690337 274.073223 
L 526.978485 268.25564 
L 528.266633 273.550466 
L 529.554781 253.089906 
L 530.842929 268.124537 
L 532.131077 266.079008 
L 533.419225 261.882461 
L 534.707373 268.185589 
L 535.995521 276.148417 
L 537.28367 270.788876 
L 538.571818 276.662678 
L 539.859966 271.47815 
L 541.148114 275.794193 
L 542.436262 271.264251 
L 543.72441 276.94423 
L 545.012558 257.146903 
L 546.300706 271.434716 
L 547.588855 269.687186 
L 548.877003 272.936233 
L 550.165151 269.770695 
L 551.453299 277.030344 
L 552.741447 281.223657 
L 554.029595 275.421493 
L 555.317743 280.710119 
L 556.605891 275.260714 
L 557.894039 279.161247 
L 559.182188 274.966474 
L 560.470336 280.525845 
L 561.758484 261.331391 
L 563.046632 275.37621 
L 564.33478 273.910097 
L 565.622928 270.083358 
L 566.911076 276.031257 
L 568.199224 283.776555 
L 569.487372 278.781485 
L 570.775521 284.216774 
L 572.063669 278.986275 
L 573.351817 283.07433 
L 574.639965 278.944735 
L 575.928113 284.125475 
L 577.216261 264.807116 
L 578.504409 278.291176 
L 579.792557 277.030583 
L 581.080705 272.942859 
L 582.368854 279.087476 
L 583.657002 286.676969 
L 584.94515 281.884468 
L 586.233298 286.967099 
L 587.521446 281.783319 
L 588.809594 285.890413 
L 590.097742 282.043576 
L 591.38589 286.990793 
L 592.674039 268.327531 
L 593.962187 281.590598 
L 595.250335 280.377316 
L 596.538483 276.272115 
L 597.826631 282.406611 
L 599.114779 289.926331 
L 600.402927 285.074631 
L 601.691075 290.19301 
L 602.979223 284.801223 
L 604.267372 288.949396 
L 605.55552 285.388554 
L 606.843668 290.263439 
L 608.131816 271.422744 
L 609.419964 284.172237 
L 610.708112 283.094438 
L 611.99626 279.141017 
L 613.284408 285.174414 
L 614.572556 292.590413 
L 615.860705 287.819634 
L 617.148853 292.667691 
L 618.437001 287.390755 
L 619.725149 291.377259 
L 621.013297 288.112418 
L 622.301445 292.733305 
L 623.589593 274.422623 
L 624.877741 286.990206 
L 626.165889 286.127232 
L 627.454038 282.054357 
L 628.742186 287.795094 
L 630.030334 294.797935 
L 631.318482 290.864922 
L 632.60663 295.55338 
L 633.894778 290.24991 
L 635.182926 294.252729 
L 636.471074 290.906307 
L 636.471074 290.906307 
" clip-path="url(#pbbdb49f48d)" style="fill: none; stroke: #1f77b4; stroke-width: 1.5; stroke-linecap: square"/>
   </g>
   <g id="line2d_64">
    <path d="M 405.892562 57.79901 
L 407.18071 81.466073 
L 408.468858 93.050824 
L 409.757006 110.154703 
L 411.045154 129.175424 
L 412.333303 142.513343 
L 414.909599 156.362017 
L 416.197747 160.264537 
L 418.774043 177.121754 
L 420.062191 180.18369 
L 421.350339 185.372977 
L 422.638487 186.891659 
L 423.926636 192.472945 
L 425.214784 194.554325 
L 426.502932 197.853575 
L 429.079228 201.220563 
L 430.367376 202.066345 
L 431.655524 205.257221 
L 432.943672 206.312606 
L 434.23182 209.228749 
L 435.519969 211.673696 
L 436.808117 214.529643 
L 438.096265 216.087597 
L 439.384413 217.910578 
L 440.672561 217.726488 
L 441.960709 219.559726 
L 443.248857 220.349468 
L 444.537005 222.162374 
L 445.825154 222.319417 
L 448.40145 224.95843 
L 449.689598 224.996009 
L 452.265894 227.279912 
L 454.84219 230.914917 
L 457.418487 232.371564 
L 458.706635 233.542279 
L 459.994783 233.823327 
L 461.282931 234.69217 
L 462.571079 235.025319 
L 463.859227 236.013939 
L 465.147375 236.264967 
L 466.435523 236.906282 
L 467.723671 238.751281 
L 469.01182 239.679733 
L 471.588116 242.340381 
L 472.876264 242.253809 
L 474.164412 244.047236 
L 475.45256 244.963042 
L 476.740708 244.604742 
L 479.317004 244.451468 
L 480.605153 246.232166 
L 481.893301 247.248774 
L 483.181449 246.80587 
L 484.469597 248.209989 
L 485.757745 248.720891 
L 487.045893 249.953952 
L 488.334041 250.753492 
L 489.622189 250.978405 
L 492.198486 253.130173 
L 493.486634 252.239146 
L 494.774782 253.650428 
L 496.06293 253.20452 
L 497.351078 253.575041 
L 498.639226 255.928207 
L 499.927374 256.759428 
L 501.215522 257.042364 
L 502.503671 256.690553 
L 503.791819 257.847453 
L 505.079967 259.558001 
L 506.368115 258.937908 
L 507.656263 259.982306 
L 510.232559 260.459378 
L 511.520707 260.653702 
L 512.808855 259.708108 
L 514.097004 258.425531 
L 515.385152 261.727804 
L 516.6733 262.649284 
L 517.961448 263.052992 
L 519.249596 262.595722 
L 520.537744 262.535346 
L 521.825892 262.671511 
L 523.11404 263.251122 
L 524.402188 264.359798 
L 525.690337 264.856998 
L 526.978485 265.191204 
L 528.266633 265.76476 
L 529.554781 267.252835 
L 530.842929 267.365306 
L 532.131077 266.473494 
L 533.419225 266.780896 
L 534.707373 267.539629 
L 537.28367 266.546535 
L 539.859966 270.521621 
L 541.148114 269.744262 
L 542.436262 270.772145 
L 543.72441 270.951786 
L 545.012558 271.477447 
L 546.300706 271.26547 
L 547.588855 272.896392 
L 548.877003 272.741127 
L 550.165151 273.662323 
L 551.453299 273.546147 
L 555.317743 274.35792 
L 556.605891 275.208395 
L 557.894039 274.863872 
L 559.182188 276.007597 
L 560.470336 276.073855 
L 561.758484 273.903898 
L 563.046632 273.687149 
L 564.33478 275.865384 
L 565.622928 277.340357 
L 566.911076 278.066576 
L 568.199224 278.201742 
L 569.487372 278.707707 
L 570.775521 278.292593 
L 573.351817 279.360462 
L 574.639965 279.486155 
L 575.928113 280.139338 
L 577.216261 278.800426 
L 579.792557 280.5706 
L 581.080705 282.40109 
L 582.368854 282.071135 
L 584.94515 283.162777 
L 586.233298 281.088742 
L 587.521446 281.153479 
L 588.809594 281.812341 
L 590.097742 283.615541 
L 591.38589 283.875072 
L 592.674039 283.951934 
L 593.962187 285.10275 
L 595.250335 286.027395 
L 596.538483 286.636676 
L 597.826631 285.674445 
L 599.114779 286.556192 
L 600.402927 285.428875 
L 601.691075 287.726056 
L 602.979223 287.479643 
L 604.267372 288.250724 
L 605.55552 288.514358 
L 606.843668 289.655718 
L 608.131816 289.413273 
L 609.419964 289.843576 
L 610.708112 289.426893 
L 611.99626 290.569111 
L 613.284408 290.018585 
L 614.572556 289.872268 
L 615.860705 291.342609 
L 617.148853 288.305578 
L 618.437001 290.256212 
L 619.725149 290.221379 
L 621.013297 292.066019 
L 622.301445 292.032133 
L 624.877741 292.621195 
L 626.165889 292.8281 
L 627.454038 292.589061 
L 628.742186 293.845937 
L 630.030334 293.487459 
L 631.318482 294.245688 
L 632.60663 294.300458 
L 633.894778 294.615931 
L 635.182926 294.559374 
L 636.471074 294.854664 
L 636.471074 294.854664 
" clip-path="url(#pbbdb49f48d)" style="fill: none; stroke: #ff7f0e; stroke-width: 1.5; stroke-linecap: square"/>
   </g>
   <g id="line2d_65">
    <path d="M 405.892562 55.8 
L 407.18071 76.663733 
L 408.468858 89.572851 
L 409.757006 104.638151 
L 411.045154 130.282437 
L 412.333303 144.028304 
L 414.909599 157.001563 
L 416.197747 164.612453 
L 417.485895 170.082281 
L 418.774043 179.011608 
L 420.062191 182.298473 
L 421.350339 187.585961 
L 422.638487 189.021847 
L 423.926636 193.69071 
L 425.214784 194.976882 
L 427.79108 200.574069 
L 429.079228 204.969713 
L 430.367376 206.735866 
L 431.655524 207.625764 
L 432.943672 208.82253 
L 434.23182 210.858583 
L 435.519969 213.930729 
L 436.808117 214.749772 
L 438.096265 217.356847 
L 439.384413 218.294491 
L 440.672561 219.927803 
L 441.960709 221.34633 
L 443.248857 221.493526 
L 444.537005 222.661774 
L 445.825154 223.154932 
L 448.40145 226.597758 
L 450.977746 228.72556 
L 452.265894 229.392467 
L 453.554042 231.256982 
L 454.84219 232.838696 
L 456.130338 233.438221 
L 457.418487 233.689839 
L 458.706635 234.419058 
L 459.994783 236.302238 
L 462.571079 240.508879 
L 463.859227 242.390256 
L 465.147375 241.749365 
L 466.435523 243.748247 
L 467.723671 243.403333 
L 469.01182 244.93272 
L 470.299968 245.457098 
L 471.588116 246.925322 
L 472.876264 246.886284 
L 474.164412 248.654528 
L 475.45256 249.810351 
L 476.740708 248.728353 
L 478.028856 250.649177 
L 479.317004 250.171453 
L 480.605153 251.511745 
L 481.893301 253.127136 
L 483.181449 252.448181 
L 484.469597 253.772254 
L 485.757745 254.851703 
L 487.045893 256.930219 
L 488.334041 256.640142 
L 489.622189 257.629678 
L 490.910338 255.328085 
L 492.198486 259.232995 
L 493.486634 259.327951 
L 494.774782 260.064092 
L 496.06293 259.591111 
L 497.351078 262.046372 
L 498.639226 254.390154 
L 499.927374 265.002482 
L 501.215522 265.096961 
L 502.503671 265.714163 
L 503.791819 265.676596 
L 505.079967 264.03169 
L 506.368115 267.342879 
L 507.656263 267.282476 
L 508.944411 268.406729 
L 510.232559 267.63765 
L 511.520707 270.328844 
L 512.808855 269.425852 
L 514.097004 270.760392 
L 515.385152 270.574491 
L 516.6733 271.139626 
L 517.961448 271.942023 
L 519.249596 271.904979 
L 520.537744 272.670067 
L 523.11404 270.939954 
L 524.402188 273.919854 
L 526.978485 275.216885 
L 528.266633 275.674187 
L 529.554781 275.443649 
L 530.842929 274.897368 
L 532.131077 275.832564 
L 533.419225 276.31615 
L 534.707373 276.383666 
L 535.995521 276.060515 
L 537.28367 273.499124 
L 538.571818 276.075271 
L 539.859966 277.942968 
L 541.148114 281.084514 
L 542.436262 282.499176 
L 543.72441 282.571242 
L 545.012558 280.540853 
L 546.300706 281.866509 
L 547.588855 281.805897 
L 548.877003 283.366412 
L 550.165151 284.206457 
L 551.453299 284.025687 
L 552.741447 284.207819 
L 554.029595 285.127132 
L 555.317743 285.57643 
L 557.894039 288.169723 
L 559.182188 287.010882 
L 560.470336 284.555802 
L 561.758484 285.667045 
L 563.046632 285.463547 
L 564.33478 286.994387 
L 565.622928 283.781734 
L 566.911076 289.073997 
L 568.199224 289.654388 
L 569.487372 288.998555 
L 570.775521 289.276153 
L 572.063669 288.758975 
L 573.351817 289.978216 
L 574.639965 289.145887 
L 575.928113 290.27571 
L 577.216261 290.617801 
L 578.504409 290.211019 
L 579.792557 290.655127 
L 581.080705 290.791074 
L 582.368854 291.943474 
L 583.657002 292.434221 
L 584.94515 291.031772 
L 586.233298 292.22331 
L 587.521446 295.778842 
L 588.809594 295.608963 
L 590.097742 295.261234 
L 591.38589 296.188042 
L 592.674039 294.746689 
L 593.962187 295.74052 
L 595.250335 297.544991 
L 596.538483 297.619956 
L 597.826631 295.762656 
L 599.114779 297.68999 
L 600.402927 298.294184 
L 601.691075 298.294009 
L 602.979223 298.616113 
L 604.267372 297.835549 
L 605.55552 297.959176 
L 606.843668 299.772906 
L 608.131816 298.474402 
L 609.419964 299.546556 
L 610.708112 299.084565 
L 611.99626 299.745637 
L 613.284408 299.409256 
L 614.572556 298.215849 
L 615.860705 300.209056 
L 617.148853 301.226886 
L 618.437001 304.291199 
L 619.725149 303.523742 
L 621.013297 304.219147 
L 622.301445 305.245556 
L 623.589593 303.702879 
L 624.877741 304.947517 
L 626.165889 302.066447 
L 627.454038 304.39078 
L 628.742186 304.077768 
L 630.030334 304.015372 
L 631.318482 304.864521 
L 632.60663 304.567316 
L 633.894778 304.889229 
L 635.182926 307.8 
L 636.471074 307.640756 
L 636.471074 307.640756 
" clip-path="url(#pbbdb49f48d)" style="fill: none; stroke: #2ca02c; stroke-width: 1.5; stroke-linecap: square"/>
   </g>
   <g id="line2d_66">
    <path d="M 405.892562 57.762211 
L 407.18071 80.941629 
L 408.468858 92.073587 
L 409.757006 105.519939 
L 411.045154 129.271244 
L 412.333303 143.024998 
L 413.621451 150.473758 
L 414.909599 157.00445 
L 416.197747 164.503032 
L 417.485895 170.751452 
L 418.774043 179.10812 
L 420.062191 182.11373 
L 421.350339 187.670195 
L 422.638487 189.695474 
L 423.926636 194.858457 
L 425.214784 196.459312 
L 429.079228 202.52721 
L 430.367376 206.406083 
L 432.943672 210.222735 
L 434.23182 213.439342 
L 435.519969 214.919107 
L 436.808117 216.876836 
L 438.096265 218.173215 
L 439.384413 217.852829 
L 440.672561 220.001506 
L 441.960709 221.028036 
L 443.248857 222.255844 
L 444.537005 223.104992 
L 445.825154 224.296346 
L 447.113302 226.69756 
L 448.40145 227.052466 
L 449.689598 228.472379 
L 450.977746 230.366642 
L 452.265894 231.821912 
L 453.554042 232.395055 
L 454.84219 232.574925 
L 456.130338 233.470087 
L 457.418487 234.626484 
L 459.994783 236.483786 
L 461.282931 238.321399 
L 462.571079 238.638598 
L 463.859227 239.226732 
L 465.147375 240.427022 
L 466.435523 240.355344 
L 467.723671 241.40162 
L 469.01182 241.630953 
L 470.299968 242.463958 
L 471.588116 242.840981 
L 476.740708 248.060833 
L 479.317004 248.231333 
L 483.181449 250.518887 
L 484.469597 250.017554 
L 485.757745 251.440616 
L 487.045893 251.883013 
L 488.334041 251.581002 
L 489.622189 252.608078 
L 490.910338 253.302037 
L 492.198486 253.839607 
L 493.486634 253.6614 
L 494.774782 254.757061 
L 496.06293 254.752609 
L 497.351078 255.719264 
L 498.639226 256.31287 
L 499.927374 256.360706 
L 501.215522 256.859385 
L 502.503671 257.002937 
L 503.791819 258.645635 
L 505.079967 259.480978 
L 506.368115 259.517639 
L 507.656263 260.657126 
L 508.944411 260.908501 
L 510.232559 261.409433 
L 511.520707 261.677195 
L 512.808855 262.064982 
L 514.097004 263.035546 
L 515.385152 262.73273 
L 516.6733 259.685508 
L 517.961448 263.567135 
L 519.249596 265.571434 
L 520.537744 265.596549 
L 521.825892 265.235085 
L 524.402188 266.049803 
L 525.690337 266.925581 
L 526.978485 267.265385 
L 528.266633 267.419076 
L 529.554781 267.835922 
L 530.842929 266.642614 
L 532.131077 268.461447 
L 534.707373 269.424606 
L 535.995521 268.985605 
L 538.571818 270.832945 
L 539.859966 270.882413 
L 541.148114 271.931745 
L 542.436262 272.251932 
L 543.72441 272.940576 
L 545.012558 272.703751 
L 546.300706 273.717621 
L 547.588855 273.187161 
L 548.877003 273.699686 
L 550.165151 274.725582 
L 551.453299 273.214184 
L 552.741447 275.518196 
L 554.029595 275.194348 
L 555.317743 275.834748 
L 556.605891 277.464191 
L 557.894039 277.853585 
L 559.182188 276.333279 
L 560.470336 276.906883 
L 561.758484 278.416068 
L 564.33478 279.219593 
L 565.622928 279.402277 
L 568.199224 278.193026 
L 569.487372 279.136495 
L 570.775521 280.237198 
L 572.063669 279.288386 
L 573.351817 280.270845 
L 574.639965 280.936645 
L 575.928113 280.378405 
L 577.216261 281.743527 
L 578.504409 281.821475 
L 579.792557 282.683602 
L 581.080705 283.242352 
L 582.368854 283.275019 
L 583.657002 283.832885 
L 584.94515 282.882332 
L 587.521446 284.479525 
L 588.809594 284.499965 
L 590.097742 284.809786 
L 591.38589 286.964652 
L 593.962187 286.907869 
L 595.250335 286.868828 
L 596.538483 287.533326 
L 597.826631 286.804003 
L 599.114779 286.728922 
L 600.402927 288.073882 
L 601.691075 288.821672 
L 602.979223 288.528907 
L 604.267372 288.888169 
L 605.55552 289.846066 
L 606.843668 290.284308 
L 608.131816 288.651193 
L 609.419964 290.634496 
L 610.708112 290.892763 
L 611.99626 289.703906 
L 613.284408 290.701339 
L 614.572556 291.087902 
L 615.860705 290.145055 
L 617.148853 290.859867 
L 618.437001 291.286989 
L 621.013297 292.760872 
L 623.589593 294.016119 
L 624.877741 294.170865 
L 626.165889 294.581135 
L 627.454038 294.230952 
L 628.742186 294.364787 
L 630.030334 295.089511 
L 631.318482 294.244082 
L 632.60663 293.701003 
L 633.894778 294.569352 
L 635.182926 296.126854 
L 636.471074 295.738369 
L 636.471074 295.738369 
" clip-path="url(#pbbdb49f48d)" style="fill: none; stroke: #d62728; stroke-width: 1.5; stroke-linecap: square"/>
   </g>
   <g id="line2d_67">
    <path d="M 405.892562 57.653366 
L 407.18071 82.47223 
L 408.468858 93.610459 
L 409.757006 109.141915 
L 411.045154 133.328876 
L 412.333303 143.317299 
L 413.621451 149.741618 
L 414.909599 156.985422 
L 417.485895 174.274572 
L 418.774043 179.112626 
L 420.062191 183.417235 
L 421.350339 184.520838 
L 422.638487 186.76921 
L 423.926636 191.248159 
L 425.214784 196.666109 
L 426.502932 202.987572 
L 427.79108 204.421816 
L 429.079228 206.236436 
L 430.367376 208.540943 
L 431.655524 206.93066 
L 434.23182 212.957448 
L 435.519969 211.581034 
L 436.808117 214.947935 
L 439.384413 219.449478 
L 440.672561 220.705308 
L 441.960709 223.216102 
L 443.248857 224.261544 
L 444.537005 225.132053 
L 445.825154 225.408622 
L 447.113302 226.50567 
L 448.40145 222.297189 
L 449.689598 227.248132 
L 452.265894 231.590672 
L 453.554042 231.354781 
L 454.84219 231.702982 
L 456.130338 233.864572 
L 457.418487 231.940689 
L 458.706635 235.591886 
L 459.994783 237.475461 
L 461.282931 237.792112 
L 462.571079 236.5016 
L 463.859227 238.690085 
L 465.147375 239.650815 
L 466.435523 241.299163 
L 467.723671 242.690452 
L 469.01182 241.683561 
L 470.299968 243.551153 
L 471.588116 243.311419 
L 472.876264 245.108398 
L 474.164412 245.26751 
L 475.45256 245.868012 
L 476.740708 247.514296 
L 478.028856 247.338519 
L 479.317004 249.985738 
L 480.605153 252.201541 
L 481.893301 251.26623 
L 483.181449 253.066453 
L 484.469597 252.294671 
L 485.757745 253.956315 
L 487.045893 253.224888 
L 488.334041 254.666507 
L 489.622189 254.169784 
L 490.910338 256.004991 
L 492.198486 256.331807 
L 493.486634 256.209183 
L 496.06293 256.899827 
L 497.351078 257.848979 
L 498.639226 258.309464 
L 499.927374 257.208579 
L 501.215522 259.313665 
L 502.503671 259.392382 
L 503.791819 259.663616 
L 505.079967 261.789304 
L 506.368115 262.674183 
L 507.656263 262.51964 
L 508.944411 263.365322 
L 510.232559 264.754312 
L 511.520707 264.988142 
L 512.808855 264.401308 
L 514.097004 265.478079 
L 515.385152 265.57683 
L 516.6733 262.341449 
L 517.961448 265.948003 
L 519.249596 267.373849 
L 520.537744 267.605655 
L 521.825892 266.571286 
L 523.11404 268.257118 
L 524.402188 267.801114 
L 525.690337 268.672619 
L 526.978485 267.206037 
L 528.266633 270.029006 
L 529.554781 269.508328 
L 530.842929 269.505703 
L 532.131077 270.662254 
L 533.419225 271.064646 
L 534.707373 270.920771 
L 535.995521 271.546267 
L 537.28367 271.696437 
L 538.571818 272.408626 
L 539.859966 273.87226 
L 541.148114 273.725592 
L 542.436262 269.04629 
L 543.72441 277.563054 
L 545.012558 278.981722 
L 546.300706 279.042508 
L 547.588855 279.448959 
L 548.877003 276.444821 
L 550.165151 279.976237 
L 551.453299 280.022808 
L 552.741447 280.200533 
L 554.029595 280.560387 
L 555.317743 276.770657 
L 556.605891 282.031419 
L 557.894039 283.428129 
L 559.182188 280.963298 
L 560.470336 283.868285 
L 561.758484 283.455182 
L 563.046632 283.955819 
L 564.33478 281.959572 
L 565.622928 284.531297 
L 566.911076 283.155362 
L 568.199224 286.262077 
L 569.487372 286.06739 
L 570.775521 286.338424 
L 572.063669 286.225494 
L 573.351817 284.291541 
L 574.639965 286.903012 
L 575.928113 286.9639 
L 577.216261 287.660925 
L 578.504409 286.79465 
L 579.792557 291.977335 
L 581.080705 291.579807 
L 582.368854 290.048737 
L 583.657002 292.724319 
L 584.94515 293.080145 
L 586.233298 293.009898 
L 587.521446 293.242395 
L 588.809594 294.104279 
L 590.097742 294.18324 
L 591.38589 293.063198 
L 592.674039 294.643362 
L 593.962187 293.476371 
L 595.250335 294.82483 
L 596.538483 294.42172 
L 597.826631 295.106703 
L 600.402927 295.141059 
L 601.691075 293.795101 
L 602.979223 295.841601 
L 605.55552 295.511858 
L 606.843668 296.687465 
L 608.131816 296.479659 
L 609.419964 295.365816 
L 610.708112 297.001925 
L 611.99626 296.792626 
L 613.284408 297.020039 
L 614.572556 297.086802 
L 615.860705 298.437896 
L 617.148853 299.439101 
L 618.437001 298.123618 
L 619.725149 299.458095 
L 621.013297 300.177483 
L 622.301445 299.683257 
L 623.589593 300.432816 
L 624.877741 301.997501 
L 626.165889 299.965979 
L 627.454038 302.705388 
L 628.742186 302.615179 
L 630.030334 301.779181 
L 631.318482 302.328883 
L 632.60663 302.747918 
L 633.894778 302.326108 
L 635.182926 302.646105 
L 636.471074 303.186083 
L 636.471074 303.186083 
" clip-path="url(#pbbdb49f48d)" style="fill: none; stroke: #9467bd; stroke-width: 1.5; stroke-linecap: square"/>
   </g>
   <g id="patch_9">
    <path d="M 394.363636 320.4 
L 394.363636 43.2 
" style="fill: none; stroke: #000000; stroke-width: 0.8; stroke-linejoin: miter; stroke-linecap: square"/>
   </g>
   <g id="patch_10">
    <path d="M 648 320.4 
L 648 43.2 
" style="fill: none; stroke: #000000; stroke-width: 0.8; stroke-linejoin: miter; stroke-linecap: square"/>
   </g>
   <g id="patch_11">
    <path d="M 394.363636 320.4 
L 648 320.4 
" style="fill: none; stroke: #000000; stroke-width: 0.8; stroke-linejoin: miter; stroke-linecap: square"/>
   </g>
   <g id="patch_12">
    <path d="M 394.363636 43.2 
L 648 43.2 
" style="fill: none; stroke: #000000; stroke-width: 0.8; stroke-linejoin: miter; stroke-linecap: square"/>
   </g>
   <g id="legend_2">
    <g id="patch_13">
     <path d="M 571.915625 124.590625 
L 641 124.590625 
Q 643 124.590625 643 122.590625 
L 643 50.2 
Q 643 48.2 641 48.2 
L 571.915625 48.2 
Q 569.915625 48.2 569.915625 50.2 
L 569.915625 122.590625 
Q 569.915625 124.590625 571.915625 124.590625 
z
" style="fill: #ffffff; opacity: 0.8; stroke: #cccccc; stroke-linejoin: miter"/>
    </g>
    <g id="line2d_68">
     <path d="M 573.915625 56.298437 
L 583.915625 56.298437 
L 593.915625 56.298437 
" style="fill: none; stroke: #1f77b4; stroke-width: 1.5; stroke-linecap: square"/>
    </g>
    <g id="text_30">
     <!-- RBCD -->
     <g transform="translate(601.915625 59.798437)scale(0.1 -0.1)">
      <use xlink:href="#DejaVuSans-52"/>
      <use xlink:href="#DejaVuSans-42" x="69.482422"/>
      <use xlink:href="#DejaVuSans-43" x="136.335938"/>
      <use xlink:href="#DejaVuSans-44" x="206.160156"/>
     </g>
    </g>
    <g id="line2d_69">
     <path d="M 573.915625 70.976562 
L 583.915625 70.976562 
L 593.915625 70.976562 
" style="fill: none; stroke: #ff7f0e; stroke-width: 1.5; stroke-linecap: square"/>
    </g>
    <g id="text_31">
     <!-- strong -->
     <g transform="translate(601.915625 74.476562)scale(0.1 -0.1)">
      <use xlink:href="#DejaVuSans-73"/>
      <use xlink:href="#DejaVuSans-74" x="52.099609"/>
      <use xlink:href="#DejaVuSans-72" x="91.308594"/>
      <use xlink:href="#DejaVuSans-6f" x="130.171875"/>
      <use xlink:href="#DejaVuSans-6e" x="191.353516"/>
      <use xlink:href="#DejaVuSans-67" x="254.732422"/>
     </g>
    </g>
    <g id="line2d_70">
     <path d="M 573.915625 85.654687 
L 583.915625 85.654687 
L 593.915625 85.654687 
" style="fill: none; stroke: #2ca02c; stroke-width: 1.5; stroke-linecap: square"/>
    </g>
    <g id="text_32">
     <!-- fast -->
     <g transform="translate(601.915625 89.154687)scale(0.1 -0.1)">
      <use xlink:href="#DejaVuSans-66"/>
      <use xlink:href="#DejaVuSans-61" x="35.205078"/>
      <use xlink:href="#DejaVuSans-73" x="96.484375"/>
      <use xlink:href="#DejaVuSans-74" x="148.583984"/>
     </g>
    </g>
    <g id="line2d_71">
     <path d="M 573.915625 100.332812 
L 583.915625 100.332812 
L 593.915625 100.332812 
" style="fill: none; stroke: #d62728; stroke-width: 1.5; stroke-linecap: square"/>
    </g>
    <g id="text_33">
     <!-- eco -->
     <g transform="translate(601.915625 103.832812)scale(0.1 -0.1)">
      <use xlink:href="#DejaVuSans-65"/>
      <use xlink:href="#DejaVuSans-63" x="61.523438"/>
      <use xlink:href="#DejaVuSans-6f" x="116.503906"/>
     </g>
    </g>
    <g id="line2d_72">
     <path d="M 573.915625 115.010937 
L 583.915625 115.010937 
L 593.915625 115.010937 
" style="fill: none; stroke: #9467bd; stroke-width: 1.5; stroke-linecap: square"/>
    </g>
    <g id="text_34">
     <!-- highest -->
     <g transform="translate(601.915625 118.510937)scale(0.1 -0.1)">
      <use xlink:href="#DejaVuSans-68"/>
      <use xlink:href="#DejaVuSans-69" x="63.378906"/>
      <use xlink:href="#DejaVuSans-67" x="91.162109"/>
      <use xlink:href="#DejaVuSans-68" x="154.638672"/>
      <use xlink:href="#DejaVuSans-65" x="218.017578"/>
      <use xlink:href="#DejaVuSans-73" x="279.541016"/>
      <use xlink:href="#DejaVuSans-74" x="331.640625"/>
     </g>
    </g>
   </g>
  </g>
 </g>
 <defs>
  <clipPath id="pd18b66220b">
   <rect x="90" y="43.2" width="253.636364" height="277.2"/>
  </clipPath>
  <clipPath id="pbbdb49f48d">
   <rect x="394.363636" y="43.2" width="253.636364" height="277.2"/>
  </clipPath>
 </defs>
</svg>
