<?xml version="1.0" encoding="utf-8" standalone="no"?>
<!DOCTYPE svg PUBLIC "-//W3C//DTD SVG 1.1//EN"
  "http://www.w3.org/Graphics/SVG/1.1/DTD/svg11.dtd">
<svg xmlns:xlink="http://www.w3.org/1999/xlink" width="720pt" height="360pt" viewBox="0 0 720 360" xmlns="http://www.w3.org/2000/svg" version="1.1">
 <metadata>
  <rdf:RDF xmlns:dc="http://purl.org/dc/elements/1.1/" xmlns:cc="http://creativecommons.org/ns#" xmlns:rdf="http://www.w3.org/1999/02/22-rdf-syntax-ns#">
   <cc:Work>
    <dc:type rdf:resource="http://purl.org/dc/dcmitype/StillImage"/>
    <dc:date>2023-11-21T22:11:11.208173</dc:date>
    <dc:format>image/svg+xml</dc:format>
    <dc:creator>
     <cc:Agent>
      <dc:title>Matplotlib v3.5.3, https://matplotlib.org/</dc:title>
     </cc:Agent>
    </dc:creator>
   </cc:Work>
  </rdf:RDF>
 </metadata>
 <defs>
  <style type="text/css">*{stroke-linejoin: round; stroke-linecap: butt}</style>
 </defs>
 <g id="figure_1">
  <g id="patch_1">
   <path d="M 0 360 
L 720 360 
L 720 0 
L 0 0 
z
" style="fill: #ffffff"/>
  </g>
  <g id="axes_1">
   <g id="patch_2">
    <path d="M 90 320.4 
L 343.636364 320.4 
L 343.636364 43.2 
L 90 43.2 
z
" style="fill: #ffffff"/>
   </g>
   <g id="matplotlib.axis_1">
    <g id="xtick_1">
     <g id="line2d_1">
      <defs>
       <path id="med53335c20" d="M 0 0 
L 0 3.5 
" style="stroke: #000000; stroke-width: 0.8"/>
      </defs>
      <g>
       <use xlink:href="#med53335c20" x="101.528926" y="320.4" style="stroke: #000000; stroke-width: 0.8"/>
      </g>
     </g>
     <g id="text_1">
      <!-- 0 -->
      <g transform="translate(98.347676 334.998438)scale(0.1 -0.1)">
       <defs>
        <path id="DejaVuSans-30" d="M 2034 4250 
Q 1547 4250 1301 3770 
Q 1056 3291 1056 2328 
Q 1056 1369 1301 889 
Q 1547 409 2034 409 
Q 2525 409 2770 889 
Q 3016 1369 3016 2328 
Q 3016 3291 2770 3770 
Q 2525 4250 2034 4250 
z
M 2034 4750 
Q 2819 4750 3233 4129 
Q 3647 3509 3647 2328 
Q 3647 1150 3233 529 
Q 2819 -91 2034 -91 
Q 1250 -91 836 529 
Q 422 1150 422 2328 
Q 422 3509 836 4129 
Q 1250 4750 2034 4750 
z
" transform="scale(0.015625)"/>
       </defs>
       <use xlink:href="#DejaVuSans-30"/>
      </g>
     </g>
    </g>
    <g id="xtick_2">
     <g id="line2d_2">
      <g>
       <use xlink:href="#med53335c20" x="133.732628" y="320.4" style="stroke: #000000; stroke-width: 0.8"/>
      </g>
     </g>
     <g id="text_2">
      <!-- 25 -->
      <g transform="translate(127.370128 334.998438)scale(0.1 -0.1)">
       <defs>
        <path id="DejaVuSans-32" d="M 1228 531 
L 3431 531 
L 3431 0 
L 469 0 
L 469 531 
Q 828 903 1448 1529 
Q 2069 2156 2228 2338 
Q 2531 2678 2651 2914 
Q 2772 3150 2772 3378 
Q 2772 3750 2511 3984 
Q 2250 4219 1831 4219 
Q 1534 4219 1204 4116 
Q 875 4013 500 3803 
L 500 4441 
Q 881 4594 1212 4672 
Q 1544 4750 1819 4750 
Q 2544 4750 2975 4387 
Q 3406 4025 3406 3419 
Q 3406 3131 3298 2873 
Q 3191 2616 2906 2266 
Q 2828 2175 2409 1742 
Q 1991 1309 1228 531 
z
" transform="scale(0.015625)"/>
        <path id="DejaVuSans-35" d="M 691 4666 
L 3169 4666 
L 3169 4134 
L 1269 4134 
L 1269 2991 
Q 1406 3038 1543 3061 
Q 1681 3084 1819 3084 
Q 2600 3084 3056 2656 
Q 3513 2228 3513 1497 
Q 3513 744 3044 326 
Q 2575 -91 1722 -91 
Q 1428 -91 1123 -41 
Q 819 9 494 109 
L 494 744 
Q 775 591 1075 516 
Q 1375 441 1709 441 
Q 2250 441 2565 725 
Q 2881 1009 2881 1497 
Q 2881 1984 2565 2268 
Q 2250 2553 1709 2553 
Q 1456 2553 1204 2497 
Q 953 2441 691 2322 
L 691 4666 
z
" transform="scale(0.015625)"/>
       </defs>
       <use xlink:href="#DejaVuSans-32"/>
       <use xlink:href="#DejaVuSans-35" x="63.623047"/>
      </g>
     </g>
    </g>
    <g id="xtick_3">
     <g id="line2d_3">
      <g>
       <use xlink:href="#med53335c20" x="165.936331" y="320.4" style="stroke: #000000; stroke-width: 0.8"/>
      </g>
     </g>
     <g id="text_3">
      <!-- 50 -->
      <g transform="translate(159.573831 334.998438)scale(0.1 -0.1)">
       <use xlink:href="#DejaVuSans-35"/>
       <use xlink:href="#DejaVuSans-30" x="63.623047"/>
      </g>
     </g>
    </g>
    <g id="xtick_4">
     <g id="line2d_4">
      <g>
       <use xlink:href="#med53335c20" x="198.140034" y="320.4" style="stroke: #000000; stroke-width: 0.8"/>
      </g>
     </g>
     <g id="text_4">
      <!-- 75 -->
      <g transform="translate(191.777534 334.998438)scale(0.1 -0.1)">
       <defs>
        <path id="DejaVuSans-37" d="M 525 4666 
L 3525 4666 
L 3525 4397 
L 1831 0 
L 1172 0 
L 2766 4134 
L 525 4134 
L 525 4666 
z
" transform="scale(0.015625)"/>
       </defs>
       <use xlink:href="#DejaVuSans-37"/>
       <use xlink:href="#DejaVuSans-35" x="63.623047"/>
      </g>
     </g>
    </g>
    <g id="xtick_5">
     <g id="line2d_5">
      <g>
       <use xlink:href="#med53335c20" x="230.343737" y="320.4" style="stroke: #000000; stroke-width: 0.8"/>
      </g>
     </g>
     <g id="text_5">
      <!-- 100 -->
      <g transform="translate(220.799987 334.998438)scale(0.1 -0.1)">
       <defs>
        <path id="DejaVuSans-31" d="M 794 531 
L 1825 531 
L 1825 4091 
L 703 3866 
L 703 4441 
L 1819 4666 
L 2450 4666 
L 2450 531 
L 3481 531 
L 3481 0 
L 794 0 
L 794 531 
z
" transform="scale(0.015625)"/>
       </defs>
       <use xlink:href="#DejaVuSans-31"/>
       <use xlink:href="#DejaVuSans-30" x="63.623047"/>
       <use xlink:href="#DejaVuSans-30" x="127.246094"/>
      </g>
     </g>
    </g>
    <g id="xtick_6">
     <g id="line2d_6">
      <g>
       <use xlink:href="#med53335c20" x="262.54744" y="320.4" style="stroke: #000000; stroke-width: 0.8"/>
      </g>
     </g>
     <g id="text_6">
      <!-- 125 -->
      <g transform="translate(253.00369 334.998438)scale(0.1 -0.1)">
       <use xlink:href="#DejaVuSans-31"/>
       <use xlink:href="#DejaVuSans-32" x="63.623047"/>
       <use xlink:href="#DejaVuSans-35" x="127.246094"/>
      </g>
     </g>
    </g>
    <g id="xtick_7">
     <g id="line2d_7">
      <g>
       <use xlink:href="#med53335c20" x="294.751143" y="320.4" style="stroke: #000000; stroke-width: 0.8"/>
      </g>
     </g>
     <g id="text_7">
      <!-- 150 -->
      <g transform="translate(285.207393 334.998438)scale(0.1 -0.1)">
       <use xlink:href="#DejaVuSans-31"/>
       <use xlink:href="#DejaVuSans-35" x="63.623047"/>
       <use xlink:href="#DejaVuSans-30" x="127.246094"/>
      </g>
     </g>
    </g>
    <g id="xtick_8">
     <g id="line2d_8">
      <g>
       <use xlink:href="#med53335c20" x="326.954846" y="320.4" style="stroke: #000000; stroke-width: 0.8"/>
      </g>
     </g>
     <g id="text_8">
      <!-- 175 -->
      <g transform="translate(317.411096 334.998438)scale(0.1 -0.1)">
       <use xlink:href="#DejaVuSans-31"/>
       <use xlink:href="#DejaVuSans-37" x="63.623047"/>
       <use xlink:href="#DejaVuSans-35" x="127.246094"/>
      </g>
     </g>
    </g>
    <g id="text_9">
     <!-- iteration -->
     <g transform="translate(195.695526 348.676562)scale(0.1 -0.1)">
      <defs>
       <path id="DejaVuSans-69" d="M 603 3500 
L 1178 3500 
L 1178 0 
L 603 0 
L 603 3500 
z
M 603 4863 
L 1178 4863 
L 1178 4134 
L 603 4134 
L 603 4863 
z
" transform="scale(0.015625)"/>
       <path id="DejaVuSans-74" d="M 1172 4494 
L 1172 3500 
L 2356 3500 
L 2356 3053 
L 1172 3053 
L 1172 1153 
Q 1172 725 1289 603 
Q 1406 481 1766 481 
L 2356 481 
L 2356 0 
L 1766 0 
Q 1100 0 847 248 
Q 594 497 594 1153 
L 594 3053 
L 172 3053 
L 172 3500 
L 594 3500 
L 594 4494 
L 1172 4494 
z
" transform="scale(0.015625)"/>
       <path id="DejaVuSans-65" d="M 3597 1894 
L 3597 1613 
L 953 1613 
Q 991 1019 1311 708 
Q 1631 397 2203 397 
Q 2534 397 2845 478 
Q 3156 559 3463 722 
L 3463 178 
Q 3153 47 2828 -22 
Q 2503 -91 2169 -91 
Q 1331 -91 842 396 
Q 353 884 353 1716 
Q 353 2575 817 3079 
Q 1281 3584 2069 3584 
Q 2775 3584 3186 3129 
Q 3597 2675 3597 1894 
z
M 3022 2063 
Q 3016 2534 2758 2815 
Q 2500 3097 2075 3097 
Q 1594 3097 1305 2825 
Q 1016 2553 972 2059 
L 3022 2063 
z
" transform="scale(0.015625)"/>
       <path id="DejaVuSans-72" d="M 2631 2963 
Q 2534 3019 2420 3045 
Q 2306 3072 2169 3072 
Q 1681 3072 1420 2755 
Q 1159 2438 1159 1844 
L 1159 0 
L 581 0 
L 581 3500 
L 1159 3500 
L 1159 2956 
Q 1341 3275 1631 3429 
Q 1922 3584 2338 3584 
Q 2397 3584 2469 3576 
Q 2541 3569 2628 3553 
L 2631 2963 
z
" transform="scale(0.015625)"/>
       <path id="DejaVuSans-61" d="M 2194 1759 
Q 1497 1759 1228 1600 
Q 959 1441 959 1056 
Q 959 750 1161 570 
Q 1363 391 1709 391 
Q 2188 391 2477 730 
Q 2766 1069 2766 1631 
L 2766 1759 
L 2194 1759 
z
M 3341 1997 
L 3341 0 
L 2766 0 
L 2766 531 
Q 2569 213 2275 61 
Q 1981 -91 1556 -91 
Q 1019 -91 701 211 
Q 384 513 384 1019 
Q 384 1609 779 1909 
Q 1175 2209 1959 2209 
L 2766 2209 
L 2766 2266 
Q 2766 2663 2505 2880 
Q 2244 3097 1772 3097 
Q 1472 3097 1187 3025 
Q 903 2953 641 2809 
L 641 3341 
Q 956 3463 1253 3523 
Q 1550 3584 1831 3584 
Q 2591 3584 2966 3190 
Q 3341 2797 3341 1997 
z
" transform="scale(0.015625)"/>
       <path id="DejaVuSans-6f" d="M 1959 3097 
Q 1497 3097 1228 2736 
Q 959 2375 959 1747 
Q 959 1119 1226 758 
Q 1494 397 1959 397 
Q 2419 397 2687 759 
Q 2956 1122 2956 1747 
Q 2956 2369 2687 2733 
Q 2419 3097 1959 3097 
z
M 1959 3584 
Q 2709 3584 3137 3096 
Q 3566 2609 3566 1747 
Q 3566 888 3137 398 
Q 2709 -91 1959 -91 
Q 1206 -91 779 398 
Q 353 888 353 1747 
Q 353 2609 779 3096 
Q 1206 3584 1959 3584 
z
" transform="scale(0.015625)"/>
       <path id="DejaVuSans-6e" d="M 3513 2113 
L 3513 0 
L 2938 0 
L 2938 2094 
Q 2938 2591 2744 2837 
Q 2550 3084 2163 3084 
Q 1697 3084 1428 2787 
Q 1159 2491 1159 1978 
L 1159 0 
L 581 0 
L 581 3500 
L 1159 3500 
L 1159 2956 
Q 1366 3272 1645 3428 
Q 1925 3584 2291 3584 
Q 2894 3584 3203 3211 
Q 3513 2838 3513 2113 
z
" transform="scale(0.015625)"/>
      </defs>
      <use xlink:href="#DejaVuSans-69"/>
      <use xlink:href="#DejaVuSans-74" x="27.783203"/>
      <use xlink:href="#DejaVuSans-65" x="66.992188"/>
      <use xlink:href="#DejaVuSans-72" x="128.515625"/>
      <use xlink:href="#DejaVuSans-61" x="169.628906"/>
      <use xlink:href="#DejaVuSans-74" x="230.908203"/>
      <use xlink:href="#DejaVuSans-69" x="270.117188"/>
      <use xlink:href="#DejaVuSans-6f" x="297.900391"/>
      <use xlink:href="#DejaVuSans-6e" x="359.082031"/>
     </g>
    </g>
   </g>
   <g id="matplotlib.axis_2">
    <g id="ytick_1">
     <g id="line2d_9">
      <defs>
       <path id="mb73ba11fb7" d="M 0 0 
L -3.5 0 
" style="stroke: #000000; stroke-width: 0.8"/>
      </defs>
      <g>
       <use xlink:href="#mb73ba11fb7" x="90" y="314.355937" style="stroke: #000000; stroke-width: 0.8"/>
      </g>
     </g>
     <g id="text_10">
      <!-- $\mathdefault{10^{-2}}$ -->
      <g transform="translate(59.5 318.155156)scale(0.1 -0.1)">
       <defs>
        <path id="DejaVuSans-2212" d="M 678 2272 
L 4684 2272 
L 4684 1741 
L 678 1741 
L 678 2272 
z
" transform="scale(0.015625)"/>
       </defs>
       <use xlink:href="#DejaVuSans-31" transform="translate(0 0.765625)"/>
       <use xlink:href="#DejaVuSans-30" transform="translate(63.623047 0.765625)"/>
       <use xlink:href="#DejaVuSans-2212" transform="translate(128.203125 39.046875)scale(0.7)"/>
       <use xlink:href="#DejaVuSans-32" transform="translate(186.855469 39.046875)scale(0.7)"/>
      </g>
     </g>
    </g>
    <g id="ytick_2">
     <g id="line2d_10">
      <g>
       <use xlink:href="#mb73ba11fb7" x="90" y="277.125598" style="stroke: #000000; stroke-width: 0.8"/>
      </g>
     </g>
     <g id="text_11">
      <!-- $\mathdefault{10^{-1}}$ -->
      <g transform="translate(59.5 280.924817)scale(0.1 -0.1)">
       <use xlink:href="#DejaVuSans-31" transform="translate(0 0.684375)"/>
       <use xlink:href="#DejaVuSans-30" transform="translate(63.623047 0.684375)"/>
       <use xlink:href="#DejaVuSans-2212" transform="translate(128.203125 38.965625)scale(0.7)"/>
       <use xlink:href="#DejaVuSans-31" transform="translate(186.855469 38.965625)scale(0.7)"/>
      </g>
     </g>
    </g>
    <g id="ytick_3">
     <g id="line2d_11">
      <g>
       <use xlink:href="#mb73ba11fb7" x="90" y="239.895259" style="stroke: #000000; stroke-width: 0.8"/>
      </g>
     </g>
     <g id="text_12">
      <!-- $\mathdefault{10^{0}}$ -->
      <g transform="translate(65.4 243.694478)scale(0.1 -0.1)">
       <use xlink:href="#DejaVuSans-31" transform="translate(0 0.765625)"/>
       <use xlink:href="#DejaVuSans-30" transform="translate(63.623047 0.765625)"/>
       <use xlink:href="#DejaVuSans-30" transform="translate(128.203125 39.046875)scale(0.7)"/>
      </g>
     </g>
    </g>
    <g id="ytick_4">
     <g id="line2d_12">
      <g>
       <use xlink:href="#mb73ba11fb7" x="90" y="202.66492" style="stroke: #000000; stroke-width: 0.8"/>
      </g>
     </g>
     <g id="text_13">
      <!-- $\mathdefault{10^{1}}$ -->
      <g transform="translate(65.4 206.464139)scale(0.1 -0.1)">
       <use xlink:href="#DejaVuSans-31" transform="translate(0 0.684375)"/>
       <use xlink:href="#DejaVuSans-30" transform="translate(63.623047 0.684375)"/>
       <use xlink:href="#DejaVuSans-31" transform="translate(128.203125 38.965625)scale(0.7)"/>
      </g>
     </g>
    </g>
    <g id="ytick_5">
     <g id="line2d_13">
      <g>
       <use xlink:href="#mb73ba11fb7" x="90" y="165.434581" style="stroke: #000000; stroke-width: 0.8"/>
      </g>
     </g>
     <g id="text_14">
      <!-- $\mathdefault{10^{2}}$ -->
      <g transform="translate(65.4 169.2338)scale(0.1 -0.1)">
       <use xlink:href="#DejaVuSans-31" transform="translate(0 0.765625)"/>
       <use xlink:href="#DejaVuSans-30" transform="translate(63.623047 0.765625)"/>
       <use xlink:href="#DejaVuSans-32" transform="translate(128.203125 39.046875)scale(0.7)"/>
      </g>
     </g>
    </g>
    <g id="ytick_6">
     <g id="line2d_14">
      <g>
       <use xlink:href="#mb73ba11fb7" x="90" y="128.204242" style="stroke: #000000; stroke-width: 0.8"/>
      </g>
     </g>
     <g id="text_15">
      <!-- $\mathdefault{10^{3}}$ -->
      <g transform="translate(65.4 132.00346)scale(0.1 -0.1)">
       <defs>
        <path id="DejaVuSans-33" d="M 2597 2516 
Q 3050 2419 3304 2112 
Q 3559 1806 3559 1356 
Q 3559 666 3084 287 
Q 2609 -91 1734 -91 
Q 1441 -91 1130 -33 
Q 819 25 488 141 
L 488 750 
Q 750 597 1062 519 
Q 1375 441 1716 441 
Q 2309 441 2620 675 
Q 2931 909 2931 1356 
Q 2931 1769 2642 2001 
Q 2353 2234 1838 2234 
L 1294 2234 
L 1294 2753 
L 1863 2753 
Q 2328 2753 2575 2939 
Q 2822 3125 2822 3475 
Q 2822 3834 2567 4026 
Q 2313 4219 1838 4219 
Q 1578 4219 1281 4162 
Q 984 4106 628 3988 
L 628 4550 
Q 988 4650 1302 4700 
Q 1616 4750 1894 4750 
Q 2613 4750 3031 4423 
Q 3450 4097 3450 3541 
Q 3450 3153 3228 2886 
Q 3006 2619 2597 2516 
z
" transform="scale(0.015625)"/>
       </defs>
       <use xlink:href="#DejaVuSans-31" transform="translate(0 0.765625)"/>
       <use xlink:href="#DejaVuSans-30" transform="translate(63.623047 0.765625)"/>
       <use xlink:href="#DejaVuSans-33" transform="translate(128.203125 39.046875)scale(0.7)"/>
      </g>
     </g>
    </g>
    <g id="ytick_7">
     <g id="line2d_15">
      <g>
       <use xlink:href="#mb73ba11fb7" x="90" y="90.973902" style="stroke: #000000; stroke-width: 0.8"/>
      </g>
     </g>
     <g id="text_16">
      <!-- $\mathdefault{10^{4}}$ -->
      <g transform="translate(65.4 94.773121)scale(0.1 -0.1)">
       <defs>
        <path id="DejaVuSans-34" d="M 2419 4116 
L 825 1625 
L 2419 1625 
L 2419 4116 
z
M 2253 4666 
L 3047 4666 
L 3047 1625 
L 3713 1625 
L 3713 1100 
L 3047 1100 
L 3047 0 
L 2419 0 
L 2419 1100 
L 313 1100 
L 313 1709 
L 2253 4666 
z
" transform="scale(0.015625)"/>
       </defs>
       <use xlink:href="#DejaVuSans-31" transform="translate(0 0.684375)"/>
       <use xlink:href="#DejaVuSans-30" transform="translate(63.623047 0.684375)"/>
       <use xlink:href="#DejaVuSans-34" transform="translate(128.203125 38.965625)scale(0.7)"/>
      </g>
     </g>
    </g>
    <g id="ytick_8">
     <g id="line2d_16">
      <g>
       <use xlink:href="#mb73ba11fb7" x="90" y="53.743563" style="stroke: #000000; stroke-width: 0.8"/>
      </g>
     </g>
     <g id="text_17">
      <!-- $\mathdefault{10^{5}}$ -->
      <g transform="translate(65.4 57.542782)scale(0.1 -0.1)">
       <use xlink:href="#DejaVuSans-31" transform="translate(0 0.684375)"/>
       <use xlink:href="#DejaVuSans-30" transform="translate(63.623047 0.684375)"/>
       <use xlink:href="#DejaVuSans-35" transform="translate(128.203125 38.965625)scale(0.7)"/>
      </g>
     </g>
    </g>
    <g id="ytick_9">
     <g id="line2d_17">
      <defs>
       <path id="m5688abc6d1" d="M 0 0 
L -2 0 
" style="stroke: #000000; stroke-width: 0.6"/>
      </defs>
      <g>
       <use xlink:href="#m5688abc6d1" x="90" y="320.12299" style="stroke: #000000; stroke-width: 0.6"/>
      </g>
     </g>
    </g>
    <g id="ytick_10">
     <g id="line2d_18">
      <g>
       <use xlink:href="#m5688abc6d1" x="90" y="317.96393" style="stroke: #000000; stroke-width: 0.6"/>
      </g>
     </g>
    </g>
    <g id="ytick_11">
     <g id="line2d_19">
      <g>
       <use xlink:href="#m5688abc6d1" x="90" y="316.059504" style="stroke: #000000; stroke-width: 0.6"/>
      </g>
     </g>
    </g>
    <g id="ytick_12">
     <g id="line2d_20">
      <g>
       <use xlink:href="#m5688abc6d1" x="90" y="303.148489" style="stroke: #000000; stroke-width: 0.6"/>
      </g>
     </g>
    </g>
    <g id="ytick_13">
     <g id="line2d_21">
      <g>
       <use xlink:href="#m5688abc6d1" x="90" y="296.592551" style="stroke: #000000; stroke-width: 0.6"/>
      </g>
     </g>
    </g>
    <g id="ytick_14">
     <g id="line2d_22">
      <g>
       <use xlink:href="#m5688abc6d1" x="90" y="291.94104" style="stroke: #000000; stroke-width: 0.6"/>
      </g>
     </g>
    </g>
    <g id="ytick_15">
     <g id="line2d_23">
      <g>
       <use xlink:href="#m5688abc6d1" x="90" y="288.333047" style="stroke: #000000; stroke-width: 0.6"/>
      </g>
     </g>
    </g>
    <g id="ytick_16">
     <g id="line2d_24">
      <g>
       <use xlink:href="#m5688abc6d1" x="90" y="285.385102" style="stroke: #000000; stroke-width: 0.6"/>
      </g>
     </g>
    </g>
    <g id="ytick_17">
     <g id="line2d_25">
      <g>
       <use xlink:href="#m5688abc6d1" x="90" y="282.892651" style="stroke: #000000; stroke-width: 0.6"/>
      </g>
     </g>
    </g>
    <g id="ytick_18">
     <g id="line2d_26">
      <g>
       <use xlink:href="#m5688abc6d1" x="90" y="280.733591" style="stroke: #000000; stroke-width: 0.6"/>
      </g>
     </g>
    </g>
    <g id="ytick_19">
     <g id="line2d_27">
      <g>
       <use xlink:href="#m5688abc6d1" x="90" y="278.829165" style="stroke: #000000; stroke-width: 0.6"/>
      </g>
     </g>
    </g>
    <g id="ytick_20">
     <g id="line2d_28">
      <g>
       <use xlink:href="#m5688abc6d1" x="90" y="265.918149" style="stroke: #000000; stroke-width: 0.6"/>
      </g>
     </g>
    </g>
    <g id="ytick_21">
     <g id="line2d_29">
      <g>
       <use xlink:href="#m5688abc6d1" x="90" y="259.362212" style="stroke: #000000; stroke-width: 0.6"/>
      </g>
     </g>
    </g>
    <g id="ytick_22">
     <g id="line2d_30">
      <g>
       <use xlink:href="#m5688abc6d1" x="90" y="254.710701" style="stroke: #000000; stroke-width: 0.6"/>
      </g>
     </g>
    </g>
    <g id="ytick_23">
     <g id="line2d_31">
      <g>
       <use xlink:href="#m5688abc6d1" x="90" y="251.102708" style="stroke: #000000; stroke-width: 0.6"/>
      </g>
     </g>
    </g>
    <g id="ytick_24">
     <g id="line2d_32">
      <g>
       <use xlink:href="#m5688abc6d1" x="90" y="248.154763" style="stroke: #000000; stroke-width: 0.6"/>
      </g>
     </g>
    </g>
    <g id="ytick_25">
     <g id="line2d_33">
      <g>
       <use xlink:href="#m5688abc6d1" x="90" y="245.662312" style="stroke: #000000; stroke-width: 0.6"/>
      </g>
     </g>
    </g>
    <g id="ytick_26">
     <g id="line2d_34">
      <g>
       <use xlink:href="#m5688abc6d1" x="90" y="243.503252" style="stroke: #000000; stroke-width: 0.6"/>
      </g>
     </g>
    </g>
    <g id="ytick_27">
     <g id="line2d_35">
      <g>
       <use xlink:href="#m5688abc6d1" x="90" y="241.598826" style="stroke: #000000; stroke-width: 0.6"/>
      </g>
     </g>
    </g>
    <g id="ytick_28">
     <g id="line2d_36">
      <g>
       <use xlink:href="#m5688abc6d1" x="90" y="228.68781" style="stroke: #000000; stroke-width: 0.6"/>
      </g>
     </g>
    </g>
    <g id="ytick_29">
     <g id="line2d_37">
      <g>
       <use xlink:href="#m5688abc6d1" x="90" y="222.131873" style="stroke: #000000; stroke-width: 0.6"/>
      </g>
     </g>
    </g>
    <g id="ytick_30">
     <g id="line2d_38">
      <g>
       <use xlink:href="#m5688abc6d1" x="90" y="217.480361" style="stroke: #000000; stroke-width: 0.6"/>
      </g>
     </g>
    </g>
    <g id="ytick_31">
     <g id="line2d_39">
      <g>
       <use xlink:href="#m5688abc6d1" x="90" y="213.872369" style="stroke: #000000; stroke-width: 0.6"/>
      </g>
     </g>
    </g>
    <g id="ytick_32">
     <g id="line2d_40">
      <g>
       <use xlink:href="#m5688abc6d1" x="90" y="210.924424" style="stroke: #000000; stroke-width: 0.6"/>
      </g>
     </g>
    </g>
    <g id="ytick_33">
     <g id="line2d_41">
      <g>
       <use xlink:href="#m5688abc6d1" x="90" y="208.431972" style="stroke: #000000; stroke-width: 0.6"/>
      </g>
     </g>
    </g>
    <g id="ytick_34">
     <g id="line2d_42">
      <g>
       <use xlink:href="#m5688abc6d1" x="90" y="206.272913" style="stroke: #000000; stroke-width: 0.6"/>
      </g>
     </g>
    </g>
    <g id="ytick_35">
     <g id="line2d_43">
      <g>
       <use xlink:href="#m5688abc6d1" x="90" y="204.368487" style="stroke: #000000; stroke-width: 0.6"/>
      </g>
     </g>
    </g>
    <g id="ytick_36">
     <g id="line2d_44">
      <g>
       <use xlink:href="#m5688abc6d1" x="90" y="191.457471" style="stroke: #000000; stroke-width: 0.6"/>
      </g>
     </g>
    </g>
    <g id="ytick_37">
     <g id="line2d_45">
      <g>
       <use xlink:href="#m5688abc6d1" x="90" y="184.901534" style="stroke: #000000; stroke-width: 0.6"/>
      </g>
     </g>
    </g>
    <g id="ytick_38">
     <g id="line2d_46">
      <g>
       <use xlink:href="#m5688abc6d1" x="90" y="180.250022" style="stroke: #000000; stroke-width: 0.6"/>
      </g>
     </g>
    </g>
    <g id="ytick_39">
     <g id="line2d_47">
      <g>
       <use xlink:href="#m5688abc6d1" x="90" y="176.64203" style="stroke: #000000; stroke-width: 0.6"/>
      </g>
     </g>
    </g>
    <g id="ytick_40">
     <g id="line2d_48">
      <g>
       <use xlink:href="#m5688abc6d1" x="90" y="173.694085" style="stroke: #000000; stroke-width: 0.6"/>
      </g>
     </g>
    </g>
    <g id="ytick_41">
     <g id="line2d_49">
      <g>
       <use xlink:href="#m5688abc6d1" x="90" y="171.201633" style="stroke: #000000; stroke-width: 0.6"/>
      </g>
     </g>
    </g>
    <g id="ytick_42">
     <g id="line2d_50">
      <g>
       <use xlink:href="#m5688abc6d1" x="90" y="169.042573" style="stroke: #000000; stroke-width: 0.6"/>
      </g>
     </g>
    </g>
    <g id="ytick_43">
     <g id="line2d_51">
      <g>
       <use xlink:href="#m5688abc6d1" x="90" y="167.138148" style="stroke: #000000; stroke-width: 0.6"/>
      </g>
     </g>
    </g>
    <g id="ytick_44">
     <g id="line2d_52">
      <g>
       <use xlink:href="#m5688abc6d1" x="90" y="154.227132" style="stroke: #000000; stroke-width: 0.6"/>
      </g>
     </g>
    </g>
    <g id="ytick_45">
     <g id="line2d_53">
      <g>
       <use xlink:href="#m5688abc6d1" x="90" y="147.671195" style="stroke: #000000; stroke-width: 0.6"/>
      </g>
     </g>
    </g>
    <g id="ytick_46">
     <g id="line2d_54">
      <g>
       <use xlink:href="#m5688abc6d1" x="90" y="143.019683" style="stroke: #000000; stroke-width: 0.6"/>
      </g>
     </g>
    </g>
    <g id="ytick_47">
     <g id="line2d_55">
      <g>
       <use xlink:href="#m5688abc6d1" x="90" y="139.41169" style="stroke: #000000; stroke-width: 0.6"/>
      </g>
     </g>
    </g>
    <g id="ytick_48">
     <g id="line2d_56">
      <g>
       <use xlink:href="#m5688abc6d1" x="90" y="136.463746" style="stroke: #000000; stroke-width: 0.6"/>
      </g>
     </g>
    </g>
    <g id="ytick_49">
     <g id="line2d_57">
      <g>
       <use xlink:href="#m5688abc6d1" x="90" y="133.971294" style="stroke: #000000; stroke-width: 0.6"/>
      </g>
     </g>
    </g>
    <g id="ytick_50">
     <g id="line2d_58">
      <g>
       <use xlink:href="#m5688abc6d1" x="90" y="131.812234" style="stroke: #000000; stroke-width: 0.6"/>
      </g>
     </g>
    </g>
    <g id="ytick_51">
     <g id="line2d_59">
      <g>
       <use xlink:href="#m5688abc6d1" x="90" y="129.907809" style="stroke: #000000; stroke-width: 0.6"/>
      </g>
     </g>
    </g>
    <g id="ytick_52">
     <g id="line2d_60">
      <g>
       <use xlink:href="#m5688abc6d1" x="90" y="116.996793" style="stroke: #000000; stroke-width: 0.6"/>
      </g>
     </g>
    </g>
    <g id="ytick_53">
     <g id="line2d_61">
      <g>
       <use xlink:href="#m5688abc6d1" x="90" y="110.440855" style="stroke: #000000; stroke-width: 0.6"/>
      </g>
     </g>
    </g>
    <g id="ytick_54">
     <g id="line2d_62">
      <g>
       <use xlink:href="#m5688abc6d1" x="90" y="105.789344" style="stroke: #000000; stroke-width: 0.6"/>
      </g>
     </g>
    </g>
    <g id="ytick_55">
     <g id="line2d_63">
      <g>
       <use xlink:href="#m5688abc6d1" x="90" y="102.181351" style="stroke: #000000; stroke-width: 0.6"/>
      </g>
     </g>
    </g>
    <g id="ytick_56">
     <g id="line2d_64">
      <g>
       <use xlink:href="#m5688abc6d1" x="90" y="99.233407" style="stroke: #000000; stroke-width: 0.6"/>
      </g>
     </g>
    </g>
    <g id="ytick_57">
     <g id="line2d_65">
      <g>
       <use xlink:href="#m5688abc6d1" x="90" y="96.740955" style="stroke: #000000; stroke-width: 0.6"/>
      </g>
     </g>
    </g>
    <g id="ytick_58">
     <g id="line2d_66">
      <g>
       <use xlink:href="#m5688abc6d1" x="90" y="94.581895" style="stroke: #000000; stroke-width: 0.6"/>
      </g>
     </g>
    </g>
    <g id="ytick_59">
     <g id="line2d_67">
      <g>
       <use xlink:href="#m5688abc6d1" x="90" y="92.677469" style="stroke: #000000; stroke-width: 0.6"/>
      </g>
     </g>
    </g>
    <g id="ytick_60">
     <g id="line2d_68">
      <g>
       <use xlink:href="#m5688abc6d1" x="90" y="79.766454" style="stroke: #000000; stroke-width: 0.6"/>
      </g>
     </g>
    </g>
    <g id="ytick_61">
     <g id="line2d_69">
      <g>
       <use xlink:href="#m5688abc6d1" x="90" y="73.210516" style="stroke: #000000; stroke-width: 0.6"/>
      </g>
     </g>
    </g>
    <g id="ytick_62">
     <g id="line2d_70">
      <g>
       <use xlink:href="#m5688abc6d1" x="90" y="68.559005" style="stroke: #000000; stroke-width: 0.6"/>
      </g>
     </g>
    </g>
    <g id="ytick_63">
     <g id="line2d_71">
      <g>
       <use xlink:href="#m5688abc6d1" x="90" y="64.951012" style="stroke: #000000; stroke-width: 0.6"/>
      </g>
     </g>
    </g>
    <g id="ytick_64">
     <g id="line2d_72">
      <g>
       <use xlink:href="#m5688abc6d1" x="90" y="62.003067" style="stroke: #000000; stroke-width: 0.6"/>
      </g>
     </g>
    </g>
    <g id="ytick_65">
     <g id="line2d_73">
      <g>
       <use xlink:href="#m5688abc6d1" x="90" y="59.510616" style="stroke: #000000; stroke-width: 0.6"/>
      </g>
     </g>
    </g>
    <g id="ytick_66">
     <g id="line2d_74">
      <g>
       <use xlink:href="#m5688abc6d1" x="90" y="57.351556" style="stroke: #000000; stroke-width: 0.6"/>
      </g>
     </g>
    </g>
    <g id="ytick_67">
     <g id="line2d_75">
      <g>
       <use xlink:href="#m5688abc6d1" x="90" y="55.44713" style="stroke: #000000; stroke-width: 0.6"/>
      </g>
     </g>
    </g>
    <g id="text_18">
     <!-- $f(X)-f^*(X)$ -->
     <g transform="translate(53.420312 209.75)rotate(-90)scale(0.1 -0.1)">
      <defs>
       <path id="DejaVuSans-Oblique-66" d="M 3059 4863 
L 2969 4384 
L 2419 4384 
Q 2106 4384 1964 4261 
Q 1822 4138 1753 3809 
L 1691 3500 
L 2638 3500 
L 2553 3053 
L 1606 3053 
L 1013 0 
L 434 0 
L 1031 3053 
L 481 3053 
L 563 3500 
L 1113 3500 
L 1159 3744 
Q 1278 4363 1576 4613 
Q 1875 4863 2516 4863 
L 3059 4863 
z
" transform="scale(0.015625)"/>
       <path id="DejaVuSans-28" d="M 1984 4856 
Q 1566 4138 1362 3434 
Q 1159 2731 1159 2009 
Q 1159 1288 1364 580 
Q 1569 -128 1984 -844 
L 1484 -844 
Q 1016 -109 783 600 
Q 550 1309 550 2009 
Q 550 2706 781 3412 
Q 1013 4119 1484 4856 
L 1984 4856 
z
" transform="scale(0.015625)"/>
       <path id="DejaVuSans-Oblique-58" d="M 878 4666 
L 1516 4666 
L 2316 2981 
L 3763 4666 
L 4500 4666 
L 2578 2438 
L 3738 0 
L 3103 0 
L 2163 1966 
L 459 0 
L -275 0 
L 1906 2509 
L 878 4666 
z
" transform="scale(0.015625)"/>
       <path id="DejaVuSans-29" d="M 513 4856 
L 1013 4856 
Q 1481 4119 1714 3412 
Q 1947 2706 1947 2009 
Q 1947 1309 1714 600 
Q 1481 -109 1013 -844 
L 513 -844 
Q 928 -128 1133 580 
Q 1338 1288 1338 2009 
Q 1338 2731 1133 3434 
Q 928 4138 513 4856 
z
" transform="scale(0.015625)"/>
       <path id="DejaVuSans-2a" d="M 3009 3897 
L 1888 3291 
L 3009 2681 
L 2828 2375 
L 1778 3009 
L 1778 1831 
L 1422 1831 
L 1422 3009 
L 372 2375 
L 191 2681 
L 1313 3291 
L 191 3897 
L 372 4206 
L 1422 3572 
L 1422 4750 
L 1778 4750 
L 1778 3572 
L 2828 4206 
L 3009 3897 
z
" transform="scale(0.015625)"/>
      </defs>
      <use xlink:href="#DejaVuSans-Oblique-66" transform="translate(0 0.765625)"/>
      <use xlink:href="#DejaVuSans-28" transform="translate(35.205078 0.765625)"/>
      <use xlink:href="#DejaVuSans-Oblique-58" transform="translate(74.21875 0.765625)"/>
      <use xlink:href="#DejaVuSans-29" transform="translate(142.724609 0.765625)"/>
      <use xlink:href="#DejaVuSans-2212" transform="translate(201.220703 0.765625)"/>
      <use xlink:href="#DejaVuSans-Oblique-66" transform="translate(304.492188 0.765625)"/>
      <use xlink:href="#DejaVuSans-2a" transform="translate(360.782669 39.046875)scale(0.7)"/>
      <use xlink:href="#DejaVuSans-28" transform="translate(412.15474 0.765625)"/>
      <use xlink:href="#DejaVuSans-Oblique-58" transform="translate(451.168411 0.765625)"/>
      <use xlink:href="#DejaVuSans-29" transform="translate(519.674271 0.765625)"/>
     </g>
    </g>
   </g>
   <g id="line2d_76">
    <path d="M 101.528926 56.20881 
L 102.817074 59.468311 
L 104.105222 63.569093 
L 105.39337 69.052504 
L 106.681518 73.552981 
L 107.969666 75.464634 
L 110.545962 80.243108 
L 111.834111 84.316892 
L 113.122259 85.468863 
L 114.410407 87.245058 
L 115.698555 88.401014 
L 118.274851 91.901953 
L 119.562999 93.687078 
L 120.851147 94.879885 
L 122.139295 96.859277 
L 123.427444 98.530326 
L 124.715592 99.395727 
L 126.00374 100.691866 
L 127.291888 101.717643 
L 128.580036 103.500693 
L 129.868184 105.018343 
L 131.156332 105.844866 
L 132.44448 107.320289 
L 135.020777 108.576223 
L 138.885221 111.862678 
L 140.173369 113.034529 
L 141.461517 114.615396 
L 144.037813 115.980326 
L 147.902258 119.793568 
L 149.190406 120.430817 
L 151.766702 122.771296 
L 153.05485 123.284569 
L 154.342998 124.151188 
L 156.919295 125.463599 
L 159.495591 127.76003 
L 160.783739 128.420059 
L 162.071887 129.547337 
L 163.360035 130.170174 
L 165.936331 132.408386 
L 167.224479 133.007938 
L 168.512628 134.052342 
L 169.800776 134.672129 
L 172.377072 136.844582 
L 173.66522 137.40637 
L 174.953368 138.386807 
L 176.241516 139.005908 
L 178.817812 141.111737 
L 180.105961 141.645874 
L 181.394109 142.57349 
L 182.682257 143.193214 
L 183.970405 144.298165 
L 185.258553 145.232513 
L 186.546701 145.745799 
L 187.834849 146.628282 
L 189.122997 147.249347 
L 190.411145 148.336689 
L 191.699294 149.223009 
L 192.987442 149.720005 
L 194.27559 150.563034 
L 195.563738 151.185745 
L 196.851886 152.255154 
L 198.140034 153.09543 
L 199.428182 153.670898 
L 200.71633 154.636328 
L 202.004479 155.16947 
L 204.580775 156.859931 
L 205.868923 157.438336 
L 207.157071 158.390456 
L 208.445219 158.91177 
L 211.021515 160.525897 
L 212.309663 161.106962 
L 213.597812 162.04629 
L 214.88596 162.557936 
L 217.462256 164.102411 
L 218.750404 164.686092 
L 220.038552 165.613424 
L 221.3267 166.11772 
L 223.902996 167.599185 
L 225.191145 168.1855 
L 226.479293 169.102104 
L 227.767441 169.601043 
L 230.343737 171.026346 
L 231.631885 171.615734 
L 232.920033 172.522983 
L 234.208181 173.018522 
L 235.496329 173.775403 
L 238.072626 174.987594 
L 239.360774 175.887984 
L 240.648922 176.382192 
L 241.93707 177.122858 
L 244.513366 178.31365 
L 245.801514 179.209409 
L 247.089662 179.704727 
L 248.377811 180.432954 
L 250.954107 181.607443 
L 252.242255 182.501741 
L 253.530403 182.999983 
L 254.818551 183.720158 
L 258.682996 185.442996 
L 259.971144 185.936432 
L 261.259292 186.623676 
L 265.123736 187.971528 
L 266.411884 188.958322 
L 267.700032 189.672054 
L 268.98818 190.213093 
L 270.276329 191.140454 
L 272.852625 192.099003 
L 274.140773 192.548489 
L 276.717069 194.100453 
L 278.005217 194.560081 
L 279.293365 195.269873 
L 281.869662 196.185697 
L 283.15781 197.216441 
L 285.734106 198.750696 
L 287.022254 199.300642 
L 288.310402 200.326574 
L 289.59855 201.025671 
L 290.886698 201.587583 
L 292.174846 202.555343 
L 293.462995 203.137422 
L 294.751143 203.963976 
L 298.615587 205.667933 
L 299.903735 206.186237 
L 301.191883 207.083134 
L 302.480031 207.605733 
L 303.76818 208.73037 
L 307.632624 210.344774 
L 310.20892 212.404968 
L 311.497068 213.040424 
L 312.785216 214.008761 
L 316.649661 215.778412 
L 317.937809 217.25158 
L 319.225957 218.493726 
L 320.514105 219.210899 
L 321.802253 220.708831 
L 325.666697 222.921566 
L 328.242994 225.895565 
L 329.531142 226.826559 
L 330.81929 228.304339 
L 332.107438 229.263864 
L 332.107438 229.263864 
" clip-path="url(#p4f62c76a40)" style="fill: none; stroke: #1f77b4; stroke-width: 1.5; stroke-linecap: square"/>
   </g>
   <g id="line2d_77">
    <path d="M 101.528926 55.8 
L 104.105222 63.166068 
L 105.39337 68.204646 
L 106.681518 74.54755 
L 109.257814 79.07764 
L 110.545962 82.466021 
L 111.834111 85.061691 
L 113.122259 86.32899 
L 114.410407 89.158641 
L 115.698555 90.852555 
L 116.986703 93.369128 
L 120.851147 96.345786 
L 122.139295 97.800465 
L 123.427444 99.907117 
L 124.715592 101.326076 
L 126.00374 102.161007 
L 129.868184 105.446465 
L 133.732628 109.294989 
L 136.308925 111.242653 
L 138.885221 113.629121 
L 140.173369 114.73503 
L 141.461517 115.527509 
L 144.037813 117.516972 
L 145.325961 118.13387 
L 146.61411 119.277325 
L 147.902258 120.587575 
L 149.190406 121.334681 
L 153.05485 124.147288 
L 154.342998 125.170171 
L 155.631146 126.496486 
L 158.207443 128.337863 
L 159.495591 128.895732 
L 162.071887 131.245244 
L 165.936331 133.771439 
L 172.377072 138.517145 
L 173.66522 139.041078 
L 176.241516 141.30046 
L 181.394109 144.63997 
L 183.970405 146.46764 
L 187.834849 149.168876 
L 190.411145 151.294083 
L 192.987442 152.958071 
L 198.140034 156.445432 
L 199.428182 157.234331 
L 203.292627 160.244537 
L 205.868923 161.848334 
L 209.733367 164.428952 
L 212.309663 165.949092 
L 216.174108 168.840317 
L 218.750404 170.398016 
L 222.614848 172.890578 
L 223.902996 173.484445 
L 225.191145 174.280474 
L 227.767441 176.182315 
L 230.343737 177.911677 
L 238.072626 182.618316 
L 241.93707 185.338559 
L 248.377811 189.455607 
L 250.954107 191.050333 
L 256.106699 194.691865 
L 257.394847 195.45618 
L 261.259292 198.057529 
L 263.835588 199.742596 
L 271.564477 205.45518 
L 274.140773 207.376908 
L 275.428921 208.401972 
L 276.717069 208.991279 
L 279.293365 211.16059 
L 283.15781 214.599928 
L 284.445958 215.633528 
L 290.886698 221.944327 
L 293.462995 225.138131 
L 298.615587 232.114918 
L 299.903735 234.146002 
L 302.480031 238.983649 
L 303.76818 241.83408 
L 305.056328 245.524311 
L 306.344476 248.07412 
L 307.632624 253.654555 
L 308.920772 260.19157 
L 310.20892 271.455852 
L 311.497068 307.8 
L 311.498912 361 
L 311.498912 361 
" clip-path="url(#p4f62c76a40)" style="fill: none; stroke: #ff7f0e; stroke-width: 1.5; stroke-linecap: square"/>
   </g>
   <g id="line2d_78">
    <path d="M 101.528926 55.846361 
L 102.817074 59.350524 
L 104.105222 63.406615 
L 105.39337 69.088587 
L 106.681518 73.614767 
L 109.257814 77.473666 
L 110.545962 80.206064 
L 111.834111 83.933805 
L 113.122259 85.231435 
L 114.410407 86.995643 
L 115.698555 88.129085 
L 119.562999 93.381469 
L 120.851147 94.444916 
L 122.139295 96.386381 
L 123.427444 98.094613 
L 124.715592 98.924399 
L 126.00374 100.215992 
L 127.291888 101.163259 
L 128.580036 102.899097 
L 129.868184 104.435516 
L 131.156332 105.210204 
L 132.44448 106.642147 
L 133.732628 107.244471 
L 136.308925 109.018929 
L 137.597073 109.640482 
L 140.173369 111.156281 
L 141.461517 112.548761 
L 142.749665 113.238836 
L 144.037813 114.496487 
L 145.325961 115.169428 
L 146.61411 116.214284 
L 147.902258 116.954598 
L 149.190406 118.34509 
L 150.478554 119.533566 
L 151.766702 120.181061 
L 153.05485 121.379135 
L 154.342998 121.875252 
L 158.207443 124.838769 
L 160.783739 126.131873 
L 162.071887 127.383574 
L 164.648183 129.444393 
L 165.936331 130.095156 
L 167.224479 131.267252 
L 168.512628 132.217036 
L 169.800776 132.865393 
L 171.088924 133.841403 
L 172.377072 134.486616 
L 173.66522 135.631469 
L 174.953368 136.551701 
L 176.241516 137.14621 
L 177.529664 138.071214 
L 178.817812 138.711965 
L 180.105961 139.831437 
L 181.394109 140.719019 
L 182.682257 141.274966 
L 183.970405 142.157243 
L 185.258553 142.79433 
L 186.546701 143.88994 
L 187.834849 144.743024 
L 189.122997 145.270519 
L 190.411145 146.11583 
L 191.699294 146.749705 
L 192.987442 147.822705 
L 194.27559 148.640378 
L 195.563738 149.146482 
L 196.851886 149.959071 
L 198.140034 150.590126 
L 199.428182 151.641631 
L 200.71633 152.423699 
L 202.004479 153.003653 
L 203.292627 153.95147 
L 204.580775 154.490638 
L 207.157071 156.103368 
L 208.445219 156.682518 
L 209.733367 157.615214 
L 211.021515 158.14014 
L 213.597812 159.68861 
L 214.88596 160.26719 
L 216.174108 161.185592 
L 217.462256 161.699548 
L 220.038552 163.188705 
L 221.3267 163.766722 
L 222.614848 164.671895 
L 223.902996 165.177767 
L 225.191145 165.962451 
L 227.767441 167.190512 
L 229.055589 168.084038 
L 230.343737 168.584077 
L 231.631885 169.347795 
L 234.208181 170.548387 
L 235.496329 171.431706 
L 236.784478 171.928226 
L 238.072626 172.674585 
L 240.648922 173.850601 
L 241.93707 174.72611 
L 243.225218 175.221061 
L 244.513366 175.95293 
L 247.089662 177.10854 
L 248.377811 177.978275 
L 249.665959 178.474019 
L 250.954107 179.195012 
L 258.682996 182.477599 
L 259.971144 182.963607 
L 261.259292 183.890385 
L 262.54744 184.302136 
L 263.835588 185.011858 
L 265.123736 185.52233 
L 266.411884 186.409862 
L 270.276329 187.743114 
L 272.852625 189.266711 
L 274.140773 189.709743 
L 275.428921 190.402083 
L 278.005217 191.265398 
L 279.293365 192.235001 
L 281.869662 193.718485 
L 283.15781 194.221813 
L 284.445958 195.178027 
L 285.734106 195.845963 
L 287.022254 196.357732 
L 288.310402 197.247639 
L 289.59855 197.791005 
L 290.886698 198.57146 
L 294.751143 200.111143 
L 296.039291 200.588939 
L 297.327439 201.425034 
L 298.615587 201.885277 
L 299.903735 202.886326 
L 303.76818 204.300362 
L 306.344476 206.152098 
L 307.632624 206.709245 
L 308.920772 207.561897 
L 312.785216 209.067977 
L 314.073364 210.298043 
L 315.361513 211.355913 
L 316.649661 211.930618 
L 317.937809 213.129747 
L 321.802253 214.855636 
L 324.378549 217.183969 
L 325.666697 217.873148 
L 326.954846 218.969767 
L 330.81929 220.962525 
L 332.107438 222.657738 
L 332.107438 222.657738 
" clip-path="url(#p4f62c76a40)" style="fill: none; stroke: #2ca02c; stroke-width: 1.5; stroke-linecap: square"/>
   </g>
   <g id="line2d_79">
    <path d="M 101.528926 56.212312 
L 102.817074 59.427034 
L 104.105222 63.419977 
L 105.39337 69.106982 
L 106.681518 73.547073 
L 109.257814 77.298547 
L 110.545962 79.839022 
L 111.834111 83.80351 
L 113.122259 85.129802 
L 114.410407 87.008349 
L 115.698555 88.079532 
L 119.562999 93.225868 
L 120.851147 94.377501 
L 122.139295 96.430964 
L 123.427444 98.138454 
L 124.715592 98.95828 
L 126.00374 100.191712 
L 127.291888 101.18874 
L 128.580036 103.020267 
L 129.868184 104.567641 
L 131.156332 105.374856 
L 132.44448 106.886404 
L 135.020777 108.171787 
L 136.308925 109.263949 
L 137.597073 110.162995 
L 138.885221 111.474202 
L 140.173369 112.597889 
L 141.461517 114.13081 
L 144.037813 115.49783 
L 146.61411 118.061004 
L 147.902258 119.399314 
L 149.190406 120.027826 
L 151.766702 122.414698 
L 153.05485 123.126332 
L 154.342998 124.324921 
L 155.631146 124.94224 
L 158.207443 127.263453 
L 159.495591 127.899041 
L 160.783739 129.000733 
L 162.071887 129.611611 
L 164.648183 131.863551 
L 165.936331 132.450906 
L 167.224479 133.480112 
L 168.512628 134.088038 
L 171.088924 136.269915 
L 172.377072 136.824811 
L 173.66522 137.796771 
L 174.953368 138.404056 
L 177.529664 140.516448 
L 178.817812 141.048206 
L 180.105961 141.972779 
L 181.394109 142.580845 
L 182.682257 143.684279 
L 183.970405 144.625008 
L 185.258553 145.139385 
L 186.546701 146.023329 
L 187.834849 146.632881 
L 189.122997 147.71745 
L 190.411145 148.610591 
L 191.699294 149.111388 
L 192.987442 149.959567 
L 194.27559 150.570899 
L 195.563738 151.63674 
L 196.851886 152.484484 
L 198.140034 152.974298 
L 199.428182 153.790615 
L 200.71633 154.403769 
L 202.004479 155.451282 
L 203.292627 156.255889 
L 204.580775 156.823628 
L 205.868923 157.770679 
L 207.157071 158.299617 
L 209.733367 159.933204 
L 211.021515 160.503832 
L 212.309663 161.437686 
L 213.597812 161.958285 
L 216.174108 163.524838 
L 217.462256 164.098242 
L 218.750404 165.019876 
L 220.038552 165.533839 
L 222.614848 167.039281 
L 223.902996 167.615645 
L 225.191145 168.526421 
L 226.479293 169.035299 
L 227.767441 169.827315 
L 230.343737 171.065465 
L 231.631885 171.966929 
L 232.920033 172.472929 
L 234.208181 173.24548 
L 236.784478 174.458331 
L 238.072626 175.3528 
L 239.360774 175.857149 
L 240.648922 176.613597 
L 243.225218 177.805687 
L 244.513366 178.695001 
L 245.801514 179.200315 
L 247.089662 179.944505 
L 249.665959 181.119853 
L 250.954107 182.007576 
L 252.242255 182.515221 
L 253.530403 183.251088 
L 259.971144 186.167333 
L 263.835588 187.519783 
L 265.123736 188.500771 
L 266.411884 189.225814 
L 267.700032 189.758432 
L 268.98818 190.679369 
L 272.852625 192.075467 
L 275.428921 193.648901 
L 276.717069 194.111882 
L 278.005217 194.832698 
L 280.581513 195.744471 
L 281.869662 196.766785 
L 284.445958 198.319866 
L 285.734106 198.861499 
L 287.022254 199.879478 
L 288.310402 200.584673 
L 289.59855 201.138562 
L 290.886698 202.094632 
L 292.174846 202.67786 
L 293.462995 203.516419 
L 297.327439 205.167615 
L 298.615587 205.716678 
L 299.903735 206.620206 
L 301.191883 207.134214 
L 302.480031 208.243666 
L 306.344476 209.832975 
L 308.920772 211.899102 
L 310.20892 212.529482 
L 311.497068 213.498375 
L 315.361513 215.245184 
L 316.649661 216.691477 
L 317.937809 217.935392 
L 319.225957 218.632034 
L 320.514105 220.093858 
L 324.378549 222.250882 
L 326.954846 225.190142 
L 328.242994 226.094043 
L 329.531142 227.548572 
L 332.107438 229.339439 
L 332.107438 229.339439 
" clip-path="url(#p4f62c76a40)" style="fill: none; stroke: #d62728; stroke-width: 1.5; stroke-linecap: square"/>
   </g>
   <g id="line2d_80">
    <path d="M 101.528926 55.944816 
L 104.105222 63.304078 
L 105.39337 68.040348 
L 106.681518 74.467375 
L 109.257814 80.092494 
L 110.545962 82.635135 
L 111.834111 84.754067 
L 113.122259 87.737475 
L 114.410407 89.184539 
L 115.698555 90.910055 
L 116.986703 93.592994 
L 120.851147 96.868419 
L 122.139295 98.383836 
L 123.427444 100.626344 
L 124.715592 101.659732 
L 126.00374 102.856133 
L 127.291888 103.751363 
L 129.868184 106.437674 
L 132.44448 108.290628 
L 133.732628 109.587981 
L 135.020777 111.169503 
L 137.597073 112.985339 
L 138.885221 113.923213 
L 141.461517 116.161025 
L 142.749665 117.459226 
L 144.037813 118.525552 
L 146.61411 120.328081 
L 147.902258 121.394832 
L 149.190406 122.82872 
L 153.05485 125.369185 
L 158.207443 129.578887 
L 160.783739 131.258343 
L 162.071887 132.272255 
L 163.360035 133.644382 
L 165.936331 135.253314 
L 168.512628 137.340517 
L 169.800776 138.367757 
L 173.66522 140.437593 
L 174.953368 141.493509 
L 176.241516 142.353764 
L 177.529664 143.633942 
L 180.105961 145.156953 
L 183.970405 148.001206 
L 186.546701 149.741738 
L 187.834849 150.414129 
L 190.411145 152.161393 
L 191.699294 153.442791 
L 196.851886 156.699748 
L 199.428182 158.489174 
L 200.71633 159.350369 
L 202.004479 159.990836 
L 203.292627 160.485963 
L 204.580775 161.432636 
L 205.868923 162.630504 
L 207.157071 163.316419 
L 212.309663 166.54152 
L 213.597812 167.517135 
L 214.88596 168.293583 
L 218.750404 170.069931 
L 220.038552 171.114096 
L 221.3267 171.828751 
L 222.614848 172.872382 
L 232.920033 179.725063 
L 234.208181 180.671827 
L 236.784478 182.098862 
L 238.072626 183.246222 
L 239.360774 184.046057 
L 240.648922 185.089099 
L 243.225218 186.612888 
L 244.513366 187.781067 
L 247.089662 189.688713 
L 249.665959 191.123815 
L 250.954107 192.302154 
L 252.242255 193.09023 
L 253.530403 194.233327 
L 256.106699 195.808887 
L 257.394847 197.04421 
L 259.971144 199.081523 
L 261.259292 199.770962 
L 262.54744 200.607436 
L 263.835588 201.888359 
L 265.123736 202.745967 
L 266.411884 203.949965 
L 267.700032 204.578241 
L 268.98818 205.45518 
L 271.564477 207.507269 
L 272.852625 208.749203 
L 274.140773 210.3162 
L 275.428921 211.177005 
L 278.005217 213.31301 
L 279.293365 214.657535 
L 280.581513 216.299737 
L 281.869662 217.36356 
L 284.445958 220.022744 
L 285.734106 221.727363 
L 287.022254 223.877414 
L 288.310402 225.112188 
L 290.886698 228.241303 
L 292.174846 230.2216 
L 293.462995 232.81958 
L 294.751143 235.06686 
L 297.327439 240.741646 
L 298.615587 244.26891 
L 299.903735 250.160562 
L 301.191883 255.24492 
L 302.480031 264.599088 
L 303.76818 278.47379 
L 303.771038 361 
L 303.771038 361 
" clip-path="url(#p4f62c76a40)" style="fill: none; stroke: #9467bd; stroke-width: 1.5; stroke-linecap: square"/>
   </g>
   <g id="patch_3">
    <path d="M 90 320.4 
L 90 43.2 
" style="fill: none; stroke: #000000; stroke-width: 0.8; stroke-linejoin: miter; stroke-linecap: square"/>
   </g>
   <g id="patch_4">
    <path d="M 343.636364 320.4 
L 343.636364 43.2 
" style="fill: none; stroke: #000000; stroke-width: 0.8; stroke-linejoin: miter; stroke-linecap: square"/>
   </g>
   <g id="patch_5">
    <path d="M 90 320.4 
L 343.636364 320.4 
" style="fill: none; stroke: #000000; stroke-width: 0.8; stroke-linejoin: miter; stroke-linecap: square"/>
   </g>
   <g id="patch_6">
    <path d="M 90 43.2 
L 343.636364 43.2 
" style="fill: none; stroke: #000000; stroke-width: 0.8; stroke-linejoin: miter; stroke-linecap: square"/>
   </g>
   <g id="legend_1">
    <g id="patch_7">
     <path d="M 267.551989 124.590625 
L 336.636364 124.590625 
Q 338.636364 124.590625 338.636364 122.590625 
L 338.636364 50.2 
Q 338.636364 48.2 336.636364 48.2 
L 267.551989 48.2 
Q 265.551989 48.2 265.551989 50.2 
L 265.551989 122.590625 
Q 265.551989 124.590625 267.551989 124.590625 
z
" style="fill: #ffffff; opacity: 0.8; stroke: #cccccc; stroke-linejoin: miter"/>
    </g>
    <g id="line2d_81">
     <path d="M 269.551989 56.298437 
L 279.551989 56.298437 
L 289.551989 56.298437 
" style="fill: none; stroke: #1f77b4; stroke-width: 1.5; stroke-linecap: square"/>
    </g>
    <g id="text_19">
     <!-- RBCD -->
     <g transform="translate(297.551989 59.798437)scale(0.1 -0.1)">
      <defs>
       <path id="DejaVuSans-52" d="M 2841 2188 
Q 3044 2119 3236 1894 
Q 3428 1669 3622 1275 
L 4263 0 
L 3584 0 
L 2988 1197 
Q 2756 1666 2539 1819 
Q 2322 1972 1947 1972 
L 1259 1972 
L 1259 0 
L 628 0 
L 628 4666 
L 2053 4666 
Q 2853 4666 3247 4331 
Q 3641 3997 3641 3322 
Q 3641 2881 3436 2590 
Q 3231 2300 2841 2188 
z
M 1259 4147 
L 1259 2491 
L 2053 2491 
Q 2509 2491 2742 2702 
Q 2975 2913 2975 3322 
Q 2975 3731 2742 3939 
Q 2509 4147 2053 4147 
L 1259 4147 
z
" transform="scale(0.015625)"/>
       <path id="DejaVuSans-42" d="M 1259 2228 
L 1259 519 
L 2272 519 
Q 2781 519 3026 730 
Q 3272 941 3272 1375 
Q 3272 1813 3026 2020 
Q 2781 2228 2272 2228 
L 1259 2228 
z
M 1259 4147 
L 1259 2741 
L 2194 2741 
Q 2656 2741 2882 2914 
Q 3109 3088 3109 3444 
Q 3109 3797 2882 3972 
Q 2656 4147 2194 4147 
L 1259 4147 
z
M 628 4666 
L 2241 4666 
Q 2963 4666 3353 4366 
Q 3744 4066 3744 3513 
Q 3744 3084 3544 2831 
Q 3344 2578 2956 2516 
Q 3422 2416 3680 2098 
Q 3938 1781 3938 1306 
Q 3938 681 3513 340 
Q 3088 0 2303 0 
L 628 0 
L 628 4666 
z
" transform="scale(0.015625)"/>
       <path id="DejaVuSans-43" d="M 4122 4306 
L 4122 3641 
Q 3803 3938 3442 4084 
Q 3081 4231 2675 4231 
Q 1875 4231 1450 3742 
Q 1025 3253 1025 2328 
Q 1025 1406 1450 917 
Q 1875 428 2675 428 
Q 3081 428 3442 575 
Q 3803 722 4122 1019 
L 4122 359 
Q 3791 134 3420 21 
Q 3050 -91 2638 -91 
Q 1578 -91 968 557 
Q 359 1206 359 2328 
Q 359 3453 968 4101 
Q 1578 4750 2638 4750 
Q 3056 4750 3426 4639 
Q 3797 4528 4122 4306 
z
" transform="scale(0.015625)"/>
       <path id="DejaVuSans-44" d="M 1259 4147 
L 1259 519 
L 2022 519 
Q 2988 519 3436 956 
Q 3884 1394 3884 2338 
Q 3884 3275 3436 3711 
Q 2988 4147 2022 4147 
L 1259 4147 
z
M 628 4666 
L 1925 4666 
Q 3281 4666 3915 4102 
Q 4550 3538 4550 2338 
Q 4550 1131 3912 565 
Q 3275 0 1925 0 
L 628 0 
L 628 4666 
z
" transform="scale(0.015625)"/>
      </defs>
      <use xlink:href="#DejaVuSans-52"/>
      <use xlink:href="#DejaVuSans-42" x="69.482422"/>
      <use xlink:href="#DejaVuSans-43" x="136.335938"/>
      <use xlink:href="#DejaVuSans-44" x="206.160156"/>
     </g>
    </g>
    <g id="line2d_82">
     <path d="M 269.551989 70.976562 
L 279.551989 70.976562 
L 289.551989 70.976562 
" style="fill: none; stroke: #ff7f0e; stroke-width: 1.5; stroke-linecap: square"/>
    </g>
    <g id="text_20">
     <!-- strong -->
     <g transform="translate(297.551989 74.476562)scale(0.1 -0.1)">
      <defs>
       <path id="DejaVuSans-73" d="M 2834 3397 
L 2834 2853 
Q 2591 2978 2328 3040 
Q 2066 3103 1784 3103 
Q 1356 3103 1142 2972 
Q 928 2841 928 2578 
Q 928 2378 1081 2264 
Q 1234 2150 1697 2047 
L 1894 2003 
Q 2506 1872 2764 1633 
Q 3022 1394 3022 966 
Q 3022 478 2636 193 
Q 2250 -91 1575 -91 
Q 1294 -91 989 -36 
Q 684 19 347 128 
L 347 722 
Q 666 556 975 473 
Q 1284 391 1588 391 
Q 1994 391 2212 530 
Q 2431 669 2431 922 
Q 2431 1156 2273 1281 
Q 2116 1406 1581 1522 
L 1381 1569 
Q 847 1681 609 1914 
Q 372 2147 372 2553 
Q 372 3047 722 3315 
Q 1072 3584 1716 3584 
Q 2034 3584 2315 3537 
Q 2597 3491 2834 3397 
z
" transform="scale(0.015625)"/>
       <path id="DejaVuSans-67" d="M 2906 1791 
Q 2906 2416 2648 2759 
Q 2391 3103 1925 3103 
Q 1463 3103 1205 2759 
Q 947 2416 947 1791 
Q 947 1169 1205 825 
Q 1463 481 1925 481 
Q 2391 481 2648 825 
Q 2906 1169 2906 1791 
z
M 3481 434 
Q 3481 -459 3084 -895 
Q 2688 -1331 1869 -1331 
Q 1566 -1331 1297 -1286 
Q 1028 -1241 775 -1147 
L 775 -588 
Q 1028 -725 1275 -790 
Q 1522 -856 1778 -856 
Q 2344 -856 2625 -561 
Q 2906 -266 2906 331 
L 2906 616 
Q 2728 306 2450 153 
Q 2172 0 1784 0 
Q 1141 0 747 490 
Q 353 981 353 1791 
Q 353 2603 747 3093 
Q 1141 3584 1784 3584 
Q 2172 3584 2450 3431 
Q 2728 3278 2906 2969 
L 2906 3500 
L 3481 3500 
L 3481 434 
z
" transform="scale(0.015625)"/>
      </defs>
      <use xlink:href="#DejaVuSans-73"/>
      <use xlink:href="#DejaVuSans-74" x="52.099609"/>
      <use xlink:href="#DejaVuSans-72" x="91.308594"/>
      <use xlink:href="#DejaVuSans-6f" x="130.171875"/>
      <use xlink:href="#DejaVuSans-6e" x="191.353516"/>
      <use xlink:href="#DejaVuSans-67" x="254.732422"/>
     </g>
    </g>
    <g id="line2d_83">
     <path d="M 269.551989 85.654687 
L 279.551989 85.654687 
L 289.551989 85.654687 
" style="fill: none; stroke: #2ca02c; stroke-width: 1.5; stroke-linecap: square"/>
    </g>
    <g id="text_21">
     <!-- fast -->
     <g transform="translate(297.551989 89.154687)scale(0.1 -0.1)">
      <defs>
       <path id="DejaVuSans-66" d="M 2375 4863 
L 2375 4384 
L 1825 4384 
Q 1516 4384 1395 4259 
Q 1275 4134 1275 3809 
L 1275 3500 
L 2222 3500 
L 2222 3053 
L 1275 3053 
L 1275 0 
L 697 0 
L 697 3053 
L 147 3053 
L 147 3500 
L 697 3500 
L 697 3744 
Q 697 4328 969 4595 
Q 1241 4863 1831 4863 
L 2375 4863 
z
" transform="scale(0.015625)"/>
      </defs>
      <use xlink:href="#DejaVuSans-66"/>
      <use xlink:href="#DejaVuSans-61" x="35.205078"/>
      <use xlink:href="#DejaVuSans-73" x="96.484375"/>
      <use xlink:href="#DejaVuSans-74" x="148.583984"/>
     </g>
    </g>
    <g id="line2d_84">
     <path d="M 269.551989 100.332812 
L 279.551989 100.332812 
L 289.551989 100.332812 
" style="fill: none; stroke: #d62728; stroke-width: 1.5; stroke-linecap: square"/>
    </g>
    <g id="text_22">
     <!-- eco -->
     <g transform="translate(297.551989 103.832812)scale(0.1 -0.1)">
      <defs>
       <path id="DejaVuSans-63" d="M 3122 3366 
L 3122 2828 
Q 2878 2963 2633 3030 
Q 2388 3097 2138 3097 
Q 1578 3097 1268 2742 
Q 959 2388 959 1747 
Q 959 1106 1268 751 
Q 1578 397 2138 397 
Q 2388 397 2633 464 
Q 2878 531 3122 666 
L 3122 134 
Q 2881 22 2623 -34 
Q 2366 -91 2075 -91 
Q 1284 -91 818 406 
Q 353 903 353 1747 
Q 353 2603 823 3093 
Q 1294 3584 2113 3584 
Q 2378 3584 2631 3529 
Q 2884 3475 3122 3366 
z
" transform="scale(0.015625)"/>
      </defs>
      <use xlink:href="#DejaVuSans-65"/>
      <use xlink:href="#DejaVuSans-63" x="61.523438"/>
      <use xlink:href="#DejaVuSans-6f" x="116.503906"/>
     </g>
    </g>
    <g id="line2d_85">
     <path d="M 269.551989 115.010937 
L 279.551989 115.010937 
L 289.551989 115.010937 
" style="fill: none; stroke: #9467bd; stroke-width: 1.5; stroke-linecap: square"/>
    </g>
    <g id="text_23">
     <!-- highest -->
     <g transform="translate(297.551989 118.510937)scale(0.1 -0.1)">
      <defs>
       <path id="DejaVuSans-68" d="M 3513 2113 
L 3513 0 
L 2938 0 
L 2938 2094 
Q 2938 2591 2744 2837 
Q 2550 3084 2163 3084 
Q 1697 3084 1428 2787 
Q 1159 2491 1159 1978 
L 1159 0 
L 581 0 
L 581 4863 
L 1159 4863 
L 1159 2956 
Q 1366 3272 1645 3428 
Q 1925 3584 2291 3584 
Q 2894 3584 3203 3211 
Q 3513 2838 3513 2113 
z
" transform="scale(0.015625)"/>
      </defs>
      <use xlink:href="#DejaVuSans-68"/>
      <use xlink:href="#DejaVuSans-69" x="63.378906"/>
      <use xlink:href="#DejaVuSans-67" x="91.162109"/>
      <use xlink:href="#DejaVuSans-68" x="154.638672"/>
      <use xlink:href="#DejaVuSans-65" x="218.017578"/>
      <use xlink:href="#DejaVuSans-73" x="279.541016"/>
      <use xlink:href="#DejaVuSans-74" x="331.640625"/>
     </g>
    </g>
   </g>
  </g>
  <g id="axes_2">
   <g id="patch_8">
    <path d="M 394.363636 320.4 
L 648 320.4 
L 648 43.2 
L 394.363636 43.2 
z
" style="fill: #ffffff"/>
   </g>
   <g id="matplotlib.axis_3">
    <g id="xtick_9">
     <g id="line2d_86">
      <g>
       <use xlink:href="#med53335c20" x="405.892562" y="320.4" style="stroke: #000000; stroke-width: 0.8"/>
      </g>
     </g>
     <g id="text_24">
      <!-- 0 -->
      <g transform="translate(402.711312 334.998438)scale(0.1 -0.1)">
       <use xlink:href="#DejaVuSans-30"/>
      </g>
     </g>
    </g>
    <g id="xtick_10">
     <g id="line2d_87">
      <g>
       <use xlink:href="#med53335c20" x="438.096265" y="320.4" style="stroke: #000000; stroke-width: 0.8"/>
      </g>
     </g>
     <g id="text_25">
      <!-- 25 -->
      <g transform="translate(431.733765 334.998438)scale(0.1 -0.1)">
       <use xlink:href="#DejaVuSans-32"/>
       <use xlink:href="#DejaVuSans-35" x="63.623047"/>
      </g>
     </g>
    </g>
    <g id="xtick_11">
     <g id="line2d_88">
      <g>
       <use xlink:href="#med53335c20" x="470.299968" y="320.4" style="stroke: #000000; stroke-width: 0.8"/>
      </g>
     </g>
     <g id="text_26">
      <!-- 50 -->
      <g transform="translate(463.937468 334.998438)scale(0.1 -0.1)">
       <use xlink:href="#DejaVuSans-35"/>
       <use xlink:href="#DejaVuSans-30" x="63.623047"/>
      </g>
     </g>
    </g>
    <g id="xtick_12">
     <g id="line2d_89">
      <g>
       <use xlink:href="#med53335c20" x="502.503671" y="320.4" style="stroke: #000000; stroke-width: 0.8"/>
      </g>
     </g>
     <g id="text_27">
      <!-- 75 -->
      <g transform="translate(496.141171 334.998438)scale(0.1 -0.1)">
       <use xlink:href="#DejaVuSans-37"/>
       <use xlink:href="#DejaVuSans-35" x="63.623047"/>
      </g>
     </g>
    </g>
    <g id="xtick_13">
     <g id="line2d_90">
      <g>
       <use xlink:href="#med53335c20" x="534.707373" y="320.4" style="stroke: #000000; stroke-width: 0.8"/>
      </g>
     </g>
     <g id="text_28">
      <!-- 100 -->
      <g transform="translate(525.163623 334.998438)scale(0.1 -0.1)">
       <use xlink:href="#DejaVuSans-31"/>
       <use xlink:href="#DejaVuSans-30" x="63.623047"/>
       <use xlink:href="#DejaVuSans-30" x="127.246094"/>
      </g>
     </g>
    </g>
    <g id="xtick_14">
     <g id="line2d_91">
      <g>
       <use xlink:href="#med53335c20" x="566.911076" y="320.4" style="stroke: #000000; stroke-width: 0.8"/>
      </g>
     </g>
     <g id="text_29">
      <!-- 125 -->
      <g transform="translate(557.367326 334.998438)scale(0.1 -0.1)">
       <use xlink:href="#DejaVuSans-31"/>
       <use xlink:href="#DejaVuSans-32" x="63.623047"/>
       <use xlink:href="#DejaVuSans-35" x="127.246094"/>
      </g>
     </g>
    </g>
    <g id="xtick_15">
     <g id="line2d_92">
      <g>
       <use xlink:href="#med53335c20" x="599.114779" y="320.4" style="stroke: #000000; stroke-width: 0.8"/>
      </g>
     </g>
     <g id="text_30">
      <!-- 150 -->
      <g transform="translate(589.571029 334.998438)scale(0.1 -0.1)">
       <use xlink:href="#DejaVuSans-31"/>
       <use xlink:href="#DejaVuSans-35" x="63.623047"/>
       <use xlink:href="#DejaVuSans-30" x="127.246094"/>
      </g>
     </g>
    </g>
    <g id="xtick_16">
     <g id="line2d_93">
      <g>
       <use xlink:href="#med53335c20" x="631.318482" y="320.4" style="stroke: #000000; stroke-width: 0.8"/>
      </g>
     </g>
     <g id="text_31">
      <!-- 175 -->
      <g transform="translate(621.774732 334.998438)scale(0.1 -0.1)">
       <use xlink:href="#DejaVuSans-31"/>
       <use xlink:href="#DejaVuSans-37" x="63.623047"/>
       <use xlink:href="#DejaVuSans-35" x="127.246094"/>
      </g>
     </g>
    </g>
    <g id="text_32">
     <!-- iteration -->
     <g transform="translate(500.059162 348.676562)scale(0.1 -0.1)">
      <use xlink:href="#DejaVuSans-69"/>
      <use xlink:href="#DejaVuSans-74" x="27.783203"/>
      <use xlink:href="#DejaVuSans-65" x="66.992188"/>
      <use xlink:href="#DejaVuSans-72" x="128.515625"/>
      <use xlink:href="#DejaVuSans-61" x="169.628906"/>
      <use xlink:href="#DejaVuSans-74" x="230.908203"/>
      <use xlink:href="#DejaVuSans-69" x="270.117188"/>
      <use xlink:href="#DejaVuSans-6f" x="297.900391"/>
      <use xlink:href="#DejaVuSans-6e" x="359.082031"/>
     </g>
    </g>
   </g>
   <g id="matplotlib.axis_4">
    <g id="ytick_68">
     <g id="line2d_94">
      <g>
       <use xlink:href="#mb73ba11fb7" x="394.363636" y="249.799086" style="stroke: #000000; stroke-width: 0.8"/>
      </g>
     </g>
     <g id="text_33">
      <!-- $\mathdefault{10^{2}}$ -->
      <g transform="translate(369.763636 253.598304)scale(0.1 -0.1)">
       <use xlink:href="#DejaVuSans-31" transform="translate(0 0.765625)"/>
       <use xlink:href="#DejaVuSans-30" transform="translate(63.623047 0.765625)"/>
       <use xlink:href="#DejaVuSans-32" transform="translate(128.203125 39.046875)scale(0.7)"/>
      </g>
     </g>
    </g>
    <g id="ytick_69">
     <g id="line2d_95">
      <g>
       <use xlink:href="#mb73ba11fb7" x="394.363636" y="168.440098" style="stroke: #000000; stroke-width: 0.8"/>
      </g>
     </g>
     <g id="text_34">
      <!-- $\mathdefault{10^{3}}$ -->
      <g transform="translate(369.763636 172.239317)scale(0.1 -0.1)">
       <use xlink:href="#DejaVuSans-31" transform="translate(0 0.765625)"/>
       <use xlink:href="#DejaVuSans-30" transform="translate(63.623047 0.765625)"/>
       <use xlink:href="#DejaVuSans-33" transform="translate(128.203125 39.046875)scale(0.7)"/>
      </g>
     </g>
    </g>
    <g id="ytick_70">
     <g id="line2d_96">
      <g>
       <use xlink:href="#mb73ba11fb7" x="394.363636" y="87.081111" style="stroke: #000000; stroke-width: 0.8"/>
      </g>
     </g>
     <g id="text_35">
      <!-- $\mathdefault{10^{4}}$ -->
      <g transform="translate(369.763636 90.88033)scale(0.1 -0.1)">
       <use xlink:href="#DejaVuSans-31" transform="translate(0 0.684375)"/>
       <use xlink:href="#DejaVuSans-30" transform="translate(63.623047 0.684375)"/>
       <use xlink:href="#DejaVuSans-34" transform="translate(128.203125 38.965625)scale(0.7)"/>
      </g>
     </g>
    </g>
    <g id="ytick_71">
     <g id="line2d_97">
      <g>
       <use xlink:href="#m5688abc6d1" x="394.363636" y="306.666577" style="stroke: #000000; stroke-width: 0.6"/>
      </g>
     </g>
    </g>
    <g id="ytick_72">
     <g id="line2d_98">
      <g>
       <use xlink:href="#m5688abc6d1" x="394.363636" y="292.339971" style="stroke: #000000; stroke-width: 0.6"/>
      </g>
     </g>
    </g>
    <g id="ytick_73">
     <g id="line2d_99">
      <g>
       <use xlink:href="#m5688abc6d1" x="394.363636" y="282.175082" style="stroke: #000000; stroke-width: 0.6"/>
      </g>
     </g>
    </g>
    <g id="ytick_74">
     <g id="line2d_100">
      <g>
       <use xlink:href="#m5688abc6d1" x="394.363636" y="274.290581" style="stroke: #000000; stroke-width: 0.6"/>
      </g>
     </g>
    </g>
    <g id="ytick_75">
     <g id="line2d_101">
      <g>
       <use xlink:href="#m5688abc6d1" x="394.363636" y="267.848475" style="stroke: #000000; stroke-width: 0.6"/>
      </g>
     </g>
    </g>
    <g id="ytick_76">
     <g id="line2d_102">
      <g>
       <use xlink:href="#m5688abc6d1" x="394.363636" y="262.401752" style="stroke: #000000; stroke-width: 0.6"/>
      </g>
     </g>
    </g>
    <g id="ytick_77">
     <g id="line2d_103">
      <g>
       <use xlink:href="#m5688abc6d1" x="394.363636" y="257.683586" style="stroke: #000000; stroke-width: 0.6"/>
      </g>
     </g>
    </g>
    <g id="ytick_78">
     <g id="line2d_104">
      <g>
       <use xlink:href="#m5688abc6d1" x="394.363636" y="253.521869" style="stroke: #000000; stroke-width: 0.6"/>
      </g>
     </g>
    </g>
    <g id="ytick_79">
     <g id="line2d_105">
      <g>
       <use xlink:href="#m5688abc6d1" x="394.363636" y="225.30759" style="stroke: #000000; stroke-width: 0.6"/>
      </g>
     </g>
    </g>
    <g id="ytick_80">
     <g id="line2d_106">
      <g>
       <use xlink:href="#m5688abc6d1" x="394.363636" y="210.980984" style="stroke: #000000; stroke-width: 0.6"/>
      </g>
     </g>
    </g>
    <g id="ytick_81">
     <g id="line2d_107">
      <g>
       <use xlink:href="#m5688abc6d1" x="394.363636" y="200.816095" style="stroke: #000000; stroke-width: 0.6"/>
      </g>
     </g>
    </g>
    <g id="ytick_82">
     <g id="line2d_108">
      <g>
       <use xlink:href="#m5688abc6d1" x="394.363636" y="192.931594" style="stroke: #000000; stroke-width: 0.6"/>
      </g>
     </g>
    </g>
    <g id="ytick_83">
     <g id="line2d_109">
      <g>
       <use xlink:href="#m5688abc6d1" x="394.363636" y="186.489488" style="stroke: #000000; stroke-width: 0.6"/>
      </g>
     </g>
    </g>
    <g id="ytick_84">
     <g id="line2d_110">
      <g>
       <use xlink:href="#m5688abc6d1" x="394.363636" y="181.042765" style="stroke: #000000; stroke-width: 0.6"/>
      </g>
     </g>
    </g>
    <g id="ytick_85">
     <g id="line2d_111">
      <g>
       <use xlink:href="#m5688abc6d1" x="394.363636" y="176.324599" style="stroke: #000000; stroke-width: 0.6"/>
      </g>
     </g>
    </g>
    <g id="ytick_86">
     <g id="line2d_112">
      <g>
       <use xlink:href="#m5688abc6d1" x="394.363636" y="172.162882" style="stroke: #000000; stroke-width: 0.6"/>
      </g>
     </g>
    </g>
    <g id="ytick_87">
     <g id="line2d_113">
      <g>
       <use xlink:href="#m5688abc6d1" x="394.363636" y="143.948603" style="stroke: #000000; stroke-width: 0.6"/>
      </g>
     </g>
    </g>
    <g id="ytick_88">
     <g id="line2d_114">
      <g>
       <use xlink:href="#m5688abc6d1" x="394.363636" y="129.621996" style="stroke: #000000; stroke-width: 0.6"/>
      </g>
     </g>
    </g>
    <g id="ytick_89">
     <g id="line2d_115">
      <g>
       <use xlink:href="#m5688abc6d1" x="394.363636" y="119.457107" style="stroke: #000000; stroke-width: 0.6"/>
      </g>
     </g>
    </g>
    <g id="ytick_90">
     <g id="line2d_116">
      <g>
       <use xlink:href="#m5688abc6d1" x="394.363636" y="111.572607" style="stroke: #000000; stroke-width: 0.6"/>
      </g>
     </g>
    </g>
    <g id="ytick_91">
     <g id="line2d_117">
      <g>
       <use xlink:href="#m5688abc6d1" x="394.363636" y="105.130501" style="stroke: #000000; stroke-width: 0.6"/>
      </g>
     </g>
    </g>
    <g id="ytick_92">
     <g id="line2d_118">
      <g>
       <use xlink:href="#m5688abc6d1" x="394.363636" y="99.683778" style="stroke: #000000; stroke-width: 0.6"/>
      </g>
     </g>
    </g>
    <g id="ytick_93">
     <g id="line2d_119">
      <g>
       <use xlink:href="#m5688abc6d1" x="394.363636" y="94.965612" style="stroke: #000000; stroke-width: 0.6"/>
      </g>
     </g>
    </g>
    <g id="ytick_94">
     <g id="line2d_120">
      <g>
       <use xlink:href="#m5688abc6d1" x="394.363636" y="90.803894" style="stroke: #000000; stroke-width: 0.6"/>
      </g>
     </g>
    </g>
    <g id="ytick_95">
     <g id="line2d_121">
      <g>
       <use xlink:href="#m5688abc6d1" x="394.363636" y="62.589616" style="stroke: #000000; stroke-width: 0.6"/>
      </g>
     </g>
    </g>
    <g id="ytick_96">
     <g id="line2d_122">
      <g>
       <use xlink:href="#m5688abc6d1" x="394.363636" y="48.263009" style="stroke: #000000; stroke-width: 0.6"/>
      </g>
     </g>
    </g>
    <g id="text_36">
     <!-- GradNorm -->
     <g transform="translate(363.683949 207.60625)rotate(-90)scale(0.1 -0.1)">
      <defs>
       <path id="DejaVuSans-47" d="M 3809 666 
L 3809 1919 
L 2778 1919 
L 2778 2438 
L 4434 2438 
L 4434 434 
Q 4069 175 3628 42 
Q 3188 -91 2688 -91 
Q 1594 -91 976 548 
Q 359 1188 359 2328 
Q 359 3472 976 4111 
Q 1594 4750 2688 4750 
Q 3144 4750 3555 4637 
Q 3966 4525 4313 4306 
L 4313 3634 
Q 3963 3931 3569 4081 
Q 3175 4231 2741 4231 
Q 1884 4231 1454 3753 
Q 1025 3275 1025 2328 
Q 1025 1384 1454 906 
Q 1884 428 2741 428 
Q 3075 428 3337 486 
Q 3600 544 3809 666 
z
" transform="scale(0.015625)"/>
       <path id="DejaVuSans-64" d="M 2906 2969 
L 2906 4863 
L 3481 4863 
L 3481 0 
L 2906 0 
L 2906 525 
Q 2725 213 2448 61 
Q 2172 -91 1784 -91 
Q 1150 -91 751 415 
Q 353 922 353 1747 
Q 353 2572 751 3078 
Q 1150 3584 1784 3584 
Q 2172 3584 2448 3432 
Q 2725 3281 2906 2969 
z
M 947 1747 
Q 947 1113 1208 752 
Q 1469 391 1925 391 
Q 2381 391 2643 752 
Q 2906 1113 2906 1747 
Q 2906 2381 2643 2742 
Q 2381 3103 1925 3103 
Q 1469 3103 1208 2742 
Q 947 2381 947 1747 
z
" transform="scale(0.015625)"/>
       <path id="DejaVuSans-4e" d="M 628 4666 
L 1478 4666 
L 3547 763 
L 3547 4666 
L 4159 4666 
L 4159 0 
L 3309 0 
L 1241 3903 
L 1241 0 
L 628 0 
L 628 4666 
z
" transform="scale(0.015625)"/>
       <path id="DejaVuSans-6d" d="M 3328 2828 
Q 3544 3216 3844 3400 
Q 4144 3584 4550 3584 
Q 5097 3584 5394 3201 
Q 5691 2819 5691 2113 
L 5691 0 
L 5113 0 
L 5113 2094 
Q 5113 2597 4934 2840 
Q 4756 3084 4391 3084 
Q 3944 3084 3684 2787 
Q 3425 2491 3425 1978 
L 3425 0 
L 2847 0 
L 2847 2094 
Q 2847 2600 2669 2842 
Q 2491 3084 2119 3084 
Q 1678 3084 1418 2786 
Q 1159 2488 1159 1978 
L 1159 0 
L 581 0 
L 581 3500 
L 1159 3500 
L 1159 2956 
Q 1356 3278 1631 3431 
Q 1906 3584 2284 3584 
Q 2666 3584 2933 3390 
Q 3200 3197 3328 2828 
z
" transform="scale(0.015625)"/>
      </defs>
      <use xlink:href="#DejaVuSans-47"/>
      <use xlink:href="#DejaVuSans-72" x="77.490234"/>
      <use xlink:href="#DejaVuSans-61" x="118.603516"/>
      <use xlink:href="#DejaVuSans-64" x="179.882812"/>
      <use xlink:href="#DejaVuSans-4e" x="243.359375"/>
      <use xlink:href="#DejaVuSans-6f" x="318.164062"/>
      <use xlink:href="#DejaVuSans-72" x="379.345703"/>
      <use xlink:href="#DejaVuSans-6d" x="418.708984"/>
     </g>
    </g>
   </g>
   <g id="line2d_123">
    <path d="M 405.892562 56.139741 
L 407.18071 61.287456 
L 408.468858 68.425234 
L 409.757006 80.862021 
L 411.045154 97.475159 
L 412.333303 101.25153 
L 413.621451 103.737513 
L 414.909599 105.412796 
L 416.197747 112.941613 
L 417.485895 114.876778 
L 418.774043 118.144261 
L 420.062191 120.773104 
L 423.926636 127.557186 
L 425.214784 131.11124 
L 426.502932 131.212985 
L 427.79108 133.290992 
L 429.079228 135.851057 
L 430.367376 139.225073 
L 431.655524 141.287362 
L 434.23182 146.809425 
L 435.519969 148.49936 
L 436.808117 150.694167 
L 438.096265 151.891579 
L 439.384413 153.28432 
L 440.672561 155.162058 
L 441.960709 155.023365 
L 443.248857 155.632989 
L 444.537005 155.629062 
L 445.825154 158.47559 
L 447.113302 160.61108 
L 448.40145 161.864209 
L 449.689598 163.374515 
L 450.977746 165.136915 
L 452.265894 168.445266 
L 453.554042 169.644926 
L 454.84219 171.120301 
L 456.130338 172.813916 
L 457.418487 174.230354 
L 458.706635 173.399665 
L 459.994783 174.117941 
L 461.282931 175.165227 
L 462.571079 176.460317 
L 463.859227 177.942492 
L 465.147375 179.185912 
L 466.435523 181.015528 
L 467.723671 182.024993 
L 469.01182 183.286177 
L 470.299968 184.736851 
L 471.588116 185.750281 
L 472.876264 187.417718 
L 474.164412 188.38595 
L 475.45256 189.605386 
L 476.740708 191.022059 
L 478.028856 191.893508 
L 479.317004 193.412075 
L 480.605153 194.338097 
L 481.893301 195.512461 
L 483.181449 196.892169 
L 484.469597 197.681538 
L 485.757745 199.091763 
L 487.045893 199.977386 
L 488.334041 201.106997 
L 489.622189 202.450926 
L 490.910338 203.178777 
L 492.198486 204.507472 
L 493.486634 205.355155 
L 494.774782 206.441503 
L 496.06293 207.750838 
L 497.351078 208.430738 
L 498.639226 209.695977 
L 499.927374 210.508491 
L 501.215522 211.553502 
L 502.503671 212.829196 
L 503.791819 213.530153 
L 505.079967 214.428874 
L 506.368115 215.130351 
L 508.944411 217.711229 
L 510.232559 218.388986 
L 511.520707 219.258571 
L 512.808855 219.91839 
L 515.385152 222.414306 
L 516.6733 223.071059 
L 517.961448 223.912335 
L 519.249596 224.533082 
L 521.825892 226.950822 
L 523.11404 227.588983 
L 524.402188 228.402912 
L 525.690337 228.985813 
L 528.266633 231.330201 
L 529.554781 231.952326 
L 530.842929 232.739974 
L 532.131077 233.285539 
L 534.707373 235.560278 
L 535.995521 236.169004 
L 537.28367 236.931526 
L 538.571818 237.439969 
L 541.148114 239.648213 
L 542.436262 240.246193 
L 543.72441 240.984829 
L 545.012558 241.456334 
L 547.588855 243.601062 
L 548.877003 244.190896 
L 550.165151 244.906965 
L 551.453299 245.341851 
L 552.741447 246.412381 
L 554.029595 246.963468 
L 555.317743 248.010263 
L 556.605891 248.705146 
L 557.894039 249.103955 
L 559.182188 250.148574 
L 560.470336 250.697504 
L 561.758484 252.066924 
L 563.046632 253.949037 
L 564.33478 254.346559 
L 565.622928 255.668301 
L 566.911076 255.988245 
L 568.199224 257.572413 
L 569.487372 258.774014 
L 570.775521 257.990506 
L 572.063669 257.685044 
L 573.351817 258.155173 
L 574.639965 258.769709 
L 575.928113 259.235441 
L 577.216261 260.424351 
L 578.504409 261.176731 
L 579.792557 260.630785 
L 581.080705 262.983532 
L 582.368854 263.138837 
L 583.657002 264.393797 
L 584.94515 264.572074 
L 586.233298 265.575926 
L 587.521446 264.868098 
L 588.809594 264.668686 
L 590.097742 265.619266 
L 591.38589 266.031307 
L 592.674039 266.564851 
L 593.962187 268.480125 
L 595.250335 268.95166 
L 596.538483 269.640353 
L 597.826631 269.827513 
L 599.114779 271.058316 
L 600.402927 271.544091 
L 601.691075 271.70594 
L 602.979223 273.02384 
L 604.267372 274.761019 
L 605.55552 274.665917 
L 606.843668 275.631937 
L 608.131816 274.638217 
L 609.419964 275.001168 
L 610.708112 276.021107 
L 611.99626 276.65772 
L 613.284408 276.035213 
L 614.572556 278.518731 
L 615.860705 278.545189 
L 617.148853 279.743315 
L 618.437001 279.819353 
L 619.725149 281.331295 
L 621.013297 282.312973 
L 622.301445 281.505823 
L 623.589593 281.608617 
L 627.454038 282.846586 
L 628.742186 283.917795 
L 630.030334 284.455106 
L 631.318482 283.849898 
L 632.60663 286.379888 
L 633.894778 286.342589 
L 635.182926 287.492835 
L 636.471074 287.515031 
L 636.471074 287.515031 
" clip-path="url(#peb8a11679d)" style="fill: none; stroke: #1f77b4; stroke-width: 1.5; stroke-linecap: square"/>
   </g>
   <g id="line2d_124">
    <path d="M 405.892562 55.8 
L 407.18071 61.977954 
L 408.468858 68.725174 
L 409.757006 78.170697 
L 411.045154 100.283747 
L 412.333303 105.762184 
L 414.909599 110.435622 
L 416.197747 114.055262 
L 417.485895 115.779635 
L 418.774043 119.267991 
L 420.062191 122.155781 
L 421.350339 128.420803 
L 422.638487 131.355691 
L 423.926636 133.688312 
L 425.214784 136.593842 
L 426.502932 137.385355 
L 427.79108 139.247092 
L 429.079228 139.95043 
L 430.367376 141.576914 
L 431.655524 144.847648 
L 432.943672 145.623043 
L 434.23182 147.979406 
L 435.519969 148.349065 
L 436.808117 149.377212 
L 438.096265 149.376955 
L 439.384413 150.977439 
L 440.672561 152.395023 
L 443.248857 158.33797 
L 444.537005 162.139583 
L 445.825154 163.093658 
L 447.113302 163.199505 
L 448.40145 164.738521 
L 449.689598 166.635054 
L 452.265894 164.999691 
L 453.554042 166.417696 
L 454.84219 168.20513 
L 456.130338 169.419073 
L 457.418487 172.037736 
L 458.706635 175.622819 
L 459.994783 178.169813 
L 461.282931 178.141866 
L 462.571079 179.213362 
L 463.859227 181.38096 
L 465.147375 180.152607 
L 466.435523 179.086966 
L 467.723671 180.920184 
L 470.299968 183.577162 
L 471.588116 186.367405 
L 472.876264 189.910234 
L 474.164412 191.701434 
L 475.45256 191.934564 
L 476.740708 192.741641 
L 478.028856 194.973998 
L 479.317004 193.343597 
L 480.605153 192.149168 
L 481.893301 194.116551 
L 483.181449 194.760628 
L 484.469597 195.948532 
L 487.045893 201.185235 
L 488.334041 205.592942 
L 489.622189 205.816376 
L 490.910338 207.269685 
L 492.198486 205.389692 
L 493.486634 204.477276 
L 494.774782 204.857358 
L 496.06293 206.913718 
L 497.351078 209.453032 
L 498.639226 210.293651 
L 499.927374 212.69285 
L 501.215522 217.654871 
L 502.503671 217.78863 
L 503.791819 219.293482 
L 505.079967 217.070381 
L 506.368115 216.035451 
L 507.656263 216.080682 
L 508.944411 218.209087 
L 510.232559 220.799702 
L 511.520707 221.592481 
L 512.808855 223.868154 
L 514.097004 228.711598 
L 515.385152 228.816861 
L 516.6733 230.372809 
L 517.961448 227.88431 
L 519.249596 226.770684 
L 520.537744 226.621437 
L 521.825892 228.807002 
L 523.11404 229.481073 
L 524.402188 232.221858 
L 525.690337 234.402274 
L 526.978485 239.103599 
L 528.266633 240.194221 
L 529.554781 240.636284 
L 530.842929 238.179449 
L 532.131077 236.960775 
L 533.419225 236.450541 
L 534.707373 237.084429 
L 535.995521 239.750557 
L 538.571818 243.747365 
L 539.859966 248.045079 
L 541.148114 249.910203 
L 542.436262 250.017928 
L 543.72441 247.705521 
L 545.012558 246.41868 
L 546.300706 245.796008 
L 547.588855 246.389196 
L 548.877003 248.751249 
L 550.165151 249.526829 
L 551.453299 251.481 
L 552.741447 255.416609 
L 554.029595 257.154512 
L 555.317743 256.623754 
L 556.605891 257.07563 
L 557.894039 255.705077 
L 559.182188 254.837197 
L 560.470336 255.468447 
L 561.758484 258.064668 
L 563.046632 258.821191 
L 564.33478 260.721227 
L 565.622928 264.648902 
L 566.911076 266.524025 
L 568.199224 265.758148 
L 569.487372 265.982091 
L 570.775521 264.540861 
L 572.063669 263.432806 
L 573.351817 264.123757 
L 574.639965 266.723415 
L 575.928113 267.432743 
L 577.216261 269.310215 
L 578.504409 271.493554 
L 581.080705 273.872219 
L 582.368854 273.032529 
L 583.657002 273.132624 
L 584.94515 271.437468 
L 586.233298 272.291452 
L 587.521446 273.39906 
L 588.809594 276.14593 
L 590.097742 276.884862 
L 591.38589 279.07396 
L 592.674039 280.260471 
L 593.962187 282.073287 
L 595.250335 280.992678 
L 596.538483 281.039039 
L 597.826631 279.215619 
L 599.114779 280.116173 
L 600.402927 281.225621 
L 601.691075 283.964461 
L 602.979223 284.690654 
L 604.267372 286.872698 
L 605.55552 288.187819 
L 606.843668 289.866624 
L 608.131816 288.642152 
L 609.419964 288.657597 
L 610.708112 289.387489 
L 611.99626 287.439496 
L 613.284408 288.371799 
L 614.572556 289.02155 
L 615.860705 291.946468 
L 617.148853 292.678128 
L 618.437001 295.018264 
L 621.013297 297.867515 
L 622.301445 296.534408 
L 623.589593 296.537574 
L 624.877741 294.475505 
L 626.165889 295.31529 
L 627.454038 296.302454 
L 628.742186 299.097939 
L 630.030334 299.845912 
L 631.318482 302.169783 
L 632.60663 303.523929 
L 633.894778 305.05714 
L 635.182926 303.808289 
L 636.471074 304.136255 
L 636.471074 304.136255 
" clip-path="url(#peb8a11679d)" style="fill: none; stroke: #ff7f0e; stroke-width: 1.5; stroke-linecap: square"/>
   </g>
   <g id="line2d_125">
    <path d="M 405.892562 55.961316 
L 407.18071 61.235196 
L 408.468858 68.531599 
L 409.757006 80.968008 
L 411.045154 97.884408 
L 412.333303 101.515817 
L 413.621451 103.220598 
L 414.909599 106.030764 
L 416.197747 112.611679 
L 417.485895 114.911238 
L 418.774043 118.37468 
L 421.350339 123.430972 
L 422.638487 125.462563 
L 423.926636 127.852631 
L 425.214784 130.911099 
L 426.502932 131.122625 
L 427.79108 133.268164 
L 429.079228 135.681758 
L 430.367376 139.086091 
L 431.655524 140.946945 
L 434.23182 146.572687 
L 435.519969 148.075148 
L 436.808117 150.337429 
L 438.096265 151.634381 
L 440.672561 151.518406 
L 441.960709 153.122402 
L 443.248857 153.711039 
L 444.537005 155.001142 
L 445.825154 156.926562 
L 447.113302 157.620937 
L 448.40145 159.080447 
L 449.689598 161.24958 
L 450.977746 163.80491 
L 452.265894 165.175551 
L 453.554042 167.249993 
L 454.84219 168.861826 
L 456.130338 169.982898 
L 457.418487 171.6566 
L 458.706635 173.056358 
L 459.994783 174.764896 
L 461.282931 173.896969 
L 462.571079 174.803557 
L 465.147375 176.96463 
L 466.435523 178.544654 
L 467.723671 179.808684 
L 469.01182 181.625819 
L 470.299968 182.582888 
L 471.588116 183.999914 
L 474.164412 186.335319 
L 475.45256 187.926603 
L 476.740708 188.840594 
L 478.028856 190.197239 
L 479.317004 191.388765 
L 480.605153 192.358189 
L 481.893301 193.80553 
L 483.181449 194.676336 
L 485.757745 197.158659 
L 487.045893 198.021863 
L 488.334041 199.364326 
L 489.622189 200.195259 
L 492.198486 202.608174 
L 493.486634 203.391622 
L 494.774782 204.654365 
L 496.06293 205.449448 
L 498.639226 207.79119 
L 499.927374 208.513473 
L 501.215522 209.713279 
L 502.503671 210.476766 
L 505.079967 212.746575 
L 506.368115 213.409213 
L 507.656263 214.364461 
L 508.944411 215.103547 
L 511.520707 217.501453 
L 512.808855 218.146339 
L 514.097004 219.060616 
L 515.385152 219.751829 
L 517.961448 222.075139 
L 519.249596 222.70525 
L 520.537744 223.579432 
L 521.825892 224.228609 
L 524.402188 226.481906 
L 525.690337 227.100232 
L 526.978485 227.935528 
L 528.266633 228.546422 
L 530.842929 230.732924 
L 532.131077 231.342385 
L 533.419225 232.140285 
L 534.707373 232.715324 
L 537.28367 234.837578 
L 538.571818 235.440964 
L 539.859966 236.20321 
L 541.148114 236.744009 
L 543.72441 238.804359 
L 545.012558 239.404276 
L 546.300706 240.13282 
L 547.588855 240.640539 
L 548.877003 241.655646 
L 550.165151 242.221449 
L 551.453299 243.240229 
L 552.741447 243.937194 
L 554.029595 244.412769 
L 555.317743 245.397482 
L 556.605891 245.96512 
L 557.894039 247.306248 
L 559.182188 249.185482 
L 560.470336 249.671402 
L 561.758484 250.941694 
L 563.046632 251.346256 
L 564.33478 252.396829 
L 565.622928 251.727955 
L 566.911076 253.234229 
L 568.199224 252.856508 
L 569.487372 253.348366 
L 572.063669 254.449139 
L 573.351817 255.590569 
L 574.639965 256.408416 
L 575.928113 255.854005 
L 577.216261 258.199661 
L 578.504409 258.440768 
L 579.792557 259.662177 
L 581.080705 259.922298 
L 582.368854 260.889784 
L 583.657002 260.221233 
L 584.94515 259.939705 
L 586.233298 260.830867 
L 588.809594 261.794647 
L 590.097742 263.697904 
L 591.38589 264.19853 
L 592.674039 264.862526 
L 593.962187 265.144561 
L 595.250335 266.333359 
L 596.538483 266.849972 
L 597.826631 267.105599 
L 599.114779 268.376833 
L 600.402927 269.986063 
L 601.691075 269.808543 
L 602.979223 270.732303 
L 604.267372 269.777268 
L 605.55552 270.167422 
L 606.843668 271.135292 
L 608.131816 271.844675 
L 609.419964 271.210894 
L 610.708112 273.685541 
L 611.99626 273.808409 
L 613.284408 274.976277 
L 614.572556 275.141646 
L 615.860705 276.537464 
L 617.148853 277.484785 
L 618.437001 276.713194 
L 619.725149 276.716646 
L 623.589593 277.994889 
L 624.877741 279.00749 
L 626.165889 279.614771 
L 627.454038 279.001538 
L 628.742186 281.520818 
L 630.030334 281.577758 
L 631.318482 282.70665 
L 632.60663 282.815647 
L 633.894778 284.175273 
L 635.182926 285.159708 
L 636.471074 284.282295 
L 636.471074 284.282295 
" clip-path="url(#peb8a11679d)" style="fill: none; stroke: #2ca02c; stroke-width: 1.5; stroke-linecap: square"/>
   </g>
   <g id="line2d_126">
    <path d="M 405.892562 56.149971 
L 407.18071 61.261987 
L 408.468858 68.571652 
L 409.757006 81.030393 
L 411.045154 97.424813 
L 412.333303 101.051978 
L 413.621451 102.567831 
L 414.909599 104.895165 
L 416.197747 112.250292 
L 417.485895 114.51341 
L 418.774043 118.130183 
L 421.350339 122.858768 
L 423.926636 127.24825 
L 425.214784 130.707864 
L 426.502932 130.893158 
L 427.79108 133.007282 
L 429.079228 135.407135 
L 430.367376 138.598509 
L 431.655524 140.603808 
L 434.23182 146.261242 
L 435.519969 147.923469 
L 436.808117 150.25413 
L 439.384413 152.922992 
L 440.672561 154.901114 
L 441.960709 154.803226 
L 443.248857 155.344792 
L 444.537005 155.302877 
L 445.825154 158.092876 
L 447.113302 159.541981 
L 448.40145 160.742646 
L 450.977746 163.957375 
L 452.265894 166.406149 
L 453.554042 167.494253 
L 457.418487 171.78935 
L 458.706635 173.846069 
L 459.994783 174.901097 
L 462.571079 177.764717 
L 463.859227 178.865056 
L 465.147375 180.653449 
L 466.435523 181.66698 
L 469.01182 184.44344 
L 470.299968 185.384276 
L 471.588116 186.984578 
L 472.876264 187.954824 
L 475.45256 190.635857 
L 476.740708 191.47157 
L 478.028856 192.937828 
L 479.317004 193.865886 
L 481.893301 196.451523 
L 483.181449 197.215174 
L 484.469597 198.583895 
L 485.757745 199.47223 
L 488.334041 201.966124 
L 489.622189 202.677242 
L 490.910338 203.972846 
L 492.198486 204.824452 
L 494.774782 207.231278 
L 496.06293 207.901187 
L 497.351078 209.139884 
L 498.639226 209.957895 
L 499.927374 211.038452 
L 501.215522 212.282135 
L 502.503671 212.917203 
L 503.791819 214.109676 
L 505.079967 214.897218 
L 506.368115 215.931197 
L 507.656263 217.142729 
L 508.944411 217.829515 
L 510.232559 218.71933 
L 511.520707 219.380324 
L 514.097004 221.829712 
L 515.385152 222.497037 
L 516.6733 223.352527 
L 517.961448 223.978758 
L 520.537744 226.354992 
L 521.825892 227.005305 
L 523.11404 227.827819 
L 524.402188 228.420211 
L 526.978485 230.727586 
L 528.266633 231.36341 
L 529.554781 232.154379 
L 530.842929 232.71325 
L 533.419225 234.954923 
L 534.707373 235.578794 
L 535.995521 236.339731 
L 537.28367 236.865157 
L 539.859966 239.043709 
L 543.72441 240.882674 
L 546.300706 243.000492 
L 550.165151 244.772468 
L 551.453299 245.831977 
L 552.741447 246.40093 
L 554.029595 247.434638 
L 555.317743 248.115308 
L 556.605891 248.541379 
L 557.894039 249.573708 
L 559.182188 250.141108 
L 560.470336 251.465227 
L 561.758484 253.355245 
L 563.046632 253.785801 
L 564.33478 255.119951 
L 565.622928 255.472983 
L 566.911076 257.03646 
L 568.199224 258.239749 
L 569.487372 257.42022 
L 570.775521 257.082834 
L 574.639965 258.665259 
L 575.928113 259.816324 
L 577.216261 260.58243 
L 578.504409 260.032172 
L 579.792557 262.388801 
L 581.080705 262.588193 
L 582.368854 263.860347 
L 583.657002 264.074826 
L 584.94515 265.08483 
L 586.233298 264.336129 
L 587.521446 264.104803 
L 588.809594 265.030394 
L 591.38589 265.988439 
L 592.674039 267.908282 
L 593.962187 268.396822 
L 595.250335 269.038193 
L 596.538483 269.267939 
L 597.826631 270.50555 
L 599.114779 271.007264 
L 600.402927 271.212022 
L 602.979223 274.185232 
L 604.267372 274.065482 
L 605.55552 275.030317 
L 606.843668 274.043913 
L 608.131816 274.42088 
L 609.419964 275.409803 
L 610.708112 276.07152 
L 611.99626 275.437911 
L 613.284408 277.93105 
L 614.572556 278.014198 
L 615.860705 279.223055 
L 617.148853 279.344827 
L 618.437001 280.813192 
L 619.725149 281.800393 
L 621.013297 280.937977 
L 622.301445 281.013294 
L 626.165889 282.262171 
L 627.454038 283.301486 
L 628.742186 283.86676 
L 630.030334 283.249265 
L 631.318482 285.790489 
L 632.60663 285.812794 
L 633.894778 286.973785 
L 635.182926 287.044087 
L 636.471074 288.467154 
L 636.471074 288.467154 
" clip-path="url(#peb8a11679d)" style="fill: none; stroke: #d62728; stroke-width: 1.5; stroke-linecap: square"/>
   </g>
   <g id="line2d_127">
    <path d="M 405.892562 55.980981 
L 407.18071 62.1699 
L 408.468858 69.148229 
L 409.757006 80.095003 
L 411.045154 100.478 
L 412.333303 105.232799 
L 413.621451 109.482812 
L 414.909599 110.17089 
L 416.197747 113.166269 
L 417.485895 117.138455 
L 418.774043 119.251609 
L 420.062191 122.700331 
L 421.350339 128.131296 
L 423.926636 134.470721 
L 425.214784 138.311328 
L 426.502932 139.78539 
L 427.79108 142.315523 
L 430.367376 142.558982 
L 431.655524 144.652396 
L 432.943672 148.116148 
L 434.23182 147.775024 
L 435.519969 148.936659 
L 436.808117 151.147107 
L 438.096265 151.983685 
L 439.384413 153.146577 
L 443.248857 159.654098 
L 444.537005 159.750622 
L 445.825154 163.280337 
L 447.113302 165.195157 
L 448.40145 164.740461 
L 449.689598 165.681307 
L 450.977746 167.663563 
L 452.265894 169.978924 
L 453.554042 170.012522 
L 454.84219 172.22962 
L 456.130338 172.900437 
L 457.418487 174.844649 
L 458.706635 174.750029 
L 459.994783 177.722677 
L 461.282931 181.079922 
L 462.571079 180.586182 
L 463.859227 181.692419 
L 465.147375 183.90508 
L 466.435523 184.318683 
L 467.723671 183.739649 
L 469.01182 185.508784 
L 470.299968 186.808139 
L 471.588116 190.068737 
L 472.876264 190.030487 
L 474.164412 193.620009 
L 475.45256 194.104802 
L 476.740708 194.730524 
L 478.028856 196.70021 
L 479.317004 196.164416 
L 480.605153 198.21475 
L 481.893301 197.242361 
L 483.181449 198.70346 
L 484.469597 199.114307 
L 485.757745 201.669884 
L 487.045893 201.512154 
L 489.622189 207.313842 
L 490.910338 208.863664 
L 492.198486 210.978305 
L 493.486634 209.869581 
L 494.774782 210.20855 
L 496.06293 208.885662 
L 497.351078 210.012598 
L 498.639226 211.999729 
L 499.927374 214.454571 
L 501.215522 214.265156 
L 502.503671 217.639428 
L 503.791819 218.563991 
L 505.079967 219.940412 
L 506.368115 221.891702 
L 507.656263 223.358692 
L 508.944411 222.277148 
L 510.232559 220.497818 
L 511.520707 222.077034 
L 512.808855 223.297871 
L 514.097004 225.157951 
L 515.385152 226.389273 
L 516.6733 227.016207 
L 517.961448 227.208892 
L 519.249596 227.94448 
L 520.537744 229.47297 
L 523.11404 233.677532 
L 524.402188 232.605165 
L 525.690337 233.825392 
L 526.978485 233.299052 
L 528.266633 234.648821 
L 529.554781 236.596692 
L 532.131077 238.347958 
L 533.419225 238.284201 
L 534.707373 238.955179 
L 535.995521 241.096387 
L 537.28367 239.991885 
L 538.571818 242.958816 
L 539.859966 245.201425 
L 541.148114 246.280632 
L 542.436262 247.65636 
L 543.72441 250.29613 
L 545.012558 248.254497 
L 546.300706 247.600405 
L 547.588855 248.126332 
L 548.877003 251.347374 
L 550.165151 250.007794 
L 551.453299 253.359901 
L 552.741447 255.479421 
L 554.029595 256.626299 
L 555.317743 257.444911 
L 556.605891 260.138532 
L 557.894039 258.053155 
L 559.182188 257.28094 
L 560.470336 257.75654 
L 561.758484 261.057655 
L 563.046632 259.842098 
L 564.33478 262.288843 
L 565.622928 264.27501 
L 566.911076 265.371211 
L 568.199224 266.151825 
L 569.487372 268.981502 
L 570.775521 266.781916 
L 572.063669 268.18124 
L 573.351817 267.404295 
L 574.639965 268.066634 
L 575.928113 266.613072 
L 577.216261 267.422879 
L 578.504409 268.688369 
L 579.792557 270.329182 
L 581.080705 271.112669 
L 582.368854 273.270775 
L 583.657002 274.754279 
L 584.94515 278.353978 
L 586.233298 277.298589 
L 587.521446 277.968804 
L 588.809594 276.284128 
L 590.097742 277.133957 
L 591.38589 277.474912 
L 592.674039 279.300104 
L 593.962187 280.172839 
L 595.250335 282.435852 
L 596.538483 283.486827 
L 597.826631 286.724804 
L 599.114779 285.001678 
L 600.402927 286.039424 
L 601.691075 284.968517 
L 602.979223 285.470638 
L 604.267372 285.735819 
L 605.55552 287.904941 
L 606.843668 288.982515 
L 608.131816 291.002727 
L 609.419964 291.994627 
L 610.708112 295.374616 
L 611.99626 293.425278 
L 613.284408 294.306105 
L 614.572556 295.803638 
L 615.860705 294.44274 
L 618.437001 295.582934 
L 619.725149 296.749863 
L 621.013297 298.70261 
L 622.301445 299.518733 
L 623.589593 301.603346 
L 624.877741 300.606115 
L 626.165889 301.310221 
L 627.454038 301.289874 
L 630.030334 302.338189 
L 631.318482 301.065307 
L 632.60663 301.606571 
L 635.182926 306.535838 
L 636.471074 307.8 
L 636.471074 307.8 
" clip-path="url(#peb8a11679d)" style="fill: none; stroke: #9467bd; stroke-width: 1.5; stroke-linecap: square"/>
   </g>
   <g id="patch_9">
    <path d="M 394.363636 320.4 
L 394.363636 43.2 
" style="fill: none; stroke: #000000; stroke-width: 0.8; stroke-linejoin: miter; stroke-linecap: square"/>
   </g>
   <g id="patch_10">
    <path d="M 648 320.4 
L 648 43.2 
" style="fill: none; stroke: #000000; stroke-width: 0.8; stroke-linejoin: miter; stroke-linecap: square"/>
   </g>
   <g id="patch_11">
    <path d="M 394.363636 320.4 
L 648 320.4 
" style="fill: none; stroke: #000000; stroke-width: 0.8; stroke-linejoin: miter; stroke-linecap: square"/>
   </g>
   <g id="patch_12">
    <path d="M 394.363636 43.2 
L 648 43.2 
" style="fill: none; stroke: #000000; stroke-width: 0.8; stroke-linejoin: miter; stroke-linecap: square"/>
   </g>
   <g id="legend_2">
    <g id="patch_13">
     <path d="M 571.915625 124.590625 
L 641 124.590625 
Q 643 124.590625 643 122.590625 
L 643 50.2 
Q 643 48.2 641 48.2 
L 571.915625 48.2 
Q 569.915625 48.2 569.915625 50.2 
L 569.915625 122.590625 
Q 569.915625 124.590625 571.915625 124.590625 
z
" style="fill: #ffffff; opacity: 0.8; stroke: #cccccc; stroke-linejoin: miter"/>
    </g>
    <g id="line2d_128">
     <path d="M 573.915625 56.298437 
L 583.915625 56.298437 
L 593.915625 56.298437 
" style="fill: none; stroke: #1f77b4; stroke-width: 1.5; stroke-linecap: square"/>
    </g>
    <g id="text_37">
     <!-- RBCD -->
     <g transform="translate(601.915625 59.798437)scale(0.1 -0.1)">
      <use xlink:href="#DejaVuSans-52"/>
      <use xlink:href="#DejaVuSans-42" x="69.482422"/>
      <use xlink:href="#DejaVuSans-43" x="136.335938"/>
      <use xlink:href="#DejaVuSans-44" x="206.160156"/>
     </g>
    </g>
    <g id="line2d_129">
     <path d="M 573.915625 70.976562 
L 583.915625 70.976562 
L 593.915625 70.976562 
" style="fill: none; stroke: #ff7f0e; stroke-width: 1.5; stroke-linecap: square"/>
    </g>
    <g id="text_38">
     <!-- strong -->
     <g transform="translate(601.915625 74.476562)scale(0.1 -0.1)">
      <use xlink:href="#DejaVuSans-73"/>
      <use xlink:href="#DejaVuSans-74" x="52.099609"/>
      <use xlink:href="#DejaVuSans-72" x="91.308594"/>
      <use xlink:href="#DejaVuSans-6f" x="130.171875"/>
      <use xlink:href="#DejaVuSans-6e" x="191.353516"/>
      <use xlink:href="#DejaVuSans-67" x="254.732422"/>
     </g>
    </g>
    <g id="line2d_130">
     <path d="M 573.915625 85.654687 
L 583.915625 85.654687 
L 593.915625 85.654687 
" style="fill: none; stroke: #2ca02c; stroke-width: 1.5; stroke-linecap: square"/>
    </g>
    <g id="text_39">
     <!-- fast -->
     <g transform="translate(601.915625 89.154687)scale(0.1 -0.1)">
      <use xlink:href="#DejaVuSans-66"/>
      <use xlink:href="#DejaVuSans-61" x="35.205078"/>
      <use xlink:href="#DejaVuSans-73" x="96.484375"/>
      <use xlink:href="#DejaVuSans-74" x="148.583984"/>
     </g>
    </g>
    <g id="line2d_131">
     <path d="M 573.915625 100.332812 
L 583.915625 100.332812 
L 593.915625 100.332812 
" style="fill: none; stroke: #d62728; stroke-width: 1.5; stroke-linecap: square"/>
    </g>
    <g id="text_40">
     <!-- eco -->
     <g transform="translate(601.915625 103.832812)scale(0.1 -0.1)">
      <use xlink:href="#DejaVuSans-65"/>
      <use xlink:href="#DejaVuSans-63" x="61.523438"/>
      <use xlink:href="#DejaVuSans-6f" x="116.503906"/>
     </g>
    </g>
    <g id="line2d_132">
     <path d="M 573.915625 115.010937 
L 583.915625 115.010937 
L 593.915625 115.010937 
" style="fill: none; stroke: #9467bd; stroke-width: 1.5; stroke-linecap: square"/>
    </g>
    <g id="text_41">
     <!-- highest -->
     <g transform="translate(601.915625 118.510937)scale(0.1 -0.1)">
      <use xlink:href="#DejaVuSans-68"/>
      <use xlink:href="#DejaVuSans-69" x="63.378906"/>
      <use xlink:href="#DejaVuSans-67" x="91.162109"/>
      <use xlink:href="#DejaVuSans-68" x="154.638672"/>
      <use xlink:href="#DejaVuSans-65" x="218.017578"/>
      <use xlink:href="#DejaVuSans-73" x="279.541016"/>
      <use xlink:href="#DejaVuSans-74" x="331.640625"/>
     </g>
    </g>
   </g>
  </g>
 </g>
 <defs>
  <clipPath id="p4f62c76a40">
   <rect x="90" y="43.2" width="253.636364" height="277.2"/>
  </clipPath>
  <clipPath id="peb8a11679d">
   <rect x="394.363636" y="43.2" width="253.636364" height="277.2"/>
  </clipPath>
 </defs>
</svg>
